<svg id="Layer_1" data-name="Layer 1" xmlns="http://www.w3.org/2000/svg" viewBox="0 0 297.08 50.08"><defs><style>.cls-1{fill:#5aa7ac;}</style></defs><title>font01</title><path class="cls-1" d="M7.8,15.08a13.29,13.29,0,0,0-.1-1.5H6.24c0,.46-.08,1-.08,1.5H1A78.18,78.18,0,0,1,3.8,2h6.46A82.13,82.13,0,0,1,13,15.08Zm-.42-4.76c0-.5-.3-4-.36-4.46h-.1c-.06.44-.34,4-.36,4.46Z" transform="translate(-0.72 -1.2)"/><path class="cls-1" d="M13.42,2c1.74-.12,4.18-.2,5-.2,4.2,0,5.52.54,5.52,3.74a2.92,2.92,0,0,1-1.28,2.5,2.64,2.64,0,0,1,1.54,2.72c0,3.72-1.18,4.5-5.74,4.5-1.34,0-3.64-.12-5.06-.26Zm4.9,3V7.06h.32c.28,0,.4-.32.4-1.06s-.12-1-.44-1A1.14,1.14,0,0,0,18.32,5Zm0,6.92c.06,0,.16,0,.28,0,.36,0,.48-.28.48-1.16s-.16-1.08-.44-1.08h-.32Z" transform="translate(-0.72 -1.2)"/><path class="cls-1" d="M33.74,14.9a13.62,13.62,0,0,1-3.26.38c-4.12,0-5.76-2.4-5.76-6.84s1.56-6.62,5.72-6.62a16.53,16.53,0,0,1,3.3.34L33,6.44a7.39,7.39,0,0,0-1.64-.26c-1.22,0-1.58.48-1.58,2.26s.32,2.48,1.58,2.48A6.24,6.24,0,0,0,33,10.66Z" transform="translate(-0.72 -1.2)"/><path class="cls-1" d="M34.3,2c1.18-.14,3.3-.22,4.82-.22,4.88,0,6.18,1.64,6.18,6.5,0,5-1.16,7-6.22,7-1.08,0-3-.06-4.78-.22ZM39.3,6V11.1a1.41,1.41,0,0,0,.3,0c.42,0,.6-.52.6-2.7s-.18-2.5-.6-2.5A1.36,1.36,0,0,0,39.3,6Z" transform="translate(-0.72 -1.2)"/><path class="cls-1" d="M46,15.08V2H55.2v4.1H51v.6h3.34v3.6H51v.62H55.2v4.14Z" transform="translate(-0.72 -1.2)"/><path class="cls-1" d="M56,15.08V2h9V6.28H61V7.66h3.22V11.4H61v3.68Z" transform="translate(-0.72 -1.2)"/><path class="cls-1" d="M71.18,11.12V7.7h4.58v7a23.31,23.31,0,0,1-4.6.56c-4.5,0-5.94-1.66-5.94-7,0-4.86,1.58-6.6,5.94-6.6A20.34,20.34,0,0,1,76,2.36L75.2,6.44a13.27,13.27,0,0,0-3.1-.54c-1.42,0-1.78.34-1.78,2.4,0,2.28.14,2.84.6,2.84A1.05,1.05,0,0,0,71.18,11.12Z" transform="translate(-0.72 -1.2)"/><path class="cls-1" d="M82.76,10.7h-1v4.38h-5V2h5V6.5h1V2h5V15.08h-5Z" transform="translate(-0.72 -1.2)"/><path class="cls-1" d="M93.74,15.08h-5V2h5Z" transform="translate(-0.72 -1.2)"/><path class="cls-1" d="M100.28,11.38c0,2.84-.88,3.9-3.4,3.9a14,14,0,0,1-2.54-.22l.14-3.58a2.49,2.49,0,0,0,.42,0c.32,0,.38-.1.38-.74V2h5Z" transform="translate(-0.72 -1.2)"/><path class="cls-1" d="M112.76,2a51.74,51.74,0,0,1-1.46,6.34,67,67,0,0,1,1.48,6.74h-5.54c-.14-1.42-.36-3.34-.56-4.36l-.46.06v4.3h-5.1V2h5.1V6.94l.42-.08A48.88,48.88,0,0,0,107.18,2Z" transform="translate(-0.72 -1.2)"/><path class="cls-1" d="M121.8,15.08h-8.46V2h5v9.66h3.46Z" transform="translate(-0.72 -1.2)"/><path class="cls-1" d="M132.16,15.08V9H132l-.64,4H128l-.7-4h-.12v6.1h-4.8V2h6.26l1,4.8h.12l.92-4.8H137V15.08Z" transform="translate(-0.72 -1.2)"/><path class="cls-1" d="M144.7,12.24l-1.76-2.82v5.66h-5V2h4.36l2.4,4V2h5V15.08h-5Z" transform="translate(-0.72 -1.2)"/><path class="cls-1" d="M162.18,8.36c0,4.84-1.14,6.92-5.8,6.92s-5.8-2.08-5.8-6.92c0-4.58,1.34-6.66,5.8-6.66C161,1.7,162.18,3.78,162.18,8.36Zm-5.8,2.6c.42,0,.5-.3.5-2.58,0-2.08-.08-2.36-.5-2.36s-.5.28-.5,2.36C155.88,10.66,156,11,156.38,11Z" transform="translate(-0.72 -1.2)"/><path class="cls-1" d="M168,15.08h-5.1V1.4c1.24-.12,3.92-.2,5.16-.2,4.3,0,6,1,6,5.38,0,3.88-1.46,5.32-4.84,5.32-.28,0-1,0-1.26,0V8.14a1.24,1.24,0,0,0,.3,0c.5,0,.66-.08.66-1.68,0-1.24-.14-1.56-.56-1.56A1.52,1.52,0,0,0,168,5Z" transform="translate(-0.72 -1.2)"/><path class="cls-1" d="M186,8.16c0,4.44-.84,5.54-2.7,6.32,0,.2.12.28.3.28a3.7,3.7,0,0,0,.76-.1l.52,3a16.28,16.28,0,0,1-2.42.36c-2.46,0-3.06-.56-3.72-2.86-3.16-.38-4.34-2-4.34-7,0-4.78,1.12-7,5.78-7S186,3.38,186,8.16Zm-5.82,2.76c.44,0,.52-.38.52-2.74,0-2.6-.08-2.62-.52-2.62s-.48,0-.48,2.62C179.72,10.54,179.8,10.92,180.2,10.92Z" transform="translate(-0.72 -1.2)"/><path class="cls-1" d="M186.7,1.88c1-.08,4-.2,5.2-.2,4.1,0,5.9.84,5.9,4.94a5.8,5.8,0,0,1-.94,3.68,31,31,0,0,1,1,4.78h-5.22c0-.9-.28-2.78-.42-3.6h-.4v3.6h-5.1Zm5.1,3.64V8a2,2,0,0,0,.36,0c.38,0,.5-.22.5-1.24s-.08-1.34-.5-1.34A1.79,1.79,0,0,0,191.8,5.52Z" transform="translate(-0.72 -1.2)"/><path class="cls-1" d="M203.72,15.29a31.3,31.3,0,0,1-5.42-.76l.78-4.06a19.47,19.47,0,0,0,4.14.82c.48,0,.58,0,.58-.2s-.18-.2-.88-.32c-3.56-.66-4.52-1.6-4.52-4.34,0-3.58,1.68-4.72,5.12-4.72a26.22,26.22,0,0,1,5.32.74l-.74,4a19.47,19.47,0,0,0-4.1-.76c-.54,0-.6.06-.6.2s0,.16.9.3c3.68.6,4.5,1.36,4.5,4.54C208.8,14.26,207.3,15.29,203.72,15.29Z" transform="translate(-0.72 -1.2)"/><path class="cls-1" d="M217,15.08h-5.1V6.42h-2.7V2h9.34V6.42H217Z" transform="translate(-0.72 -1.2)"/><path class="cls-1" d="M230,10.7c0,3.2-1.86,4.58-5.52,4.58S219,13.9,219,10.7V2h5.1v8.64c0,.48.06.62.42.62s.42-.14.42-.62V2H230Z" transform="translate(-0.72 -1.2)"/><path class="cls-1" d="M237.38,2h5.8c-.56,4.24-1.54,9.16-2.4,13.08h-7.94c-.9-3.92-1.84-8.84-2.4-13.08h5.78c.12,3.16.32,5.48.56,9h.12C237.12,7.5,237.24,5.14,237.38,2Z" transform="translate(-0.72 -1.2)"/><path class="cls-1" d="M255.94,2h5.66a129.61,129.61,0,0,1-2.4,13.08h-6c-.16-.9-.52-3.92-.62-5.14h-.16c-.1,1.22-.4,4.28-.56,5.14h-6A119,119,0,0,1,243.26,2h5.32c.16,2.1.66,5.42,1.1,7.9h.14a24.8,24.8,0,0,1,.28-3.08A38.57,38.57,0,0,1,249.46,2H255c0,2.48.2,6.38.44,7.9h.1A76.33,76.33,0,0,0,255.94,2Z" transform="translate(-0.72 -1.2)"/><path class="cls-1" d="M267.24,15.08h-5.5l3.06-6.6L262,2h5.9l.86,4h0l.28-4h5.68l-2.9,6.68,3,6.4h-6.12l-.94-3.58h0Z" transform="translate(-0.72 -1.2)"/><path class="cls-1" d="M283.84,15.08h-5.1V10.7L274.88,2H281l.58,4.36h.12L282.14,2h5.52l-3.82,8.7Z" transform="translate(-0.72 -1.2)"/><path class="cls-1" d="M297.54,5.14l-4,6.12h4.26v3.82h-9.92V12l3.74-6.18H288V2h9.56Z" transform="translate(-0.72 -1.2)"/><path class="cls-1" d="M1.2,29.06c0-1.2,1.06-1.78,2.4-2l2.82-.38c0-.34-.1-.42-.68-.42a19,19,0,0,0-3.84.64l-.58-3.28a22.86,22.86,0,0,1,4.74-.78c4.06,0,4.9.92,4.9,5v5.24h-4l-.14-.94a2.33,2.33,0,0,1-2.12,1.14C2.08,33.29,1.2,31.88,1.2,29.06Zm5.22.38v-.28l-.56.18a.16.16,0,0,0-.06.14c0,.7.06.86.28.86S6.42,30.16,6.42,29.44Z" transform="translate(-0.72 -1.2)"/><path class="cls-1" d="M16.22,23.36a5,5,0,0,1,1.68-.48c2.82,0,3.78,1.16,3.78,5.14,0,4.46-1.54,5.26-5.28,5.26a45.67,45.67,0,0,1-4.72-.4V19.7l4.54-.28Zm0,3.14v3.42a.71.71,0,0,0,.28.06c.28,0,.46-.16.46-1.8s-.12-1.84-.42-1.84A.68.68,0,0,0,16.22,26.5Z" transform="translate(-0.72 -1.2)"/><path class="cls-1" d="M29.4,23.24,29,27a6.42,6.42,0,0,0-1.22-.18c-.66,0-.88.2-.88,1.24s.22,1.28.88,1.28A6,6,0,0,0,29,29.16l.4,3.78a13.44,13.44,0,0,1-2.84.34c-3.32,0-4.46-1.7-4.46-5.22s1.08-5.18,4.46-5.18A15.8,15.8,0,0,1,29.4,23.24Z" transform="translate(-0.72 -1.2)"/><path class="cls-1" d="M39.36,33.08h-3.9l-.26-.94a2.43,2.43,0,0,1-2.06,1.14c-2.62,0-3.78-1.54-3.78-5.12,0-3.94,1.26-5.28,4.26-5.28a5.81,5.81,0,0,1,1.2.18V19.7l4.54-.28Zm-4.54-3.44v-3.4a.74.74,0,0,0-.28-.08c-.32,0-.46.12-.46,1.82s.12,1.82.42,1.82A.68.68,0,0,0,34.82,29.64Z" transform="translate(-0.72 -1.2)"/><path class="cls-1" d="M49.66,27.12c0,1.5-.48,1.74-2.3,2l-2.84.36c0,.34.1.44.48.44a24.47,24.47,0,0,0,4-.64l.62,3.24a25.56,25.56,0,0,1-4.74.78c-3.54,0-5-1.12-5-5.2,0-3.34,1.46-5.2,4.94-5.2C48.18,22.88,49.66,23.9,49.66,27.12Zm-5.14-.18.5-.12c.1,0,.12-.08.12-.16,0-.58-.06-.66-.28-.66S44.52,26.12,44.52,26.94Z" transform="translate(-0.72 -1.2)"/><path class="cls-1" d="M55.2,33.08H50.62V26h-.76V23.1h.8c.18-3.08.94-3.68,3.7-3.68a19.19,19.19,0,0,1,2.62.16l-.24,3.3a11.33,11.33,0,0,0-1.16-.1c-.38,0-.44,0-.44.3h1.62v3H55.2Z" transform="translate(-0.72 -1.2)"/><path class="cls-1" d="M57.16,33.63c0-1,.84-1.56,1.86-2.14a1.1,1.1,0,0,1-.34-.72,1.67,1.67,0,0,1,.5-.8,3.14,3.14,0,0,1-1.84-3.06c0-2.76,1.4-4,4.8-4a6.75,6.75,0,0,1,2.16.3L67,22.34l.78,3-1.12.26A3.47,3.47,0,0,1,67,26.9c0,2.52-1.08,3.44-4,3.44-.2,0-.42,0-.64,0a.18.18,0,0,0-.06.14c0,.12.26.16,2.3.36,2.22.22,3,1.12,3,3,0,2.24-1.52,3.3-5.18,3.3S57.16,35.89,57.16,33.63Zm4.4-.32a1.32,1.32,0,0,0-.1.46c0,.32.26.48.9.48s.7-.12.7-.38-.22-.36-.8-.44A5.52,5.52,0,0,1,61.56,33.3Zm.92-6.46c0-.92-.08-1-.32-1s-.32.08-.32,1,.08.9.32.9S62.48,27.66,62.48,26.84Z" transform="translate(-0.72 -1.2)"/><path class="cls-1" d="M72.76,33.08H68.22V19.7l4.54-.28v3.94a6.79,6.79,0,0,1,1.9-.48c2.88,0,3.3,1.28,3.3,4.14v6.06H73.42V26.84c0-.72-.12-.86-.36-.86a.72.72,0,0,0-.3.12Z" transform="translate(-0.72 -1.2)"/><path class="cls-1" d="M80.94,18.76c1.88,0,2.46.52,2.46,1.92s-.58,1.9-2.46,1.9-2.44-.5-2.44-1.9S79.06,18.76,80.94,18.76Zm2.28,14.32H78.68v-10h4.54Z" transform="translate(-0.72 -1.2)"/><path class="cls-1" d="M88.54,32.3c0,3.44-.52,4.58-3.38,4.58a14.53,14.53,0,0,1-2.52-.3l.38-3a3.1,3.1,0,0,0,.58.08c.34,0,.4-.16.4-1.36V23.08h4.54ZM86.2,18.78c1.88,0,2.4.56,2.4,1.88s-.52,1.86-2.4,1.86-2.38-.54-2.38-1.86S84.32,18.78,86.2,18.78Z" transform="translate(-0.72 -1.2)"/><path class="cls-1" d="M99.64,23.08A41,41,0,0,1,98.3,27.9c.5,1.56,1,3.4,1.38,5.18h-5c-.16-1.18-.4-2.68-.64-3.82l-.32.12v3.7H89.2V19.7l4.54-.28V26.9l.34-.1c.16-1,.4-2.78.5-3.72Z" transform="translate(-0.72 -1.2)"/><path class="cls-1" d="M100,33.08V19.7l4.54-.28V33.08Z" transform="translate(-0.72 -1.2)"/><path class="cls-1" d="M109.76,33.08h-4.52v-10h4.22l.1.62a6,6,0,0,1,2.64-.82,2.46,2.46,0,0,1,2.08.82,6.63,6.63,0,0,1,2.74-.82c2.78,0,3.14,1.16,3.14,4.14v6.06h-4.54V27.26c0-.94-.1-1.26-.38-1.26a.94.94,0,0,0-.34.08,9.94,9.94,0,0,1,.06,1.16v5.84h-4.54V27.26c0-1-.08-1.26-.34-1.26a.86.86,0,0,0-.32.1Z" transform="translate(-0.72 -1.2)"/><path class="cls-1" d="M125.42,33.08h-4.54v-10h4.34l.08.62a4.92,4.92,0,0,1,2.36-.82c2.74,0,3,1.18,3,4v6.16h-4.54V26.84c0-.72-.12-.86-.36-.86a.72.72,0,0,0-.3.12Z" transform="translate(-0.72 -1.2)"/><path class="cls-1" d="M141.4,28.06c0,3.74-1.48,5.22-5.12,5.22s-5.1-1.48-5.1-5.22,1.48-5.18,5.1-5.18S141.4,24.32,141.4,28.06Zm-5.12,2.36c.36,0,.4-.34.4-2.36s0-2.32-.4-2.32-.38.32-.38,2.32S135.94,30.42,136.28,30.42Z" transform="translate(-0.72 -1.2)"/><path class="cls-1" d="M142,23.08h4.44l0,.68a5.28,5.28,0,0,1,.92-.58,2.6,2.6,0,0,1,1.1-.3c2.62,0,3.5,1.16,3.5,5.22s-1.36,5.18-3.76,5.18a7.28,7.28,0,0,1-1.7-.26v3.66H142Zm4.54,3V30.4a.74.74,0,0,0,.28.08c.28,0,.46-.26.46-2.3s-.12-2.28-.42-2.28A.69.69,0,0,0,146.5,26.06Z" transform="translate(-0.72 -1.2)"/><path class="cls-1" d="M157.82,32.67a2.71,2.71,0,0,1-1.68.62c-2.82,0-3.78-1.36-3.78-5.22,0-3.64,1.56-5.16,5.36-5.16,1.16,0,3.34.16,4.64.28v13.5h-4.54Zm0-2.56V25.78a.75.75,0,0,0-.28-.08c-.28,0-.46.24-.46,2.28s.12,2.28.42,2.28A.68.68,0,0,0,157.82,30.1Z" transform="translate(-0.72 -1.2)"/><path class="cls-1" d="M170,27.38a6,6,0,0,0-2.4.68v5h-4.54v-10h4.3l.18.8a4.88,4.88,0,0,1,2.46-1Z" transform="translate(-0.72 -1.2)"/><path class="cls-1" d="M170.9,29.66a14.53,14.53,0,0,0,3.44.72c.34,0,.46-.06.46-.24s-.12-.28-.58-.38c-3.26-.7-3.8-1.16-3.8-3.56,0-2.8,1.82-3.32,4.62-3.32a23.37,23.37,0,0,1,4.32.52l-.5,3a16.1,16.1,0,0,0-3.4-.58c-.32,0-.44,0-.44.24s.12.26.68.38c3.16.68,3.7,1.1,3.7,3.32,0,2.9-1.68,3.56-4.58,3.56a20.29,20.29,0,0,1-4.52-.62Z" transform="translate(-0.72 -1.2)"/><path class="cls-1" d="M180.52,28.92V26h-.92V23.1h.92V21.2l4.54-.6v2.48h1.82v3h-1.82v2.68c0,1.5,0,1.56.44,1.56a3.88,3.88,0,0,0,1-.16l.38,2.74a12.73,12.73,0,0,1-3,.42C180.9,33.29,180.52,31.94,180.52,28.92Z" transform="translate(-0.72 -1.2)"/><path class="cls-1" d="M192.56,23.08h4.54v10h-4.36l-.06-.64a4.74,4.74,0,0,1-2.36.84c-2.74,0-3-1.18-3-4V23.08h4.54v6.24c0,.72.12.86.36.86a.73.73,0,0,0,.3-.12Z" transform="translate(-0.72 -1.2)"/><path class="cls-1" d="M202.46,29.7c.26,0,.5-6.14.5-6.62h4.88a59.09,59.09,0,0,1-2.2,10h-6.4a59.32,59.32,0,0,1-2.08-10H202C202,24.12,202.32,28.48,202.46,29.7Z" transform="translate(-0.72 -1.2)"/><path class="cls-1" d="M218.54,23.08h4.88a59.21,59.21,0,0,1-2.18,10h-5.18c-.16-1.54-.32-3.5-.4-5-.08,0-.48,4.42-.56,5h-5.38a57.45,57.45,0,0,1-2.08-10h4.88c0,.44.26,6.82.52,6.82a33.17,33.17,0,0,1,.4-3.3c-.12-1-.3-2.6-.34-3.52h4.58c0,1,.22,5.6.36,6.82C218.3,29.9,218.54,23.58,218.54,23.08Z" transform="translate(-0.72 -1.2)"/><path class="cls-1" d="M228.68,23.08l.26,3H229l.36-3h4.74L232.18,28l2.12,5.08H229l-.32-2.9-.08,0-.36,2.92H223.3L225.46,28l-2-4.92Z" transform="translate(-0.72 -1.2)"/><path class="cls-1" d="M239.06,23.08c0,.94.26,5.46.42,7.16.28,0,.5-7.16.5-7.16h4.88a47.26,47.26,0,0,1-2.74,11c-1.06,2.64-2.14,3.12-7.08,3.2V33.54c1.24,0,1.26-.12,1.4-.64a37,37,0,0,1-2.26-9.82Z" transform="translate(-0.72 -1.2)"/><path class="cls-1" d="M245.16,23.08h8.18l.26,2.26-2.82,4.72h2.82v3h-8.3L245,30.9l3.06-4.82h-2.94Z" transform="translate(-0.72 -1.2)"/><path class="cls-1" d="M10.94,44.88c0,3.9-.74,6.36-5.12,6.36S.72,48.78.72,44.88s.74-6.44,5.1-6.44S10.94,41,10.94,44.88ZM5.82,48.4c.62,0,.68-1.44.68-3.52s-.06-3.62-.68-3.62-.68,1.52-.68,3.62S5.2,48.4,5.82,48.4Zm-.38-3.78.34-.2L6.1,45l-.34.2Z" transform="translate(-0.72 -1.2)"/><path class="cls-1" d="M12.28,51.08V48.26h2.64V42.82l-1.8.88-1.26-2.84,4.46-2.24h3v9.64H21.6v2.82Z" transform="translate(-0.72 -1.2)"/><path class="cls-1" d="M29.44,47.46v0c-.84.92.12-.12-.72.8h4l-.24,2.84H22.9v-1.9l3.38-3.7c1.3-1.42,1.42-1.76,1.42-3.22,0-.7-.14-1-.4-1a30.17,30.17,0,0,0-3.44,1.36L22.74,39.8a15.08,15.08,0,0,1,4.62-1.36c3.08,0,4.76,1.18,4.76,3.82C32.12,44.34,32,44.82,29.44,47.46Z" transform="translate(-0.72 -1.2)"/><path class="cls-1" d="M34.68,43.32h2.9c.52-.18.72-.46.72-1.14s-.12-.92-.42-.92a22.82,22.82,0,0,0-3.8,1.26l-.9-2.9a16.17,16.17,0,0,1,4.7-1.18c3.38,0,4.84,1,4.84,3.74a3,3,0,0,1-.8,2.2,2.73,2.73,0,0,1,1.2,2.6c0,3-1.7,4.3-5.18,4.3a30.23,30.23,0,0,1-4.88-.76l.52-2.92c1.2.28,2.72.62,3.66.76.3,0,.56.08.7.08.52,0,.76-.42.76-1.44s-.66-.88-1.92-.88h-2.1Z" transform="translate(-0.72 -1.2)"/><path class="cls-1" d="M54.64,48.76H53v2.32h-4.4V48.76H44V47.08l2.86-8.5h4.48l-1.32,4H53v3.38h1.68Z" transform="translate(-0.72 -1.2)"/><path class="cls-1" d="M59.48,51.26a29.52,29.52,0,0,1-4.6-.68l.52-2.94a38,38,0,0,0,4.08.8c.6,0,.9-.66.9-1.8,0-1-.16-1.38-.56-1.38A12,12,0,0,0,58,46.32l-2.72-.94.2-6.8h8.94v2.84H59.8c0,.2,0,.3-4.1,4.86l4.22-3.84c3.28,0,4.88,1.4,4.88,4.16C64.8,49.54,62.94,51.26,59.48,51.26Z" transform="translate(-0.72 -1.2)"/><path class="cls-1" d="M70.6,51.26c-3.72,0-5-2.22-5-5.28,0-4.8,1.3-7.54,5.56-7.54a21.53,21.53,0,0,1,4.42.74L75,42.08a28.85,28.85,0,0,0-3.86-.82c-.42,0-.68.46-.84,1.26h.24c3.32,0,5.06,1.42,5.06,4.12C75.64,49.58,74.12,51.26,70.6,51.26Zm0-5.9a1.35,1.35,0,0,0-.54.24v1c0,1.1.2,1.88.56,1.88a.34.34,0,0,0,.2-.06c.3-.18.4-.78.4-1.74S71,45.36,70.58,45.36Z" transform="translate(-0.72 -1.2)"/><path class="cls-1" d="M76.58,38.58h9.86v1.58L82.12,51.08H77.6l3.84-9.66H76.58Z" transform="translate(-0.72 -1.2)"/><path class="cls-1" d="M92.24,51.26c-3.66,0-5.24-1.18-5.24-4a3.15,3.15,0,0,1,1.28-2.7,2.89,2.89,0,0,1-1-2.46c0-2.64,2-3.64,4.92-3.64s5.12.76,5.12,3.58a3,3,0,0,1-1,2.76,2.63,2.63,0,0,1,1.12,2.44C97.46,50,95.92,51.26,92.24,51.26Zm-.48-5.16a1.58,1.58,0,0,0-.34,1.08c0,.88.22,1.26.82,1.26s.8-.36.8-1.26C93,46.68,92.86,46.44,91.76,46.1Zm.48-4.86c-.32,0-.5.22-.5.84s0,.9,1,1.24a2.29,2.29,0,0,0,.2-1.26C92.92,41.44,92.68,41.24,92.24,41.24Z" transform="translate(-0.72 -1.2)"/><path class="cls-1" d="M103,38.44c4,0,5,2.14,5,5.48,0,5-1.28,7.34-5.52,7.34a22.68,22.68,0,0,1-4.66-.82l.74-2.94c1.08.32,2.26.62,3.06.8a6,6,0,0,0,.86.14c.44,0,.7-.44.86-1.26h-.28C99.8,47.18,98,45.72,98,43S99.6,38.44,103,38.44Zm.1,5.9s.54-.06.54-.4c0-1.6-.12-2.68-.64-2.68s-.52.66-.52,1.7S102.66,44.34,103.06,44.34Z" transform="translate(-0.72 -1.2)"/></svg>