<svg id="Layer_1" data-name="Layer 1" xmlns="http://www.w3.org/2000/svg" viewBox="0 0 282.78 50.12"><defs><style>.cls-1{fill:#5aa7ac;}</style></defs><title>font02</title><path class="cls-1" d="M9.18,15.26c-.12-.68-.36-1.78-.54-2.52H4.8c-.2.8-.42,1.78-.56,2.52H1.3A100.42,100.42,0,0,1,4.9,1.9H8.58a101.68,101.68,0,0,1,3.56,13.36Zm-.8-4.48C8,9.38,7.2,5.48,6.74,4.1H6.66C6.24,5.48,5.4,9.36,5,10.78Z" transform="translate(-1.28 -1.38)"/><path class="cls-1" d="M13.4,1.88c1.36-.1,3.2-.16,4.1-.16,3.78,0,5.1.72,5.1,3.62A2.66,2.66,0,0,1,20.8,8.1a2.75,2.75,0,0,1,2.12,3c0,3.42-1.3,4.26-5.38,4.26-1.32,0-3-.1-4.14-.22ZM16.22,3.7V7.48h1.62a1.7,1.7,0,0,0,1.94-1.92c0-1.46-.6-1.92-2.2-1.92C17.1,3.64,16.68,3.66,16.22,3.7Zm0,9.6c.34,0,.84.08,1.38.08,1.78,0,2.38-.56,2.38-2.24s-.78-2-2.14-2H16.22Z" transform="translate(-1.28 -1.38)"/><path class="cls-1" d="M32.76,15.06a12.75,12.75,0,0,1-3.14.4c-3.48,0-5.36-1.92-5.36-7,0-4.76,1.66-6.74,5.34-6.74a15,15,0,0,1,3.12.36L32.3,4.52a9.76,9.76,0,0,0-2.22-.3c-2,0-2.88,1-2.88,4.22,0,3.52,1,4.5,2.88,4.5a8.77,8.77,0,0,0,2.24-.32Z" transform="translate(-1.28 -1.38)"/><path class="cls-1" d="M34.1,1.88c1.2-.12,2.58-.18,3.92-.18,4.28,0,5.9,1.56,5.9,6.62,0,5.3-1.68,7.16-5.94,7.16-1.12,0-2.38,0-3.88-.18ZM37,4.14V13a10.55,10.55,0,0,0,1.2.06C40,13.06,41,12,41,8.38s-.9-4.3-2.78-4.3C37.72,4.08,37.42,4.1,37,4.14Z" transform="translate(-1.28 -1.38)"/><path class="cls-1" d="M45.56,15.26V1.9H53.8V4.28H48.42V7.42h4.36V9.56H48.42v3.3h5.42v2.4Z" transform="translate(-1.28 -1.38)"/><path class="cls-1" d="M55.5,15.26V1.9h8.08V4.36H58.36V8h4.3v2.2h-4.3v5.06Z" transform="translate(-1.28 -1.38)"/><path class="cls-1" d="M71.62,12.9V8.34h2.64V15a20.87,20.87,0,0,1-4.12.48c-3.66,0-5.46-1.54-5.46-7.08,0-5,1.68-6.74,5.46-6.74a17.9,17.9,0,0,1,4.2.6L73.86,4.6a14.56,14.56,0,0,0-3.24-.52c-2.12,0-3,1-3,4.3,0,3.6.9,4.68,2.4,4.68A8.34,8.34,0,0,0,71.62,12.9Z" transform="translate(-1.28 -1.38)"/><path class="cls-1" d="M83.22,9.86H79.06v5.4H76.2V1.88h2.86V7.42h4.16V1.88h2.86V15.26H83.22Z" transform="translate(-1.28 -1.38)"/><path class="cls-1" d="M91,15.26H88.1V1.88H91Z" transform="translate(-1.28 -1.38)"/><path class="cls-1" d="M96.46,11.92c0,2.76-.76,3.56-2.66,3.56a10.91,10.91,0,0,1-1.7-.16l.12-2.1a5.05,5.05,0,0,0,.6.06c.56,0,.78-.28.78-1.66V1.88h2.86Z" transform="translate(-1.28 -1.38)"/><path class="cls-1" d="M108,1.88a71.61,71.61,0,0,1-3.1,6.5c1.06,2,2.12,4.52,3.18,6.88h-3.22c-.88-2-1.76-4-2.56-5.48l-1,.14v5.34h-2.9V1.88h2.9V7.66l1-.14a51.91,51.91,0,0,0,2.54-5.64Z" transform="translate(-1.28 -1.38)"/><path class="cls-1" d="M116.82,15.26h-7.44V1.88h2.86V13.22h4.58Z" transform="translate(-1.28 -1.38)"/><path class="cls-1" d="M128.48,15.26V6.08h-.08l-2.68,6.78h-2L121,6.1h-.06v9.16h-2.76V1.88h3.52l3,7.4h.08l2.92-7.4h3.54V15.26Z" transform="translate(-1.28 -1.38)"/><path class="cls-1" d="M140.9,12.36l-4.82-6.24v9.14h-2.86V1.88h2.54l5.14,6.84V1.88h2.86V15.26H140.9Z" transform="translate(-1.28 -1.38)"/><path class="cls-1" d="M156.22,8.52c0,4.64-1.14,6.94-5.36,6.94s-5.36-2.3-5.36-6.94,1.24-6.88,5.36-6.88S156.22,4,156.22,8.52ZM150.86,13c1.88,0,2.32-1.3,2.32-4.44s-.44-4.38-2.32-4.38-2.32,1.34-2.32,4.38S149,13,150.86,13Z" transform="translate(-1.28 -1.38)"/><path class="cls-1" d="M160.78,15.26h-2.92V1.58c1.24-.12,3.08-.2,4.22-.2,3.76,0,5.36,1,5.36,4.84,0,3.56-1.52,4.84-4.8,4.84-.42,0-1,0-1.26,0V8.82a3.66,3.66,0,0,0,.7,0c1.7,0,2.42-.46,2.42-2.7,0-2-.7-2.58-2.34-2.58-.36,0-1,0-1.38.08Z" transform="translate(-1.28 -1.38)"/><path class="cls-1" d="M179.4,8.42c0,4.44-1,6.12-3.46,6.62.18.74.32,1,.8,1a4.94,4.94,0,0,0,1.08-.16l.32,1.84a11.69,11.69,0,0,1-2,.28c-1.76,0-2.24-.52-2.8-2.62-3.46-.18-4.62-2.24-4.62-7s1.12-7,5.34-7S179.4,3.78,179.4,8.42ZM174,12.94c1.88,0,2.34-1.34,2.34-4.52S175.9,3.9,174,3.9s-2.3,1.22-2.3,4.52S172.16,12.94,174,12.94Z" transform="translate(-1.28 -1.38)"/><path class="cls-1" d="M181,1.82c1.08-.1,3.08-.2,4.2-.2,3.64,0,5.32.86,5.32,4.5,0,1.84-.44,3-1.64,3.8a52.23,52.23,0,0,1,1.74,5.34h-3c-.36-1.34-.94-3.38-1.42-4.64a7.46,7.46,0,0,1-1,.08c-.48,0-.8,0-1.28-.08v4.64H181Zm2.92,2.12V8.56a12.09,12.09,0,0,0,1.22.08c1.62,0,2.44-.46,2.44-2.42s-.68-2.36-2.3-2.36C184.88,3.86,184.26,3.9,183.92,3.94Z" transform="translate(-1.28 -1.38)"/><path class="cls-1" d="M196.42,15.46a26.43,26.43,0,0,1-4.44-.58l.46-2.38a19.22,19.22,0,0,0,3.72.62c1.32,0,2-.4,2-1.56s-.34-1.46-2.08-1.84c-3.26-.66-4.08-1.48-4.08-4,0-3.1,1.52-4.08,4.56-4.08a23,23,0,0,1,4.34.58l-.44,2.32a18.8,18.8,0,0,0-3.66-.6c-1.38,0-1.92.28-1.92,1.48,0,1,.26,1.28,2,1.66,3.4.66,4.12,1.32,4.12,4.22C201.06,14.44,199.56,15.46,196.42,15.46Z" transform="translate(-1.28 -1.38)"/><path class="cls-1" d="M208.48,15.26h-2.92V4.44H202V1.88h8.84V4.44h-2.36Z" transform="translate(-1.28 -1.38)"/><path class="cls-1" d="M221.78,11.28c0,2.9-1.7,4.18-4.94,4.18s-4.94-1.28-4.94-4.18V1.88h2.9v9.34c0,1.32.68,1.9,2,1.9s2-.56,2-1.9V1.88h2.92Z" transform="translate(-1.28 -1.38)"/><path class="cls-1" d="M230.76,1.88H234c-.74,3.94-2.06,9.06-3.28,13.38H226.3C225,10.94,223.78,5.84,223,1.88h3.26c.58,3.66,1.4,7.08,2.22,11h.08C229.38,9,230.16,5.5,230.76,1.88Z" transform="translate(-1.28 -1.38)"/><path class="cls-1" d="M248,1.88h3.18a109.31,109.31,0,0,1-3,13.38h-3.54c-.54-1.74-1.1-4.56-1.46-6.24-.1.24-.2.52-.34.82-.36,1.48-.94,4.06-1.46,5.42H237.8a123.25,123.25,0,0,1-3.08-13.38h3c.54,3.2,1.36,7,2.26,10.48h.1c.58-1.7,1.18-3.8,1.64-5.36-.34-1.34-.82-3.76-1-5.12h3.14a100.12,100.12,0,0,0,2.06,10.48H246A78.2,78.2,0,0,0,248,1.88Z" transform="translate(-1.28 -1.38)"/><path class="cls-1" d="M255,15.26h-3.2l3.56-6.84-3.24-6.54h3.4l2.08,5h0l1.78-5h3.28l-3.3,6.64,3.54,6.74h-3.52l-2.28-5h0Z" transform="translate(-1.28 -1.38)"/><path class="cls-1" d="M270.28,15.26h-2.92V10l-4-8.1h3.5L269,7.44H269l2-5.56h3.16L270.28,10Z" transform="translate(-1.28 -1.38)"/><path class="cls-1" d="M283.78,3.74,278.38,13h5.68v2.24h-8.92V13.42l5.28-9.28h-5.24V1.88h8.6Z" transform="translate(-1.28 -1.38)"/><path class="cls-1" d="M1.7,29.38c0-.94.74-1.4,1.76-1.54l4-.56c0-1.68-.14-2.16-1.74-2.16a15.44,15.44,0,0,0-3.44.54L1.9,23.72a17.12,17.12,0,0,1,4-.62c3.64,0,4.14,1.12,4.14,5v5.12H7.72l-.06-1.4a2.41,2.41,0,0,1-2.56,1.6C2.54,33.46,1.7,32.22,1.7,29.38Zm5.76-.28v-.28l-2.84.46a.31.31,0,0,0-.26.34c0,1.58.34,2.06,1.44,2.06C7.08,31.68,7.46,31.12,7.46,29.1Z" transform="translate(-1.28 -1.38)"/><path class="cls-1" d="M14.62,23.76a6.35,6.35,0,0,1,2.16-.66c2.78,0,3.86,1.16,3.86,5.14s-1.28,5.2-4.82,5.2c-1.06,0-2.6-.16-3.82-.3V19.6l2.62-.18Zm0,1.88v5.72c.28,0,1,.1,1.24.1,1.28,0,2.06-.48,2.06-3.14S17.4,25.14,16,25.14A3.66,3.66,0,0,0,14.62,25.64Z" transform="translate(-1.28 -1.38)"/><path class="cls-1" d="M28.82,23.44l-.26,2.2a8.88,8.88,0,0,0-1.86-.26c-1.52,0-1.94.82-1.94,2.86s.46,2.9,2,2.9a8.29,8.29,0,0,0,1.84-.26l.26,2.22a12.22,12.22,0,0,1-2.74.34C23.08,33.44,22,32,22,28.24s1.14-5.14,4.16-5.14A14.92,14.92,0,0,1,28.82,23.44Z" transform="translate(-1.28 -1.38)"/><path class="cls-1" d="M38.36,33.26H36.1l-.16-.94a3.32,3.32,0,0,1-2.44,1.12c-2.6,0-3.76-1.36-3.76-5.14s1.44-5.2,4.22-5.2a8.87,8.87,0,0,1,1.78.24V19.6l2.62-.18Zm-2.62-2.52v-5.5a7.8,7.8,0,0,0-1.3-.18c-1.26,0-2,.58-2,3.16s.46,3.16,1.76,3.16A2.43,2.43,0,0,0,35.74,30.74Z" transform="translate(-1.28 -1.38)"/><path class="cls-1" d="M48.5,27.24c0,1.08-.44,1.38-1.72,1.54l-4.1.46c.08,1.66.42,2.18,1.88,2.18a18.13,18.13,0,0,0,3.38-.5l.38,1.94a18.62,18.62,0,0,1-3.88.58c-3.16,0-4.44-1.08-4.44-5.18,0-3.54,1.32-5.16,4.36-5.16S48.5,24.1,48.5,27.24Zm-5.82.44,2.9-.38a.32.32,0,0,0,.3-.34c0-1.68-.44-2-1.52-2C43.12,25,42.68,25.6,42.68,27.68Z" transform="translate(-1.28 -1.38)"/><path class="cls-1" d="M53.24,33.26H50.6V25H49.52V23.28h1.1c.08-2.92.56-3.94,3.16-3.94a14.34,14.34,0,0,1,2.08.14l-.16,2a10.2,10.2,0,0,0-1.36-.1c-1,0-1.14.4-1.14,1.92h2.44V25h-2.4Z" transform="translate(-1.28 -1.38)"/><path class="cls-1" d="M56.38,34.36c0-1.18.78-1.74,1.9-2.44a1.05,1.05,0,0,1-.42-.84A2.43,2.43,0,0,1,58.52,30a3.09,3.09,0,0,1-1.9-3.1c0-2.54,1.38-3.8,4.16-3.8a4.83,4.83,0,0,1,2.26.46l2.54-.78.5,1.84L64.44,25A3.29,3.29,0,0,1,65,26.9c0,2.42-1.18,3.4-3.82,3.4a6.61,6.61,0,0,1-.84-.06,1.35,1.35,0,0,0-.36.66c0,.34.24.42,2.62.7s3.26,1,3.26,2.8c0,2.1-1.38,3.18-4.7,3.18S56.38,36.46,56.38,34.36ZM59.8,33a1.59,1.59,0,0,0-.92,1.36c0,1,.58,1.5,2.28,1.5,1.5,0,2.06-.5,2.06-1.38s-.56-1-2-1.24C60.78,33.14,60.22,33.06,59.8,33Zm2.58-6.1c0-1.44-.48-2-1.58-2s-1.56.58-1.56,2,.52,1.8,1.56,1.8S62.38,28.22,62.38,26.88Z" transform="translate(-1.28 -1.38)"/><path class="cls-1" d="M70,33.26H67.42V19.6L70,19.42V23.7a7.63,7.63,0,0,1,2.32-.6c2.78,0,3.44,1.18,3.44,3.94v6.22H73.18V27c0-1.54-.42-2-1.72-2a5.14,5.14,0,0,0-1.42.4Z" transform="translate(-1.28 -1.38)"/><path class="cls-1" d="M79.08,19.36c1.1,0,1.48.36,1.48,1.22s-.38,1.22-1.48,1.22-1.48-.36-1.48-1.22S78,19.36,79.08,19.36Zm1.32,13.9H77.78v-10H80.4Z" transform="translate(-1.28 -1.38)"/><path class="cls-1" d="M85.1,33.28c0,3.06-.58,3.9-2.64,3.9a11.3,11.3,0,0,1-1.7-.2L81,35.17a3.72,3.72,0,0,0,.68.08c.56,0,.8-.3.8-2v-10H85.1ZM83.74,19.36c1.1,0,1.46.4,1.46,1.22s-.36,1.2-1.46,1.2-1.44-.38-1.44-1.2S82.64,19.36,83.74,19.36Z" transform="translate(-1.28 -1.38)"/><path class="cls-1" d="M95.48,23.26c-.8,1.66-1.82,3.4-2.66,4.78.94,1.56,1.84,3.32,2.8,5.22h-3c-.68-1.4-1.42-2.94-2.24-4.32l-.74.18v4.14H87.06V19.6l2.62-.18v8.12l.7-.16c.74-1.24,1.42-2.78,2.12-4.12Z" transform="translate(-1.28 -1.38)"/><path class="cls-1" d="M96.88,33.26V19.6l2.62-.18V33.26Z" transform="translate(-1.28 -1.38)"/><path class="cls-1" d="M104.12,33.26H101.5v-10h2.44l.06.8a5.35,5.35,0,0,1,2.8-1,2.8,2.8,0,0,1,2.48,1,7.2,7.2,0,0,1,3-1c2.62,0,3.22,1.14,3.22,3.94v6.22H112.9V27.18c0-1.64-.38-2.2-1.6-2.2a4.11,4.11,0,0,0-1.62.6,6.94,6.94,0,0,1,.14,1.58v6.1H107.2V27.18c0-1.8-.26-2.2-1.56-2.2a2.79,2.79,0,0,0-1.52.6Z" transform="translate(-1.28 -1.38)"/><path class="cls-1" d="M120.08,33.26h-2.62v-10h2.48l.08.8a4.55,4.55,0,0,1,2.64-1c2.62,0,3.18,1.14,3.18,3.9v6.26h-2.62V27c0-1.52-.36-2-1.64-2a2.52,2.52,0,0,0-1.5.64Z" transform="translate(-1.28 -1.38)"/><path class="cls-1" d="M136.44,28.24c0,3.66-1.24,5.22-4.5,5.22s-4.48-1.56-4.48-5.22,1.24-5.16,4.48-5.16S136.44,24.6,136.44,28.24Zm-4.5,3.46c1.4,0,1.76-.88,1.76-3.46s-.36-3.42-1.76-3.42-1.74.86-1.74,3.42S130.56,31.7,131.94,31.7Z" transform="translate(-1.28 -1.38)"/><path class="cls-1" d="M138.08,23.26h2.54l0,.82a3.7,3.7,0,0,1,1.88-.84,3.62,3.62,0,0,1,1.12-.08c2.18.18,3.06,1.48,3.06,5.12,0,4.1-1.6,5.16-4,5.16a10.2,10.2,0,0,1-2-.26v3.88h-2.62Zm2.62,2.3v6a10.11,10.11,0,0,0,1.3.16c1.18,0,2-.58,2-3.4s-.54-3.4-1.76-3.4A2.48,2.48,0,0,0,140.7,25.56Z" transform="translate(-1.28 -1.38)"/><path class="cls-1" d="M154,32.84a5.43,5.43,0,0,1-2.14.6c-2.78,0-3.84-1.36-3.84-5.2s1.58-5.14,4.82-5.14a37.16,37.16,0,0,1,3.78.28V37.07H154Zm0-1.58V25a8.7,8.7,0,0,0-1.22-.14c-1.32,0-2,.66-2,3.4s.46,3.38,1.82,3.38A5.1,5.1,0,0,0,154,31.26Z" transform="translate(-1.28 -1.38)"/><path class="cls-1" d="M164.12,25.72a7.53,7.53,0,0,0-2.88.94v6.6h-2.62v-10h2.48l.12,1a6.46,6.46,0,0,1,2.9-1.18Z" transform="translate(-1.28 -1.38)"/><path class="cls-1" d="M165.46,31a13,13,0,0,0,3.28.62c1.1,0,1.52-.28,1.52-1.3,0-.8-.28-1-1.56-1.22-2.86-.58-3.48-1-3.48-3.08,0-2.44,1.48-3,3.94-3a18.89,18.89,0,0,1,3.62.46l-.3,1.8a14.76,14.76,0,0,0-3.1-.5c-1,0-1.5.14-1.5,1.1,0,.74.3.9,1.78,1.2,2.7.56,3.26,1,3.26,3,0,2.58-1.3,3.28-3.9,3.28a17.45,17.45,0,0,1-3.94-.56Z" transform="translate(-1.28 -1.38)"/><path class="cls-1" d="M175.1,28.78V25h-1.16V23.28h1.16V21.34l2.62-.4v2.32h2.48V25h-2.48v4.1c0,1.88.1,2.48,1.14,2.48a5.78,5.78,0,0,0,1.18-.16l.24,1.68a10.21,10.21,0,0,1-2.2.3C175.3,33.44,175.1,32,175.1,28.78Z" transform="translate(-1.28 -1.38)"/><path class="cls-1" d="M187.42,23.26H190v10h-2.48l-.06-.8a4.62,4.62,0,0,1-2.64,1c-2.62,0-3.18-1.14-3.18-3.9V23.26h2.62v6.3c0,1.52.34,2,1.62,2a2.56,2.56,0,0,0,1.5-.62Z" transform="translate(-1.28 -1.38)"/><path class="cls-1" d="M195.66,31.28c.74-1.38,1.48-6.4,1.76-8h2.8a53.62,53.62,0,0,1-2.74,10h-3.64a55.25,55.25,0,0,1-2.7-10H194A60.49,60.49,0,0,0,195.66,31.28Z" transform="translate(-1.28 -1.38)"/><path class="cls-1" d="M212.14,23.26H215a51.77,51.77,0,0,1-2.68,10h-3.06A53.52,53.52,0,0,1,208.06,28c-.2.64-1,4.3-1.42,5.28h-3.12a57.1,57.1,0,0,1-2.68-10h2.82c.28,1.56,1.1,6.92,1.76,8.12.46-1.34,1.08-3.4,1.36-4.6-.2-1-.48-2.6-.58-3.52h2.66a66.75,66.75,0,0,0,1.58,8.12C211.12,30.1,211.92,24.86,212.14,23.26Z" transform="translate(-1.28 -1.38)"/><path class="cls-1" d="M218.88,23.26,220.26,27h0l1.44-3.72h2.8l-2.42,4.92,2.62,5.08h-3.08l-1.54-3.7a.07.07,0,0,0,0,0l-1.54,3.72h-2.9l2.66-5.08-2.48-4.92Z" transform="translate(-1.28 -1.38)"/><path class="cls-1" d="M228.26,23.26a82.08,82.08,0,0,0,1.72,8.3c.7-1.3,1.46-6.94,1.74-8.3h2.82a48.54,48.54,0,0,1-3,10.42c-1.22,2.84-2,3.7-5.68,3.74V35.21c1.5,0,1.68-.32,2.4-2a42.74,42.74,0,0,1-2.82-10Z" transform="translate(-1.28 -1.38)"/><path class="cls-1" d="M235.68,23.26H243l.16,1.44-4.24,6.72h4.28v1.84h-7.42l-.16-1.36L240,25.08h-4.28Z" transform="translate(-1.28 -1.38)"/><path class="cls-1" d="M10.54,44.88c0,4-.68,6.56-4.64,6.56S1.28,48.9,1.28,44.88,2,38.22,5.9,38.22,10.54,40.86,10.54,44.88ZM5.9,49.68c1.84,0,2-2,2-4.8s-.2-4.9-2-4.9-2,2-2,4.9S4.06,49.68,5.9,49.68Zm-1-6,.44-.28L6.78,45.9l-.46.28Z" transform="translate(-1.28 -1.38)"/><path class="cls-1" d="M12.56,51.26V49.52h3V40.94L13,42.24l-.76-1.72,4.14-2.08h1.8V49.52h2.6v1.74Z" transform="translate(-1.28 -1.38)"/><path class="cls-1" d="M28.1,47.34v0c-1,1.06-1.06,1.12-2,2.18h5.38l-.14,1.76H22.74V50l3.54-3.9c1.8-2,2-2.4,2-4.2,0-1.36-.6-1.9-1.7-1.9A13.56,13.56,0,0,0,23.36,41l-.68-1.72a12.12,12.12,0,0,1,3.92-1.1c2.74,0,4.24,1.14,4.24,3.66C30.84,44.12,30.66,44.64,28.1,47.34Z" transform="translate(-1.28 -1.38)"/><path class="cls-1" d="M34.3,43.84h2.34c1.3-.4,1.82-.86,1.82-2.06S38,40,36.72,40a12.39,12.39,0,0,0-3.46,1l-.56-1.76a12.79,12.79,0,0,1,4-1c3,0,4.32,1,4.32,3.56a2.64,2.64,0,0,1-1.8,2.7v0a2.5,2.5,0,0,1,2.26,2.8c0,2.92-1.54,4.2-4.7,4.2a24.36,24.36,0,0,1-4.28-.62l.32-1.8a31.6,31.6,0,0,0,3.6.62,3.09,3.09,0,0,0,1.48-.22c.68-.26,1-.94,1-2.16,0-1.52-.88-1.6-2.7-1.76H34.3Z" transform="translate(-1.28 -1.38)"/><path class="cls-1" d="M52.68,48.6H50.76v2.66H48.2V48.6H43V47.48l3.06-9.08h2.62l-2.26,6.74h3v-2.2h1.34v3.9h1.92Z" transform="translate(-1.28 -1.38)"/><path class="cls-1" d="M57.52,51.48a23,23,0,0,1-4-.56l.34-1.82a22.82,22.82,0,0,0,3.62.62c1.5,0,2.28-1,2.28-2.8s-.54-2.34-1.9-2.34a5.21,5.21,0,0,0-2.26,1L54,45l.2-6.64H62v1.76H56.64c0,.62,0,.94-2.12,5.1A19.59,19.59,0,0,1,58,42.82c2.94,0,4.36,1.36,4.36,4C62.38,49.78,60.68,51.48,57.52,51.48Z" transform="translate(-1.28 -1.38)"/><path class="cls-1" d="M68.28,51.48c-3.34,0-4.48-2.24-4.48-5.34,0-5,1.2-7.92,5.14-7.92a17.6,17.6,0,0,1,3.74.58l-.36,1.8A17,17,0,0,0,68.94,40c-1.72,0-2.16,1.38-2.38,3.6a3.46,3.46,0,0,1,1.7-.66c3,0,4.56,1.38,4.56,4C72.82,49.82,71.46,51.48,68.28,51.48Zm0-6.8a3.6,3.6,0,0,0-1.84.74,8.71,8.71,0,0,0,0,1c0,1.64.36,2.94,1.34,3.2a1.79,1.79,0,0,0,.66.06c1.34-.1,1.84-1.06,1.84-2.8C70.22,45.44,69.58,44.68,68.26,44.68Z" transform="translate(-1.28 -1.38)"/><path class="cls-1" d="M74.38,38.4h8.84v1l-4.7,11.86H75.88l4.42-11.1H74.38Z" transform="translate(-1.28 -1.38)"/><path class="cls-1" d="M89.12,51.48c-3.34,0-4.78-1.14-4.78-3.88a3.3,3.3,0,0,1,1.86-3.12,2.77,2.77,0,0,1-1.48-2.82c0-2.48,1.76-3.44,4.4-3.44s4.64.72,4.64,3.38a3.29,3.29,0,0,1-1.54,3.28,2.56,2.56,0,0,1,1.66,2.7C93.88,50.3,92.48,51.48,89.12,51.48Zm-.84-6.08a2.33,2.33,0,0,0-1.34,2.12c0,1.56.56,2.2,2.18,2.2s2.18-.62,2.18-2.18C91.3,46.46,90.9,46.1,88.28,45.4ZM89.12,40c-1.18,0-1.82.44-1.82,1.7s.28,1.68,2.78,2.38a2.46,2.46,0,0,0,1.1-2.4C91.18,40.34,90.44,40,89.12,40Z" transform="translate(-1.28 -1.38)"/><path class="cls-1" d="M99.44,38.22c3.58,0,4.56,2.18,4.56,5.56,0,5.22-1.2,7.7-5.12,7.7a18.15,18.15,0,0,1-4-.66L95.36,49a22.68,22.68,0,0,0,3.1.66,1.94,1.94,0,0,0,2.08-1,4.79,4.79,0,0,0,.74-2.48,3.72,3.72,0,0,1-1.72.64c-2.94,0-4.56-1.42-4.56-4.1S96.42,38.22,99.44,38.22Zm.12,6.8c.88,0,1.86-.52,1.86-1.22,0-2.3-.36-3.82-2-3.82-1.34,0-1.84,1-1.84,2.7C97.6,44.2,98.28,45,99.56,45Z" transform="translate(-1.28 -1.38)"/></svg>