<svg id="Layer_1" data-name="Layer 1" xmlns="http://www.w3.org/2000/svg" viewBox="0 0 277.32 50.12"><defs><style>.cls-1{fill:#5aa7ac;}</style></defs><title>font03</title><path class="cls-1" d="M9.74,15.34c-.16-.78-.5-2.08-.72-2.92H4.22c-.26.92-.56,2.06-.74,2.92H1.42A118.75,118.75,0,0,1,5.34,1.84H7.92a124.52,124.52,0,0,1,3.9,13.5ZM8.8,11C8.32,9.22,7.24,5.14,6.64,3.4H6.56C6,5.16,4.94,9.18,4.44,11Z" transform="translate(-1.42 -1.46)"/><path class="cls-1" d="M13.42,1.84c1.2-.1,2.8-.16,3.74-.16,3.6,0,4.92.8,4.92,3.56a2.69,2.69,0,0,1-2,2.88,2.82,2.82,0,0,1,2.34,3.14c0,3.3-1.36,4.16-5.22,4.16-1.34,0-2.8-.1-3.78-.2Zm2,1.34V7.64h2.14c1.8,0,2.56-.8,2.56-2.26,0-1.74-.8-2.28-2.9-2.28A17.79,17.79,0,0,0,15.4,3.18Zm0,10.66c.44,0,1.12.1,1.82.1,2.34,0,3.14-.66,3.14-2.66,0-1.84-1-2.38-2.82-2.38H15.4Z" transform="translate(-1.42 -1.46)"/><path class="cls-1" d="M32.4,15.14a13.33,13.33,0,0,1-3.12.4c-3.22,0-5.18-1.72-5.18-7.1,0-4.88,1.68-6.8,5.18-6.8A15.4,15.4,0,0,1,32.34,2L32,3.74a12.68,12.68,0,0,0-2.46-.3c-2.3,0-3.38,1.24-3.38,5,0,4.18,1.26,5.32,3.38,5.32a9.78,9.78,0,0,0,2.5-.36Z" transform="translate(-1.42 -1.46)"/><path class="cls-1" d="M34,1.82a34.47,34.47,0,0,1,3.56-.18c4,0,5.8,1.54,5.8,6.68,0,5.4-1.9,7.24-5.84,7.24-1.14,0-2.12,0-3.52-.16Zm2,1.6V13.76a11.88,11.88,0,0,0,1.56.08c2.38,0,3.72-1.28,3.72-5.48s-1.2-5-3.66-5C37,3.36,36.64,3.38,36,3.42Z" transform="translate(-1.42 -1.46)"/><path class="cls-1" d="M45.42,15.34V1.84h7.84v1.7H47.42V7.7h4.76V9.26H47.42v4.38h5.9v1.7Z" transform="translate(-1.42 -1.46)"/><path class="cls-1" d="M55.36,15.34V1.84h7.7V3.6h-5.7V8.14h4.72V9.72H57.36v5.62Z" transform="translate(-1.42 -1.46)"/><path class="cls-1" d="M71.84,13.6v-5h1.88v6.48a20.9,20.9,0,0,1-3.94.46c-3.32,0-5.26-1.5-5.26-7.14,0-5,1.72-6.78,5.26-6.78a16.71,16.71,0,0,1,3.94.58l-.36,1.68a13.54,13.54,0,0,0-3.28-.54c-2.4,0-3.48,1.22-3.48,5.06,0,4.14,1.2,5.42,3.12,5.42A10.61,10.61,0,0,0,71.84,13.6Z" transform="translate(-1.42 -1.46)"/><path class="cls-1" d="M83.44,9.52H78v5.82H76V1.84h2V7.78h5.4V1.84h2v13.5h-2Z" transform="translate(-1.42 -1.46)"/><path class="cls-1" d="M89.92,15.34h-2V1.84h2Z" transform="translate(-1.42 -1.46)"/><path class="cls-1" d="M95,12.14c0,2.74-.72,3.42-2.36,3.42a8.89,8.89,0,0,1-1.36-.14l.1-1.5a6.2,6.2,0,0,0,.66.06c.66,0,1-.34,1-2V1.84h2Z" transform="translate(-1.42 -1.46)"/><path class="cls-1" d="M106.16,1.84c-1.32,2.5-2.22,4.18-3.74,6.56,1.28,2,2.48,4.4,3.86,6.94H104c-1.16-2.18-2.32-4.34-3.36-5.94l-1.26.18v5.76h-2V1.84h2V8l1.2-.18a66.68,66.68,0,0,0,3.34-5.94Z" transform="translate(-1.42 -1.46)"/><path class="cls-1" d="M114.92,15.34h-7V1.84h2v12h5Z" transform="translate(-1.42 -1.46)"/><path class="cls-1" d="M127.1,15.34V4.92H127l-3.48,7.88h-1.44l-3.58-7.86h0v10.4h-1.94V1.84H119l3.84,8.42h.08l3.72-8.42H129v13.5Z" transform="translate(-1.42 -1.46)"/><path class="cls-1" d="M139.48,12.42l-6-7.62V15.34h-2V1.84h1.82l6.22,8v-8h2v13.5h-2Z" transform="translate(-1.42 -1.46)"/><path class="cls-1" d="M153.94,8.58c0,4.56-1.14,7-5.18,7s-5.18-2.4-5.18-7,1.2-7,5.18-7S153.94,4.12,153.94,8.58Zm-5.18,5.18c2.46,0,3.06-1.7,3.06-5.18s-.6-5.2-3.06-5.2-3,1.78-3,5.2S146.32,13.76,148.76,13.76Z" transform="translate(-1.42 -1.46)"/><path class="cls-1" d="M158,15.34h-2V1.64c1.24-.12,2.74-.18,3.84-.18,3.54,0,5.12,1,5.12,4.62,0,3.44-1.56,4.66-4.8,4.66a11,11,0,0,1-1.26-.06V9.1a5.76,5.76,0,0,0,.86,0c2.18,0,3.14-.62,3.14-3.1s-.94-3-3-3c-.5,0-1.26,0-1.82.08Z" transform="translate(-1.42 -1.46)"/><path class="cls-1" d="M176.86,8.52c0,4.44-1.08,6.36-3.74,6.76.22.94.38,1.3,1,1.3a4.9,4.9,0,0,0,1.2-.18l.24,1.36a9.91,9.91,0,0,1-1.88.26c-1.48,0-1.92-.5-2.44-2.52-3.58-.12-4.74-2.36-4.74-7s1.14-7.06,5.18-7.06S176.86,3.94,176.86,8.52Zm-5.18,5.24c2.46,0,3.06-1.74,3.06-5.24s-.6-5.28-3.06-5.28-3,1.7-3,5.28S169.24,13.76,171.68,13.76Z" transform="translate(-1.42 -1.46)"/><path class="cls-1" d="M178.84,1.8c1.1-.12,2.72-.2,3.8-.2,3.44,0,5.08.88,5.08,4.32,0,1.88-.5,3.06-1.92,3.84.62,1.36,1.46,3.78,2,5.58H185.7c-.48-1.52-1.2-3.62-1.8-5.06a12.71,12.71,0,0,1-1.3.1,16.86,16.86,0,0,1-1.72-.1v5.06h-2Zm2,1.5V8.78a13.33,13.33,0,0,0,1.56.1c2.12,0,3.22-.56,3.22-2.9s-.92-2.76-3-2.76C182.14,3.22,181.32,3.26,180.88,3.3Z" transform="translate(-1.42 -1.46)"/><path class="cls-1" d="M193.62,15.54a25.65,25.65,0,0,1-4-.5l.32-1.72a19,19,0,0,0,3.56.54c1.64,0,2.58-.54,2.58-2.1s-.38-2-2.54-2.44c-3.16-.66-3.92-1.44-3.92-3.88,0-2.92,1.48-3.82,4.34-3.82a20.67,20.67,0,0,1,3.94.52l-.32,1.66a17.73,17.73,0,0,0-3.46-.54c-1.74,0-2.46.38-2.46,2,0,1.42.34,1.74,2.5,2.22,3.28.68,4,1.3,4,4.08C198.08,14.5,196.6,15.54,193.62,15.54Z" transform="translate(-1.42 -1.46)"/><path class="cls-1" d="M205.2,15.34h-2V3.64h-3.92V1.84h8.64v1.8h-2.7Z" transform="translate(-1.42 -1.46)"/><path class="cls-1" d="M218.6,11.5c0,2.8-1.62,4-4.7,4s-4.72-1.24-4.72-4V1.84h2v9.62c0,1.66.92,2.4,2.68,2.4s2.66-.72,2.66-2.4V1.84h2Z" transform="translate(-1.42 -1.46)"/><path class="cls-1" d="M228.26,1.84h2.24c-.8,3.82-2.26,9-3.64,13.5h-3c-1.42-4.48-2.82-9.66-3.64-13.5h2.26c.76,3.86,1.82,7.72,2.86,11.76h.08C226.44,9.58,227.48,5.64,228.26,1.84Z" transform="translate(-1.42 -1.46)"/><path class="cls-1" d="M244.9,1.84h2.2a106.88,106.88,0,0,1-3.28,13.5h-2.54c-.68-2.08-1.34-4.82-1.78-6.68q-.18.51-.42,1.14a57.8,57.8,0,0,1-1.82,5.54h-2.52a127.19,127.19,0,0,1-3.3-13.5h2.12c.7,3.64,1.66,7.64,2.72,11.52h.08c.82-2.06,1.6-4.38,2.2-6.28-.38-1.46-.92-3.84-1.16-5.24h2.18c.74,3.76,1.64,8,2.7,11.52h.08A88.87,88.87,0,0,0,244.9,1.84Z" transform="translate(-1.42 -1.46)"/><path class="cls-1" d="M250.2,15.34h-2.28l3.76-6.94-3.42-6.56h2.4l2.54,5.42h0l2.4-5.42H258L254.5,8.46l3.74,6.88h-2.48l-2.82-5.6h0Z" transform="translate(-1.42 -1.46)"/><path class="cls-1" d="M265,15.34h-2V9.68l-4-7.84h2.44l2.66,6h.06l2.62-6H269l-4,7.84Z" transform="translate(-1.42 -1.46)"/><path class="cls-1" d="M278.44,3.18l-6,10.54h6.26v1.62h-8.52V14L276.1,3.46h-5.86V1.84h8.2Z" transform="translate(-1.42 -1.46)"/><path class="cls-1" d="M1.92,29.5c0-.82.6-1.24,1.5-1.36l4.44-.64c0-2.22-.16-2.84-2.18-2.84a14.36,14.36,0,0,0-3.28.5l-.26-1.42a15.43,15.43,0,0,1,3.72-.56c3.48,0,3.86,1.22,3.86,5.08v5.08H8l0-1.58a2.44,2.44,0,0,1-2.72,1.76C2.74,33.52,1.92,32.36,1.92,29.5Zm6-.52v-.3l-3.74.58a.4.4,0,0,0-.36.42c0,1.94.46,2.54,1.92,2.54C7.36,32.22,7.88,31.52,7.88,29Z" transform="translate(-1.42 -1.46)"/><path class="cls-1" d="M14,23.92a6.82,6.82,0,0,1,2.34-.74c2.76,0,3.9,1.18,3.9,5.16,0,3.64-1.18,5.16-4.64,5.16a30.94,30.94,0,0,1-3.46-.26V19.56L14,19.42Zm0,1.38v6.64c.34,0,1.24.12,1.6.12,1.7,0,2.7-.62,2.7-3.68s-.66-3.72-2.44-3.72A4.78,4.78,0,0,0,14,25.3Z" transform="translate(-1.42 -1.46)"/><path class="cls-1" d="M28.62,23.52l-.2,1.58a10,10,0,0,0-2.12-.28c-1.86,0-2.36,1-2.36,3.5s.56,3.54,2.48,3.54a9.43,9.43,0,0,0,2.08-.28l.22,1.58A11.9,11.9,0,0,1,26,33.5c-2.94,0-4-1.38-4-5.18s1.14-5.14,4-5.14A13.67,13.67,0,0,1,28.62,23.52Z" transform="translate(-1.42 -1.46)"/><path class="cls-1" d="M38,33.34H36.38l-.12-1a3.63,3.63,0,0,1-2.58,1.12c-2.58,0-3.74-1.28-3.74-5.14s1.5-5.18,4.18-5.18a11.16,11.16,0,0,1,2,.26V19.56L38,19.42Zm-1.86-2.16V24.84a13.2,13.2,0,0,0-1.7-.22c-1.64,0-2.56.78-2.56,3.7S32.46,32,34.16,32A3.13,3.13,0,0,0,36.14,31.18Z" transform="translate(-1.42 -1.46)"/><path class="cls-1" d="M48.08,27.3c0,.9-.4,1.24-1.46,1.36l-4.62.5c.1,2.18.56,2.88,2.44,2.88a14.91,14.91,0,0,0,3.14-.46L47.86,33a16.32,16.32,0,0,1-3.56.48c-3,0-4.2-1.06-4.2-5.16,0-3.64,1.24-5.16,4.12-5.16S48.08,24.18,48.08,27.3ZM42,28l3.86-.48a.41.41,0,0,0,.38-.42c0-2.12-.6-2.52-2-2.52C42.58,24.56,42,25.38,42,28Z" transform="translate(-1.42 -1.46)"/><path class="cls-1" d="M52.5,33.34H50.64v-8.7h-1.2V23.36h1.22c0-2.86.4-4.06,3-4.06a14.28,14.28,0,0,1,1.86.14l-.14,1.44a8.44,8.44,0,0,0-1.44-.12c-1.18,0-1.42.54-1.42,2.58h2.76v1.3H52.5Z" transform="translate(-1.42 -1.46)"/><path class="cls-1" d="M56.12,34.67c0-1.26.76-1.82,1.94-2.56a1.09,1.09,0,0,1-.46-.9A2.69,2.69,0,0,1,58.32,30,3.08,3.08,0,0,1,56.4,26.9c0-2.46,1.36-3.72,3.9-3.72a4.66,4.66,0,0,1,2.3.52L65.1,23l.36,1.38-1.84.44a3.32,3.32,0,0,1,.66,2.12c0,2.38-1.24,3.4-3.74,3.4a8.58,8.58,0,0,1-.92-.08,1.87,1.87,0,0,0-.48.86c0,.44.22.54,2.74.84s3.36,1,3.36,2.74c0,2-1.34,3.12-4.52,3.12S56.12,36.71,56.12,34.67Zm3-1.82c-.86.52-1.24,1-1.24,1.74,0,1.28.7,1.9,2.84,1.9,1.88,0,2.6-.64,2.6-1.78s-.72-1.32-2.44-1.56C60.32,33,59.66,32.94,59.16,32.84Zm3.26-5.94c0-1.66-.66-2.38-2.1-2.38s-2.06.78-2.06,2.38.7,2.16,2.06,2.16S62.42,28.46,62.42,26.9Z" transform="translate(-1.42 -1.46)"/><path class="cls-1" d="M69,33.34H67.18V19.56L69,19.42v4.42a8.26,8.26,0,0,1,2.48-.66c2.72,0,3.48,1.16,3.48,3.88v6.28H73.16V27c0-1.88-.54-2.46-2.28-2.46a6.37,6.37,0,0,0-1.84.52Z" transform="translate(-1.42 -1.46)"/><path class="cls-1" d="M78.4,19.6c.78,0,1.08.3,1.08.94s-.3,1-1.08,1-1.08-.3-1.08-1S77.62,19.6,78.4,19.6Zm.94,13.74H77.48v-10h1.86Z" transform="translate(-1.42 -1.46)"/><path class="cls-1" d="M83.78,33.67c0,2.92-.6,3.64-2.34,3.64a9.8,9.8,0,0,1-1.36-.16l.18-1.34a4.17,4.17,0,0,0,.72.08c.66,0,1-.36,1-2.22V23.34h1.84ZM82.84,19.6c.78,0,1.06.32,1.06.94s-.28.94-1.06.94-1.08-.32-1.08-.94S82,19.6,82.84,19.6Z" transform="translate(-1.42 -1.46)"/><path class="cls-1" d="M93.92,23.34c-1,1.66-2.24,3.46-3.2,4.76,1.1,1.56,2.18,3.28,3.36,5.24H91.94c-.88-1.48-1.82-3-2.9-4.52l-.88.2v4.32H86.3V19.56l1.86-.14V27.8l.82-.18c1-1.32,1.84-2.78,2.78-4.28Z" transform="translate(-1.42 -1.46)"/><path class="cls-1" d="M95.72,33.34V19.56l1.86-.14V33.34Z" transform="translate(-1.42 -1.46)"/><path class="cls-1" d="M101.94,33.34H100.1v-10h1.72l.06.86a5.13,5.13,0,0,1,2.84-1,2.89,2.89,0,0,1,2.64,1.08,7.74,7.74,0,0,1,3.14-1.08c2.56,0,3.24,1.14,3.24,3.88v6.28H111.9v-6.2c0-1.9-.48-2.58-2.08-2.58a5.57,5.57,0,0,0-2.14.82,6.5,6.5,0,0,1,.16,1.74v6.22H106v-6.2c0-2.1-.32-2.58-2.06-2.58a3.67,3.67,0,0,0-2,.82Z" transform="translate(-1.42 -1.46)"/><path class="cls-1" d="M118,33.34h-1.86v-10h1.74l.06.88a4.45,4.45,0,0,1,2.76-1c2.56,0,3.26,1.12,3.26,3.84v6.32h-1.84V27c0-1.84-.46-2.46-2.14-2.46a3.3,3.3,0,0,0-2,.84Z" transform="translate(-1.42 -1.46)"/><path class="cls-1" d="M134.52,28.32c0,3.62-1.12,5.2-4.24,5.2s-4.22-1.58-4.22-5.2,1.14-5.16,4.22-5.16S134.52,24.7,134.52,28.32Zm-4.24,3.9c1.82,0,2.32-1.1,2.32-3.9s-.5-3.86-2.32-3.86S128,25.54,128,28.32,128.48,32.22,130.28,32.22Z" transform="translate(-1.42 -1.46)"/><path class="cls-1" d="M136.62,23.34h1.78l0,.88a3.73,3.73,0,0,1,2.26-.94,4.26,4.26,0,0,1,1.12,0c2,.28,2.88,1.62,2.88,5.1,0,4.1-1.68,5.14-4.08,5.14a11.32,11.32,0,0,1-2.14-.26v4h-1.86Zm1.86,2V32a12.78,12.78,0,0,0,1.68.2c1.56,0,2.6-.72,2.6-3.84s-.72-3.84-2.3-3.84A3.13,3.13,0,0,0,138.48,25.36Z" transform="translate(-1.42 -1.46)"/><path class="cls-1" d="M152.6,32.92a7.61,7.61,0,0,1-2.34.58c-2.74,0-3.84-1.34-3.84-5.18s1.58-5.14,4.6-5.14a27,27,0,0,1,3.44.28V37.23H152.6Zm0-1.2v-7.1a14.71,14.71,0,0,0-1.6-.14c-1.72,0-2.64.82-2.64,3.84,0,2.84.58,3.82,2.38,3.82A7.28,7.28,0,0,0,152.6,31.72Z" transform="translate(-1.42 -1.46)"/><path class="cls-1" d="M161.86,25.06a8,8,0,0,0-3.06,1v7.24h-1.86v-10h1.76l.08,1.06a7,7,0,0,1,3.08-1.22Z" transform="translate(-1.42 -1.46)"/><path class="cls-1" d="M163.38,31.6a12.81,12.81,0,0,0,3.22.58c1.4,0,1.94-.36,1.94-1.72,0-1-.36-1.24-1.94-1.56-2.7-.54-3.38-1-3.38-2.88,0-2.32,1.36-2.84,3.68-2.84a16.72,16.72,0,0,1,3.34.44L170,25a13.58,13.58,0,0,0-3-.46c-1.3,0-1.92.18-1.92,1.44,0,1,.38,1.14,2.22,1.52,2.52.52,3.08,1,3.08,2.88,0,2.46-1.16,3.16-3.62,3.16a16.34,16.34,0,0,1-3.7-.52Z" transform="translate(-1.42 -1.46)"/><path class="cls-1" d="M173,28.72V24.64h-1.24V23.36H173v-2l1.86-.32v2.26h2.76v1.3h-2.76V29.3c0,2,.12,2.86,1.42,2.86a6.37,6.37,0,0,0,1.24-.16l.18,1.26a9.87,9.87,0,0,1-1.88.24C173.16,33.5,173,32.08,173,28.72Z" transform="translate(-1.42 -1.46)"/><path class="cls-1" d="M185.48,23.34h1.86v10H185.6l-.06-.88a4.45,4.45,0,0,1-2.76,1c-2.56,0-3.26-1.12-3.26-3.84V23.34h1.86v6.32c0,1.84.44,2.46,2.12,2.46a3.3,3.3,0,0,0,2-.84Z" transform="translate(-1.42 -1.46)"/><path class="cls-1" d="M193,31.9c.94-1.92,1.9-6.5,2.28-8.56h2a53.18,53.18,0,0,1-3,10h-2.54a54.67,54.67,0,0,1-2.92-10h2A60.58,60.58,0,0,0,193,31.9Z" transform="translate(-1.42 -1.46)"/><path class="cls-1" d="M209.7,23.34h2a49.57,49.57,0,0,1-2.88,10h-2.2a42.7,42.7,0,0,1-1.48-5.4,41,41,0,0,1-1.76,5.4h-2.2a55.92,55.92,0,0,1-2.92-10h2c.38,2,1.44,6.94,2.26,8.64a45.86,45.86,0,0,0,1.74-5.12c-.22-1-.54-2.6-.68-3.52h1.9A60.23,60.23,0,0,0,207.52,32,47.53,47.53,0,0,0,209.7,23.34Z" transform="translate(-1.42 -1.46)"/><path class="cls-1" d="M215.08,23.34l1.82,4h0l1.86-4h2l-2.6,4.9,2.82,5.1h-2.2l-2-4h0l-2,4H212.7l2.86-5.1-2.7-4.9Z" transform="translate(-1.42 -1.46)"/><path class="cls-1" d="M224,23.34a68.77,68.77,0,0,0,2.24,8.76c.88-1.84,1.86-6.86,2.24-8.76h2a48.17,48.17,0,0,1-3.06,10.16c-1.28,2.92-2,4-5.12,4v-1.6c1.6,0,1.84-.42,2.8-2.52a46.23,46.23,0,0,1-3.06-10Z" transform="translate(-1.42 -1.46)"/><path class="cls-1" d="M232,23.34h6.92l.12,1.12L234.21,32h4.88v1.36H232l-.14-1,4.92-7.62H232Z" transform="translate(-1.42 -1.46)"/><path class="cls-1" d="M10.38,44.88c0,4.08-.64,6.64-4.44,6.64S1.52,49,1.52,44.88s.64-6.74,4.42-6.74S10.38,40.8,10.38,44.88ZM5.94,50.2c2.34,0,2.58-2.18,2.58-5.32s-.24-5.42-2.58-5.42-2.56,2.26-2.56,5.42S3.62,50.2,5.94,50.2ZM4.72,43.36l.48-.3,1.86,3.2-.5.3Z" transform="translate(-1.42 -1.46)"/><path class="cls-1" d="M12.68,51.34V50h3.2V40.2c-1.2.58-2.36,1.16-3,1.46l-.56-1.26,4-2H17.7V50h2.74v1.3Z" transform="translate(-1.42 -1.46)"/><path class="cls-1" d="M27.56,47.28,25,50H31l-.1,1.34H22.68v-1l3.62-4c2-2.16,2.16-2.66,2.16-4.6,0-1.6-.78-2.26-2.22-2.26a10.76,10.76,0,0,0-3.08,1l-.5-1.28a11,11,0,0,1,3.64-1c2.62,0,4,1.12,4,3.58S30.16,44.56,27.56,47.28Z" transform="translate(-1.42 -1.46)"/><path class="cls-1" d="M34.14,44h2.12c1.62-.48,2.26-1,2.26-2.42,0-1.58-.64-2.16-2.26-2.16a11.22,11.22,0,0,0-3.32.84L32.5,39a12.32,12.32,0,0,1,3.76-.86c2.88,0,4.1,1,4.1,3.48,0,1.7-.78,2.34-2.18,2.9v0c1.78.32,2.68.94,2.68,2.88,0,2.88-1.48,4.14-4.52,4.14a22.07,22.07,0,0,1-4-.56l.26-1.36a24.62,24.62,0,0,0,3.58.58,3.66,3.66,0,0,0,1.78-.34c.74-.36,1.08-1.14,1.08-2.44,0-1.74-1-1.9-3-2.12H34.14Z" transform="translate(-1.42 -1.46)"/><path class="cls-1" d="M51.9,48.54h-2v2.8H48.06v-2.8H42.58v-.9l3.14-9.32H47.6L45,46.18H48.8V43.1h1.1v4.1h2Z" transform="translate(-1.42 -1.46)"/><path class="cls-1" d="M56.74,51.56a20.24,20.24,0,0,1-3.7-.5l.26-1.36a20.18,20.18,0,0,0,3.44.54c1.86,0,2.82-1.18,2.82-3.22s-.68-2.72-2.42-2.72a5,5,0,0,0-2.46,1l-1.22-.42.2-6.6H61v1.34H55.38c0,.8,0,1.18-1.34,5.2A10.57,10.57,0,0,1,57.26,43c2.8,0,4.16,1.34,4.16,4C61.42,49.88,59.78,51.56,56.74,51.56Z" transform="translate(-1.42 -1.46)"/><path class="cls-1" d="M67.36,51.56c-3.2,0-4.28-2.24-4.28-5.34,0-5.12,1.16-8.08,5-8.08a14.94,14.94,0,0,1,3.46.52L71.24,40a15.73,15.73,0,0,0-3.18-.54c-2.24,0-2.76,1.76-3,4.54a4.45,4.45,0,0,1,2.3-.92c2.86,0,4.36,1.36,4.36,3.94C71.7,49.92,70.4,51.56,67.36,51.56Zm0-7.14a4.82,4.82,0,0,0-2.36.92,6.17,6.17,0,0,0-.06,1.06c0,1.86.42,3.36,1.66,3.72a2.21,2.21,0,0,0,.84.1c1.76-.06,2.42-1.16,2.42-3.2C69.84,45.3,69,44.42,67.34,44.42Z" transform="translate(-1.42 -1.46)"/><path class="cls-1" d="M73.5,38.32h8.44v.78L77.1,51.34H75.2l4.64-11.68H73.5Z" transform="translate(-1.42 -1.46)"/><path class="cls-1" d="M87.88,51.56c-3.2,0-4.6-1.12-4.6-3.8,0-1.5.48-2.32,2.1-3.3a2.82,2.82,0,0,1-1.7-3c0-2.42,1.68-3.36,4.2-3.36s4.46.7,4.46,3.28a3.46,3.46,0,0,1-1.76,3.5,2.62,2.62,0,0,1,1.88,2.8C92.46,50.4,91.1,51.56,87.88,51.56Zm-1-6.44c-1.1.66-1.76,1.28-1.76,2.54,0,1.84.72,2.58,2.74,2.58s2.72-.72,2.72-2.56C90.6,46.38,90.12,46,86.9,45.12Zm1-5.68c-1.52,0-2.36.54-2.36,2.06s.38,2,3.5,2.82a2.85,2.85,0,0,0,1.46-2.84C90.48,39.9,89.54,39.44,87.88,39.44Z" transform="translate(-1.42 -1.46)"/><path class="cls-1" d="M98,38.14c3.42,0,4.36,2.18,4.36,5.6,0,5.3-1.16,7.82-4.94,7.82A16.93,16.93,0,0,1,93.74,51l.36-1.38a16.29,16.29,0,0,0,3.1.6,2.41,2.41,0,0,0,2.58-1.52,7.33,7.33,0,0,0,.68-3,4.62,4.62,0,0,1-2.3.9c-2.82,0-4.36-1.4-4.36-4.06S95.16,38.14,98,38.14Zm.12,7.14c1.22,0,2.4-.68,2.4-1.52,0-2.6-.46-4.3-2.52-4.3-1.72,0-2.38,1.18-2.38,3.1S96.52,45.28,98.16,45.28Z" transform="translate(-1.42 -1.46)"/></svg>