<svg id="Layer_1" data-name="Layer 1" xmlns="http://www.w3.org/2000/svg" viewBox="0 0 310.12 262.26"><defs><style>.cls-1{fill:#fff;stroke:#9c9b9b;stroke-width:0.2px;}.cls-1,.cls-3{stroke-miterlimit:10;}.cls-2{fill:#1d1d1b;}.cls-3{fill:none;stroke:#1d1d1b;stroke-width:0.4px;}.cls-4{fill:#f18a31;}.cls-5{fill:#a29c93;}.cls-6{fill:#5d1f77;}.cls-7{fill:#d82f67;}.cls-8{fill:#eee304;}.cls-9{fill:#8bbf4b;}.cls-10{fill:#66c2c7;}</style></defs><title>palette</title><path class="cls-1" d="M273,132.66H293.3A82.65,82.65,0,0,0,269,74l-14.7,14.7A62.79,62.79,0,0,1,273,132.66Z" transform="translate(-26 -20.15)"/><path class="cls-1" d="M269,74h0l9-9a95.36,95.36,0,0,0-67.64-28V70.51a62.79,62.79,0,0,1,43.93,18.22Z" transform="translate(-26 -20.15)"/><polygon class="cls-1" points="228.31 68.58 228.31 68.58 243.01 53.88 243.01 53.88 228.31 68.58"/><path class="cls-1" d="M255.15,177.42a62.79,62.79,0,0,1-44.76,19.07v31.62a95.16,95.16,0,0,0,67.5-28l-15.07-15.07h0Z" transform="translate(-26 -20.15)"/><path class="cls-1" d="M166.08,88.35,137.8,60.07a102.33,102.33,0,0,0-30.07,72.59H147A62.79,62.79,0,0,1,166.08,88.35Z" transform="translate(-26 -20.15)"/><path class="cls-1" d="M273,132.66c0,.28,0,.56,0,.84a62.78,62.78,0,0,1-17.85,43.92l7.67,7.67a73.92,73.92,0,0,0,21.72-52.43Z" transform="translate(-26 -20.15)"/><polygon class="cls-1" points="229.15 157.26 236.82 164.94 236.82 164.94 229.15 157.26 229.15 157.26"/><path class="cls-1" d="M210,196.5a62.8,62.8,0,0,1-44.77-18.69l-16.08,16.08a86.33,86.33,0,0,0,61.24,25.37V196.49Z" transform="translate(-26 -20.15)"/><path class="cls-1" d="M147,132.66H96.25a113.78,113.78,0,0,0,33.43,80.71l35.55-35.55A62.79,62.79,0,0,1,147,133.5C147,133.22,147,132.94,147,132.66Z" transform="translate(-26 -20.15)"/><path class="cls-2" d="M103.81,22.78l-.13-.13,2.5-2.5a8.39,8.39,0,0,1,.63.56c.59.59.68,1.06.09,1.65s-1.09.51-1.67-.07l-.22-.24.12-.12a2.44,2.44,0,0,0,.19.21c.53.53.92.61,1.44.09s.43-.89-.09-1.41l-.47-.43Z" transform="translate(-26 -20.15)"/><path class="cls-2" d="M106.24,23.84a.28.28,0,0,1,.41,0l1.08.8c.55-.55.68-.74.19-1.22a3.24,3.24,0,0,0-.64-.47l.09-.14a3.42,3.42,0,0,1,.69.52c.59.59.38.87-.31,1.55l-.92.92-.12-.12.34-.34a.67.67,0,0,1-.92-.17C105.67,24.71,105.72,24.37,106.24,23.84Zm1.31,1,.05-.05L106.54,24a.13.13,0,0,0-.18,0c-.45.45-.48.71-.12,1.07S106.95,25.42,107.55,24.82Z" transform="translate(-26 -20.15)"/><path class="cls-2" d="M107.53,26.51l-.13-.13,1.82-1.82.11.11-.17.19a1.16,1.16,0,0,1,.74.33c.46.46.42.82-.07,1.31l-1.16,1.16-.13-.13,1.16-1.16c.42-.42.47-.68,0-1.1a1.14,1.14,0,0,0-.7-.28Z" transform="translate(-26 -20.15)"/><path class="cls-2" d="M110.22,27.43l.84-.84-.25-.25.11-.11.25.25.36-.36.16.09-.39.39.58.58-.11.11-.58-.58-1,1c-.42.42-.59.65-.28,1a2.3,2.3,0,0,0,.27.22l-.09.13a2.09,2.09,0,0,1-.29-.23C109.32,28.34,109.58,28.08,110.22,27.43Z" transform="translate(-26 -20.15)"/><path class="cls-2" d="M112.75,29.89c-.65.65-1.13.77-1.65.24s-.41-1,.24-1.65,1.12-.76,1.65-.24S113.4,29.24,112.75,29.89Zm-1.54.13c.45.45.83.31,1.4-.26s.7-.95.26-1.39-.82-.31-1.39.26S110.77,29.57,111.21,30Z" transform="translate(-26 -20.15)"/><path class="cls-2" d="M112.46,31.44l-.13-.13,1.82-1.82.11.11-.17.19a1.16,1.16,0,0,1,.74.33c.46.46.42.82-.07,1.31l-1.16,1.16-.13-.13,1.16-1.16c.42-.42.47-.68,0-1.1a1.14,1.14,0,0,0-.7-.28Z" transform="translate(-26 -20.15)"/><path class="cls-2" d="M116.54,33.29a.27.27,0,0,1-.41,0L115,32.41c-.52.57-.58.85-.11,1.32a3.08,3.08,0,0,0,.57.43l-.09.15a3.41,3.41,0,0,1-.62-.49c-.51-.51-.52-.9.23-1.65s1.15-.73,1.62-.25S117.1,32.73,116.54,33.29Zm-1.38-1,1.08.85a.13.13,0,0,0,.19,0c.51-.51.45-.76.1-1.11S115.77,31.68,115.16,32.29Z" transform="translate(-26 -20.15)"/><path class="cls-2" d="M116.74,35.71l-.13-.13,2.5-2.5a8.35,8.35,0,0,1,.63.56c.59.59.68,1.06.09,1.65s-1.09.51-1.67-.07l-.22-.24.12-.12a2.38,2.38,0,0,0,.19.21c.53.53.92.61,1.44.09s.43-.89-.09-1.41c-.12-.12-.31-.3-.47-.43Z" transform="translate(-26 -20.15)"/><path class="cls-2" d="M119.81,38.87c-.54-.54-.31-1.13.26-1.7,1-1,1.72-1.31,2.38-.65a3.35,3.35,0,0,1,.48.64l-.15.09a3.31,3.31,0,0,0-.45-.61c-.55-.55-1.09-.24-1.8.37a1.56,1.56,0,0,1,.81.34.91.91,0,0,1,0,1.45C120.85,39.32,120.33,39.39,119.81,38.87Zm1.4-1.41a1.57,1.57,0,0,0-.79-.35,1.27,1.27,0,0,0-.22.19c-.4.4-.64.82-.44,1.21a.94.94,0,0,0,.17.23c.44.44.85.36,1.3-.1A.74.74,0,0,0,121.21,37.47Z" transform="translate(-26 -20.15)"/><path class="cls-2" d="M121.65,40.71c-.55-.55-.59-1-.11-1.47.3-.3.55-.35,1.09-.2a.75.75,0,0,1,.21-.95c.43-.43.88-.31,1.3.12s.64.88.18,1.34a1,1,0,0,1-1.08.32c.18.41.18.63-.13.94C122.64,41.29,122.2,41.26,121.65,40.71Zm1.06-1.5c-.43-.12-.72-.14-1,.15s-.41.74.08,1.22.81.49,1.22.08S123.27,40.16,122.71,39.21Zm1.32-.88c-.37-.37-.7-.46-1-.11s-.35.54.2,1.47c.58.09.73,0,1-.28S124.43,38.73,124,38.33Z" transform="translate(-26 -20.15)"/><path class="cls-2" d="M123.94,40.86l1,1-.12.12-1-1Z" transform="translate(-26 -20.15)"/><path class="cls-2" d="M124.55,43.52l.12-.12.63.63,2.14-2.14-.94-.32.06-.15,1.05.34.11.11-2.29,2.29.54.54-.12.12Z" transform="translate(-26 -20.15)"/><path class="cls-2" d="M126.83,45.89a4.42,4.42,0,0,1-.53-.68l.15-.1a4.13,4.13,0,0,0,.5.66.87.87,0,0,0,1.37,0,.72.72,0,0,0,0-1.19,1.33,1.33,0,0,0-.69-.32l-.07-.14,1.22-1.15L130,44.15l-.12.12-1.1-1.1-1,.95a1.29,1.29,0,0,1,.7.32.89.89,0,0,1,0,1.42A1,1,0,0,1,126.83,45.89Z" transform="translate(-26 -20.15)"/><path class="cls-2" d="M130.25,49.15a3.35,3.35,0,0,1-.63-.48c-.52-.52-.64-1.16.41-2.22s1.57-.94,2.16-.35a3.47,3.47,0,0,1,.47.61l-.14.09a3.59,3.59,0,0,0-.45-.58c-.51-.51-1-.47-1.89.37s-.89,1.49-.43,1.95a3,3,0,0,0,.6.45Z" transform="translate(-26 -20.15)"/><path class="cls-2" d="M99.14,28.88a2.19,2.19,0,0,1-.43-.33c-.42-.42-.42-.89.2-1.51s1-.62,1.47-.17a2.6,2.6,0,0,1,.34.42l-.35.25a1.66,1.66,0,0,0-.23-.31c-.24-.24-.47-.23-.86.16s-.43.67-.2.9a1.51,1.51,0,0,0,.31.23Z" transform="translate(-26 -20.15)"/><path class="cls-2" d="M103,32.83c-.37-.37-.39-.66-.07-1s.37-.24.73-.14a.5.5,0,0,1,.14-.63c.28-.28.58-.2.87.08s.42.59.12.89a.64.64,0,0,1-.72.21c.12.27.12.42-.09.63S103.35,33.2,103,32.83Zm.71-1c-.29-.08-.48-.09-.67.1s-.27.49.05.82.54.32.81.05S104.06,32.47,103.69,31.84Zm.88-.59c-.25-.25-.46-.3-.7-.07s-.23.36.13,1c.38.06.48,0,.67-.18S104.83,31.52,104.57,31.25Z" transform="translate(-26 -20.15)"/><path class="cls-2" d="M104,33.49l.08.14-.67.29,0-.09Z" transform="translate(-26 -20.15)"/><path class="cls-2" d="M105.41,34.17l-.83,0,.82.82-.09.08-.92-.92.08-.08.95,0c.58,0,.68-.07.94-.33a.44.44,0,0,0,0-.71,1.55,1.55,0,0,0-.45-.26l0-.1a1.65,1.65,0,0,1,.5.29.55.55,0,0,1,0,.87C106.15,34.11,106.06,34.15,105.41,34.17Z" transform="translate(-26 -20.15)"/><path class="cls-2" d="M107.64,34.17c.39.39.23.76-.19,1.18-.66.66-1.11.84-1.55.41a2.6,2.6,0,0,1-.34-.46l.11-.07a2.21,2.21,0,0,0,.32.44.54.54,0,0,0,.67.13,2.31,2.31,0,0,0,.53-.37,1.08,1.08,0,0,1-.54-.23.62.62,0,0,1,0-1A.65.65,0,0,1,107.64,34.17Zm-.92.95c.21.21.51.27.64.14.37-.37.53-.68.2-1s-.56-.22-.84.06A.51.51,0,0,0,106.72,35.11Z" transform="translate(-26 -20.15)"/><path class="cls-2" d="M96.46,32.09,97.57,31h0l-1.15.5-.24-.24.49-1.16h0l-1.11,1.11-.34-.34,1.63-1.63.43.43-.53,1.27h0L98,30.37l.43.43-1.63,1.63Z" transform="translate(-26 -20.15)"/><path class="cls-2" d="M101.62,34c.39.39.23.76-.19,1.18-.66.66-1.11.84-1.55.41a2.59,2.59,0,0,1-.34-.46l.11-.07a2.21,2.21,0,0,0,.32.44.54.54,0,0,0,.67.13,2.31,2.31,0,0,0,.53-.37,1.08,1.08,0,0,1-.54-.23.62.62,0,0,1,0-1A.65.65,0,0,1,101.62,34Zm-.92.95c.21.21.51.27.64.14.37-.37.53-.68.2-1s-.56-.22-.84.06A.51.51,0,0,0,100.7,34.94Z" transform="translate(-26 -20.15)"/><path class="cls-2" d="M101,36.32l.08.14-.67.29,0-.09Z" transform="translate(-26 -20.15)"/><path class="cls-2" d="M102.73,37.63l-.26-.26-.37.37-.09-.09.37-.37-.72-.72.07-.07,1.57-.78.09.09-1.55.77.62.62.54-.54.09.09-.54.54.26.26Z" transform="translate(-26 -20.15)"/><path class="cls-2" d="M103.61,38.21l-.83,0,.82.82-.09.08-.92-.92.08-.08.95,0c.58,0,.68-.07.94-.33a.44.44,0,0,0,0-.71,1.55,1.55,0,0,0-.45-.26l0-.1a1.65,1.65,0,0,1,.5.29.55.55,0,0,1,0,.87C104.35,38.15,104.26,38.2,103.61,38.21Z" transform="translate(-26 -20.15)"/><path class="cls-2" d="M93,34.5l-.36-.36.64-.64.5-1.47.43.43-.43.93h0l.92-.43.38.38-1.46.51Z" transform="translate(-26 -20.15)"/><path class="cls-2" d="M96.56,36.31l.22.22c.33.18.51.2.72,0s.22-.43,0-.7a1.58,1.58,0,0,0-.46-.3l0-.1a1.79,1.79,0,0,1,.5.32c.32.32.35.57,0,.87s-.44.2-.73.05h0c.24.3.31.5,0,.77a.62.62,0,0,1-1,0,3.32,3.32,0,0,1-.39-.51l.1-.07a3.22,3.22,0,0,0,.37.49.74.74,0,0,0,.34.21.53.53,0,0,0,.5-.2c.25-.25.15-.42-.1-.74l-.21-.21Z" transform="translate(-26 -20.15)"/><path class="cls-2" d="M97.08,38.62a2.94,2.94,0,0,1-.35-.45l.1-.07a2.76,2.76,0,0,0,.33.44.58.58,0,0,0,.91,0,.48.48,0,0,0,0-.79.88.88,0,0,0-.46-.21l0-.09.82-.77.81.81-.08.08-.73-.73-.67.63a.86.86,0,0,1,.46.21.59.59,0,0,1,0,.95A.7.7,0,0,1,97.08,38.62Z" transform="translate(-26 -20.15)"/><path class="cls-2" d="M98.2,39.33l.08.14-.67.29,0-.09Z" transform="translate(-26 -20.15)"/><path class="cls-2" d="M100.26,40.14c-.5.5-.9.75-1.33.32s-.18-.82.32-1.33.91-.76,1.34-.33S100.76,39.63,100.26,40.14ZM99,40.37c.37.37.72.11,1.15-.33s.72-.79.34-1.17-.73-.1-1.17.34S98.64,40,99,40.37Zm.8-1.19.11,0L99.7,40l-.11,0Z" transform="translate(-26 -20.15)"/><path class="cls-2" d="M100.78,41.23l-.83,0,.82.82-.09.08-.92-.92.08-.08.95,0c.58,0,.68-.07.94-.33a.44.44,0,0,0,0-.71,1.55,1.55,0,0,0-.45-.26l0-.1a1.65,1.65,0,0,1,.5.29.55.55,0,0,1,0,.87C101.52,41.17,101.43,41.21,100.78,41.23Z" transform="translate(-26 -20.15)"/><path class="cls-2" d="M92.15,36.22a12.38,12.38,0,0,1-1.17.41c-.11.37-.29.81-.45,1.22l-.39-.39c.13-.35.28-.71.36-1l-.14-.11L89.7,37l-.35-.35L91,35l.35.35-.7.7.14.1a9,9,0,0,0,1-.38Z" transform="translate(-26 -20.15)"/><path class="cls-2" d="M93.86,41.18l.08-.08.42.42,1.43-1.43-.63-.21,0-.1.7.23.07.07-1.53,1.53.36.36-.08.08Z" transform="translate(-26 -20.15)"/><path class="cls-2" d="M95.28,42.25l.08.14-.67.29,0-.09Z" transform="translate(-26 -20.15)"/><path class="cls-2" d="M95.65,43l.08-.08.42.42,1.43-1.43-.63-.21,0-.1.7.23.07.07L96.23,43.4l.36.36-.08.08Z" transform="translate(-26 -20.15)"/><path class="cls-2" d="M98.88,42.93c.39.39.23.76-.19,1.18-.66.66-1.11.84-1.55.41a2.59,2.59,0,0,1-.34-.46L96.9,44a2.22,2.22,0,0,0,.32.44.54.54,0,0,0,.67.13,2.31,2.31,0,0,0,.53-.37,1.08,1.08,0,0,1-.54-.23.62.62,0,0,1,0-1A.65.65,0,0,1,98.88,42.93Zm-.92.95c.21.21.51.27.64.14.37-.37.53-.68.2-1s-.56-.22-.84.06A.51.51,0,0,0,98,43.88Z" transform="translate(-26 -20.15)"/><path class="cls-2" d="M307,136.08a2.19,2.19,0,0,1-.54.07c-.6,0-.92-.33-.92-1.21s.29-1.16.92-1.16a2.6,2.6,0,0,1,.54.06l-.07.42a1.68,1.68,0,0,0-.38-.05c-.34,0-.5.18-.5.73s.17.77.5.77a1.5,1.5,0,0,0,.39-.06Z" transform="translate(-26 -20.15)"/><path class="cls-2" d="M318.73,135c0,.71-.1,1.16-.71,1.16s-.71-.45-.71-1.16.1-1.18.71-1.18S318.73,134.27,318.73,135Zm-.71,1c.53,0,.58-.43.58-1s-.06-1.07-.58-1.07-.58.44-.58,1.07S317.5,136,318,136Zm-.28-1.4.1-.06.43.75-.1.06Z" transform="translate(-26 -20.15)"/><path class="cls-2" d="M307.35,140.24v-1.58h0l-.46,1.17h-.34l-.47-1.16h0v1.58h-.47v-2.3h.61l.52,1.27h0l.5-1.27h.61v2.3Z" transform="translate(-26 -20.15)"/><path class="cls-2" d="M312.28,140.29a3,3,0,0,1-.57-.07l0-.12a2.77,2.77,0,0,0,.54.08.58.58,0,0,0,.63-.66c0-.4-.16-.57-.55-.57a.89.89,0,0,0-.47.18l-.1,0,0-1.12H313v.12h-1c0,.18,0,.27,0,.92a.86.86,0,0,1,.48-.18.59.59,0,0,1,.66.67A.7.7,0,0,1,312.28,140.29Z" transform="translate(-26 -20.15)"/><path class="cls-2" d="M314.89,139.72h-.37v.52h-.13v-.52h-1v-.1l.56-1.66h.13l-.55,1.64h.87v-.76h.13v.76h.37Z" transform="translate(-26 -20.15)"/><path class="cls-2" d="M315.29,140l.15,0-.27.67-.1,0Z" transform="translate(-26 -20.15)"/><path class="cls-2" d="M316.06,140.24v-.11h.59v-2l-.59.29,0-.1.66-.33h.1v2.16h.51v.11Z" transform="translate(-26 -20.15)"/><path class="cls-2" d="M317.67,138H319V138l-.87,2.2H318l.86-2.16h-1.2Z" transform="translate(-26 -20.15)"/><path class="cls-2" d="M306.62,144.38h-.5v-.91l-.68-1.39h.6l.35,1h0l.34-1h.54l-.67,1.39Z" transform="translate(-26 -20.15)"/><path class="cls-2" d="M312.06,144.42c-.52,0-.74-.19-.74-.64,0-.28.09-.43.42-.61a.5.5,0,0,1-.35-.54c0-.4.27-.56.67-.56s.72.12.72.54a.64.64,0,0,1-.36.66c.28.11.38.21.38.51C312.8,144.22,312.57,144.42,312.06,144.42Zm-.21-1.2c-.26.15-.41.28-.41.55s.16.54.61.54.61-.15.61-.54S312.56,143.4,311.85,143.21Zm.21-1c-.35,0-.54.11-.54.44s.09.42.79.6c.31-.23.34-.34.34-.61S312.43,142.18,312.06,142.18Z" transform="translate(-26 -20.15)"/><path class="cls-2" d="M313.7,144.42a3,3,0,0,1-.57-.07l0-.12a2.76,2.76,0,0,0,.54.08.58.58,0,0,0,.63-.66c0-.4-.16-.57-.55-.57a.89.89,0,0,0-.47.18l-.1,0,0-1.12h1.15v.12h-1c0,.18,0,.27,0,.92a.86.86,0,0,1,.48-.18.59.59,0,0,1,.66.67A.7.7,0,0,1,313.7,144.42Z" transform="translate(-26 -20.15)"/><path class="cls-2" d="M315,144.13l.15,0-.27.67-.1,0Z" transform="translate(-26 -20.15)"/><path class="cls-2" d="M316.43,143.65l-.57.61H317v.12h-1.3v-.12l.64-.7c.4-.43.43-.53.43-.89s-.18-.48-.52-.48a1.55,1.55,0,0,0-.5.13l0-.11a1.65,1.65,0,0,1,.56-.14c.41,0,.64.19.64.6S316.88,143.17,316.43,143.65Z" transform="translate(-26 -20.15)"/><path class="cls-2" d="M318,144.42c-.52,0-.74-.19-.74-.64,0-.28.09-.43.42-.61a.5.5,0,0,1-.35-.54c0-.4.27-.56.67-.56s.72.12.72.54a.64.64,0,0,1-.36.66c.28.11.38.21.38.51C318.77,144.22,318.55,144.42,318,144.42Zm-.21-1.2c-.26.15-.41.28-.41.55s.16.54.61.54.61-.15.61-.54S318.53,143.4,317.82,143.21Zm.21-1c-.35,0-.54.11-.54.44s.09.42.79.6c.31-.23.34-.34.34-.61S318.4,142.18,318,142.18Z" transform="translate(-26 -20.15)"/><path class="cls-2" d="M307.22,146.21a12.38,12.38,0,0,1-.53,1.12c.18.34.36.78.55,1.18h-.55c-.15-.34-.3-.7-.44-.94l-.18,0v.92h-.5v-2.3h.5v1l.17,0a9,9,0,0,0,.44-1Z" transform="translate(-26 -20.15)"/><path class="cls-2" d="M314.49,147.38c0,.71-.1,1.16-.71,1.16s-.71-.45-.71-1.16.1-1.18.71-1.18S314.49,146.66,314.49,147.38Zm-.71,1c.53,0,.58-.43.58-1s-.06-1.07-.58-1.07-.58.44-.58,1.07S313.25,148.42,313.77,148.42Zm-.28-1.4.1-.06.43.75-.1.06Z" transform="translate(-26 -20.15)"/><path class="cls-2" d="M315,148.26l.15,0-.27.67-.1,0Z" transform="translate(-26 -20.15)"/><path class="cls-2" d="M317,147.38c0,.71-.1,1.16-.71,1.16s-.71-.45-.71-1.16.1-1.18.71-1.18S317,146.66,317,147.38Zm-.71,1c.53,0,.58-.43.58-1s-.06-1.07-.58-1.07-.58.44-.58,1.07S315.77,148.42,316.3,148.42ZM316,147l.1-.06.43.75-.1.06Z" transform="translate(-26 -20.15)"/><path class="cls-2" d="M317.48,148.51v-.11h.59v-2l-.59.29,0-.1.66-.33h.1v2.16h.51v.11Z" transform="translate(-26 -20.15)"/><path class="cls-2" d="M305.91,130.64h-.15v-2.95c.27,0,.48,0,.7,0,.7,0,1,.22,1,.92s-.34.94-1,.94h-.27v-.14h.24c.62,0,.9-.18.9-.8s-.27-.77-.88-.77l-.53,0Z" transform="translate(-26 -20.15)"/><path class="cls-2" d="M308,129.83c0-.14.09-.22.24-.24l1.11-.16c0-.65,0-.84-.61-.84a2.69,2.69,0,0,0-.65.1l0-.13a2.84,2.84,0,0,1,.71-.1c.7,0,.73.29.73,1.1v1.08h-.14v-.4a.56.56,0,0,1-.64.44C308.14,130.68,308,130.45,308,129.83Zm1.35-.2v-.06l-1.1.16a.11.11,0,0,0-.1.11c0,.53.14.7.56.7S309.32,130.34,309.32,129.63Z" transform="translate(-26 -20.15)"/><path class="cls-2" d="M310.3,130.64h-.15v-2.15h.13v.21a1,1,0,0,1,.63-.24c.54,0,.73.24.73.81v1.37h-.15v-1.37c0-.5-.13-.68-.62-.68a1,1,0,0,0-.58.25Z" transform="translate(-26 -20.15)"/><path class="cls-2" d="M312.43,129.6v-1h-.3v-.13h.3v-.43l.15,0v.47h.68v.13h-.68v1.18c0,.49,0,.73.4.73l.28,0,0,.13a1.78,1.78,0,0,1-.31,0C312.43,130.67,312.43,130.36,312.43,129.6Z" transform="translate(-26 -20.15)"/><path class="cls-2" d="M315.36,129.56c0,.77-.21,1.12-.83,1.12s-.83-.35-.83-1.12.22-1.11.83-1.11S315.36,128.79,315.36,129.56Zm-.83,1c.52,0,.67-.31.67-1s-.15-1-.67-1-.67.3-.67,1S314,130.54,314.53,130.54Z" transform="translate(-26 -20.15)"/><path class="cls-2" d="M316.11,130.64H316v-2.15h.13v.21a1,1,0,0,1,.63-.24c.54,0,.73.24.73.81v1.37h-.15v-1.37c0-.5-.13-.68-.62-.68a1,1,0,0,0-.58.25Z" transform="translate(-26 -20.15)"/><path class="cls-2" d="M319.6,129.33c0,.14-.08.22-.24.24l-1.16.12c0,.64.16.84.71.84a2.55,2.55,0,0,0,.59-.08l0,.14a2.82,2.82,0,0,1-.65.08c-.6,0-.84-.22-.84-1.11s.25-1.11.81-1.11S319.6,128.66,319.6,129.33Zm-1.4.22,1.14-.13a.11.11,0,0,0,.11-.11c0-.6-.18-.72-.6-.72S318.2,128.83,318.2,129.55Z" transform="translate(-26 -20.15)"/><path class="cls-2" d="M321.15,130.64H321v-2.95c.27,0,.48,0,.7,0,.7,0,1,.22,1,.92s-.34.94-1,.94h-.27v-.14h.24c.62,0,.9-.18.9-.8s-.27-.77-.88-.77l-.53,0Z" transform="translate(-26 -20.15)"/><path class="cls-2" d="M325,129.72l-.71.76h1.46v.15H324.1v-.15l.8-.88c.49-.54.54-.66.54-1.12s-.23-.6-.65-.6a1.92,1.92,0,0,0-.63.17l-.05-.13a2,2,0,0,1,.7-.18c.52,0,.8.23.8.75S325.56,129.13,325,129.72Z" transform="translate(-26 -20.15)"/><path class="cls-2" d="M326.16,127.79h1.69v.09l-1.09,2.76h-.17l1.08-2.7h-1.5Z" transform="translate(-26 -20.15)"/><path class="cls-2" d="M328.42,129.43h1.16v.15h-1.16Z" transform="translate(-26 -20.15)"/><path class="cls-2" d="M330.21,127.79h1.69v.09l-1.09,2.76h-.17l1.08-2.7h-1.5Z" transform="translate(-26 -20.15)"/><path class="cls-2" d="M334.88,130.59a2.77,2.77,0,0,1-.65.09c-.61,0-1.06-.31-1.06-1.55s.38-1.48,1.06-1.48a2.86,2.86,0,0,1,.64.09l0,.13a3,3,0,0,0-.61-.07c-.6,0-.9.34-.9,1.33s.36,1.4.9,1.4a2.49,2.49,0,0,0,.62-.09Z" transform="translate(-26 -20.15)"/><path class="cls-2" d="M101.3,246.39a2.2,2.2,0,0,1-.33.43c-.42.42-.89.42-1.51-.2s-.62-1-.17-1.47a2.58,2.58,0,0,1,.42-.34l.25.35a1.68,1.68,0,0,0-.31.23c-.24.24-.23.47.16.86s.67.43.9.2a1.5,1.5,0,0,0,.23-.31Z" transform="translate(-26 -20.15)"/><path class="cls-2" d="M107,240.81a2.91,2.91,0,0,1-.45.35l-.07-.1a2.8,2.8,0,0,0,.44-.33.58.58,0,0,0,0-.91.48.48,0,0,0-.79,0,.89.89,0,0,0-.21.46l-.09,0-.77-.81.81-.81.08.08-.73.73.63.67a.86.86,0,0,1,.21-.46.59.59,0,0,1,.95,0A.7.7,0,0,1,107,240.81Z" transform="translate(-26 -20.15)"/><path class="cls-2" d="M107.11,238.9l.22-.22c.18-.33.2-.51,0-.72s-.43-.22-.7,0a1.58,1.58,0,0,0-.3.46l-.1,0a1.79,1.79,0,0,1,.32-.5c.32-.32.57-.35.87,0s.2.44.05.73h0c.3-.24.5-.31.77,0a.62.62,0,0,1,0,1,3.3,3.3,0,0,1-.51.39l-.07-.1a3.22,3.22,0,0,0,.49-.37.74.74,0,0,0,.21-.34.53.53,0,0,0-.2-.5c-.25-.25-.42-.15-.74.1l-.21.21Z" transform="translate(-26 -20.15)"/><path class="cls-2" d="M104.52,249.06l-1.12-1.12h0l.5,1.15-.24.24-1.16-.49h0l1.11,1.11-.34.34-1.63-1.63.43-.43,1.27.53h0l-.55-1.26.43-.43,1.63,1.63Z" transform="translate(-26 -20.15)"/><path class="cls-2" d="M110.85,241.13c.5.5.75.9.32,1.33s-.82.18-1.33-.32-.76-.91-.33-1.34S110.34,240.63,110.85,241.13Zm.24,1.24c.37-.37.11-.72-.33-1.15s-.79-.72-1.17-.34-.1.73.34,1.17S110.71,242.75,111.09,242.38Zm-1.19-.8,0-.11.83.22,0,.11Z" transform="translate(-26 -20.15)"/><path class="cls-2" d="M106.92,252.5l-.36.36-.64-.64-1.47-.5.43-.43.93.43h0l-.43-.92.38-.38.51,1.46Z" transform="translate(-26 -20.15)"/><path class="cls-2" d="M112.89,246.59c-.37.37-.66.39-1,.07s-.24-.37-.14-.73a.5.5,0,0,1-.63-.14c-.28-.28-.2-.58.08-.87s.59-.42.89-.12a.64.64,0,0,1,.21.72c.27-.12.42-.12.63.09S113.26,246.23,112.89,246.59Zm-1-.71c-.08.29-.09.48.1.67s.49.27.82-.05.32-.54.05-.81S112.52,245.51,111.89,245.89Zm-.59-.88c-.25.25-.3.46-.07.7s.36.23,1-.13c.06-.38,0-.48-.18-.67S111.57,244.75,111.3,245Z" transform="translate(-26 -20.15)"/><path class="cls-2" d="M113,244.74l.22-.22c.18-.33.2-.51,0-.72s-.43-.22-.7,0a1.59,1.59,0,0,0-.3.46l-.1,0a1.8,1.8,0,0,1,.32-.5c.32-.32.57-.35.87,0s.2.44.05.73h0c.3-.24.5-.31.77,0a.62.62,0,0,1,0,1,3.3,3.3,0,0,1-.51.39l-.07-.1a3.22,3.22,0,0,0,.49-.37.74.74,0,0,0,.21-.34.53.53,0,0,0-.2-.5c-.25-.25-.42-.15-.74.1l-.21.21Z" transform="translate(-26 -20.15)"/><path class="cls-2" d="M108.64,253.37c.17.42.29.74.41,1.17.37.11.81.29,1.22.45l-.39.39c-.35-.13-.71-.28-1-.36l-.11.14.65.65-.35.35-1.63-1.63.35-.35.7.7.1-.14a8.92,8.92,0,0,0-.38-1Z" transform="translate(-26 -20.15)"/><path class="cls-2" d="M116.7,247c.5.5.75.9.32,1.33s-.82.19-1.33-.32-.76-.91-.33-1.34S116.2,246.46,116.7,247Zm.24,1.24c.37-.37.11-.72-.33-1.15s-.79-.72-1.17-.34-.1.72.34,1.17S116.56,248.59,116.94,248.21Zm-1.19-.8,0-.11.83.22,0,.11Z" transform="translate(-26 -20.15)"/><path class="cls-2" d="M96.77,243.35l-.11.11-2.08-2.08c.17-.21.31-.36.47-.52.49-.49.88-.57,1.38-.08s.42.91-.06,1.39l-.2.18-.1-.1.17-.16c.44-.44.51-.76.07-1.2s-.74-.36-1.17.08l-.36.39Z" transform="translate(-26 -20.15)"/><path class="cls-2" d="M97.65,241.32a.23.23,0,0,1,0-.34l.67-.9c-.46-.46-.62-.56-1-.16a2.7,2.7,0,0,0-.4.53l-.12-.07a2.86,2.86,0,0,1,.43-.57c.49-.49.72-.31,1.3.26l.76.76-.1.1-.28-.28a.56.56,0,0,1-.14.76C98.37,241.8,98.09,241.76,97.65,241.32Zm.82-1.09,0,0-.66.89a.11.11,0,0,0,0,.15c.38.38.59.4.89.1S99,240.73,98.46,240.23Z" transform="translate(-26 -20.15)"/><path class="cls-2" d="M99.87,240.24l-.11.11-1.52-1.52.09-.09.16.14a1,1,0,0,1,.27-.61c.38-.38.68-.35,1.09.05l1,1-.11.11-1-1c-.35-.35-.57-.39-.92,0a1,1,0,0,0-.24.58Z" transform="translate(-26 -20.15)"/><path class="cls-2" d="M100.64,238l-.7-.7-.21.21-.09-.09.21-.21-.3-.3.08-.14.33.33.48-.48.09.09-.48.48.84.84c.35.35.54.49.8.24a1.9,1.9,0,0,0,.18-.22l.11.08a1.77,1.77,0,0,1-.19.24C101.4,238.76,101.18,238.54,100.64,238Z" transform="translate(-26 -20.15)"/><path class="cls-2" d="M102.69,235.9c.54.54.64.94.2,1.38s-.84.34-1.38-.2-.63-.94-.2-1.37S102.14,235.36,102.69,235.9Zm.11,1.28c.37-.37.26-.69-.22-1.17s-.79-.58-1.16-.21-.26.69.21,1.16S102.42,237.55,102.79,237.18Z" transform="translate(-26 -20.15)"/><path class="cls-2" d="M104,236.14l-.11.11-1.52-1.52.09-.09.16.14a1,1,0,0,1,.27-.61c.38-.38.68-.35,1.09.06l1,1-.11.11-1-1c-.35-.35-.57-.39-.92,0a1,1,0,0,0-.24.58Z" transform="translate(-26 -20.15)"/><path class="cls-2" d="M105.52,232.74a.23.23,0,0,1,0,.34l-.73.9c.47.43.71.48,1.1.09a2.57,2.57,0,0,0,.36-.47l.12.08a2.84,2.84,0,0,1-.41.52c-.42.42-.75.43-1.37-.19s-.61-1-.21-1.35S105.05,232.27,105.52,232.74Zm-.83,1.15.71-.9a.11.11,0,0,0,0-.16c-.43-.43-.63-.38-.93-.08S104.18,233.38,104.69,233.89Z" transform="translate(-26 -20.15)"/><path class="cls-2" d="M107.54,232.57l-.11.11-2.08-2.08a7,7,0,0,1,.47-.52c.49-.49.88-.57,1.38-.08s.42.91-.06,1.39l-.2.18-.1-.1.17-.16c.44-.44.51-.76.07-1.2s-.74-.36-1.17.08l-.36.39Z" transform="translate(-26 -20.15)"/><path class="cls-2" d="M109.66,230.45l-.1-.1.52-.52L108.3,228l-.26.78-.13,0,.29-.88.09-.09,1.91,1.91.45-.45.1.1Z" transform="translate(-26 -20.15)"/><path class="cls-2" d="M111.64,228.55a3.66,3.66,0,0,1-.57.44l-.09-.13a3.43,3.43,0,0,0,.55-.41.72.72,0,0,0,0-1.14.6.6,0,0,0-1,0,1.11,1.11,0,0,0-.26.57l-.12.06-1-1,1-1,.1.1-.92.92.79.84a1.07,1.07,0,0,1,.26-.58.74.74,0,0,1,1.18,0A.87.87,0,0,1,111.64,228.55Z" transform="translate(-26 -20.15)"/><path class="cls-2" d="M113.45,225.74l-.33.33.46.46-.11.11-.46-.46-.89.89L112,227l-1-2,.12-.12,1,1.94.77-.77-.67-.67.11-.11.67.67.33-.33Z" transform="translate(-26 -20.15)"/><path class="cls-2" d="M113.36,225.05l.82-.82.1.1-.82.82Z" transform="translate(-26 -20.15)"/><path class="cls-2" d="M113.45,222.63l1.19-1.19.07.07,1.17,2.72-.12.12-1.15-2.67-1.06,1.06Z" transform="translate(-26 -20.15)"/><path class="cls-2" d="M118.74,221.31a2.8,2.8,0,0,1-.4.53c-.43.43-1,.53-1.85-.34s-.78-1.31-.3-1.8a2.89,2.89,0,0,1,.51-.39l.07.12a3,3,0,0,0-.48.38c-.42.42-.39.87.31,1.58s1.24.74,1.62.36a2.5,2.5,0,0,0,.38-.5Z" transform="translate(-26 -20.15)"/><path class="cls-2" d="M214,280.87a2.2,2.2,0,0,1,.07.54c0,.6-.33.92-1.21.92s-1.16-.29-1.16-.92a2.58,2.58,0,0,1,.06-.54l.42.07a1.69,1.69,0,0,0-.05.38c0,.34.18.5.73.5s.77-.17.77-.5a1.5,1.5,0,0,0-.06-.38Z" transform="translate(-26 -20.15)"/><path class="cls-2" d="M211.73,273.49v-1.35h.08l2.2.87v.13l-2.16-.86v1.2Z" transform="translate(-26 -20.15)"/><path class="cls-2" d="M214,271.19a2.93,2.93,0,0,1-.07.57l-.12,0a2.8,2.8,0,0,0,.08-.54.58.58,0,0,0-.66-.63c-.4,0-.57.16-.57.55a.89.89,0,0,0,.18.47l0,.1-1.12,0V270.5h.12v1l.92,0a.86.86,0,0,1-.18-.48.59.59,0,0,1,.67-.66A.7.7,0,0,1,214,271.19Z" transform="translate(-26 -20.15)"/><path class="cls-2" d="M218.14,280.49h-1.58l1.17.46v.34l-1.16.47h1.58v.47h-2.3v-.61l1.27-.52h0l-1.27-.5V280h2.3Z" transform="translate(-26 -20.15)"/><path class="cls-2" d="M218.14,275.17H218v-.59h-2l.29.59-.1,0-.33-.66v-.1H218v-.51h.11Z" transform="translate(-26 -20.15)"/><path class="cls-2" d="M217,272.19c.71,0,1.16.1,1.16.71s-.45.71-1.16.71-1.18-.1-1.18-.71S216.29,272.19,217,272.19Zm1,.71c0-.53-.43-.58-1-.58s-1.07.06-1.07.58.44.58,1.07.58S218.05,273.43,218.05,272.91Zm-1.4.27-.06-.1.75-.43.06.1Z" transform="translate(-26 -20.15)"/><path class="cls-2" d="M217,270.47c.71,0,1.16.1,1.16.71s-.45.71-1.16.71-1.18-.1-1.18-.71S216.29,270.47,217,270.47Zm1,.71c0-.53-.43-.58-1-.58s-1.07.06-1.07.58.44.58,1.07.58S218.05,271.71,218.05,271.18Zm-1.4.27-.06-.1.75-.43.06.1Z" transform="translate(-26 -20.15)"/><path class="cls-2" d="M222.27,281.22v.5h-.91l-1.39.68v-.6l1-.35h0l-1-.34v-.54l1.39.67Z" transform="translate(-26 -20.15)"/><path class="cls-2" d="M221.14,270.4c.71,0,1.16.1,1.16.71s-.45.71-1.16.71-1.18-.1-1.18-.71S220.42,270.4,221.14,270.4Zm1,.71c0-.53-.43-.58-1-.58s-1.07.06-1.07.58.44.58,1.07.58S222.19,271.64,222.19,271.11Zm-1.4.28-.06-.1.75-.43.06.1Z" transform="translate(-26 -20.15)"/><path class="cls-2" d="M224.1,280.62c.41.18.72.32,1.12.53.34-.18.78-.36,1.18-.55v.55c-.34.15-.7.3-.94.44l0,.18h.92v.5h-2.3v-.5h1l0-.17a9,9,0,0,0-1-.44Z" transform="translate(-26 -20.15)"/><path class="cls-2" d="M226.4,273.38h-.11v-.59h-2l.29.59-.1,0-.33-.66v-.1h2.16v-.51h.11Z" transform="translate(-26 -20.15)"/><path class="cls-2" d="M225.18,271.47v-.31c-.1-.36-.22-.5-.51-.5s-.46.15-.46.52a1.58,1.58,0,0,0,.11.54l-.11,0a1.78,1.78,0,0,1-.12-.58c0-.45.16-.65.58-.65s.45.17.55.48h0c0-.38.14-.57.52-.57s.7.24.7.73a3.32,3.32,0,0,1-.08.63l-.12,0a3.21,3.21,0,0,0,.08-.61.74.74,0,0,0-.09-.39.53.53,0,0,0-.5-.21c-.35,0-.4.19-.45.6v.3Z" transform="translate(-26 -20.15)"/><path class="cls-2" d="M208.19,281.93v.15h-2.95c0-.27,0-.48,0-.7,0-.7.22-1,.92-1s.94.34.94,1a2.21,2.21,0,0,1,0,.27h-.14a1.82,1.82,0,0,0,0-.24c0-.62-.18-.9-.8-.9s-.77.27-.77.88c0,.14,0,.36,0,.53Z" transform="translate(-26 -20.15)"/><path class="cls-2" d="M207.38,279.88c-.14,0-.22-.09-.24-.24l-.16-1.11c-.65,0-.84,0-.84.61a2.69,2.69,0,0,0,.1.65l-.13,0a2.84,2.84,0,0,1-.1-.71c0-.7.29-.73,1.1-.73h1.08v.14h-.4a.56.56,0,0,1,.44.64C208.23,279.7,208,279.88,207.38,279.88Zm-.2-1.35h-.06l.16,1.1a.11.11,0,0,0,.11.1c.53,0,.7-.14.7-.56S207.9,278.52,207.19,278.52Z" transform="translate(-26 -20.15)"/><path class="cls-2" d="M208.19,277.54v.15H206v-.13h.21a1,1,0,0,1-.24-.63c0-.54.24-.73.81-.73h1.37v.15h-1.37c-.5,0-.68.13-.68.62a1,1,0,0,0,.25.58Z" transform="translate(-26 -20.15)"/><path class="cls-2" d="M207.16,275.41h-1v.3H206v-.3h-.43l0-.15H206v-.68h.13v.68h1.18c.49,0,.73,0,.73-.4a2,2,0,0,0,0-.28l.13,0a1.78,1.78,0,0,1,0,.31C208.22,275.41,207.91,275.41,207.16,275.41Z" transform="translate(-26 -20.15)"/><path class="cls-2" d="M207.11,272.48c.77,0,1.12.21,1.12.83s-.35.83-1.12.83-1.11-.22-1.11-.83S206.35,272.48,207.11,272.48Zm1,.83c0-.52-.31-.67-1-.67s-1,.15-1,.67.3.67,1,.67S208.09,273.83,208.09,273.31Z" transform="translate(-26 -20.15)"/><path class="cls-2" d="M208.19,271.73v.15H206v-.13h.21a1,1,0,0,1-.24-.63c0-.54.24-.73.81-.73h1.37v.15h-1.37c-.5,0-.68.13-.68.62a1,1,0,0,0,.25.58Z" transform="translate(-26 -20.15)"/><path class="cls-2" d="M206.88,268.24c.14,0,.22.08.24.24l.12,1.16c.64,0,.84-.16.84-.71a2.55,2.55,0,0,0-.08-.59l.14,0a2.82,2.82,0,0,1,.08.65c0,.6-.22.84-1.11.84S206,269.55,206,269,206.22,268.24,206.88,268.24Zm.22,1.4L207,268.5a.11.11,0,0,0-.11-.11c-.6,0-.72.18-.72.6S206.39,269.64,207.11,269.64Z" transform="translate(-26 -20.15)"/><path class="cls-2" d="M208.19,266.69v.15h-2.95c0-.27,0-.48,0-.7,0-.7.22-1,.92-1s.94.34.94,1a2.21,2.21,0,0,1,0,.27h-.14a1.82,1.82,0,0,0,0-.24c0-.62-.18-.9-.8-.9s-.77.27-.77.88c0,.14,0,.36,0,.53Z" transform="translate(-26 -20.15)"/><path class="cls-2" d="M205.3,263c0-.68.47-.87,1.21-.87,1.17,0,1.73.24,1.73,1a3.22,3.22,0,0,1-.1.71l-.15,0a2.76,2.76,0,0,0,.11-.67.68.68,0,0,0-.48-.72,2.94,2.94,0,0,0-.8-.13,1.35,1.35,0,0,1,.28.68.78.78,0,0,1-.86.87C205.67,263.87,205.3,263.6,205.3,263Zm1.65,0c0-.37-.21-.69-.43-.69-.65,0-1.07.13-1.07.72s.3.68.8.68A.63.63,0,0,0,207,263Z" transform="translate(-26 -20.15)"/><path class="cls-2" d="M206.67,261.3v-.38c-.13-.45-.27-.63-.64-.63s-.58.19-.58.65a2,2,0,0,0,.14.68l-.13,0a2.24,2.24,0,0,1-.15-.72c0-.57.2-.81.73-.81s.56.22.69.6h0c.06-.47.17-.72.65-.72s.88.3.88.91a4.12,4.12,0,0,1-.1.79l-.15,0a4,4,0,0,0,.1-.76.93.93,0,0,0-.11-.49.66.66,0,0,0-.62-.26c-.44,0-.5.24-.57.75v.38Z" transform="translate(-26 -20.15)"/><path class="cls-2" d="M207,259.42v-1.16h.15v1.16Z" transform="translate(-26 -20.15)"/><path class="cls-2" d="M208.19,257.49h-.14v-.74h-2.52l.37.74-.13.06-.42-.82v-.13h2.7V256h.14Z" transform="translate(-26 -20.15)"/><path class="cls-2" d="M208.25,254.67c0,.64-.49.85-1.16.85-1.13,0-1.79-.24-1.79-1a2.83,2.83,0,0,1,.09-.66l.15,0a2.81,2.81,0,0,0-.09.62c0,.65.5.79,1.28.85a1.3,1.3,0,0,1-.28-.68c0-.58.28-.88.83-.88S208.25,254.06,208.25,254.67Zm-1.65,0a1.3,1.3,0,0,0,.26.67,1,1,0,0,0,.24,0c.47,0,.86-.11,1-.46a.79.79,0,0,0,0-.24c0-.52-.29-.71-.83-.71S206.59,254.19,206.59,254.67Z" transform="translate(-26 -20.15)"/><path class="cls-2" d="M208.15,250.81a2.77,2.77,0,0,1,.09.65c0,.61-.31,1.06-1.55,1.06s-1.48-.38-1.48-1.06a2.86,2.86,0,0,1,.09-.64l.13,0a3,3,0,0,0-.07.61c0,.6.34.9,1.33.9s1.4-.36,1.4-.9a2.49,2.49,0,0,0-.09-.62Z" transform="translate(-26 -20.15)"/><path class="cls-2" d="M297,52.41a2.19,2.19,0,0,1-.33.43c-.42.42-.89.42-1.51-.2s-.62-1-.17-1.47a2.58,2.58,0,0,1,.42-.34l.25.35a1.67,1.67,0,0,0-.31.23c-.24.24-.23.47.16.86s.67.43.9.2a1.51,1.51,0,0,0,.23-.31Z" transform="translate(-26 -20.15)"/><path class="cls-2" d="M302.95,45.8l-.26.26.37.37-.09.09-.37-.37-.72.72-.07-.07L301,45.23l.09-.09.77,1.55.62-.62-.54-.54.09-.09.54.54.26-.26Z" transform="translate(-26 -20.15)"/><path class="cls-2" d="M302.84,44.92l.22-.22c.18-.33.2-.51,0-.72s-.43-.22-.7,0a1.57,1.57,0,0,0-.3.46l-.1,0a1.78,1.78,0,0,1,.32-.5c.32-.32.57-.35.87,0s.2.44.05.73h0c.3-.24.5-.31.77,0a.62.62,0,0,1,0,1,3.29,3.29,0,0,1-.51.39l-.07-.1a3.22,3.22,0,0,0,.49-.37.74.74,0,0,0,.21-.34.53.53,0,0,0-.2-.5c-.25-.25-.42-.15-.74.1l-.21.21Z" transform="translate(-26 -20.15)"/><path class="cls-2" d="M300.24,55.08,299.12,54h0l.5,1.15-.24.24-1.16-.49h0L299.32,56l-.34.34-1.63-1.63.43-.43,1.27.53h0l-.55-1.26.43-.43,1.63,1.63Z" transform="translate(-26 -20.15)"/><path class="cls-2" d="M304.49,49.11l.22-.22c.18-.33.2-.51,0-.72s-.43-.22-.7,0a1.58,1.58,0,0,0-.3.46l-.1,0a1.79,1.79,0,0,1,.32-.5c.32-.32.57-.35.87,0s.2.44.05.73h0c.3-.24.5-.31.77,0a.62.62,0,0,1,0,1,3.31,3.31,0,0,1-.51.39l-.07-.1a3.21,3.21,0,0,0,.49-.37.74.74,0,0,0,.21-.34.53.53,0,0,0-.2-.5c-.25-.25-.42-.15-.74.1l-.21.21Z" transform="translate(-26 -20.15)"/><path class="cls-2" d="M306.85,48.54c-.36.36-.76.21-1.14-.17-.64-.64-.88-1.14-.44-1.58a2.23,2.23,0,0,1,.42-.32l.06.1a2.21,2.21,0,0,0-.4.3c-.37.37-.16.73.24,1.2a1,1,0,0,1,.23-.54.61.61,0,0,1,1,0C307.14,47.84,307.19,48.19,306.85,48.54Zm-.94-.93a1,1,0,0,0-.23.53.85.85,0,0,0,.12.14c.27.27.54.42.81.29a.63.63,0,0,0,.15-.11c.29-.29.24-.56-.07-.87A.49.49,0,0,0,305.91,47.6Z" transform="translate(-26 -20.15)"/><path class="cls-2" d="M302.65,58.52l-.36.36-.64-.64-1.47-.5.43-.43.93.43h0l-.43-.92.38-.38.51,1.46Z" transform="translate(-26 -20.15)"/><path class="cls-2" d="M308.79,51.64l-.26.26.37.37-.09.09-.37-.37-.72.72-.07-.07-.78-1.57L307,51l.77,1.55.62-.62-.54-.54.09-.09.54.54.26-.26Z" transform="translate(-26 -20.15)"/><path class="cls-2" d="M309.41,51.75l-.08-.08.42-.42-1.43-1.43-.21.63-.1,0,.23-.7.07-.07,1.53,1.53.36-.36.08.08Z" transform="translate(-26 -20.15)"/><path class="cls-2" d="M304.36,59.39a12.36,12.36,0,0,1,.41,1.17c.37.11.81.29,1.22.45l-.39.39c-.35-.13-.71-.28-1-.36l-.11.14.65.65-.35.35-1.63-1.63.35-.35.7.7.1-.14a9,9,0,0,0-.38-1Z" transform="translate(-26 -20.15)"/><path class="cls-2" d="M312.42,53c.5.5.75.9.32,1.33s-.82.18-1.33-.32-.76-.91-.33-1.34S311.92,52.48,312.42,53Zm.24,1.24c.37-.37.11-.72-.33-1.15s-.79-.72-1.17-.34-.1.73.34,1.17S312.29,54.61,312.66,54.23Zm-1.19-.8,0-.11.83.22,0,.11Z" transform="translate(-26 -20.15)"/><path class="cls-2" d="M291.69,48.86l-.11.11-2.08-2.08a7,7,0,0,1,.47-.52c.49-.49.89-.57,1.38-.08s.42.91-.06,1.39l-.2.18-.1-.1.17-.16c.44-.44.51-.76.07-1.2s-.74-.36-1.17.08l-.36.39Z" transform="translate(-26 -20.15)"/><path class="cls-2" d="M292.57,46.84a.23.23,0,0,1,0-.34l.67-.9c-.46-.46-.62-.56-1-.16a2.69,2.69,0,0,0-.4.53l-.12-.07a2.87,2.87,0,0,1,.43-.57c.49-.49.72-.31,1.3.26l.76.76-.1.1-.28-.28a.56.56,0,0,1-.14.76C293.29,47.32,293,47.28,292.57,46.84Zm.81-1.1,0,0-.66.89a.11.11,0,0,0,0,.15c.38.38.59.4.89.1S293.89,46.25,293.38,45.75Z" transform="translate(-26 -20.15)"/><path class="cls-2" d="M294.79,45.76l-.11.11-1.52-1.52.09-.09.16.14a1,1,0,0,1,.27-.61c.38-.38.68-.35,1.09.05l1,1-.11.11-1-1c-.35-.35-.57-.39-.92,0a1,1,0,0,0-.24.58Z" transform="translate(-26 -20.15)"/><path class="cls-2" d="M295.56,43.52l-.7-.7-.21.21-.09-.09.21-.21-.3-.3.08-.14.33.33.48-.48.09.09-.48.48.84.84c.35.35.54.49.8.24a1.92,1.92,0,0,0,.18-.22l.11.08a1.75,1.75,0,0,1-.19.24C296.32,44.27,296.1,44.06,295.56,43.52Z" transform="translate(-26 -20.15)"/><path class="cls-2" d="M297.61,41.42c.54.54.64.94.2,1.38s-.84.34-1.38-.2-.63-.94-.2-1.37S297.07,40.88,297.61,41.42Zm.11,1.28c.37-.37.26-.69-.22-1.17s-.79-.58-1.16-.21-.26.69.21,1.16S297.34,43.07,297.71,42.7Z" transform="translate(-26 -20.15)"/><path class="cls-2" d="M298.9,41.65l-.11.11-1.52-1.52.09-.09.16.14a1,1,0,0,1,.27-.61c.38-.38.68-.35,1.09.05l1,1-.11.11-1-1c-.35-.35-.57-.39-.92,0a1,1,0,0,0-.24.58Z" transform="translate(-26 -20.15)"/><path class="cls-2" d="M300.44,38.26a.23.23,0,0,1,0,.34l-.73.9c.47.43.71.48,1.1.09a2.56,2.56,0,0,0,.36-.47l.12.08a2.84,2.84,0,0,1-.41.52c-.42.42-.75.43-1.37-.19s-.61-1-.21-1.35S300,37.79,300.44,38.26Zm-.83,1.15.71-.9a.11.11,0,0,0,0-.16c-.43-.43-.63-.38-.93-.08S299.1,38.9,299.61,39.41Z" transform="translate(-26 -20.15)"/><path class="cls-2" d="M302.46,38.09l-.11.11-2.08-2.08c.17-.21.31-.36.47-.52.49-.49.89-.57,1.38-.08s.42.91-.06,1.39l-.2.18-.1-.1.17-.16c.44-.44.51-.76.07-1.2s-.74-.36-1.17.08l-.36.39Z" transform="translate(-26 -20.15)"/><path class="cls-2" d="M304.58,36l-.1-.1.52-.52-1.78-1.78-.26.78-.13,0,.29-.88.09-.09,1.91,1.91.45-.45.1.1Z" transform="translate(-26 -20.15)"/><path class="cls-2" d="M306.62,34c-.45.45-.95.26-1.42-.22-.8-.8-1.09-1.43-.54-2a2.8,2.8,0,0,1,.53-.4l.08.13a2.76,2.76,0,0,0-.5.38c-.46.46-.2.91.3,1.5a1.3,1.3,0,0,1,.28-.68.76.76,0,0,1,1.2,0C307,33.14,307,33.58,306.62,34Zm-1.17-1.17a1.3,1.3,0,0,0-.29.66,1,1,0,0,0,.16.18c.33.33.68.53,1,.37a.79.79,0,0,0,.19-.14c.36-.36.3-.71-.08-1.09A.62.62,0,0,0,305.45,32.84Z" transform="translate(-26 -20.15)"/><path class="cls-2" d="M306.06,30.41c.48-.48,1-.28,1.48.24.83.83,1.06,1.39.51,1.94a3.24,3.24,0,0,1-.57.43l-.08-.14a2.77,2.77,0,0,0,.55-.4.68.68,0,0,0,.17-.84,2.9,2.9,0,0,0-.47-.66,1.35,1.35,0,0,1-.29.68.78.78,0,0,1-1.22,0A.81.81,0,0,1,306.06,30.41Zm1.19,1.15c.26-.26.34-.63.18-.79-.46-.46-.85-.66-1.26-.25s-.27.7.08,1A.63.63,0,0,0,307.24,31.56Z" transform="translate(-26 -20.15)"/><path class="cls-2" d="M308.28,30.57l.82-.82.1.1-.82.82Z" transform="translate(-26 -20.15)"/><path class="cls-2" d="M311,29.62c-.46.46-.82.49-1.22.09s-.29-.46-.17-.91a.62.62,0,0,1-.79-.17c-.36-.36-.26-.73.1-1.09s.74-.53,1.11-.15a.8.8,0,0,1,.26.9c.34-.15.52-.15.78.11S311.47,29.16,311,29.62Zm-1.25-.88c-.1.36-.12.6.12.84s.62.34,1-.06.4-.67.06-1S310.55,28.27,309.76,28.73Zm-.73-1.1c-.31.31-.38.58-.09.87s.45.29,1.23-.16c.07-.48,0-.61-.23-.84S309.36,27.3,309,27.64Z" transform="translate(-26 -20.15)"/><path class="cls-2" d="M313.66,26.83a2.78,2.78,0,0,1-.4.53c-.43.43-1,.53-1.85-.34s-.78-1.31-.29-1.8a2.88,2.88,0,0,1,.51-.39l.07.12a3,3,0,0,0-.48.38c-.42.42-.39.87.31,1.58s1.24.74,1.62.36a2.49,2.49,0,0,0,.38-.5Z" transform="translate(-26 -20.15)"/><path class="cls-2" d="M280,208a2.2,2.2,0,0,1-.43-.33c-.42-.42-.42-.89.2-1.51s1-.62,1.47-.17a2.62,2.62,0,0,1,.34.42l-.35.25a1.69,1.69,0,0,0-.23-.31c-.24-.24-.47-.23-.86.16s-.43.67-.2.9a1.51,1.51,0,0,0,.31.23Z" transform="translate(-26 -20.15)"/><path class="cls-2" d="M283.52,211.57l.08-.08.42.42,1.43-1.43-.63-.21,0-.1.7.23.07.07L284.11,212l.36.36-.08.08Z" transform="translate(-26 -20.15)"/><path class="cls-2" d="M284.74,212.79l.08-.08.42.42,1.43-1.43-.63-.21,0-.1.7.23.07.07-1.53,1.53.36.36-.08.08Z" transform="translate(-26 -20.15)"/><path class="cls-2" d="M286.15,213.86l.08.14-.67.29,0-.09Z" transform="translate(-26 -20.15)"/><path class="cls-2" d="M287.85,215.17l-.26-.26-.37.37-.09-.09.37-.37-.72-.72.07-.07,1.57-.78.09.09-1.55.77.62.62.54-.54.09.09-.54.54.26.26Z" transform="translate(-26 -20.15)"/><path class="cls-2" d="M277.35,211.24l1.12-1.12h0l-1.15.5-.24-.24.49-1.16h0l-1.11,1.11-.34-.34,1.63-1.63.43.43-.53,1.27h0l1.26-.54.43.43-1.63,1.63Z" transform="translate(-26 -20.15)"/><path class="cls-2" d="M283.54,215.83c-.5.5-.9.75-1.33.32s-.18-.82.32-1.33.91-.76,1.34-.33S284,215.33,283.54,215.83Zm-1.24.24c.37.37.72.11,1.15-.33s.72-.79.34-1.17-.73-.1-1.17.34S281.92,215.7,282.29,216.07Zm.8-1.19.11,0-.22.83-.11,0Z" transform="translate(-26 -20.15)"/><path class="cls-2" d="M283.26,216.81l.08.14-.67.29,0-.09Z" transform="translate(-26 -20.15)"/><path class="cls-2" d="M285,218.12l-.26-.26-.37.37-.09-.09.37-.37-.72-.72L284,217l1.57-.78.09.09-1.55.77.62.62.54-.53.09.09-.54.53.26.26Z" transform="translate(-26 -20.15)"/><path class="cls-2" d="M273.91,213.65l-.36-.36.64-.64.5-1.47.43.43-.43.93h0l.92-.43.38.38-1.46.51Z" transform="translate(-26 -20.15)"/><path class="cls-2" d="M278.47,214.94c.39.39.23.76-.19,1.18-.66.66-1.11.84-1.55.41a2.58,2.58,0,0,1-.34-.46l.11-.07a2.21,2.21,0,0,0,.32.44.54.54,0,0,0,.67.13,2.32,2.32,0,0,0,.53-.37,1.08,1.08,0,0,1-.54-.23.62.62,0,0,1,0-1A.65.65,0,0,1,278.47,214.94Zm-.92.95c.21.21.51.27.64.14.37-.37.53-.68.2-1s-.56-.22-.84.06A.51.51,0,0,0,277.55,215.89Z" transform="translate(-26 -20.15)"/><path class="cls-2" d="M278.67,217.37l-.83,0,.82.83-.09.08-.92-.92.08-.08.95,0c.58,0,.68-.07.94-.33a.44.44,0,0,0,0-.71,1.54,1.54,0,0,0-.45-.26l0-.1a1.66,1.66,0,0,1,.5.29.55.55,0,0,1,0,.87C279.41,217.31,279.32,217.36,278.67,217.37Z" transform="translate(-26 -20.15)"/><path class="cls-2" d="M279.09,218.48l.08.14-.67.29,0-.09Z" transform="translate(-26 -20.15)"/><path class="cls-2" d="M280.46,219.16l-.83,0,.82.83-.09.08-.92-.92.08-.08.95,0c.58,0,.68-.07.94-.33a.44.44,0,0,0,0-.71,1.54,1.54,0,0,0-.45-.26l0-.1a1.64,1.64,0,0,1,.5.29.55.55,0,0,1,0,.87C281.2,219.1,281.11,219.14,280.46,219.16Z" transform="translate(-26 -20.15)"/><path class="cls-2" d="M281.67,220.38l-.83,0,.82.83-.09.08-.92-.92.08-.08.95,0c.58,0,.68-.07.94-.33a.44.44,0,0,0,0-.71,1.56,1.56,0,0,0-.45-.26l0-.1a1.65,1.65,0,0,1,.5.29.55.55,0,0,1,0,.87C282.42,220.32,282.33,220.36,281.67,220.38Z" transform="translate(-26 -20.15)"/><path class="cls-2" d="M273,215.37a12.3,12.3,0,0,1-1.17.41c-.11.37-.29.81-.45,1.22l-.39-.39c.13-.35.28-.71.36-1l-.14-.11-.65.65-.35-.35,1.63-1.63.35.35-.7.7.14.1a9,9,0,0,0,1-.38Z" transform="translate(-26 -20.15)"/><path class="cls-2" d="M279.45,223.43c-.5.5-.9.75-1.33.32s-.19-.82.32-1.33.91-.76,1.34-.33S280,222.92,279.45,223.43Zm-1.24.24c.37.37.72.11,1.15-.33s.72-.79.34-1.17-.73-.1-1.17.34S277.83,223.29,278.2,223.66Zm.8-1.19.11,0-.22.83-.11,0Z" transform="translate(-26 -20.15)"/><path class="cls-2" d="M283.09,203.48l-.11-.11,2.08-2.08a7,7,0,0,1,.52.47c.49.49.57.89.08,1.38s-.91.42-1.39-.06l-.18-.2.1-.1.16.17c.44.44.76.51,1.2.07s.36-.74-.08-1.17l-.39-.36Z" transform="translate(-26 -20.15)"/><path class="cls-2" d="M285.11,204.36a.23.23,0,0,1,.34,0l.9.67c.46-.46.56-.62.16-1a2.66,2.66,0,0,0-.53-.4l.07-.12a2.87,2.87,0,0,1,.57.43c.49.49.31.72-.26,1.3l-.76.76-.1-.1.28-.28a.56.56,0,0,1-.76-.14C284.63,205.08,284.67,204.8,285.11,204.36Zm1.1.81,0,0-.89-.66a.11.11,0,0,0-.15,0c-.38.38-.4.59-.1.89S285.7,205.68,286.21,205.17Z" transform="translate(-26 -20.15)"/><path class="cls-2" d="M286.19,206.58l-.11-.11L287.6,205l.09.09-.14.16a1,1,0,0,1,.61.27c.38.38.35.68-.05,1.09l-1,1-.11-.11,1-1c.35-.35.39-.57,0-.92a1,1,0,0,0-.58-.24Z" transform="translate(-26 -20.15)"/><path class="cls-2" d="M288.43,207.35l.7-.7-.21-.21.09-.09.21.21.3-.3.14.08-.33.33.48.48-.09.09-.48-.48-.84.84c-.35.35-.49.54-.24.8a2,2,0,0,0,.22.18l-.08.11a1.82,1.82,0,0,1-.24-.19C287.68,208.11,287.89,207.89,288.43,207.35Z" transform="translate(-26 -20.15)"/><path class="cls-2" d="M290.53,209.4c-.54.54-.94.64-1.38.2s-.34-.84.2-1.38.94-.63,1.37-.2S291.07,208.86,290.53,209.4Zm-1.28.11c.37.37.69.26,1.17-.22s.58-.79.21-1.16-.69-.26-1.16.21S288.88,209.13,289.25,209.5Z" transform="translate(-26 -20.15)"/><path class="cls-2" d="M290.3,210.69l-.11-.11,1.52-1.52.09.09-.14.16a1,1,0,0,1,.61.27c.38.38.35.68-.05,1.09l-1,1-.11-.11,1-1c.35-.35.39-.57,0-.92a1,1,0,0,0-.58-.24Z" transform="translate(-26 -20.15)"/><path class="cls-2" d="M293.69,212.23a.23.23,0,0,1-.34,0l-.9-.73c-.43.47-.48.71-.09,1.1a2.55,2.55,0,0,0,.47.36l-.08.12a2.84,2.84,0,0,1-.52-.41c-.42-.42-.43-.75.19-1.37s1-.61,1.35-.21S294.16,211.76,293.69,212.23Zm-1.15-.83.9.71a.11.11,0,0,0,.16,0c.43-.43.38-.63.08-.93S293.05,210.89,292.54,211.4Z" transform="translate(-26 -20.15)"/><path class="cls-2" d="M293.86,214.25l-.11-.11,2.08-2.08a7,7,0,0,1,.52.47c.49.49.57.88.08,1.38s-.91.42-1.39-.06l-.18-.2.1-.1.16.17c.44.44.76.51,1.2.07s.36-.74-.08-1.17l-.39-.36Z" transform="translate(-26 -20.15)"/><path class="cls-2" d="M296,216.37l.1-.1.52.52,1.78-1.78-.78-.26,0-.13.88.29.09.09-1.91,1.91.45.45-.1.1Z" transform="translate(-26 -20.15)"/><path class="cls-2" d="M297.94,218.41c-.45-.45-.26-.95.22-1.42.8-.8,1.43-1.1,2-.54a2.79,2.79,0,0,1,.4.53l-.13.08a2.76,2.76,0,0,0-.38-.5c-.46-.46-.91-.2-1.5.3a1.3,1.3,0,0,1,.68.28.76.76,0,0,1,0,1.2C298.81,218.77,298.38,218.84,297.94,218.41Zm1.17-1.17a1.31,1.31,0,0,0-.66-.29,1.07,1.07,0,0,0-.18.16c-.33.33-.53.68-.36,1a.77.77,0,0,0,.14.19c.37.37.71.3,1.09-.08A.62.62,0,0,0,299.11,217.24Z" transform="translate(-26 -20.15)"/><path class="cls-2" d="M299.47,219.93c-.45-.45-.26-.95.22-1.42.8-.8,1.43-1.1,2-.54a2.78,2.78,0,0,1,.4.53l-.13.08a2.76,2.76,0,0,0-.38-.51c-.46-.46-.91-.2-1.5.3a1.3,1.3,0,0,1,.68.28.76.76,0,0,1,0,1.2C300.33,220.3,299.9,220.36,299.47,219.93Zm1.17-1.17a1.31,1.31,0,0,0-.66-.29,1.07,1.07,0,0,0-.18.16c-.33.33-.53.68-.36,1a.77.77,0,0,0,.14.19c.37.36.71.3,1.09-.08A.62.62,0,0,0,300.63,218.76Z" transform="translate(-26 -20.15)"/><path class="cls-2" d="M301.38,220.07l.82.82-.1.1-.82-.82Z" transform="translate(-26 -20.15)"/><path class="cls-2" d="M302.34,222.8c-.46-.46-.49-.82-.09-1.22.25-.25.46-.29.91-.17a.62.62,0,0,1,.17-.79c.36-.36.73-.26,1.09.1s.53.74.15,1.11a.8.8,0,0,1-.9.26c.15.34.15.52-.11.78S302.79,223.26,302.34,222.8Zm.88-1.25c-.36-.1-.6-.12-.84.12s-.34.62.06,1,.67.4,1,.06S303.69,222.34,303.22,221.55Zm1.1-.73c-.31-.31-.58-.38-.87-.09s-.29.45.16,1.23c.48.07.61,0,.84-.23S304.65,221.15,304.32,220.82Z" transform="translate(-26 -20.15)"/><path class="cls-2" d="M305.12,225.45a2.78,2.78,0,0,1-.53-.4c-.43-.43-.53-1,.34-1.85s1.31-.78,1.8-.3a2.87,2.87,0,0,1,.39.51l-.12.07a3,3,0,0,0-.38-.48c-.42-.42-.87-.39-1.58.31s-.74,1.24-.36,1.62a2.49,2.49,0,0,0,.5.38Z" transform="translate(-26 -20.15)"/><path class="cls-2" d="M27.54,136.53a2.16,2.16,0,0,1-.54.07c-.6,0-.92-.33-.92-1.21s.29-1.16.92-1.16a2.58,2.58,0,0,1,.54.06l-.07.42a1.69,1.69,0,0,0-.38-.05c-.34,0-.5.18-.5.73s.17.77.5.77a1.52,1.52,0,0,0,.39-.06Z" transform="translate(-26 -20.15)"/><path class="cls-2" d="M33,136.61a2.93,2.93,0,0,1-.57-.07l0-.12a2.76,2.76,0,0,0,.54.08.58.58,0,0,0,.63-.66c0-.4-.16-.57-.55-.57a.88.88,0,0,0-.47.17l-.1,0,0-1.12h1.15v.12h-1c0,.18,0,.27,0,.92a.86.86,0,0,1,.48-.18.59.59,0,0,1,.66.67A.7.7,0,0,1,33,136.61Z" transform="translate(-26 -20.15)"/><path class="cls-2" d="M34.76,134.25c.55,0,.7.38.7,1,0,.94-.19,1.38-.81,1.38a2.59,2.59,0,0,1-.57-.08l0-.12a2.21,2.21,0,0,0,.54.09.54.54,0,0,0,.57-.38,2.33,2.33,0,0,0,.11-.64,1.09,1.09,0,0,1-.55.22.62.62,0,0,1-.7-.69C34.08,134.55,34.3,134.25,34.76,134.25Zm0,1.32c.3,0,.55-.16.55-.35,0-.52-.11-.86-.57-.86s-.55.24-.55.64A.51.51,0,0,0,34.78,135.58Z" transform="translate(-26 -20.15)"/><path class="cls-2" d="M36,136.32l.15,0-.27.67-.1,0Z" transform="translate(-26 -20.15)"/><path class="cls-2" d="M36.64,134.29H38v.08l-.87,2.2H37l.86-2.16h-1.2Z" transform="translate(-26 -20.15)"/><path class="cls-2" d="M27.91,140.7v-1.58h0l-.46,1.17h-.34l-.48-1.16h0v1.58h-.47v-2.3h.61l.52,1.27h0l.5-1.27h.61v2.3Z" transform="translate(-26 -20.15)"/><path class="cls-2" d="M33.63,139.57c0,.71-.1,1.16-.71,1.16s-.71-.45-.71-1.16.1-1.18.71-1.18S33.63,138.85,33.63,139.57Zm-.71,1c.53,0,.58-.43.58-1s-.06-1.07-.58-1.07-.58.44-.58,1.07S32.39,140.62,32.92,140.62Zm-.28-1.4.1-.06.43.75-.1.06Z" transform="translate(-26 -20.15)"/><path class="cls-2" d="M27.18,144.83h-.5v-.91L26,142.53h.6l.35,1h0l.34-1h.54l-.67,1.39Z" transform="translate(-26 -20.15)"/><path class="cls-2" d="M33.18,144.1l-.57.61h1.17v.12h-1.3v-.12l.64-.7c.4-.43.43-.53.43-.89s-.18-.48-.52-.48a1.55,1.55,0,0,0-.5.13l0-.11a1.65,1.65,0,0,1,.56-.15c.41,0,.64.19.64.6S33.63,143.63,33.18,144.1Z" transform="translate(-26 -20.15)"/><path class="cls-2" d="M34.69,144.87a2.94,2.94,0,0,1-.57-.07l0-.12a2.76,2.76,0,0,0,.54.08.58.58,0,0,0,.63-.66c0-.4-.16-.57-.55-.57a.88.88,0,0,0-.47.18l-.1,0,0-1.12h1.15v.12h-1c0,.18,0,.27,0,.92a.86.86,0,0,1,.48-.18.59.59,0,0,1,.66.67A.7.7,0,0,1,34.69,144.87Z" transform="translate(-26 -20.15)"/><path class="cls-2" d="M36,144.59l.15,0-.27.67-.1,0Z" transform="translate(-26 -20.15)"/><path class="cls-2" d="M37.43,144.1l-.57.61H38v.12h-1.3v-.12l.64-.7c.4-.43.43-.53.43-.89s-.18-.48-.52-.48a1.54,1.54,0,0,0-.5.13l0-.11a1.66,1.66,0,0,1,.56-.14c.41,0,.64.19.64.6S37.88,143.63,37.43,144.1Z" transform="translate(-26 -20.15)"/><path class="cls-2" d="M27.78,146.66a12.37,12.37,0,0,1-.53,1.12c.18.34.36.78.55,1.18h-.55c-.15-.34-.3-.7-.44-.94l-.18,0V149h-.5v-2.3h.5v1l.17,0a9,9,0,0,0,.44-1Z" transform="translate(-26 -20.15)"/><path class="cls-2" d="M33.83,147.83c0,.71-.1,1.16-.71,1.16s-.71-.45-.71-1.16.1-1.18.71-1.18S33.83,147.12,33.83,147.83Zm-.71,1c.53,0,.58-.43.58-1s-.06-1.07-.58-1.07-.58.44-.58,1.07S32.59,148.88,33.12,148.88Zm-.27-1.4.1-.06.43.75-.1.06Z" transform="translate(-26 -20.15)"/><path class="cls-2" d="M26.27,131.15h-.16V128.2c.27,0,.48,0,.7,0,.7,0,1,.22,1,.92s-.34.94-1,.94h-.27v-.14h.24c.62,0,.9-.18.9-.8s-.27-.77-.88-.77l-.53,0Z" transform="translate(-26 -20.15)"/><path class="cls-2" d="M28.32,130.34c0-.14.09-.21.24-.24l1.11-.16c0-.65,0-.83-.61-.83a2.65,2.65,0,0,0-.65.09l0-.13a2.85,2.85,0,0,1,.71-.1c.7,0,.73.29.73,1.1v1.08h-.14v-.4c-.09.33-.29.44-.64.44C28.5,131.19,28.32,131,28.32,130.34Zm1.35-.2v-.06l-1.1.16a.11.11,0,0,0-.1.11c0,.53.14.7.56.7S29.67,130.86,29.68,130.14Z" transform="translate(-26 -20.15)"/><path class="cls-2" d="M30.66,131.15h-.15V129h.13v.21a1,1,0,0,1,.63-.24c.54,0,.73.24.73.81v1.37h-.15v-1.37c0-.5-.12-.68-.62-.68a1,1,0,0,0-.58.25Z" transform="translate(-26 -20.15)"/><path class="cls-2" d="M32.79,130.11v-1h-.3V129h.3v-.43l.15,0V129h.68v.13h-.68v1.18c0,.49,0,.73.4.73l.28,0,0,.13-.31,0C32.79,131.18,32.79,130.87,32.79,130.11Z" transform="translate(-26 -20.15)"/><path class="cls-2" d="M35.72,130.07c0,.77-.21,1.12-.83,1.12s-.83-.35-.83-1.12.21-1.11.83-1.11S35.72,129.31,35.72,130.07Zm-.83,1c.52,0,.67-.31.67-1s-.15-1-.67-1-.67.3-.67,1S34.37,131.05,34.89,131.05Z" transform="translate(-26 -20.15)"/><path class="cls-2" d="M36.47,131.15h-.15V129h.13v.21a1,1,0,0,1,.63-.24c.54,0,.73.24.73.81v1.37h-.15v-1.37c0-.5-.12-.68-.62-.68a1,1,0,0,0-.58.25Z" transform="translate(-26 -20.15)"/><path class="cls-2" d="M40,129.84c0,.14-.08.22-.24.24l-1.16.12c0,.64.16.84.71.84a2.55,2.55,0,0,0,.59-.08l0,.14a2.85,2.85,0,0,1-.65.08c-.6,0-.83-.22-.83-1.11s.25-1.11.81-1.11S40,129.18,40,129.84Zm-1.4.22,1.14-.13a.11.11,0,0,0,.11-.11c0-.6-.18-.71-.6-.71S38.56,129.35,38.56,130.07Z" transform="translate(-26 -20.15)"/><path class="cls-2" d="M41.51,131.15h-.15V128.2c.27,0,.48,0,.7,0,.7,0,1,.22,1,.92s-.34.94-1,.94h-.27v-.14H42c.62,0,.9-.18.9-.8s-.27-.77-.88-.77l-.53,0Z" transform="translate(-26 -20.15)"/><path class="cls-2" d="M44.51,131.15V131h.74v-2.52l-.74.37-.06-.12.82-.42h.13V131H46v.14Z" transform="translate(-26 -20.15)"/><path class="cls-2" d="M47.51,130.24l-.71.76h1.46v.15H46.61V131l.8-.88c.49-.54.54-.66.54-1.12s-.23-.6-.65-.6a1.91,1.91,0,0,0-.63.17l-.05-.13a2,2,0,0,1,.7-.18c.52,0,.8.23.8.75S48.07,129.65,47.51,130.24Z" transform="translate(-26 -20.15)"/><path class="cls-2" d="M50.51,130.5H50v.65h-.16v-.65H48.62v-.12l.7-2.08h.16l-.69,2.05h1.09v-.95H50v.95h.46Z" transform="translate(-26 -20.15)"/><path class="cls-2" d="M50.94,129.95H52.1v.15H50.94Z" transform="translate(-26 -20.15)"/><path class="cls-2" d="M53.44,131.2a3.72,3.72,0,0,1-.71-.09l0-.15a3.4,3.4,0,0,0,.68.09.72.72,0,0,0,.79-.82c0-.5-.2-.71-.69-.71a1.11,1.11,0,0,0-.59.22l-.12,0,0-1.4H54.3v.15H53c0,.23,0,.34,0,1.15a1.08,1.08,0,0,1,.6-.22.74.74,0,0,1,.83.84A.87.87,0,0,1,53.44,131.2Z" transform="translate(-26 -20.15)"/><path class="cls-2" d="M57.39,131.1a2.74,2.74,0,0,1-.65.09c-.61,0-1.06-.31-1.06-1.55s.37-1.48,1.06-1.48a2.92,2.92,0,0,1,.64.09l0,.13a3,3,0,0,0-.61-.07c-.6,0-.9.34-.9,1.33s.36,1.4.89,1.4a2.5,2.5,0,0,0,.62-.09Z" transform="translate(-26 -20.15)"/><line class="cls-3" x1="121" y1="112.85" x2="0.07" y2="112.5"/><line class="cls-3" x1="310.12" y1="112.5" x2="247" y2="112.85"/><line class="cls-3" x1="140" y1="156.85" x2="71.64" y2="225.01"/><line class="cls-3" x1="289.1" y1="7.56" x2="228" y2="68.85"/><line class="cls-3" x1="184" y1="174.85" x2="184.15" y2="262.25"/><line class="cls-3" x1="228" y1="156.85" x2="278.27" y2="206.62"/><line class="cls-3" x1="75.5" y1="3.84" x2="140" y2="68.85"/><path class="cls-4" d="M266.78,75.79,254.07,88.5a62.25,62.25,0,0,1,18.29,44.15h18A80.17,80.17,0,0,0,266.78,75.79Z" transform="translate(-26 -20.15)"/><polygon points="183.92 112.5 183.92 112.5 183.92 112.5 183.92 112.5"/><polygon points="183.92 112.5 183.92 112.5 183.92 112.5 183.92 112.5"/><path class="cls-5" d="M254.07,88.5,275.53,67a92.5,92.5,0,0,0-65.61-27.18V70.21A62.25,62.25,0,0,1,254.07,88.5Z" transform="translate(-26 -20.15)"/><path class="cls-6" d="M254.07,176.81a62.25,62.25,0,0,1-44.15,18.29v30.15a92.3,92.3,0,0,0,65.47-27.12Z" transform="translate(-26 -20.15)"/><path class="cls-7" d="M165.76,88.5,139.51,62.24a99.26,99.26,0,0,0-29.16,70.41h37.13A62.25,62.25,0,0,1,165.76,88.5Z" transform="translate(-26 -20.15)"/><path class="cls-8" d="M272.36,132.65a62.25,62.25,0,0,1-18.29,44.15l6.7,6.7a71.7,71.7,0,0,0,21.07-50.86Z" transform="translate(-26 -20.15)"/><path class="cls-9" d="M209.92,195.1a62.25,62.25,0,0,1-44.15-18.29l-15.25,15.25a83.74,83.74,0,0,0,59.4,24.6V195.1Z" transform="translate(-26 -20.15)"/><path class="cls-10" d="M147.48,132.65H99.21a110.37,110.37,0,0,0,32.43,78.29l34.13-34.13A62.25,62.25,0,0,1,147.48,132.65Z" transform="translate(-26 -20.15)"/></svg>