<svg id="Layer_1" data-name="Layer 1" xmlns="http://www.w3.org/2000/svg" viewBox="0 0 280.78 51.09"><defs><style>.cls-1{fill:#5aa7ac;}</style></defs><title>pangram</title><path class="cls-1" d="M12,22.78H11V3.93H4.58v-1h12.1v1H12Z" transform="translate(-2.64 -2.42)"/><path class="cls-1" d="M20.3,22.78h-1V2.54l1-.12v6.7a13,13,0,0,1,4-1c3.86,0,5.16,1.6,5.16,5.45v9.25h-1V13.56c0-3.42-1-4.55-4.47-4.55a14.27,14.27,0,0,0-3.65,1Z" transform="translate(-2.64 -2.42)"/><path class="cls-1" d="M43.85,14c0,.93-.55,1.48-1.62,1.6l-7.8.81c.2,4.32,1.1,5.69,4.79,5.69a17.29,17.29,0,0,0,4-.55l.2,1A19.15,19.15,0,0,1,39,23c-4,0-5.63-1.51-5.63-7.46,0-5.45,1.68-7.45,5.45-7.45S43.85,9.5,43.85,14Zm-9.43,1.51,7.69-.9a.74.74,0,0,0,.73-.75c0-4.06-1.22-4.81-4-4.81C35.61,9,34.42,10.63,34.42,15.47Z" transform="translate(-2.64 -2.42)"/><path class="cls-1" d="M61.25,22.17a11,11,0,0,1-3.39.84c-4,0-5.57-1.94-5.57-7.51S54.58,8,59,8a38.9,38.9,0,0,1,5,.41v20h-2.7Zm0-1.74V10.14a21.53,21.53,0,0,0-2.32-.2c-2.49,0-3.83,1.19-3.83,5.57,0,4.12.84,5.54,3.45,5.54A10.53,10.53,0,0,0,61.25,20.43Z" transform="translate(-2.64 -2.42)"/><path class="cls-1" d="M76.12,8.28h2.7v14.5H76.3l-.09-1.28a6.45,6.45,0,0,1-4,1.51c-3.71,0-4.73-1.62-4.73-5.57V8.28h2.7v9.17c0,2.67.64,3.57,3.07,3.57a4.78,4.78,0,0,0,2.87-1.22Z" transform="translate(-2.64 -2.42)"/><path class="cls-1" d="M83.81,2.85c1.13,0,1.57.44,1.57,1.36s-.44,1.39-1.57,1.39-1.57-.44-1.57-1.39S82.68,2.85,83.81,2.85Zm1.36,19.93h-2.7V8.28h2.7Z" transform="translate(-2.64 -2.42)"/><path class="cls-1" d="M97.9,8.54l-.29,2.29a14.43,14.43,0,0,0-3.07-.41c-2.7,0-3.42,1.51-3.42,5.08,0,3.74.81,5.13,3.6,5.13a13.71,13.71,0,0,0,3-.41L98,22.52A17.28,17.28,0,0,1,94.1,23c-4.26,0-5.83-2-5.83-7.51S89.93,8,94.1,8A19.78,19.78,0,0,1,97.9,8.54Z" transform="translate(-2.64 -2.42)"/><path class="cls-1" d="M112,8.28c-1.42,2.41-3.25,5-4.64,6.9,1.6,2.26,3.16,4.76,4.87,7.6h-3.1c-1.28-2.15-2.64-4.41-4.21-6.56l-1.28.29v6.27h-2.7V2.8l2.7-.2V14.75l1.19-.26c1.42-1.91,2.67-4,4-6.21Z" transform="translate(-2.64 -2.42)"/><path class="cls-1" d="M123.48,9a9.24,9.24,0,0,1,3.13-1c4,0,5.6,1.68,5.6,7.45s-1.86,7.54-7,7.54c-1.54,0-3.77-.23-5.54-.44V3l3.8-.26Zm0,2.73V20c.41.06,1.39.15,1.8.15,1.86,0,3-.7,3-4.55S127.51,11,125.54,11A5.31,5.31,0,0,0,123.48,11.73Z" transform="translate(-2.64 -2.42)"/><path class="cls-1" d="M142.59,11.85a10.91,10.91,0,0,0-4.18,1.36v9.57h-3.8V8.28h3.6l.17,1.45A9.37,9.37,0,0,1,142.59,8Z" transform="translate(-2.64 -2.42)"/><path class="cls-1" d="M157,15.5c0,5.31-1.8,7.57-6.53,7.57S144,20.81,144,15.5,145.75,8,150.45,8,157,10.22,157,15.5Zm-6.53,5c2,0,2.55-1.28,2.55-5s-.52-5-2.55-5-2.52,1.25-2.52,5S148.45,20.52,150.45,20.52Z" transform="translate(-2.64 -2.42)"/><path class="cls-1" d="M174.75,8.28h4.09A75,75,0,0,1,175,22.78h-4.44a77.56,77.56,0,0,1-1.68-7.66c-.29.93-1.39,6.24-2.06,7.66h-4.53a82.85,82.85,0,0,1-3.89-14.5h4.09c.41,2.26,1.6,10,2.55,11.78.67-1.94,1.57-4.93,2-6.67-.29-1.39-.7-3.77-.84-5.1H170a97,97,0,0,0,2.29,11.78C173.27,18.2,174.43,10.6,174.75,8.28Z" transform="translate(-2.64 -2.42)"/><path class="cls-1" d="M184.49,22.78h-3.8V8.28h3.6l.12,1.16A6.59,6.59,0,0,1,188.24,8c3.8,0,4.61,1.65,4.61,5.66v9.08H189V13.65c0-2.2-.52-2.9-2.38-2.9a3.65,3.65,0,0,0-2.18.93Z" transform="translate(-2.64 -2.42)"/><path class="cls-1" d="M207.49,22.78h-6.64V12.57h-1.1V8.31h1.16c.26-4.47,1.36-5.34,5.37-5.34a27.81,27.81,0,0,1,3.8.23L209.72,8A16.41,16.41,0,0,0,208,7.84c-.55,0-.64.06-.64.44h2.35v4.29h-2.26Z" transform="translate(-2.64 -2.42)"/><path class="cls-1" d="M225.15,15.5c0,5.42-2.15,7.57-7.43,7.57s-7.4-2.15-7.4-7.57S212.48,8,217.73,8,225.15,10.08,225.15,15.5Zm-7.43,3.42c.52,0,.58-.49.58-3.42s-.06-3.36-.58-3.36-.55.46-.55,3.36S217.24,18.92,217.73,18.92Z" transform="translate(-2.64 -2.42)"/><path class="cls-1" d="M233.21,8.28l.38,4.41h.12l.52-4.41h6.87l-2.81,7.14,3.08,7.37h-7.72l-.46-4.21-.12,0-.52,4.23h-7.14l3.13-7.37-2.9-7.14Z" transform="translate(-2.64 -2.42)"/><path class="cls-1" d="M11.19,45.65c0,5-.75,6.64-4.9,6.64a21,21,0,0,1-3.65-.44l.55-4.35a4.53,4.53,0,0,0,.84.12c.49,0,.58-.23.58-2V32.28h6.58ZM7.8,26c2.73,0,3.48.81,3.48,2.73s-.75,2.7-3.48,2.7-3.45-.78-3.45-2.7S5.07,26,7.8,26Z" transform="translate(-2.64 -2.42)"/><path class="cls-1" d="M19.69,32.28h6.58v14.5H20l-.09-.93a6.86,6.86,0,0,1-3.42,1.22c-4,0-4.29-1.71-4.29-5.86V32.28h6.58v9c0,1,.17,1.25.52,1.25a1.05,1.05,0,0,0,.44-.17Z" transform="translate(-2.64 -2.42)"/><path class="cls-1" d="M33.87,46.78H27.32V32.28h6.12l.15.9A8.74,8.74,0,0,1,37.41,32a3.58,3.58,0,0,1,3,1.19,9.63,9.63,0,0,1,4-1.19c4,0,4.55,1.68,4.55,6v8.79H42.37V38.34c0-1.36-.15-1.83-.55-1.83a1.37,1.37,0,0,0-.49.12,14.5,14.5,0,0,1,.09,1.68v8.47H34.83V38.34c0-1.51-.12-1.83-.49-1.83a1.24,1.24,0,0,0-.46.15Z" transform="translate(-2.64 -2.42)"/><path class="cls-1" d="M50,32.28h6.44l.06,1a7.65,7.65,0,0,1,1.33-.84,3.77,3.77,0,0,1,1.6-.43c3.8,0,5.08,1.68,5.08,7.57s-2,7.51-5.45,7.51a10.59,10.59,0,0,1-2.47-.38V52H50Zm6.58,4.32V42.9A1.08,1.08,0,0,0,57,43c.41,0,.67-.38.67-3.34s-.17-3.31-.61-3.31A1,1,0,0,0,56.58,36.6Z" transform="translate(-2.64 -2.42)"/><path class="cls-1" d="M65.91,41.82a21.13,21.13,0,0,0,5,1c.49,0,.67-.09.67-.35s-.17-.41-.84-.55c-4.73-1-5.51-1.68-5.51-5.16,0-4.06,2.64-4.81,6.7-4.81a33.81,33.81,0,0,1,6.27.75L77.46,37a23.35,23.35,0,0,0-4.93-.84c-.46,0-.64.06-.64.35s.17.38,1,.55c4.58,1,5.37,1.6,5.37,4.82,0,4.21-2.44,5.16-6.64,5.16a29.38,29.38,0,0,1-6.56-.9Z" transform="translate(-2.64 -2.42)"/><path class="cls-1" d="M98,39.5c0,5.31-1.8,7.57-6.53,7.57S85,44.81,85,39.5,86.79,32,91.49,32,98,34.22,98,39.5Zm-6.53,5c2,0,2.55-1.28,2.55-5s-.52-5-2.55-5S89,35.79,89,39.5,89.49,44.52,91.49,44.52Z" transform="translate(-2.64 -2.42)"/><path class="cls-1" d="M106,43.91c1.07-2,2.15-9.28,2.55-11.63h4.06a77.86,77.86,0,0,1-4,14.5h-5.28a80.12,80.12,0,0,1-3.92-14.5h4.09A87.82,87.82,0,0,0,106,43.91Z" transform="translate(-2.64 -2.42)"/><path class="cls-1" d="M126,38.05c0,1.57-.64,2-2.49,2.23l-5.95.67c.12,2.41.61,3.16,2.73,3.16a26.31,26.31,0,0,0,4.9-.73l.55,2.81a27,27,0,0,1-5.63.84c-4.58,0-6.44-1.57-6.44-7.51,0-5.13,1.91-7.48,6.32-7.48C124.26,32,126,33.5,126,38.05Zm-8.44.64,4.21-.55a.46.46,0,0,0,.44-.49c0-2.44-.64-2.87-2.2-2.87C118.23,34.77,117.59,35.67,117.59,38.69Z" transform="translate(-2.64 -2.42)"/><path class="cls-1" d="M136.41,35.85a10.93,10.93,0,0,0-4.18,1.36v9.57h-3.8V32.28H132l.17,1.45A9.37,9.37,0,0,1,136.41,32Z" transform="translate(-2.64 -2.42)"/><path class="cls-1" d="M144.47,40.29V34.86h-1.68V32.31h1.68V29.49l3.8-.58v3.37h3.6v2.58h-3.6v5.95c0,2.73.15,3.6,1.65,3.6a8.38,8.38,0,0,0,1.71-.23l.35,2.44a14.79,14.79,0,0,1-3.19.44C144.76,47,144.47,45,144.47,40.29Z" transform="translate(-2.64 -2.42)"/><path class="cls-1" d="M157.84,46.78H154V27l3.8-.26v6.21a11.08,11.08,0,0,1,3.36-.87c4,0,5,1.71,5,5.71v9h-3.8V37.65c0-2.23-.61-2.9-2.49-2.9a7.38,7.38,0,0,0-2.06.58Z" transform="translate(-2.64 -2.42)"/><path class="cls-1" d="M180.87,38.05c0,1.57-.64,2-2.49,2.23l-5.95.67c.12,2.41.61,3.16,2.73,3.16a26.32,26.32,0,0,0,4.9-.73l.55,2.81A27,27,0,0,1,175,47c-4.58,0-6.44-1.57-6.44-7.51,0-5.13,1.92-7.48,6.32-7.48C179.1,32,180.87,33.5,180.87,38.05Zm-8.44.64,4.21-.55a.46.46,0,0,0,.43-.49c0-2.44-.64-2.87-2.2-2.87C173.07,34.77,172.43,35.67,172.43,38.69Z" transform="translate(-2.64 -2.42)"/><path class="cls-1" d="M189.22,46.78v-20l2.7-.2V46.78Z" transform="translate(-2.64 -2.42)"/><path class="cls-1" d="M195.11,41.21c0-1.19.87-1.8,2.18-2l6.44-.93c0-3.22-.23-4.12-3.16-4.12a20.86,20.86,0,0,0-4.76.73l-.38-2.06a22.33,22.33,0,0,1,5.4-.81c5,0,5.6,1.77,5.6,7.37v7.37H204l-.06-2.29c-.61,1.83-1.8,2.55-3.95,2.55C196.3,47,195.11,45.36,195.11,41.21Zm8.64-.75V40l-5.42.84a.58.58,0,0,0-.52.61c0,2.81.67,3.68,2.79,3.68C203,45.16,203.75,44.14,203.75,40.46Z" transform="translate(-2.64 -2.42)"/><path class="cls-1" d="M209.64,32.28h10l.17,1.62-7,10.91h7.08v2H209.69l-.2-1.51,7.14-11.05h-7Z" transform="translate(-2.64 -2.42)"/><path class="cls-1" d="M224.89,32.28A99.85,99.85,0,0,0,228.14,45c1.28-2.67,2.7-10,3.25-12.71h2.87A69.93,69.93,0,0,1,229.82,47c-1.86,4.24-2.84,5.74-7.43,5.77V50.47c2.32,0,2.67-.61,4.06-3.66A67,67,0,0,1,222,32.28Z" transform="translate(-2.64 -2.42)"/><path class="cls-1" d="M252.59,46.78h-.9l-.09-1.39A6.18,6.18,0,0,1,247.54,47c-3.74,0-5.42-1.71-5.42-7.48,0-5.51,2.32-7.43,6-7.43a19.39,19.39,0,0,1,3.42.43v-6l1-.12Zm-1-2.35v-11a28.08,28.08,0,0,0-3.37-.41c-3.19,0-5,1.54-5,6.53s1.16,6.53,4.5,6.53A6,6,0,0,0,251.57,44.43Z" transform="translate(-2.64 -2.42)"/><path class="cls-1" d="M267.78,39.5c0,5.16-1.42,7.54-5.6,7.54s-5.6-2.38-5.6-7.54S258,32,262.18,32,267.78,34.34,267.78,39.5Zm-5.6,6.61c3.54,0,4.53-2.09,4.53-6.61s-1-6.56-4.53-6.56-4.53,2-4.53,6.56S258.64,46.12,262.18,46.12Z" transform="translate(-2.64 -2.42)"/><path class="cls-1" d="M270.65,49.16c0-2,1-2.79,2.84-3.95a1.59,1.59,0,0,1-.72-1.42,4.57,4.57,0,0,1,1.16-2,4.37,4.37,0,0,1-2.81-4.53c0-3.39,1.94-5.22,5.11-5.22a5.93,5.93,0,0,1,3.39.9l3.51-1,.29,1-3.13.72a5.25,5.25,0,0,1,1.16,3.6c0,3.34-1.89,4.87-5.22,4.87-.23,0-1.16-.06-1.51-.12a3.58,3.58,0,0,0-1,1.68c0,.84.29,1,4.23,1.54,3.74.49,5,1.36,5,3.8,0,2.84-1.8,4.44-6.12,4.44S270.65,52,270.65,49.16Zm3.57-3.54c-1.77,1-2.52,1.92-2.52,3.31,0,2.47,1.31,3.66,5.31,3.66,3.6,0,5-1.28,5-3.48s-1.33-2.5-4.55-3C276.28,46,275.12,45.8,274.22,45.62Zm6.15-8.33c0-2.84-1.31-4.29-4.15-4.29s-4.06,1.57-4.06,4.29,1.42,3.95,4.06,3.95S280.37,40,280.37,37.3Z" transform="translate(-2.64 -2.42)"/></svg>