<?xml version="1.0" encoding="UTF-8"?>
<svg width="48px" height="30px" viewBox="0 0 48 30" version="1.1" xmlns="http://www.w3.org/2000/svg" xmlns:xlink="http://www.w3.org/1999/xlink">
    <!-- Generator: Sketch 42 (36781) - http://www.bohemiancoding.com/sketch -->
    <title>Behance-black</title>
    <desc>Created with Sketch.</desc>
    <defs></defs>
    <g id="Symbols" stroke="none" stroke-width="1" fill="none" fill-rule="evenodd">
        <g id="Logos/Black/Behance" fill="#000000">
            <path d="M30.6717676,5.00603248 L43.382997,5.00603248 L43.382997,1.36426914 L30.6717676,1.36426914 L30.6717676,5.00603248 L30.6717676,5.00603248 Z M33.6830646,12.9522042 C32.8730906,13.7763341 32.3622708,14.8928074 32.1534273,16.3016241 L42.0396255,16.3016241 C41.9352038,14.7981439 41.4215617,13.662181 40.5128104,12.8798144 C39.5927703,12.1030162 38.4610645,11.7160093 37.1064041,11.7160093 C35.6388555,11.7160093 34.4930386,12.1280742 33.6830646,12.9522042 L33.6830646,12.9522042 L33.6830646,12.9522042 Z M42.26258,8.06310905 C43.7950395,8.73689095 45.0565669,9.80603248 46.0499845,11.2649652 C46.9559136,12.5512761 47.5372887,14.0436195 47.8025763,15.7392111 C47.9577978,16.7303944 48.0198864,18.1670534 47.9944865,20.0352668 L32.0123169,20.0352668 C32.108272,22.2041763 32.864624,23.7271462 34.309595,24.5986079 C35.1844798,25.1415313 36.2371638,25.4143852 37.4732913,25.4143852 C38.7743297,25.4143852 39.8383025,25.0830626 40.6539209,24.4232019 C41.1026521,24.0640371 41.4977614,23.5684455 41.8364265,22.9336427 L47.6925102,22.9336427 C47.5372887,24.2143852 46.826092,25.5201856 45.5673868,26.8454756 C43.6031293,28.9475638 40.8514755,30 37.3152476,30 C34.3942613,30 31.8175844,29.1146172 29.5908615,27.3382831 C27.3528498,25.5647332 26.2408994,22.67471 26.2408994,18.6765661 C26.2408994,14.9262181 27.248428,12.050116 29.2606631,10.0482599 C31.2785425,8.05197216 33.8890859,7.04686775 37.1035819,7.04686775 C39.0142174,7.04686775 40.7329427,7.38654292 42.26258,8.06310905 L42.26258,8.06310905 L42.26258,8.06310905 Z M5.91252789,16.3795824 L5.91252789,24.1837587 L13.1148053,24.1837587 C14.4017326,24.1837587 15.406439,24.0111369 16.1204579,23.6686775 C17.4214963,23.0283063 18.0706043,21.8143852 18.0706043,20.0157773 C18.0706043,18.4900232 17.4440739,17.4459397 16.1825465,16.875174 C15.4769942,16.5577726 14.4863989,16.3907193 13.2164048,16.3795824 L5.91252789,16.3795824 L5.91252789,16.3795824 Z M5.91252789,5.0812065 L5.91252789,11.537819 L13.1260941,11.537819 C14.4101992,11.537819 15.4572388,11.2955916 16.2643906,10.8111369 C17.0658979,10.3266821 17.4694738,9.46914153 17.4694738,8.24408353 C17.4694738,6.87703016 16.9388985,5.97772622 15.8777479,5.53781903 C14.9577078,5.23433875 13.7893133,5.0812065 12.3697421,5.0812065 L5.91252789,5.0812065 L5.91252789,5.0812065 Z M22.021697,3.11832947 C22.927626,4.36287703 23.3820017,5.84965197 23.3820017,7.58422274 C23.3820017,9.36890951 22.927626,10.8083527 22.0104081,11.8941995 C21.4967661,12.5011601 20.7432363,13.0580046 19.7469965,13.5591647 C21.2597005,14.1048724 22.399873,14.9651972 23.1759804,16.1429234 C23.9436213,17.3178654 24.3302639,18.7489559 24.3302639,20.4306265 C24.3302639,22.1651972 23.8899993,23.7215777 23.0066479,25.0969838 C22.4478505,26.0074246 21.7479427,26.7758701 20.9069244,27.399536 C19.9614844,28.1150812 18.8467118,28.6023202 17.5569623,28.8696056 C16.2672128,29.1341067 14.8730415,29.262181 13.3659819,29.262181 L0,29.262181 L0,0 L14.3339996,0 C17.9520716,0.052900232 20.5118151,1.09141531 22.021697,3.11832947 L22.021697,3.11832947 L22.021697,3.11832947 Z" id="Behance"></path>
        </g>
    </g>
</svg>