<?xml version="1.0" encoding="UTF-8"?>
<svg width="46px" height="46px" viewBox="0 0 46 46" version="1.1" xmlns="http://www.w3.org/2000/svg" xmlns:xlink="http://www.w3.org/1999/xlink">
    <!-- Generator: Sketch 42 (36781) - http://www.bohemiancoding.com/sketch -->
    <title>Dribbble-black</title>
    <desc>Created with Sketch.</desc>
    <defs></defs>
    <g id="Symbols" stroke="none" stroke-width="1" fill="none" fill-rule="evenodd">
        <g id="Logos/Black/Dribbble" fill="#000000">
            <path d="M33.9773035,39.2902581 C33.7771506,38.1057087 32.7304051,32.3398201 30.1527606,25.2622729 C36.4954431,24.2481039 41.9888281,25.9870657 42.3945434,26.1195837 C41.5209032,31.5933917 38.3860763,36.312658 33.9773035,39.2902581 L33.9773035,39.2902581 L33.9773035,39.2902581 Z M23.0013524,42.6437768 C18.2463691,42.6437768 13.8862821,40.9534952 10.486388,38.1408666 C10.7460457,38.3518137 10.9272652,38.4843318 10.9272652,38.4843318 C10.9272652,38.4843318 14.6923032,30.2736198 26.3417416,26.2142395 C26.3850179,26.1980128 26.430999,26.187195 26.4742753,26.1736728 C29.2385488,33.3539891 30.3772564,39.3686872 30.6693714,41.0860133 C28.313518,42.08666 25.7196449,42.6437768 23.0013524,42.6437768 L23.0013524,42.6437768 L23.0013524,42.6437768 Z M3.35661786,22.9986478 C3.35661786,22.7904051 3.36743694,22.5848668 3.37284647,22.3793286 C3.72176163,22.3874419 13.4264715,22.6065024 23.5396013,19.5802222 C24.1021932,20.6809336 24.6404422,21.8032806 25.1327101,22.9202187 C24.8730523,22.9905344 24.6160993,23.0689635 24.3591462,23.1555059 C13.759158,26.5793403 8.38207797,36.1152331 8.38207797,36.1152331 C8.38207797,36.1152331 8.39019227,36.1233465 8.39019227,36.1260509 C5.26077498,32.645423 3.35661786,28.0451526 3.35661786,22.9986478 L3.35661786,22.9986478 L3.35661786,22.9986478 Z M14.6192744,5.23852078 C14.881637,5.58739491 18.5141412,10.5121994 21.9140354,16.553942 C12.4825072,19.0609677 4.29517258,18.9609031 3.77856177,18.9527897 C5.05250779,12.8677759 9.13941318,7.82397554 14.6192744,5.23852078 L14.6192744,5.23852078 L14.6192744,5.23852078 Z M18.295055,3.9295667 C18.295055,3.93227115 18.2923502,3.9349756 18.2923502,3.9349756 C18.2923502,3.9349756 18.2680073,3.9403845 18.2328453,3.9457934 C18.2544834,3.9403845 18.2734168,3.93768005 18.295055,3.9295667 L18.295055,3.9295667 L18.295055,3.9295667 Z M35.9734227,8.26209654 C35.9247369,8.3351167 33.1280061,12.5946264 25.7115305,15.3720971 C22.3549127,9.20324534 18.6656083,4.30278088 18.3707885,3.91334 C19.8557065,3.55364807 21.4055389,3.35892763 23.0013524,3.35892763 C27.9727171,3.35892763 32.5140236,5.21418073 35.9734227,8.26209654 L35.9734227,8.26209654 L35.9734227,8.26209654 Z M42.6379726,22.8039273 C42.3539719,22.741725 35.7056506,21.3110706 28.9572529,22.1602681 C28.8166049,21.8249162 28.6786617,21.4868599 28.5326042,21.1488036 C28.1241842,20.1860192 27.6833069,19.2340526 27.226201,18.2983127 C34.9834774,15.131401 38.1318281,10.5798107 38.1696948,10.5257217 C40.9231493,13.8711271 42.5919915,18.144159 42.6379726,22.8039273 L42.6379726,22.8039273 L42.6379726,22.8039273 Z M45.5347798,18.3713328 C45.2318457,16.8947028 44.7774446,15.4370039 44.1905098,14.0469163 C43.6170988,12.6838732 42.9003352,11.3695103 42.0699712,10.1416897 C41.2504263,8.92468693 40.3037573,7.77799988 39.2651261,6.73949086 C38.2237902,5.69827738 37.0796731,4.75442413 35.8598224,3.93227115 C34.6318575,3.09930037 33.3173399,2.38802987 31.9541365,1.80927744 C30.5638855,1.22511611 29.1087199,0.770768417 27.6319163,0.470574402 C26.1172458,0.159562585 24.5592991,0 23.0013524,0 C21.4407009,0 19.8827542,0.159562585 18.3680837,0.470574402 C16.8912801,0.770768417 15.4361145,1.22511611 14.0458635,1.80927744 C12.6826601,2.38802987 11.3681425,3.09930037 10.1374728,3.93227115 C8.92032692,4.75442413 7.7762098,5.69827738 6.73487388,6.73949086 C5.69624272,7.77799988 4.75227847,8.92468693 3.93002881,10.1416897 C3.09966484,11.3695103 2.38290116,12.6838732 1.80949021,14.0469163 C1.21985065,15.4370039 0.768154289,16.8947028 0.465220203,18.3713328 C0.15687658,19.8831207 0,21.4408842 0,22.9986478 C0,24.5618202 0.15687658,26.1195837 0.465220203,27.6340761 C0.768154289,29.1107061 1.21985065,30.5657005 1.80949021,31.9530837 C2.38290116,33.3161268 3.09966484,34.6358986 3.93002881,35.8637192 C4.75227847,37.080722 5.69624272,38.2220001 6.73487388,39.265918 C7.7762098,40.3044271 8.92032692,41.2455759 10.1374728,42.0704333 C11.3681425,42.9006996 12.6826601,43.6146746 14.0458635,44.1907226 C15.4361145,44.7802928 16.8912801,45.2292316 18.3680837,45.5294256 C19.8827542,45.8431419 21.4407009,46 23.0013524,46 C24.5592991,46 26.1172458,45.8431419 27.6319163,45.5294256 C29.1087199,45.2292316 30.5638855,44.7802928 31.9541365,44.1907226 C33.3173399,43.6146746 34.6318575,42.9006996 35.8598224,42.0704333 C37.0796731,41.2455759 38.2237902,40.3044271 39.2651261,39.265918 C40.3037573,38.2220001 41.2504263,37.080722 42.0699712,35.8637192 C42.9003352,34.6358986 43.6170988,33.3161268 44.1905098,31.9530837 C44.7774446,30.5657005 45.2318457,29.1107061 45.5347798,27.6340761 C45.8431234,26.1195837 46,24.5618202 46,22.9986478 C46,21.4408842 45.8431234,19.8831207 45.5347798,18.3713328 L45.5347798,18.3713328 L45.5347798,18.3713328 Z" id="Dribbble"></path>
        </g>
    </g>
</svg>