<svg id="Layer_1" data-name="Layer 1" xmlns="http://www.w3.org/2000/svg" viewBox="0 0 150 18.65"><defs><style>.cls-1{fill:gray;}</style></defs><title>logo_ext</title><path d="M11.55,18.34q0,.18-.36.18h-.77a4.3,4.3,0,0,0-2.14.5,1.61,1.61,0,0,1-.44.2c-.16,0-.23-.1-.23-.31l0-.8A3.6,3.6,0,0,1,5,19.22a4.47,4.47,0,0,1-3.58-1.67A6.4,6.4,0,0,1,0,13.28,6.47,6.47,0,0,1,1.41,8.95,4.59,4.59,0,0,1,5.09,7.29,3,3,0,0,1,7.72,8.55v-4a9.39,9.39,0,0,0-.18-2.43c-.1-.26-.26-.38-.46-.36l-.89.08c-.22,0-.33-.08-.33-.23s.09-.23.28-.23l.92,0A5.9,5.9,0,0,0,9.43.65.41.41,0,0,1,9.61.59q.26,0,.26.62V11.39q0,6.12.1,6.56.05.18,1.21.18C11.43,18.13,11.55,18.2,11.55,18.34ZM7.72,11.86a5.93,5.93,0,0,0-.54-3.18A2.18,2.18,0,0,0,5.4,7.8,2.49,2.49,0,0,0,3.18,9.25a7.8,7.8,0,0,0-.83,3.88,9.89,9.89,0,0,0,.72,4A2.85,2.85,0,0,0,4,18.25a2.07,2.07,0,0,0,1.25.45,2.38,2.38,0,0,0,1.45-.48,2.17,2.17,0,0,0,.84-1.15A34.84,34.84,0,0,0,7.72,11.86Z" transform="translate(0 -0.57)"/><path class="cls-1" d="M23.12,13.28a6,6,0,0,1-1.52,4.2,4.9,4.9,0,0,1-3.8,1.69,5.15,5.15,0,0,1-3.93-1.69,5.92,5.92,0,0,1-1.58-4.2A6.16,6.16,0,0,1,13.83,9a5,5,0,0,1,3.84-1.7A5,5,0,0,1,21.56,9,6.12,6.12,0,0,1,23.12,13.28Zm-2.35,0a9.17,9.17,0,0,0-.88-4.42,2.28,2.28,0,0,0-2.17-1.16,2.49,2.49,0,0,0-2.26,1.48,8.65,8.65,0,0,0-.81,4.12,8,8,0,0,0,.87,4.07,2.68,2.68,0,0,0,2.42,1.46,1.93,1.93,0,0,0,1.76-.9A8.6,8.6,0,0,0,20.77,13.25Z" transform="translate(0 -0.57)"/><path class="cls-1" d="M42.05,18.72q0,.19-.44.19H37c-.22,0-.34-.06-.34-.17s.09-.19.28-.19h.85c.26,0,.41-.08.45-.18a4.75,4.75,0,0,0,.06-1.09V10.86a4.23,4.23,0,0,0-.4-2.14,1.47,1.47,0,0,0-1.35-.63,2.25,2.25,0,0,0-2.05,1.42,20.2,20.2,0,0,0-.1,2.87v4.88a9.47,9.47,0,0,0,0,1,.41.41,0,0,0,.46.31h.74c.22,0,.33.07.33.19s-.13.17-.39.17H30.89q-.31,0-.31-.21c0-.09.05-.14.16-.15s.45,0,1,0c.28,0,.42-.1.44-.26l0-.36V10.71a4,4,0,0,0-.37-2.06,1.46,1.46,0,0,0-1.32-.57A2.21,2.21,0,0,0,29,8.68a2,2,0,0,0-.63,1.49v7.32a2,2,0,0,0,.11.91c.08.1.33.14.75.14h.2l.28,0q.28,0,.28.21c0,.12-.11.18-.34.18h-.26q-.62,0-1.94,0H24.9c-.24,0-.36-.07-.36-.21s.11-.18.34-.18A3.69,3.69,0,0,0,26,18.43a.4.4,0,0,0,.18-.32v-6.7a17.06,17.06,0,0,0-.08-2.27q-.08-.33-.75-.33h-.85c-.22,0-.34-.06-.34-.18s0-.16.12-.18l.84-.08a5.93,5.93,0,0,0,1.49-.31,2.26,2.26,0,0,0,1-.49c.19-.19.33-.28.41-.28s.14.07.16.21,0,.62.05,1.45a3.49,3.49,0,0,1,3.18-1.65q2.3,0,2.79,1.73a3.46,3.46,0,0,1,3.23-1.73,2.6,2.6,0,0,1,2.59,1.37,5.76,5.76,0,0,1,.36,2.4v6.38a2.49,2.49,0,0,0,.09,1,2,2,0,0,0,.8.14h.46Q42.05,18.52,42.05,18.72Z" transform="translate(0 -0.57)"/><path class="cls-1" d="M52.49,16a2.28,2.28,0,0,1-.4.92A5.73,5.73,0,0,1,51.28,18a4,4,0,0,1-3,1.14,5.09,5.09,0,0,1-3.89-1.68,5.87,5.87,0,0,1-1.56-4.16A6.39,6.39,0,0,1,44.34,9,4.69,4.69,0,0,1,48,7.29a4.53,4.53,0,0,1,3.07,1.07,3.71,3.71,0,0,1,1.32,2.75,13.23,13.23,0,0,1-2.2.1H48.43l-3.1.08a10.77,10.77,0,0,0-.13,1.62,6.86,6.86,0,0,0,1,4,3.24,3.24,0,0,0,2.8,1.4,2.69,2.69,0,0,0,1.65-.46A5.68,5.68,0,0,0,52,16.07a.32.32,0,0,1,.28-.21Q52.49,15.86,52.49,16Zm-2.25-5.27q-.1-3.1-2.22-3.1t-2.61,3.1Z" transform="translate(0 -0.57)"/><path class="cls-1" d="M65.69,18.72c0,.13-.13.19-.39.19H60.55c-.22,0-.34-.06-.34-.18a.15.15,0,0,1,.14-.16q.14,0,1-.05.49,0,.57-.14a2.33,2.33,0,0,0,.08-.84V12.6a14.51,14.51,0,0,0-.21-3.35A1.71,1.71,0,0,0,60,8.09a2.65,2.65,0,0,0-2.17,1.13,1.49,1.49,0,0,0-.26.93v8q0,.31.55.33l.79,0c.17,0,.26.06.26.18s-.1.18-.31.18h-4.7c-.26,0-.39-.05-.39-.16s.16-.17.47-.2h.65q.39,0,.46-.18l.08-.39V12.36q0-2.94-.05-3.25t-.65-.31H54q-.52,0-.52-.19T54,8.37a7,7,0,0,0,1.68-.28A3.2,3.2,0,0,0,57,7.49a.66.66,0,0,1,.36-.21q.18,0,.18.49V9A4.19,4.19,0,0,1,61,7.29a2.9,2.9,0,0,1,2.69,1.37,6.34,6.34,0,0,1,.46,2.94v5.89a2.46,2.46,0,0,0,.08.9,1.16,1.16,0,0,0,.75.15h.47C65.6,18.55,65.69,18.6,65.69,18.72Z" transform="translate(0 -0.57)"/><path class="cls-1" d="M72,18.7q0,.23-.44.23L71,18.88q-.77-.05-1.29-.05H67a.49.49,0,0,1-.31.1q-.28,0-.28-.19c0-.18.17-.27.52-.27A2.4,2.4,0,0,0,68,18.33a3.1,3.1,0,0,0,.09-1.07V9.43A4.53,4.53,0,0,0,68,8.67q0-.12-.32-.12h-1q-.28,0-.28-.18t.43-.18a6.17,6.17,0,0,0,2.93-.8L70,7.23a3.38,3.38,0,0,1,.2,1.42V17a9.69,9.69,0,0,0,0,1.21.31.31,0,0,0,.27.23,4.7,4.7,0,0,0,1.14.1C71.92,18.5,72,18.56,72,18.7ZM70.11,2.61a1,1,0,0,1-1.16,1.16,1.15,1.15,0,0,1-.83-.32,1.05,1.05,0,0,1-.34-.79q0-1.21,1.16-1.21A1,1,0,0,1,70.11,2.61Z" transform="translate(0 -0.57)"/><path class="cls-1" d="M82.48,9.95a1,1,0,0,1-1.16,1.19q-1.14,0-1.14-1.09a2.35,2.35,0,0,1,.26-.85.91.91,0,0,0,.08-.36A1,1,0,0,0,80,8a2.44,2.44,0,0,0-1.33-.34A2.69,2.69,0,0,0,76.25,9a7,7,0,0,0-.85,3.77A8.36,8.36,0,0,0,76.28,17a2.74,2.74,0,0,0,2.48,1.48,3,3,0,0,0,1.94-.67,6.1,6.1,0,0,0,1-1.19.35.35,0,0,1,.23-.13c.17,0,.26.07.26.21s-.3.65-.9,1.27a3.94,3.94,0,0,1-3,1.21,4.87,4.87,0,0,1-3.76-1.63,5.86,5.86,0,0,1-1.48-4.11A6.32,6.32,0,0,1,74.65,9a5.1,5.1,0,0,1,4-1.74,4.68,4.68,0,0,1,2.7.8A2.26,2.26,0,0,1,82.48,9.95Z" transform="translate(0 -0.57)"/><path class="cls-1" d="M94.46,13.28a6,6,0,0,1-1.52,4.2,4.9,4.9,0,0,1-3.8,1.69,5.15,5.15,0,0,1-3.93-1.69,5.93,5.93,0,0,1-1.58-4.2A6.16,6.16,0,0,1,85.18,9,5,5,0,0,1,89,7.29,5,5,0,0,1,92.9,9,6.11,6.11,0,0,1,94.46,13.28Zm-2.35,0a9.17,9.17,0,0,0-.88-4.42,2.28,2.28,0,0,0-2.17-1.16,2.49,2.49,0,0,0-2.26,1.48A8.66,8.66,0,0,0,86,13.28a8,8,0,0,0,.87,4.07,2.68,2.68,0,0,0,2.41,1.46A1.93,1.93,0,0,0,91,17.9,8.61,8.61,0,0,0,92.11,13.25Z" transform="translate(0 -0.57)"/><path d="M104.56,2.61a1.26,1.26,0,0,1-.32.89,1.09,1.09,0,0,1-.84.35,1.17,1.17,0,0,1-.83-.31,1,1,0,0,1-.34-.78,1.73,1.73,0,0,1,.34-.9.46.46,0,0,0,.08-.23q0-.59-.85-.59-1.43,0-1.89,1.86a17.23,17.23,0,0,0-.23,3.44V7.6h1.69q.51,0,.51.22t-.66.22H99.68V18.16c0,.24.24.36.71.36q1.1,0,1.2.1a.16.16,0,0,1,0,.1c0,.12-.1.18-.31.18a1.13,1.13,0,0,1-.26,0l-2.12,0H96.12c-.31,0-.46-.06-.46-.18s.12-.21.37-.21a3.3,3.3,0,0,0,1.46-.16.21.21,0,0,0,.05-.16l0-.34V8.06c-.64,0-1,0-1.11,0a.18.18,0,0,1-.16-.21q0-.23.47-.23h.83a11.37,11.37,0,0,1,.88-4.73A3.82,3.82,0,0,1,102,.65a3,3,0,0,1,1.86.54A1.7,1.7,0,0,1,104.56,2.61Z" transform="translate(0 -0.57)"/><path class="cls-1" d="M107.9,18.68c0,.16-.11.23-.34.23h-.31l-1.37-.05h-.8l-2.07,0h-.31q-.39,0-.39-.22c0-.11.1-.17.28-.17h.67c.48,0,.72-.1.72-.31s0-.77,0-2V3a3.8,3.8,0,0,0-.05-.93c-.05-.14-.19-.21-.41-.21h-.93c-.24,0-.36-.07-.36-.22s.22-.2.65-.22a6.36,6.36,0,0,0,2.3-.57l.54-.26L106,.57a8.69,8.69,0,0,1,.18,2.27V17.33a8.5,8.5,0,0,0,0,.92.25.25,0,0,0,.18.19,7.19,7.19,0,0,0,1,.05Q107.9,18.5,107.9,18.68Z" transform="translate(0 -0.57)"/><path class="cls-1" d="M119.21,17.7q0,.44-.91.92a3.8,3.8,0,0,1-1.76.48,1.67,1.67,0,0,1-1.85-1.83,3.2,3.2,0,0,1-3,1.91,2.6,2.6,0,0,1-1.83-.66,2.19,2.19,0,0,1-.72-1.69q0-2.12,2.53-3.36a14,14,0,0,1,3-.83V12a12.05,12.05,0,0,0-.23-3,1.76,1.76,0,0,0-1.86-1.32,2.33,2.33,0,0,0-1.51.49,1.53,1.53,0,0,0-.61,1.24c0,.14.1.21.32.21a.73.73,0,0,1,.57.31,1.07,1.07,0,0,1,.25.7,1,1,0,0,1-1.13,1.14,1.28,1.28,0,0,1-1-.4,1.41,1.41,0,0,1-.38-1,2.75,2.75,0,0,1,1-2.09,4.24,4.24,0,0,1,2.94-1q2.84,0,3.49,1.55a7.64,7.64,0,0,1,.23,2.35V16q0,1.19,0,1.39.13.93.75.93a1.53,1.53,0,0,0,1.19-.52c.17-.19.3-.28.39-.28S119.21,17.59,119.21,17.7ZM114.66,15V13.07a6.53,6.53,0,0,0-2.74,1.15,2.38,2.38,0,0,0-.83,1.9,2,2,0,0,0,.47,1.36,1.52,1.52,0,0,0,1.18.53,2,2,0,0,0,1.76-1.24A5.72,5.72,0,0,0,114.66,15Z" transform="translate(0 -0.57)"/><path class="cls-1" d="M131.27,18q0,.18-.57.21a9.3,9.3,0,0,0-3.54.88.42.42,0,0,1-.18.05c-.1,0-.16-.07-.16-.21V17.46a3.83,3.83,0,0,1-3.31,1.65,3.16,3.16,0,0,1-2.72-1.1,2.08,2.08,0,0,1-.4-.85,18.71,18.71,0,0,1-.06-2.08V9.21a2.83,2.83,0,0,0-.1-1.05q-.1-.15-.7-.18h-.34q-.7.05-.7-.21T119,7.6q.46,0,1.34.07l.52,0a12.73,12.73,0,0,0,1.68-.1v7.17a8.48,8.48,0,0,0,.26,2.62,1.63,1.63,0,0,0,1.68,1,2.16,2.16,0,0,0,2-1.13,5.57,5.57,0,0,0,.46-2.62v-4a8.18,8.18,0,0,0-.08-1.31V8.49q0-.38-.17-.45a1.66,1.66,0,0,0-.58-.07Q125,8,125,7.75t.54-.15h3.51V14.8a20.83,20.83,0,0,0,.08,2.35c.05.33.18.52.39.57a8,8,0,0,0,1.44.08C131.17,17.8,131.27,17.86,131.27,18Z" transform="translate(0 -0.57)"/><path class="cls-1" d="M138.87,17.33q0,.23-.65.83a3.79,3.79,0,0,1-2.63,1,2.91,2.91,0,0,1-2.14-.72A4.15,4.15,0,0,1,133,16V8.34a.29.29,0,0,0-.28-.28h-1q-.57,0-.57-.18c0-.12.09-.19.28-.21a4,4,0,0,0,3.13-2,.45.45,0,0,1,.39-.24.16.16,0,0,1,.18.18v.54a5.68,5.68,0,0,0,.1,1.4,4,4,0,0,0,.78.05,8.65,8.65,0,0,0,1.89-.13l.18,0q.21,0,.21.22t-2.09.37h-1.06v4.78a32.66,32.66,0,0,0,.18,4.53,1.07,1.07,0,0,0,1.19.92,3,3,0,0,0,1.91-1,.3.3,0,0,1,.23-.13C138.81,17.2,138.87,17.25,138.87,17.33Z" transform="translate(0 -0.57)"/><path class="cls-1" d="M150,13.28a6,6,0,0,1-1.52,4.2,4.9,4.9,0,0,1-3.8,1.69,5.15,5.15,0,0,1-3.93-1.69,5.93,5.93,0,0,1-1.58-4.2A6.16,6.16,0,0,1,140.71,9a5,5,0,0,1,3.84-1.7A5,5,0,0,1,148.44,9,6.11,6.11,0,0,1,150,13.28Zm-2.35,0a9.17,9.17,0,0,0-.88-4.42,2.28,2.28,0,0,0-2.17-1.16,2.49,2.49,0,0,0-2.26,1.48,8.66,8.66,0,0,0-.81,4.12,8,8,0,0,0,.87,4.07,2.68,2.68,0,0,0,2.41,1.46,1.93,1.93,0,0,0,1.76-.9A8.61,8.61,0,0,0,147.65,13.25Z" transform="translate(0 -0.57)"/></svg>