<svg id="Layer_1" data-name="Layer 1" xmlns="http://www.w3.org/2000/svg" viewBox="0 0 21.56 18.62"><title>logo_min</title><path d="M11.55,18.34q0,.18-.36.18h-.77a4.3,4.3,0,0,0-2.14.5,1.61,1.61,0,0,1-.44.2c-.16,0-.23-.1-.23-.31l0-.8A3.6,3.6,0,0,1,5,19.22a4.47,4.47,0,0,1-3.58-1.67A6.4,6.4,0,0,1,0,13.28,6.47,6.47,0,0,1,1.41,8.95,4.59,4.59,0,0,1,5.09,7.29,3,3,0,0,1,7.72,8.55v-4a9.39,9.39,0,0,0-.18-2.43c-.1-.26-.26-.38-.46-.36l-.89.08c-.22,0-.33-.08-.33-.23s.09-.23.28-.23l.92,0A5.9,5.9,0,0,0,9.43.65.41.41,0,0,1,9.61.59q.26,0,.26.62V11.39q0,6.12.1,6.56.05.18,1.21.18C11.43,18.13,11.55,18.2,11.55,18.34ZM7.72,11.86a5.93,5.93,0,0,0-.54-3.18A2.18,2.18,0,0,0,5.4,7.8,2.49,2.49,0,0,0,3.18,9.25a7.8,7.8,0,0,0-.83,3.88,9.89,9.89,0,0,0,.72,4A2.85,2.85,0,0,0,4,18.25a2.07,2.07,0,0,0,1.25.45,2.38,2.38,0,0,0,1.45-.48,2.17,2.17,0,0,0,.84-1.15A34.84,34.84,0,0,0,7.72,11.86Z" transform="translate(0 -0.59)"/><path d="M21.56,2.61a1.26,1.26,0,0,1-.32.89,1.09,1.09,0,0,1-.84.35,1.17,1.17,0,0,1-.83-.31,1,1,0,0,1-.34-.78,1.73,1.73,0,0,1,.34-.9.46.46,0,0,0,.08-.23q0-.59-.85-.59-1.43,0-1.89,1.86a17.23,17.23,0,0,0-.23,3.44V7.6h1.69q.51,0,.51.22T18.21,8H16.68V18.16c0,.24.24.36.71.36q1.1,0,1.2.1a.16.16,0,0,1,0,.1c0,.12-.1.18-.31.18a1.13,1.13,0,0,1-.26,0l-2.12,0H13.12c-.31,0-.46-.06-.46-.18s.12-.21.37-.21a3.3,3.3,0,0,0,1.46-.16.21.21,0,0,0,.05-.16l0-.34V8.06c-.64,0-1,0-1.11,0a.18.18,0,0,1-.16-.21q0-.23.47-.23h.83a11.37,11.37,0,0,1,.88-4.73A3.82,3.82,0,0,1,19,.65a3,3,0,0,1,1.86.54A1.7,1.7,0,0,1,21.56,2.61Z" transform="translate(0 -0.59)"/></svg>