<?xml version="1.0" encoding="UTF-8"?>
<svg width="140px" height="29px" viewBox="0 0 140 29" version="1.1" xmlns="http://www.w3.org/2000/svg" xmlns:xlink="http://www.w3.org/1999/xlink">
    <!-- Generator: Sketch 42 (36781) - http://www.bohemiancoding.com/sketch -->
    <title>Page 1</title>
    <desc>Created with Sketch.</desc>
    <defs>
        <polygon id="path-1" points="0 28.5576923 139.707906 28.5576923 139.707906 0.225123626 0 0.225123626"></polygon>
    </defs>
    <g id="Page-1" stroke="none" stroke-width="1" fill="none" fill-rule="evenodd">
        <g id="iPhone-7-Copy-2" transform="translate(-118.000000, -74.000000)">
            <g id="Page-1" transform="translate(118.000000, 74.000000)">
                <polygon id="Fill-1" fill="#66C2C7" points="20.9757016 0.76631044 11.4208848 20.3754313 11.3457539 20.3754313 1.51753403 0.76631044 -0.000109947644 0.76631044 -0.000109947644 27.6442912 1.40428796 27.6442912 1.40428796 3.59537637 1.44240314 3.59537637 10.760466 22.2224093 11.8833979 22.2224093 21.0508325 3.5148956 21.0889476 3.5148956 21.0889476 27.6442912 22.4849162 27.6442912 22.4849162 0.76631044"></polygon>
                <g id="Group-15" transform="translate(0.000000, 0.145607)">
                    <path d="M37.1016126,26.5537212 C43.5511414,26.5537212 45.1446492,21.9959876 45.1446492,14.1785975 C45.1446492,6.31855632 43.5511414,1.56054808 37.1016126,1.56054808 C30.6579476,1.56054808 29.0651728,6.31855632 29.0651728,14.1785975 C29.0651728,21.9959876 30.6579476,26.5537212 37.1016126,26.5537212 Z M46.6549634,14.1785975 C46.6549634,22.9020453 44.4472147,27.8903695 37.1016126,27.8903695 C29.7626073,27.8903695 27.5544921,22.9020453 27.5544921,14.1785975 C27.5544921,5.49223764 29.7626073,0.225383242 37.1016126,0.225383242 C44.4472147,0.225383242 46.6549634,5.49223764 46.6549634,14.1785975 Z" id="Fill-2" fill="#66C2C7"></path>
                    <path d="M53.1130681,25.9662486 C54.3188272,26.0856717 56.1025445,26.2002734 57.969822,26.2002734 C64.1466806,26.2002734 66.2419162,24.5925124 66.2419162,19.7180481 C66.2419162,15.2378283 63.5628586,13.9404931 58.8277801,13.9404931 L53.1130681,13.9404931 L53.1130681,25.9662486 Z M53.1130681,1.83796566 L53.1130681,12.6413036 L58.8277801,12.6413036 C63.5628586,12.6413036 65.5433822,10.6378146 65.5433822,7.18270467 C65.5433822,2.97841896 63.4481466,1.64102885 57.8943246,1.64102885 C56.2242199,1.64102885 54.8278848,1.71854258 53.1130681,1.83796566 L53.1130681,1.83796566 Z M51.7163665,0.578460165 C53.5832775,0.424174451 55.9892984,0.305122253 57.8943246,0.305122253 C64.3750052,0.305122253 66.977466,2.1142706 66.977466,7.18270467 C66.977466,10.8380893 65.3465759,12.4072788 62.4780419,13.1531168 C65.854534,13.8214409 67.7141152,15.668419 67.7141152,19.6761387 C67.7141152,25.8093668 64.9210785,27.5747514 57.969822,27.5747514 C55.4051099,27.5747514 53.2340105,27.3804107 51.7163665,27.2224162 L51.7163665,0.578460165 Z" id="Fill-4" fill="#66C2C7"></path>
                    <path d="M95.3437749,27.0640508 C93.7513665,27.4987212 91.3823613,27.8907404 89.4406859,27.8907404 C83.9235131,27.8907404 79.8484869,25.0605618 79.8484869,13.7442981 C79.8484869,3.76134478 83.2249791,0.225383242 89.4406859,0.225383242 C91.3823613,0.225383242 93.8646126,0.658199176 95.1854503,1.01201786 L94.9113141,2.22887225 C93.7513665,1.9562761 91.4585916,1.56054808 89.4406859,1.56054808 C84.0363927,1.56054808 81.3580681,4.66703159 81.3580681,13.7442981 C81.3580681,23.8804245 84.5839319,26.5537212 89.4406859,26.5537212 C91.4208429,26.5537212 93.401733,26.2002734 95.032623,25.7696827 L95.3437749,27.0640508 Z" id="Fill-6" fill="#66C2C7"></path>
                    <mask id="mask-2" fill="white">
                        <use xlink:href="#path-1"></use>
                    </mask>
                    <g id="Clip-9"></g>
                    <polygon id="Fill-8" fill="#66C2C7" mask="url(#mask-2)" points="99.6246597 27.4988324 101.020995 27.4988324 101.020995 0.620851648 99.6246597 0.620851648"></polygon>
                    <polygon id="Fill-10" fill="#66C2C7" mask="url(#mask-2)" points="114.885283 27.498647 113.488948 27.498647 113.488948 1.95620192 104.906068 1.95620192 104.906068 0.620666209 121.09989 0.620666209 121.09989 1.95620192 114.885283 1.95620192"></polygon>
                    <polygon id="Fill-11" fill="#66C2C7" mask="url(#mask-2)" points="131.906387 27.498647 130.510052 27.498647 130.510052 15.314897 122.625707 0.620666209 124.257696 0.620666209 131.170838 13.863647 131.245969 13.863647 138.15911 0.620666209 139.707906 0.620666209 131.906387 15.314897"></polygon>
                    <path d="M73.7479319,0.225271978 C75.0442147,0.225271978 75.7698691,1.11871978 75.7698691,2.43051923 C75.7698691,3.74268956 75.0442147,4.64021703 73.7479319,4.64021703 C72.4512827,4.64021703 71.7234293,3.74268956 71.7234293,2.43051923 C71.7234293,1.11871978 72.4512827,0.225271978 73.7479319,0.225271978" id="Fill-12" fill="#E61B72" mask="url(#mask-2)"></path>
                    <path d="M73.7669162,24.101728 C75.0752932,24.101728 75.807911,25.0055604 75.807911,26.3299698 C75.807911,27.6540082 75.0752932,28.5578407 73.7669162,28.5578407 C72.4581728,28.5578407 71.723356,27.6540082 71.723356,26.3299698 C71.723356,25.0055604 72.4581728,24.101728 73.7669162,24.101728" id="Fill-13" fill="#E61B72" mask="url(#mask-2)"></path>
                    <polygon id="Fill-14" fill="#E61B72" mask="url(#mask-2)" points="71.7232461 21.43125 75.8081675 21.43125 75.8081675 7.10789835 71.7232461 7.10789835"></polygon>
                </g>
            </g>
        </g>
    </g>
</svg>