<?xml version="1.0" encoding="UTF-8"?>
<svg width="48px" height="48px" viewBox="0 0 48 48" version="1.1" xmlns="http://www.w3.org/2000/svg" xmlns:xlink="http://www.w3.org/1999/xlink">
    <!-- Generator: Sketch 42 (36781) - http://www.bohemiancoding.com/sketch -->
    <title>Skype-black</title>
    <desc>Created with Sketch.</desc>
    <defs></defs>
    <g id="Symbols" stroke="none" stroke-width="1" fill="none" fill-rule="evenodd">
        <g id="Logos/Black/Skype" fill="#000000">
            <path d="M46.6199436,29.0954617 C47.5032926,30.8482003 48,32.8207268 48,34.9101026 C48,42.1380629 42.056444,48 34.724365,48 C32.4524929,48 30.3189087,47.4352287 28.4477893,46.4447922 C27.0874882,46.6924013 25.6876764,46.8231612 24.2539981,46.8231612 C11.6105362,46.8231612 1.36030103,36.7184837 1.36030103,24.2490002 C1.36030103,22.6965745 1.52116651,21.1775343 1.82314205,19.7141367 C0.666039511,17.7666493 0,15.5075639 0,13.0926795 C0,5.85915493 5.94355597,0 13.2784572,0 C15.8720602,0 18.2935089,0.737263085 20.3396049,2.00869414 C21.6152399,1.7916884 22.9219191,1.67762128 24.2539981,1.67762128 C36.9002822,1.67762128 47.1476952,11.7850809 47.1476952,24.2490002 C47.1476952,25.9127108 46.9670743,27.5319075 46.6199436,29.0954617 Z M35.9971778,35.0380803 C37.0583255,33.5552078 37.6001881,31.8608938 37.6001881,30.0024344 C37.6001881,28.4472266 37.2869238,27.1118066 36.6688617,26.0239958 C36.0507996,24.9445314 35.1843838,24.0431229 34.0893697,23.3392453 C33.0112888,22.6464963 31.696143,22.0566858 30.1693321,21.5781603 C28.6650988,21.102417 26.9633114,20.6600591 25.1091251,20.2705616 C23.6444026,19.9367067 22.5776105,19.677969 21.9426152,19.5026952 C21.321731,19.3357677 20.7008467,19.096505 20.0997178,18.7988176 C19.5183443,18.5094766 19.0583255,18.1700574 18.7365945,17.7749957 C18.4261524,17.4077552 18.2765757,16.9765258 18.2765757,16.4646148 C18.2765757,15.6244131 18.7422389,14.9149713 19.696143,14.3001217 C20.6867357,13.6574509 22.0244591,13.3347244 23.6613358,13.3347244 C25.4308561,13.3347244 26.7149577,13.6240654 27.4854186,14.2027473 C28.2784572,14.7981221 28.9698965,15.6411059 29.5399812,16.7094418 C30.0338664,17.5440793 30.4797742,18.1283255 30.9087488,18.5039124 C31.3659454,18.9045383 32.0319849,19.1104156 32.8786453,19.1104156 C33.8099718,19.1104156 34.6030103,18.784907 35.229539,18.139454 C35.8532455,17.5023474 36.1693321,16.7678665 36.1693321,15.9610503 C36.1693321,15.1236307 35.9266228,14.2583898 35.4524929,13.3875848 C34.9840075,12.5251261 34.233302,11.698835 33.2257761,10.91984 C32.2267168,10.1491914 30.9567262,9.52599548 29.4468485,9.06416275 C27.9454374,8.60233003 26.1476952,8.36863154 24.1044214,8.36863154 C21.5446849,8.36863154 19.2869238,8.71917927 17.3875823,9.41192836 C15.4600188,10.1102417 13.9642521,11.1396279 12.9426152,12.4555729 C11.9096896,13.7798644 11.3875823,15.3183794 11.3875823,17.0210398 C11.3875823,18.8099461 11.8871119,20.3317684 12.869238,21.5475569 C13.8372531,22.7410885 15.1608655,23.6953573 16.8033866,24.3825422 C18.406397,25.0585985 20.4242709,25.6511911 22.8033866,26.1519736 C24.5503293,26.5136498 25.9614299,26.8614154 27.0028222,27.1785776 C27.9990593,27.4901756 28.8203198,27.9353156 29.4468485,28.5084333 C30.0395108,29.059294 30.3301976,29.7603895 30.3301976,30.6478873 C30.3301976,31.77743 29.7770461,32.7010955 28.6340546,33.4661798 C27.4684854,34.250739 25.9162747,34.651365 24.0225776,34.651365 C22.6481656,34.651365 21.5277516,34.451052 20.6980245,34.0671188 C19.8739417,33.6804034 19.2276576,33.1879673 18.7761054,32.5981568 C18.3104421,31.9944358 17.8701787,31.221005 17.4637817,30.3029038 C17.0997178,29.4654843 16.6481656,28.8116849 16.1204139,28.3693271 C15.5700847,27.9102765 14.8899341,27.6793601 14.1053622,27.6793601 C13.1458137,27.6793601 12.3414864,27.9714832 11.7149577,28.5557294 C11.0827846,29.1427578 10.7610536,29.860546 10.7610536,30.6840549 C10.7610536,32.0111285 11.2521167,33.382716 12.2257761,34.76265 C13.1881468,36.1370196 14.4553151,37.2443053 15.9934149,38.06225 C18.1467545,39.1890106 20.9040452,39.7593462 24.1919097,39.7593462 C26.9322672,39.7593462 29.3367827,39.3392453 31.3433678,38.5157364 C33.3753528,37.6866632 34.9388523,36.5181708 35.9971778,35.0380803 Z" id="Skype"></path>
        </g>
    </g>
</svg>