<?xml version="1.0" encoding="UTF-8"?>
<svg width="140px" height="39px" viewBox="0 0 140 39" version="1.1" xmlns="http://www.w3.org/2000/svg" xmlns:xlink="http://www.w3.org/1999/xlink">
    <!-- Generator: Sketch 42 (36781) - http://www.bohemiancoding.com/sketch -->
    <title>Page 1</title>
    <desc>Created with Sketch.</desc>
    <defs>
        <polygon id="path-1" points="1.21865152e-16 20.4507986 1.21865152e-16 0.224757534 11.4637557 0.224757534 11.4637557 20.4507986 0 20.4507986"></polygon>
        <polygon id="path-3" points="0 38.8584247 139.840763 38.8584247 139.840763 0 0 0"></polygon>
    </defs>
    <g id="Page-1" stroke="none" stroke-width="1" fill="none" fill-rule="evenodd">
        <g id="iPhone-7" transform="translate(-118.000000, -67.000000)">
            <g id="Page-1" transform="translate(118.000000, 67.000000)">
                <path d="M15.2570611,6.15558904 C15.2570611,6.85438356 14.6906489,7.41961644 13.9927863,7.41961644 C13.2943893,7.41961644 12.7285115,6.85438356 12.7285115,6.15558904 C12.7285115,5.45732877 13.2943893,4.89156164 13.9927863,4.89156164 C14.6906489,4.89156164 15.2570611,5.45732877 15.2570611,6.15558904 Z" id="Fill-1" fill="#000000"></path>
                <g id="Group-5" transform="translate(0.000000, 4.666644)">
                    <mask id="mask-2" fill="white">
                        <use xlink:href="#path-1"></use>
                    </mask>
                    <g id="Clip-4"></g>
                    <path d="M10.1994809,17.9227438 C10.1711603,17.9227438 10.143374,17.9254151 10.1150534,17.9275521 L10.1150534,17.9227438 C5.92520611,17.9227438 2.52887023,14.5276068 2.52887023,10.3380452 C2.52887023,6.14901781 5.92520611,2.75281233 10.1150534,2.75281233 L10.1150534,2.7490726 C10.143374,2.75120959 10.1711603,2.75281233 10.1994809,2.75281233 C10.8978779,2.75281233 11.4637557,2.18757945 11.4637557,1.48878493 C11.4637557,0.791058904 10.8978779,0.224757534 10.1994809,0.224757534 C10.1711603,0.224757534 10.143374,0.227428767 10.1150534,0.229031507 L10.1150534,0.224757534 C4.52894656,0.224757534 -0.000213740458,4.75303151 -0.000213740458,10.3380452 C-0.000213740458,15.9235932 4.52894656,20.4507986 10.1150534,20.4507986 L10.1150534,20.4470589 C10.143374,20.4491959 10.1711603,20.4507986 10.1994809,20.4507986 C10.8978779,20.4507986 11.4637557,19.8855658 11.4637557,19.1867712 C11.4637557,18.4890452 10.8978779,17.9227438 10.1994809,17.9227438" id="Fill-3" fill="#000000" mask="url(#mask-2)"></path>
                </g>
                <path d="M10.1994809,13.7403945 C9.50108397,13.7403945 8.93520611,14.3066959 8.93520611,15.0044219 C8.93520611,15.7032164 9.50108397,16.2684493 10.1994809,16.2684493 C14.3893282,16.2684493 17.7856641,19.6646548 17.7856641,23.8536822 C17.7856641,28.0427096 14.3893282,31.4389151 10.1994809,31.4389151 C9.50108397,31.4389151 8.93520611,32.0046822 8.93520611,32.7029425 C8.93520611,33.4012027 9.50108397,33.9669699 10.1994809,33.9669699 C15.7861221,33.9669699 20.3147481,29.4392301 20.3147481,23.8536822 C20.3147481,18.2686685 15.7861221,13.7403945 10.1994809,13.7403945" id="Fill-6" fill="#000000"></path>
                <path d="M7.62845038,32.7030493 C7.62845038,33.4013096 7.06257252,33.9670767 6.36417557,33.9670767 C5.66577863,33.9670767 5.09990076,33.4013096 5.09990076,32.7030493 C5.09990076,32.0042548 5.66577863,31.4390219 6.36417557,31.4390219 C7.06257252,31.4390219 7.62845038,32.0042548 7.62845038,32.7030493" id="Fill-8" fill="#000000"></path>
                <mask id="mask-4" fill="white">
                    <use xlink:href="#path-3"></use>
                </mask>
                <g id="Clip-11"></g>
                <polygon id="Fill-10" fill="#000000" mask="url(#mask-4)" points="28.7940458 38.8584247 29.3679389 38.8584247 29.3679389 0.000534246575 28.7940458 0.000534246575"></polygon>
                <path d="M46.652542,22.3071452 C46.652542,23.5166795 46.2079618,24.4751178 45.3188015,25.181926 C44.4301756,25.8887342 43.2481908,26.2424055 41.7744504,26.2424055 C40.0030763,26.2424055 38.6447557,26.0474055 37.6994885,25.6574055 L37.6994885,24.646611 C38.7436107,25.0895014 40.0752137,25.3106795 41.6953664,25.3106795 C42.8848321,25.3106795 43.8284962,25.0376795 44.5258244,24.4927479 C45.2231527,23.9472822 45.572084,23.231926 45.572084,22.3466795 C45.572084,21.7985425 45.4561298,21.3438986 45.2247557,20.9832822 C44.9933817,20.6237342 44.6161298,20.2946384 44.0946031,19.9975973 C43.5720076,19.7000219 42.8057481,19.379474 41.7942214,19.0359534 C40.3135344,18.5273507 39.2907863,17.9770767 38.7259771,17.3851315 C38.1600992,16.7942548 37.8779618,16.0057068 37.8779618,15.0210904 C37.8779618,13.9376384 38.302771,13.0534603 39.151855,12.3690904 C40.0014733,11.6852548 41.093687,11.3438712 42.4290305,11.3438712 C43.7905573,11.3438712 45.0692595,11.6013781 46.2656718,12.116926 L45.8991069,12.9893507 C44.6957481,12.4866247 43.5458244,12.2355288 42.4488015,12.2355288 C41.3779618,12.2355288 40.5251374,12.4834192 39.8908626,12.9792 C39.2560534,13.4749808 38.9386489,14.1486658 38.9386489,15.0013233 C38.9386489,15.5366384 39.0364351,15.975789 39.2309389,16.3198438 C39.4265115,16.6638986 39.7449847,16.9726932 40.1879618,17.2462274 C40.6304046,17.5208301 41.3907863,17.8493918 42.4685725,18.2329808 C43.5987252,18.6229808 44.4478092,19.0012274 45.0163588,19.3677205 C45.5849084,19.7347479 45.9995649,20.150926 46.2613969,20.616789 C46.5221603,21.0826521 46.652542,21.6462822 46.652542,22.3071452" id="Fill-12" fill="#000000" mask="url(#mask-4)"></path>
                <path d="M61.2668321,26.0442534 L60.4337786,26.0442534 L57.2511832,14.8624726 C56.9866794,13.9441027 56.7884351,13.1902808 56.6564504,12.6026096 C56.5506489,13.1774589 56.4004962,13.8383219 56.2049237,14.5851986 C56.0104198,15.3315411 54.9443893,19.1519384 53.0079008,26.0442534 L52.1550763,26.0442534 L48.1693511,11.5517466 L49.2305725,11.5517466 L51.7687405,20.8898425 C51.8675954,21.2664863 51.9600382,21.6148151 52.0460687,21.935363 C52.1315649,22.255911 52.2101145,22.5566918 52.2790458,22.8371712 C52.3490458,23.1181849 52.4115649,23.3890479 52.4676718,23.6502945 C52.5237786,23.9115411 52.574542,24.1738562 52.6210305,24.4383082 C52.7797328,23.5397055 53.1169084,22.1752397 53.6325573,20.3443767 L56.1114122,11.5517466 L57.2314122,11.5517466 L60.1366794,21.6431301 C60.473855,22.8056507 60.7148473,23.7443219 60.8601908,24.4580753 C60.945687,23.9825959 61.0568321,23.4766644 61.1925573,22.9413493 C61.3277481,22.4060342 62.3472901,18.6096781 64.2511832,11.5517466 L65.2723282,11.5517466 L61.2668321,26.0442534 Z" id="Fill-13" fill="#000000" mask="url(#mask-4)"></path>
                <polygon id="Fill-14" fill="#000000" mask="url(#mask-4)" points="75.7522366 26.0442534 67.8304809 26.0442534 67.8304809 11.5517466 75.7522366 11.5517466 75.7522366 12.4834726 68.8414733 12.4834726 68.8414733 17.9653767 75.3653664 17.9653767 75.3653664 18.8971027 68.8414733 18.8971027 68.8414733 25.1125274 75.7522366 25.1125274"></polygon>
                <polygon id="Fill-15" fill="#000000" mask="url(#mask-4)" points="86.9558702 26.0442534 79.0341145 26.0442534 79.0341145 11.5517466 86.9558702 11.5517466 86.9558702 12.4834726 80.0451069 12.4834726 80.0451069 17.9653767 86.569 17.9653767 86.569 18.8971027 80.0451069 18.8971027 80.0451069 25.1125274 86.9558702 25.1125274"></polygon>
                <polygon id="Fill-16" fill="#000000" mask="url(#mask-4)" points="94.0151298 26.0442534 92.9939847 26.0442534 92.9939847 12.5032397 88.2842137 12.5032397 88.2842137 11.5517466 98.7243664 11.5517466 98.7243664 12.5032397 94.0151298 12.5032397"></polygon>
                <path d="M112.426786,26.0442534 L111.593733,26.0442534 L108.411137,14.8624726 C108.146634,13.9441027 107.948389,13.1902808 107.816405,12.6026096 C107.710603,13.1774589 107.56045,13.8383219 107.364878,14.5851986 C107.170374,15.3315411 106.104344,19.1519384 104.167855,26.0442534 L103.315031,26.0442534 L99.3293053,11.5517466 L100.390527,11.5517466 L102.928695,20.8898425 C103.02755,21.2664863 103.119992,21.6148151 103.206023,21.935363 C103.291519,22.255911 103.370069,22.5566918 103.439,22.8371712 C103.509,23.1181849 103.571519,23.3890479 103.627626,23.6502945 C103.683733,23.9115411 103.734496,24.1738562 103.780985,24.4383082 C103.939687,23.5397055 104.276863,22.1752397 104.792511,20.3443767 L107.271366,11.5517466 L108.391366,11.5517466 L111.296634,21.6431301 C111.633809,22.8056507 111.874802,23.7443219 112.020145,24.4580753 C112.105641,23.9825959 112.216786,23.4766644 112.352511,22.9413493 C112.487702,22.4060342 113.507244,18.6096781 115.411137,11.5517466 L116.432282,11.5517466 L112.426786,26.0442534 Z" id="Fill-17" fill="#000000" mask="url(#mask-4)"></path>
                <path d="M120.447771,20.0172575 L125.633115,20.0172575 L123.66029,14.7933945 C123.494641,14.3836274 123.296397,13.815189 123.065023,13.0880795 C122.88655,13.7227644 122.691511,14.2976137 122.480443,14.8131616 L120.447771,20.0172575 Z M125.97029,20.9292164 L120.080672,20.9292164 L118.058153,26.0440932 L116.938153,26.0440932 L122.767924,11.4922849 L123.412351,11.4922849 L129.122962,26.0440932 L127.983191,26.0440932 L125.97029,20.9292164 Z" id="Fill-18" fill="#000000" mask="url(#mask-4)"></path>
                <polygon id="Fill-19" fill="#000000" mask="url(#mask-4)" points="134.50687 19.4819959 138.750153 11.5516397 139.840763 11.5516397 135.012366 20.4436397 135.012366 26.0441466 133.97145 26.0441466 133.97145 20.5227082 129.123282 11.5516397 130.283359 11.5516397"></polygon>
            </g>
        </g>
    </g>
</svg>