<svg id="Layer_1" data-name="Layer 1" xmlns="http://www.w3.org/2000/svg" viewBox="0 0 300.64 44.11"><title>font01</title><path d="M43.19,30.63h-5.8l-2,5h-1.1L40,21.33h.63l5.63,14.34H45.17Zm-5.44-.9h5.11l-1.94-5.15q-.24-.6-.59-1.68a15.52,15.52,0,0,1-.58,1.7Z" transform="translate(-34.29 -20.36)"/><path d="M54.51,35.66,54.27,34h-.08a5,5,0,0,1-1.65,1.45,4.4,4.4,0,0,1-2,.42,3.46,3.46,0,0,1-2.43-.8,2.86,2.86,0,0,1-.87-2.22,2.74,2.74,0,0,1,1.29-2.41,7,7,0,0,1,3.75-.91l2-.06v-.7a3.61,3.61,0,0,0-.62-2.29,2.38,2.38,0,0,0-2-.77,6.63,6.63,0,0,0-3.06.82l-.36-.84a8.09,8.09,0,0,1,3.46-.82,3.45,3.45,0,0,1,2.61.91,4,4,0,0,1,.86,2.83v7.06ZM50.61,35a3.38,3.38,0,0,0,3.66-3.67v-1l-1.86.08a7,7,0,0,0-3.19.7,2,2,0,0,0-1,1.84,2,2,0,0,0,.61,1.55A2.48,2.48,0,0,0,50.61,35Z" transform="translate(-34.29 -20.36)"/><path d="M58.91,21.39h3.92a6.69,6.69,0,0,1,3.89.9A3.13,3.13,0,0,1,68,25a2.94,2.94,0,0,1-.76,2.07A3.69,3.69,0,0,1,65,28.13v.06a4.31,4.31,0,0,1,2.51,1.08,3.15,3.15,0,0,1,.81,2.3,3.69,3.69,0,0,1-1.31,3,5.74,5.74,0,0,1-3.71,1.06H58.91Zm1,6.36H63A5,5,0,0,0,66,27.08,2.42,2.42,0,0,0,66.89,25a2.26,2.26,0,0,0-1-2.07,5.87,5.87,0,0,0-3.07-.64H59.9Zm0,.88v6.16h3.36q4,0,4-3.22,0-2.94-4.18-2.94Z" transform="translate(-34.29 -20.36)"/><path d="M75.69,24.84A4,4,0,0,1,79,26.25a6.41,6.41,0,0,1,1.13,4.1A6.24,6.24,0,0,1,79,34.42a4.09,4.09,0,0,1-3.33,1.44,4.38,4.38,0,0,1-2-.47,3.57,3.57,0,0,1-1.44-1.33h-.09l-.27,1.6H71.2V20.47h1v3.82q0,.86,0,1.58l0,.83h.07a3.89,3.89,0,0,1,1.46-1.41A4.36,4.36,0,0,1,75.69,24.84Zm0,.88A3.15,3.15,0,0,0,73,26.8a6,6,0,0,0-.81,3.54v.17A5.52,5.52,0,0,0,73,34a3.19,3.19,0,0,0,2.63,1,3,3,0,0,0,2.62-1.22,5.84,5.84,0,0,0,.88-3.46Q79.14,25.72,75.67,25.72Z" transform="translate(-34.29 -20.36)"/><path d="M89.45,22.08a5.4,5.4,0,0,0-4.23,1.72,6.79,6.79,0,0,0-1.54,4.71,7,7,0,0,0,1.46,4.75,5.19,5.19,0,0,0,4.16,1.69,11.28,11.28,0,0,0,3.3-.46v.88a10.77,10.77,0,0,1-3.54.5,6,6,0,0,1-4.74-1.94,7.89,7.89,0,0,1-1.73-5.43,8.52,8.52,0,0,1,.83-3.84,6,6,0,0,1,2.37-2.56,7,7,0,0,1,3.6-.9,8.64,8.64,0,0,1,3.74.78l-.4.9A7.24,7.24,0,0,0,89.45,22.08Z" transform="translate(-34.29 -20.36)"/><path d="M99.77,35.86a4.54,4.54,0,0,1-3.56-1.44,5.78,5.78,0,0,1-1.29-4,5.88,5.88,0,0,1,1.34-4.11,4.71,4.71,0,0,1,3.66-1.47,7.36,7.36,0,0,1,2.64.48l-.26.86a7.75,7.75,0,0,0-2.39-.46,3.63,3.63,0,0,0-3,1.21,5.29,5.29,0,0,0-1,3.47,5.13,5.13,0,0,0,1,3.36A3.45,3.45,0,0,0,99.75,35a6.91,6.91,0,0,0,2.69-.52v.9A6.09,6.09,0,0,1,99.77,35.86Z" transform="translate(-34.29 -20.36)"/><path d="M116.12,28.39a7.27,7.27,0,0,1-1.88,5.43,7.61,7.61,0,0,1-5.54,1.84h-3.42V21.39h3.86a7,7,0,0,1,5.2,1.79A7.08,7.08,0,0,1,116.12,28.39Zm-1.08,0a6.24,6.24,0,0,0-1.56-4.61,6.22,6.22,0,0,0-4.58-1.55h-2.63V34.79h2.36Q115,34.79,115,28.43Z" transform="translate(-34.29 -20.36)"/><path d="M123,24.84a4.41,4.41,0,0,1,2,.42,4,4,0,0,1,1.5,1.44h.06q-.06-1.23-.06-2.41V20.47h1v15.2h-.63L126.61,34h-.08a3.93,3.93,0,0,1-3.48,1.82,4.17,4.17,0,0,1-3.36-1.37,6,6,0,0,1-1.16-4,6.66,6.66,0,0,1,1.15-4.21A4,4,0,0,1,123,24.84Zm0,.88a3,3,0,0,0-2.61,1.22,6,6,0,0,0-.87,3.54q0,4.51,3.51,4.51a3.18,3.18,0,0,0,2.64-1,5.54,5.54,0,0,0,.84-3.45v-.17a5.91,5.91,0,0,0-.83-3.54A3.15,3.15,0,0,0,123,25.72Z" transform="translate(-34.29 -20.36)"/><path d="M139.1,35.66h-7.8V21.39h7.8v.92H132.3v5.4h6.43v.92H132.3v6.12h6.81Z" transform="translate(-34.29 -20.36)"/><path d="M146.38,35.86a4.63,4.63,0,0,1-3.61-1.43,5.73,5.73,0,0,1-1.29-4,6.22,6.22,0,0,1,1.25-4.07,4.13,4.13,0,0,1,3.37-1.53,3.64,3.64,0,0,1,3,1.31,5.4,5.4,0,0,1,1.08,3.55v.78h-7.65a5,5,0,0,0,1,3.34A3.59,3.59,0,0,0,146.38,35a8.86,8.86,0,0,0,1.6-.13,9.7,9.7,0,0,0,1.74-.55v.88a7.79,7.79,0,0,1-1.66.53A9.19,9.19,0,0,1,146.38,35.86ZM146.1,25.7a3.18,3.18,0,0,0-2.46,1,4.76,4.76,0,0,0-1.08,2.92h6.56a4.63,4.63,0,0,0-.8-2.89A2.64,2.64,0,0,0,146.1,25.7Z" transform="translate(-34.29 -20.36)"/><path d="M154.31,35.66h-1V21.39h7.82v.92h-6.83v6.05h6.45v.93h-6.45Z" transform="translate(-34.29 -20.36)"/><path d="M167.05,25.89h-2.5v9.78h-1V25.89h-2v-.57l2-.36v-.82a4.63,4.63,0,0,1,.72-2.87,2.81,2.81,0,0,1,2.35-.91,6.09,6.09,0,0,1,1.76.26l-.22.84a5.18,5.18,0,0,0-1.55-.24,1.83,1.83,0,0,0-1.61.67,3.85,3.85,0,0,0-.47,2.17v1h2.5Z" transform="translate(-34.29 -20.36)"/><path d="M175,28.47h5.26V35a11.82,11.82,0,0,1-4.66.88A6.78,6.78,0,0,1,170.39,34a7.57,7.57,0,0,1-1.8-5.41,8.12,8.12,0,0,1,.89-3.86,6.26,6.26,0,0,1,2.56-2.6,7.78,7.78,0,0,1,3.82-.92,9.85,9.85,0,0,1,4.19.86l-.4.9a9,9,0,0,0-3.85-.86,5.88,5.88,0,0,0-4.48,1.74,6.55,6.55,0,0,0-1.66,4.7,6.72,6.72,0,0,0,1.57,4.85A6.14,6.14,0,0,0,175.86,35a9,9,0,0,0,3.35-.56v-5H175Z" transform="translate(-34.29 -20.36)"/><path d="M191.85,25v.67l-2.2.14a3.75,3.75,0,0,1,.88,2.4,3.24,3.24,0,0,1-1,2.49,3.85,3.85,0,0,1-2.74,1,6,6,0,0,1-1-.06,2.52,2.52,0,0,0-.88.71,1.44,1.44,0,0,0-.3.87A.8.8,0,0,0,185,34a2.63,2.63,0,0,0,1.29.23h1.86a4.3,4.3,0,0,1,2.65.7,2.44,2.44,0,0,1,.92,2.07,2.94,2.94,0,0,1-1.36,2.59,7,7,0,0,1-3.88.91,5.34,5.34,0,0,1-3.1-.77,2.48,2.48,0,0,1-1.1-2.15,2.55,2.55,0,0,1,.68-1.82,3.52,3.52,0,0,1,1.84-1,1.88,1.88,0,0,1-.77-.58,1.38,1.38,0,0,1-.29-.86,2.27,2.27,0,0,1,1.36-1.87,3,3,0,0,1-1.45-1.2,3.41,3.41,0,0,1-.52-1.87,3.36,3.36,0,0,1,1-2.55,3.79,3.79,0,0,1,2.73-1,5,5,0,0,1,1.62.21Zm-8.59,12.41q0,2.19,3.25,2.19,4.18,0,4.18-2.67A1.54,1.54,0,0,0,190,35.6a4,4,0,0,0-2.12-.43h-1.74Q183.25,35.17,183.25,37.46Zm.81-9.1a2.45,2.45,0,0,0,.75,1.91,3.34,3.34,0,0,0,4,0,2.57,2.57,0,0,0,.71-2,2.65,2.65,0,0,0-.73-2,2.87,2.87,0,0,0-2-.68,2.7,2.7,0,0,0-2,.73A2.74,2.74,0,0,0,184.06,28.36Z" transform="translate(-34.29 -20.36)"/><path d="M204.61,35.66h-1v-7h-8.34v7h-1V21.39h1v6.34h8.34V21.39h1Z" transform="translate(-34.29 -20.36)"/><path d="M215.81,35.66V28.78a3.36,3.36,0,0,0-.67-2.33,2.72,2.72,0,0,0-2.09-.73,3.62,3.62,0,0,0-2.79,1,4.54,4.54,0,0,0-.88,3.12v5.86h-1V20.47h1V25.3l0,1.36h.07a3.56,3.56,0,0,1,1.5-1.39,5.27,5.27,0,0,1,2.26-.43q3.61,0,3.61,3.88v6.94Z" transform="translate(-34.29 -20.36)"/><path d="M220.45,35.66V21.39h1V35.66Z" transform="translate(-34.29 -20.36)"/><path d="M225.11,22.1q0-.94.62-.94a.55.55,0,0,1,.47.24,1.2,1.2,0,0,1,.17.69,1.22,1.22,0,0,1-.17.69.54.54,0,0,1-.47.25Q225.11,23,225.11,22.1Zm1.1,13.56h-1V25h1Z" transform="translate(-34.29 -20.36)"/><path d="M227.67,39.27a3.56,3.56,0,0,1-1.47-.26v-.86a5.88,5.88,0,0,0,1.46.2q2.36,0,2.36-2.58V21.39h1V35.66Q231,39.27,227.67,39.27Z" transform="translate(-34.29 -20.36)"/><path d="M233.29,40.47a3.18,3.18,0,0,1-1.32-.24v-.84a4.55,4.55,0,0,0,1.26.2q1.48,0,1.47-1.72V25h1V37.72a3,3,0,0,1-.62,2A2.21,2.21,0,0,1,233.29,40.47Zm1.28-18.37q0-.94.62-.94a.55.55,0,0,1,.47.24,1.2,1.2,0,0,1,.17.69,1.22,1.22,0,0,1-.17.69.54.54,0,0,1-.47.25Q234.57,23,234.57,22.1Z" transform="translate(-34.29 -20.36)"/><path d="M249.07,35.66h-1.22l-5.48-7.54-1.9,1.68v5.86h-1V21.39h1v7.42l1.58-1.58,5.6-5.84h1.27l-5.85,6Z" transform="translate(-34.29 -20.36)"/><path d="M251.8,31l5.42-6h1.17l-4.18,4.53,4.54,6.08h-1.16l-4-5.36-1.74,1.58v3.78h-1V20.47h1v7.62L251.75,31Z" transform="translate(-34.29 -20.36)"/><path d="M260.77,35.66V21.39h1V34.73h6.81v.94Z" transform="translate(-34.29 -20.36)"/><path d="M271.76,35.66h-1V20.47h1Z" transform="translate(-34.29 -20.36)"/><path d="M281.84,35.66l-5.32-13.18h-.08q.08,1.21.08,2.48v10.7h-1V21.39h1.54l5.06,12.56h.06l5.06-12.56h1.5V35.66h-1V24.84q0-1.13.12-2.34h-.08l-5.34,13.16Z" transform="translate(-34.29 -20.36)"/><path d="M305.83,35.66v-7a3.47,3.47,0,0,0-.61-2.27,2.3,2.3,0,0,0-1.86-.71,3,3,0,0,0-2.41.9,4.24,4.24,0,0,0-.78,2.82v6.22h-1V28.41q0-2.69-2.46-2.69a2.9,2.9,0,0,0-2.43,1,5.06,5.06,0,0,0-.76,3.11v5.86h-1V25h.8l.21,1.46h.06a3,3,0,0,1,1.25-1.23,3.72,3.72,0,0,1,1.79-.43q2.51,0,3.22,1.88h0a3.6,3.6,0,0,1,1.39-1.4,4,4,0,0,1,2-.49,3.41,3.41,0,0,1,2.61.93,4.21,4.21,0,0,1,.87,2.95v6.94Z" transform="translate(-34.29 -20.36)"/><path d="M46.69,59.66h-1L37.23,47h-.08q.12,2.27.12,3.42v9.26h-1V45.39h1L45.75,58h.06q-.09-1.76-.09-3.34V45.39h1Z" transform="translate(-34.29 -20.36)"/><path d="M57.89,59.66V52.78a3.36,3.36,0,0,0-.67-2.33,2.72,2.72,0,0,0-2.09-.73,3.62,3.62,0,0,0-2.79,1,4.54,4.54,0,0,0-.88,3.12v5.86h-1V49h.82l.19,1.46h.06a4,4,0,0,1,3.68-1.66q3.61,0,3.61,3.88v6.94Z" transform="translate(-34.29 -20.36)"/><path d="M74.53,52.51a8,8,0,0,1-1.7,5.38,6.53,6.53,0,0,1-9.37,0,8,8,0,0,1-1.7-5.4,7.87,7.87,0,0,1,1.71-5.37,5.9,5.9,0,0,1,4.68-2,5.84,5.84,0,0,1,4.68,2A8,8,0,0,1,74.53,52.51Zm-11.68,0a7.31,7.31,0,0,0,1.37,4.74,5.47,5.47,0,0,0,7.87,0,7.32,7.32,0,0,0,1.36-4.76,7.24,7.24,0,0,0-1.36-4.73,5.49,5.49,0,0,0-7.85,0A7.18,7.18,0,0,0,62.85,52.51Z" transform="translate(-34.29 -20.36)"/><path d="M86.35,54.34a6,6,0,0,1-1.26,4.06,4.35,4.35,0,0,1-3.48,1.46,4.5,4.5,0,0,1-2.46-.67,4.31,4.31,0,0,1-1.63-1.93A7,7,0,0,1,77,54.34a6,6,0,0,1,1.26-4,4.34,4.34,0,0,1,3.46-1.45,4.26,4.26,0,0,1,3.43,1.47A6,6,0,0,1,86.35,54.34Zm-8.38,0a5.4,5.4,0,0,0,1,3.41,3.63,3.63,0,0,0,5.44,0,5.4,5.4,0,0,0,1-3.41,5.32,5.32,0,0,0-1-3.41,3.3,3.3,0,0,0-2.73-1.21,3.25,3.25,0,0,0-2.71,1.21A5.39,5.39,0,0,0,78,54.34Z" transform="translate(-34.29 -20.36)"/><path d="M98.13,49.49a3.8,3.8,0,0,1-1.41,3.17,6.32,6.32,0,0,1-4,1.1H90.53v5.9h-1V45.39H93Q98.13,45.39,98.13,49.49Zm-7.6,3.42h2a6,6,0,0,0,3.49-.8,3,3,0,0,0,1.07-2.58,2.91,2.91,0,0,0-1-2.45,5.08,5.08,0,0,0-3.14-.8H90.53Z" transform="translate(-34.29 -20.36)"/><path d="M105.53,59.86A3.88,3.88,0,0,1,102,58h-.07l0,.82q0,.72,0,1.58v4h-1V49h.82l.19,1.51h.06a3.84,3.84,0,0,1,3.5-1.72,4,4,0,0,1,3.28,1.41A6.46,6.46,0,0,1,110,54.36a6.21,6.21,0,0,1-1.19,4.06A4,4,0,0,1,105.53,59.86Zm0-.86A3,3,0,0,0,108,57.79a5.61,5.61,0,0,0,.89-3.39q0-4.68-3.38-4.68a3.39,3.39,0,0,0-2.72,1,5.1,5.1,0,0,0-.87,3.33v.31a5.85,5.85,0,0,0,.83,3.55A3.25,3.25,0,0,0,105.51,59Z" transform="translate(-34.29 -20.36)"/><path d="M125.14,52.51a8.51,8.51,0,0,1-1.23,4.75,5.48,5.48,0,0,1-3.41,2.41l3.25,3.4h-1.62l-2.75-3.22-.32,0h-.3a5.84,5.84,0,0,1-4.68-2,8,8,0,0,1-1.7-5.4,7.87,7.87,0,0,1,1.71-5.37,5.9,5.9,0,0,1,4.68-2,5.84,5.84,0,0,1,4.68,2A8,8,0,0,1,125.14,52.51Zm-11.68,0a7.31,7.31,0,0,0,1.37,4.74,5.47,5.47,0,0,0,7.87,0,7.32,7.32,0,0,0,1.36-4.76,7.24,7.24,0,0,0-1.36-4.73,5.49,5.49,0,0,0-7.85,0A7.18,7.18,0,0,0,113.46,52.51Z" transform="translate(-34.29 -20.36)"/><path d="M132,59.86a4,4,0,0,1-3.24-1.39,6.12,6.12,0,0,1-1.15-4,6.6,6.6,0,0,1,1.15-4.16,4,4,0,0,1,3.3-1.47,3.87,3.87,0,0,1,3.45,1.7h.06L135.7,49h.82V64.47h-1v-4q0-1.19.06-2.42h-.06A3.93,3.93,0,0,1,132,59.86Zm0-.86a3.28,3.28,0,0,0,2.76-1.06,6,6,0,0,0,.83-3.57v-.12a5.67,5.67,0,0,0-.83-3.46,3.15,3.15,0,0,0-2.65-1.06,3,3,0,0,0-2.61,1.21,5.94,5.94,0,0,0-.89,3.55,5.48,5.48,0,0,0,.87,3.37A3,3,0,0,0,132,59Z" transform="translate(-34.29 -20.36)"/><path d="M141.32,53.44v6.22h-1V45.39h3.4a6.4,6.4,0,0,1,3.93,1,3.5,3.5,0,0,1,1.27,3,3.86,3.86,0,0,1-.76,2.42,4.21,4.21,0,0,1-2.3,1.42l3.88,6.5h-1.19l-3.68-6.22Zm0-.86H144a4.35,4.35,0,0,0,2.8-.81,2.88,2.88,0,0,0,1-2.38,2.79,2.79,0,0,0-1-2.37,5.33,5.33,0,0,0-3.18-.74h-2.36Z" transform="translate(-34.29 -20.36)"/><path d="M156.14,48.84a8.33,8.33,0,0,1,1.45.14l-.19.93a5.68,5.68,0,0,0-1.38-.17,2.67,2.67,0,0,0-2.23,1.15,4.69,4.69,0,0,0-.87,2.91v5.86h-1V49h.82l.1,1.91H153a4.5,4.5,0,0,1,1.4-1.65A3.27,3.27,0,0,1,156.14,48.84Z" transform="translate(-34.29 -20.36)"/><path d="M167.87,56a3.43,3.43,0,0,1-1.31,2.83,5.45,5.45,0,0,1-3.49,1,11,11,0,0,1-4-.58v-1a10.15,10.15,0,0,0,3.94.65,4.41,4.41,0,0,0,2.79-.81,2.56,2.56,0,0,0,1-2.11,2.43,2.43,0,0,0-.34-1.34,3.13,3.13,0,0,0-1.11-1,13.73,13.73,0,0,0-2.27-.95,7.74,7.74,0,0,1-3-1.63,3.48,3.48,0,0,1,.42-4.94,5,5,0,0,1,3.23-1,9.44,9.44,0,0,1,3.78.76l-.36.86a8.81,8.81,0,0,0-3.4-.74,4,4,0,0,0-2.52.73,2.39,2.39,0,0,0-.94,2,2.61,2.61,0,0,0,.29,1.3,2.66,2.66,0,0,0,.94.91,12.9,12.9,0,0,0,2.25,1,12.11,12.11,0,0,1,2.51,1.12,3.58,3.58,0,0,1,1.23,1.23A3.36,3.36,0,0,1,167.87,56Z" transform="translate(-34.29 -20.36)"/><path d="M177.23,56.9a2.52,2.52,0,0,1-1.08,2.19,5.28,5.28,0,0,1-3.08.77,7.33,7.33,0,0,1-3.38-.65v-1a7.45,7.45,0,0,0,3.38.8,4.45,4.45,0,0,0,2.39-.52,1.59,1.59,0,0,0,.82-1.39,1.7,1.7,0,0,0-.65-1.35,7.14,7.14,0,0,0-2.13-1.07,12.24,12.24,0,0,1-2.24-1,3.08,3.08,0,0,1-1-.94,2.36,2.36,0,0,1-.33-1.27,2.18,2.18,0,0,1,1-1.88,4.87,4.87,0,0,1,2.8-.69,8.38,8.38,0,0,1,3.26.64l-.36.88a7.64,7.64,0,0,0-2.9-.64,4.21,4.21,0,0,0-2.06.43,1.32,1.32,0,0,0-.76,1.19,1.65,1.65,0,0,0,.59,1.33,8.22,8.22,0,0,0,2.31,1.11,11.34,11.34,0,0,1,2.09.93,3,3,0,0,1,1,.94A2.31,2.31,0,0,1,177.23,56.9Z" transform="translate(-34.29 -20.36)"/><path d="M183.93,59.66h-1V46.32h-4.64v-.94h10.28v.94h-4.64Z" transform="translate(-34.29 -20.36)"/><path d="M193.24,59a7.23,7.23,0,0,0,1.6-.16v.78a5.13,5.13,0,0,1-1.62.23,2.64,2.64,0,0,1-2.08-.75,3.49,3.49,0,0,1-.67-2.36V49.89h-1.57v-.57l1.57-.44.49-2.4h.5V49h3.12v.84h-3.12v6.72a3.06,3.06,0,0,0,.43,1.81A1.56,1.56,0,0,0,193.24,59Z" transform="translate(-34.29 -20.36)"/><path d="M207.88,45.39v9.24a5.12,5.12,0,0,1-1.43,3.85,5.46,5.46,0,0,1-4,1.39,4.83,4.83,0,0,1-5.26-5.27v-9.2h1v9.24A4,4,0,0,0,202.6,59a3.91,3.91,0,0,0,4.29-4.26V45.39Z" transform="translate(-34.29 -20.36)"/><path d="M212.37,49v6.88a3.36,3.36,0,0,0,.67,2.33,2.72,2.72,0,0,0,2.09.73,3.65,3.65,0,0,0,2.79-1,4.48,4.48,0,0,0,.89-3.12V49h1V59.66h-.82l-.18-1.46h-.06A4,4,0,0,1,215,59.86q-3.62,0-3.62-3.88V49Z" transform="translate(-34.29 -20.36)"/><path d="M232,45.39h1.08l-5.34,14.28h-.88l-5.32-14.28h1.06l3.59,9.72q.82,2.2,1.1,3.3.19-.73.77-2.28Z" transform="translate(-34.29 -20.36)"/><path d="M237.19,59.66,233.09,49h1l2.74,7.22a22.37,22.37,0,0,1,.82,2.42h.06q.4-1.33.82-2.44l2.74-7.2h1l-4.1,10.62Z" transform="translate(-34.29 -20.36)"/><path d="M255.67,59.66h-.82l-3.13-11q-.39-1.36-.59-2.23-.16.85-.44,2t-3.15,11.29h-.84l-3.93-14.28h1l2.5,9.2.27,1c.08.32.16.61.23.89s.13.54.19.8.11.52.15.78q.23-1.33,1-4l2.44-8.66h1.1l2.86,9.94q.5,1.72.71,2.77.13-.7.33-1.49t3-11.22h1Z" transform="translate(-34.29 -20.36)"/><path d="M270.37,59.66,268,52.56q-.22-.72-.58-2.12h-.06l-.21.72-.44,1.42-2.36,7.08h-1l-3-10.62h1l1.7,6.15q.6,2.29.78,3.36H264q.58-2.29.84-3L267,49h.88L270,55.5q.7,2.3.86,3h.06q.08-.63.78-3.4L273.29,49h1l-2.88,10.62Z" transform="translate(-34.29 -20.36)"/><path d="M285.33,59.66h-1.14L280,53l-4.3,6.66h-1.1l4.8-7.44L275,45.39h1.12L280,51.5l3.92-6.11H285l-4.42,6.82Z" transform="translate(-34.29 -20.36)"/><path d="M289.72,54.21,286,49h1.11l3.16,4.47L293.43,49h1.06l-3.64,5.16,3.91,5.46h-1.12l-3.34-4.74-3.36,4.74h-1.06Z" transform="translate(-34.29 -20.36)"/><path d="M300.6,53.2l4.18-7.81h1.07l-4.76,8.76v5.52h-1V54.22l-4.78-8.84h1.14Z" transform="translate(-34.29 -20.36)"/><path d="M305.85,49h1l2.25,6q1,2.74,1.3,3.7h.06q.41-1.26,1.34-3.76L314,49h1l-4.76,12.33a9.57,9.57,0,0,1-1,2,2.59,2.59,0,0,1-.91.79,2.78,2.78,0,0,1-1.26.26,4.36,4.36,0,0,1-1.24-.21v-.84a4.56,4.56,0,0,0,1.22.16,1.64,1.64,0,0,0,.88-.23,2.19,2.19,0,0,0,.69-.73,9.61,9.61,0,0,0,.71-1.56l.52-1.39Z" transform="translate(-34.29 -20.36)"/><path d="M325.75,59.66h-9.92v-.74l8.36-12.6h-8v-.94h9.32v.74l-8.38,12.6h8.6Z" transform="translate(-34.29 -20.36)"/><path d="M334.93,59.66h-7.58V59l6.3-9.14h-5.84V49h7.1v.62l-6.34,9.14h6.36Z" transform="translate(-34.29 -20.36)"/></svg>