<svg id="Layer_1" data-name="Layer 1" xmlns="http://www.w3.org/2000/svg" viewBox="0 0 322.92 44.11"><title>font03</title><path d="M34,35.66l-1.43-4H27.15l-1.4,4H23.29l5.34-14.34h2.54l5.34,14.34Zm-2-6L30.65,25.8q-.15-.39-.41-1.23t-.36-1.23A22,22,0,0,1,29.12,26l-1.29,3.72Z" transform="translate(-23.29 -20.36)"/><path d="M44.91,35.66l-.46-1.5h-.08A4.43,4.43,0,0,1,42.8,35.5a5,5,0,0,1-2,.36A3.44,3.44,0,0,1,38.28,35a3.22,3.22,0,0,1-.89-2.43A2.86,2.86,0,0,1,38.63,30a7.14,7.14,0,0,1,3.78-.93l1.87-.06v-.58a2.18,2.18,0,0,0-.48-1.55,2,2,0,0,0-1.5-.51,5.18,5.18,0,0,0-1.59.24,12,12,0,0,0-1.46.58l-.74-1.64a8,8,0,0,1,1.92-.7,8.87,8.87,0,0,1,2-.24,4.68,4.68,0,0,1,3.11.9,3.52,3.52,0,0,1,1,2.82v7.28ZM41.49,34.1a2.84,2.84,0,0,0,2-.7,2.53,2.53,0,0,0,.76-2v-.94l-1.39.06a4.75,4.75,0,0,0-2.36.54,1.65,1.65,0,0,0-.74,1.48,1.44,1.44,0,0,0,.43,1.12A1.85,1.85,0,0,0,41.49,34.1Z" transform="translate(-23.29 -20.36)"/><path d="M50,21.39h4.24a8,8,0,0,1,4.26.86A3,3,0,0,1,59.81,25,3.29,3.29,0,0,1,59.17,27a2.88,2.88,0,0,1-1.86,1v.1a3.68,3.68,0,0,1,2.21,1.12,3.38,3.38,0,0,1,.71,2.26,3.66,3.66,0,0,1-1.34,3,5.78,5.78,0,0,1-3.74,1.09H50Zm2.33,5.9h2.25a3.84,3.84,0,0,0,2.14-.46,1.78,1.78,0,0,0,.67-1.58,1.58,1.58,0,0,0-.73-1.46,4.54,4.54,0,0,0-2.31-.45h-2Zm0,1.89V33.7h2.48A3.65,3.65,0,0,0,57,33.14a2.07,2.07,0,0,0,.75-1.77A1.88,1.88,0,0,0,57,29.72a4,4,0,0,0-2.31-.54Z" transform="translate(-23.29 -20.36)"/><path d="M68.47,24.67a3.75,3.75,0,0,1,3.15,1.46,6.6,6.6,0,0,1,1.13,4.11,6.63,6.63,0,0,1-1.14,4.14,4.16,4.16,0,0,1-6.36,0H65.1l-.42,1.28H63V20.47h2.29v3.61q0,.4,0,1.19t-.06,1h.1A3.64,3.64,0,0,1,68.47,24.67Zm-.6,1.88a2.33,2.33,0,0,0-2,.82,4.75,4.75,0,0,0-.63,2.73v.16a5.06,5.06,0,0,0,.63,2.86,2.33,2.33,0,0,0,2,.88,2.07,2.07,0,0,0,1.85-1,5.13,5.13,0,0,0,.63-2.79Q70.4,26.54,67.88,26.54Z" transform="translate(-23.29 -20.36)"/><path d="M81.74,23.18a3.85,3.85,0,0,0-3.16,1.43,6.1,6.1,0,0,0-1.15,3.94,6.13,6.13,0,0,0,1.11,4,3.91,3.91,0,0,0,3.21,1.35,8.45,8.45,0,0,0,1.76-.18q.85-.18,1.77-.46v2a10.72,10.72,0,0,1-3.81.63A6.09,6.09,0,0,1,76.64,34,8,8,0,0,1,75,28.53a8.78,8.78,0,0,1,.82-3.9,5.82,5.82,0,0,1,2.36-2.56,7.13,7.13,0,0,1,3.62-.89,9,9,0,0,1,4,.92L85,24a12.69,12.69,0,0,0-1.53-.6A5.5,5.5,0,0,0,81.74,23.18Z" transform="translate(-23.29 -20.36)"/><path d="M92.45,35.86a4.73,4.73,0,0,1-3.73-1.43,6,6,0,0,1-1.27-4.11,6,6,0,0,1,1.33-4.19,4.94,4.94,0,0,1,3.85-1.46,7.23,7.23,0,0,1,3.08.63L95,27.15a7,7,0,0,0-2.4-.57q-2.8,0-2.8,3.72a4.45,4.45,0,0,0,.7,2.73,2.42,2.42,0,0,0,2,.91,5.87,5.87,0,0,0,2.9-.76v2a4.53,4.53,0,0,1-1.31.52A7.86,7.86,0,0,1,92.45,35.86Z" transform="translate(-23.29 -20.36)"/><path d="M109.85,28.39a7.12,7.12,0,0,1-2,5.41,7.88,7.88,0,0,1-5.65,1.87h-4V21.39h4.41a7.31,7.31,0,0,1,5.3,1.84A6.86,6.86,0,0,1,109.85,28.39Zm-2.46.08q0-5.13-4.79-5.13h-2V33.7h1.66Q107.39,33.7,107.39,28.47Z" transform="translate(-23.29 -20.36)"/><path d="M116.32,35.86a3.76,3.76,0,0,1-3.15-1.46A6.58,6.58,0,0,1,112,30.28a6.61,6.61,0,0,1,1.15-4.14,3.8,3.8,0,0,1,3.18-1.48,3.72,3.72,0,0,1,3.24,1.57h.12a13.64,13.64,0,0,1-.17-1.84V20.47h2.3v15.2h-1.8l-.4-1.42h-.11A3.67,3.67,0,0,1,116.32,35.86Zm.62-1.86a2.5,2.5,0,0,0,2.06-.8,4.19,4.19,0,0,0,.66-2.58V30.3a4.84,4.84,0,0,0-.66-2.9,2.46,2.46,0,0,0-2.08-.86,2.11,2.11,0,0,0-1.87,1,5,5,0,0,0-.65,2.8,4.9,4.9,0,0,0,.63,2.74A2.15,2.15,0,0,0,116.93,34Z" transform="translate(-23.29 -20.36)"/><path d="M133.46,35.66h-8.08V21.39h8.08v2h-5.74v3.89h5.38v2h-5.38v4.48h5.74Z" transform="translate(-23.29 -20.36)"/><path d="M141,35.86a5.23,5.23,0,0,1-3.94-1.47,5.58,5.58,0,0,1-1.42-4A6.12,6.12,0,0,1,137,26.18a4.55,4.55,0,0,1,3.62-1.51A4.45,4.45,0,0,1,144,26a5,5,0,0,1,1.24,3.57v1.24H138a3.56,3.56,0,0,0,.85,2.42,3,3,0,0,0,2.26.84,8.34,8.34,0,0,0,1.78-.18,9.29,9.29,0,0,0,1.77-.6v1.87a7.07,7.07,0,0,1-1.7.57A10.44,10.44,0,0,1,141,35.86Zm-.42-9.45a2.31,2.31,0,0,0-1.75.69,3.3,3.3,0,0,0-.79,2H143a3,3,0,0,0-.64-2A2.2,2.2,0,0,0,140.59,26.41Z" transform="translate(-23.29 -20.36)"/><path d="M150.38,35.66h-2.31V21.39h8.06v2h-5.74v4.46h5.38v2h-5.38Z" transform="translate(-23.29 -20.36)"/><path d="M163.88,26.6h-2.64v9.06h-2.3V26.6h-1.78V25.53l1.78-.7v-.7a3.93,3.93,0,0,1,.9-2.84,3.67,3.67,0,0,1,2.74-.92,7.33,7.33,0,0,1,2.38.4l-.61,1.74a5.28,5.28,0,0,0-1.62-.27,1.32,1.32,0,0,0-1.14.48,2.44,2.44,0,0,0-.36,1.45v.7h2.64Z" transform="translate(-23.29 -20.36)"/><path d="M171.8,27.92h5.25v7.17a15.17,15.17,0,0,1-2.48.6,17.52,17.52,0,0,1-2.56.18,6.44,6.44,0,0,1-5-1.92,7.73,7.73,0,0,1-1.76-5.42,7.22,7.22,0,0,1,2-5.4,7.45,7.45,0,0,1,5.46-1.95,10.63,10.63,0,0,1,4.24.86L176.12,24a8.24,8.24,0,0,0-3.48-.8A4.68,4.68,0,0,0,169,24.62a5.56,5.56,0,0,0-1.33,3.93,5.86,5.86,0,0,0,1.2,4,4.34,4.34,0,0,0,3.44,1.36,11.33,11.33,0,0,0,2.42-.28V29.92h-3Z" transform="translate(-23.29 -20.36)"/><path d="M189.36,24.86v1.26l-1.85.34a3,3,0,0,1,.42.84,3.3,3.3,0,0,1,.17,1.05A3.23,3.23,0,0,1,187,31a4.82,4.82,0,0,1-3.17,1,5.17,5.17,0,0,1-.94-.08,1.29,1.29,0,0,0-.74,1.07.6.6,0,0,0,.35.56,3,3,0,0,0,1.27.19h1.88a4.19,4.19,0,0,1,2.71.76,2.68,2.68,0,0,1,.93,2.2,3.19,3.19,0,0,1-1.51,2.83,8,8,0,0,1-4.37,1,6,6,0,0,1-3.37-.78,2.52,2.52,0,0,1-1.16-2.23,2.37,2.37,0,0,1,.63-1.67,3.37,3.37,0,0,1,1.76-.94,1.72,1.72,0,0,1-.76-.63,1.59,1.59,0,0,1-.3-.91,1.57,1.57,0,0,1,.34-1,4,4,0,0,1,1-.83,3,3,0,0,1-1.36-1.18,3.46,3.46,0,0,1-.52-1.91,3.42,3.42,0,0,1,1.11-2.72,4.66,4.66,0,0,1,3.16-1,7.74,7.74,0,0,1,1,.06,6,6,0,0,1,.76.13Zm-8.49,12.48a1.26,1.26,0,0,0,.67,1.14,3.68,3.68,0,0,0,1.88.4,5.67,5.67,0,0,0,2.79-.54,1.61,1.61,0,0,0,.92-1.43,1.07,1.07,0,0,0-.5-1,4,4,0,0,0-1.87-.3H183a2.44,2.44,0,0,0-1.57.46A1.52,1.52,0,0,0,180.88,37.34Zm1-9a2.17,2.17,0,0,0,.52,1.56,2,2,0,0,0,1.5.55q2,0,2-2.13a2.41,2.41,0,0,0-.49-1.63,1.87,1.87,0,0,0-1.5-.57,1.93,1.93,0,0,0-1.51.57A2.38,2.38,0,0,0,181.86,28.36Z" transform="translate(-23.29 -20.36)"/><path d="M202.87,35.66h-2.34V29.23h-6.58v6.44h-2.33V21.39h2.33v5.84h6.58V21.39h2.34Z" transform="translate(-23.29 -20.36)"/><path d="M215.89,35.66h-2.3V29a2.91,2.91,0,0,0-.5-1.87,1.94,1.94,0,0,0-1.6-.62,2.53,2.53,0,0,0-2.12.86,4.76,4.76,0,0,0-.68,2.9v5.36h-2.29V20.47h2.29v3.86a18,18,0,0,1-.12,2h.15A3.19,3.19,0,0,1,210,25.1a4.21,4.21,0,0,1,1.95-.43q3.93,0,3.93,4Z" transform="translate(-23.29 -20.36)"/><path d="M219.32,35.66V21.39h2.33V35.66Z" transform="translate(-23.29 -20.36)"/><path d="M225,22a1.27,1.27,0,0,1,.34-.95,1.31,1.31,0,0,1,1-.33,1.28,1.28,0,0,1,.94.33,1.27,1.27,0,0,1,.34.95,1.25,1.25,0,0,1-.34.92,1.27,1.27,0,0,1-.94.34,1.3,1.3,0,0,1-1-.34A1.25,1.25,0,0,1,225,22Zm2.43,13.66h-2.29V24.86h2.29Z" transform="translate(-23.29 -20.36)"/><path d="M229.2,39.65a4.55,4.55,0,0,1-1.6-.24v-2a6,6,0,0,0,1.43.21q1.91,0,1.91-2.42V21.39h2.34V35.15a4.84,4.84,0,0,1-1,3.34A3.88,3.88,0,0,1,229.2,39.65Z" transform="translate(-23.29 -20.36)"/><path d="M235.63,40.47a5.16,5.16,0,0,1-1.72-.24V38.41a5.28,5.28,0,0,0,1.36.18q1.46,0,1.46-1.66V24.86H239V37.08a3.39,3.39,0,0,1-.87,2.53A3.45,3.45,0,0,1,235.63,40.47Zm1-18.47a1.27,1.27,0,0,1,.34-.95,1.31,1.31,0,0,1,1-.33,1.28,1.28,0,0,1,.94.33,1.27,1.27,0,0,1,.34.95,1.25,1.25,0,0,1-.34.92,1.27,1.27,0,0,1-.94.34,1.3,1.3,0,0,1-1-.34A1.25,1.25,0,0,1,236.6,22Z" transform="translate(-23.29 -20.36)"/><path d="M253.46,35.66h-2.71l-4.48-6.46-1.38,1.12v5.34h-2.33V21.39h2.33V28.2q1-1.17,1.9-2.26l3.86-4.56h2.66q-3.74,4.39-5.36,6.26Z" transform="translate(-23.29 -20.36)"/><path d="M257.31,30l1.3-1.62,3.26-3.48h2.65l-4.35,4.64,4.62,6.16h-2.7l-3.47-4.74-1.26,1v3.7H255.1V20.47h2.28v7.41L257.25,30Z" transform="translate(-23.29 -20.36)"/><path d="M266.78,35.66V21.39h2.33V33.66h6v2Z" transform="translate(-23.29 -20.36)"/><path d="M279.67,35.66h-2.29V20.47h2.29Z" transform="translate(-23.29 -20.36)"/><path d="M289.36,35.66l-4.14-11.92h-.08q.17,2.66.17,5v6.94h-2.12V21.39h3.29l4,11.36h.06l4.08-11.36h3.3V35.66h-2.25V28.6q0-1.06.05-2.77t.09-2.07h-.08l-4.29,11.9Z" transform="translate(-23.29 -20.36)"/><path d="M310.51,35.66h-2.3V29a3,3,0,0,0-.47-1.85,1.73,1.73,0,0,0-1.46-.61,2.23,2.23,0,0,0-1.95.86,5.07,5.07,0,0,0-.62,2.88v5.38H301.4V24.86h1.8l.32,1.42h.12a3,3,0,0,1,1.3-1.19,4.2,4.2,0,0,1,1.88-.42q2.49,0,3.3,1.7h.16a3.3,3.3,0,0,1,1.35-1.25,4.27,4.27,0,0,1,2-.45,3.63,3.63,0,0,1,2.82,1,4.33,4.33,0,0,1,.88,3v7H315V29a3,3,0,0,0-.47-1.85,1.74,1.74,0,0,0-1.47-.61,2.28,2.28,0,0,0-2,.83,4.31,4.31,0,0,0-.62,2.56Z" transform="translate(-23.29 -20.36)"/><path d="M37.07,59.66H34.21l-7-11.38h-.08l0,.63q.14,1.82.14,3.32v7.42H25.17V45.39H28l7,11.32h.06q0-.22-.08-1.64t-.06-2.2V45.39h2.14Z" transform="translate(-23.29 -20.36)"/><path d="M50.1,59.66h-2.3V53a2.91,2.91,0,0,0-.5-1.87,1.94,1.94,0,0,0-1.6-.62,2.54,2.54,0,0,0-2.13.86,4.75,4.75,0,0,0-.67,2.88v5.38H40.59V48.86h1.8l.32,1.42h.12a3.2,3.2,0,0,1,1.39-1.19,4.65,4.65,0,0,1,2-.42q3.89,0,3.89,4Z" transform="translate(-23.29 -20.36)"/><path d="M66.21,52.51a7.81,7.81,0,0,1-1.74,5.42,6.3,6.3,0,0,1-4.94,1.93,6.35,6.35,0,0,1-5-1.92,7.86,7.86,0,0,1-1.73-5.45,7.74,7.74,0,0,1,1.74-5.43,6.43,6.43,0,0,1,5-1.89,6.29,6.29,0,0,1,4.92,1.92A7.8,7.8,0,0,1,66.21,52.51Zm-10.9,0a6.41,6.41,0,0,0,1.06,4,4.33,4.33,0,0,0,6.29,0,6.42,6.42,0,0,0,1.06-4,6.43,6.43,0,0,0-1-4,3.71,3.71,0,0,0-3.13-1.36,3.79,3.79,0,0,0-3.17,1.36A6.34,6.34,0,0,0,55.31,52.51Z" transform="translate(-23.29 -20.36)"/><path d="M78.61,54.24a5.9,5.9,0,0,1-1.36,4.13,4.86,4.86,0,0,1-3.78,1.48,5.18,5.18,0,0,1-2.68-.68,4.51,4.51,0,0,1-1.79-2,6.69,6.69,0,0,1-.62-3,5.86,5.86,0,0,1,1.35-4.1,4.88,4.88,0,0,1,3.8-1.47,4.76,4.76,0,0,1,3.71,1.51A5.82,5.82,0,0,1,78.61,54.24Zm-7.86,0q0,3.74,2.76,3.74t2.73-3.74q0-3.7-2.75-3.7a2.35,2.35,0,0,0-2.09,1A4.87,4.87,0,0,0,70.75,54.24Z" transform="translate(-23.29 -20.36)"/><path d="M90.95,49.7a4.16,4.16,0,0,1-1.46,3.43,6.46,6.46,0,0,1-4.17,1.19H83.83v5.34H81.49V45.39H85.6a6.22,6.22,0,0,1,4,1.09A3.93,3.93,0,0,1,90.95,49.7Zm-7.12,2.66h1.24a4.44,4.44,0,0,0,2.64-.62,2.27,2.27,0,0,0,.84-2,2.21,2.21,0,0,0-.75-1.84,3.72,3.72,0,0,0-2.34-.61H83.83Z" transform="translate(-23.29 -20.36)"/><path d="M99,59.86a3.78,3.78,0,0,1-3.18-1.47h-.14q.14,1.37.14,1.66v4.42H93.55V48.86h1.86q.08.3.32,1.45h.12a3.6,3.6,0,0,1,3.22-1.64,3.75,3.75,0,0,1,3.15,1.46,6.6,6.6,0,0,1,1.13,4.11,6.61,6.61,0,0,1-1.15,4.13A3.78,3.78,0,0,1,99,59.86Zm-.56-9.32a2.38,2.38,0,0,0-2,.8,4.15,4.15,0,0,0-.63,2.56v.34a5.06,5.06,0,0,0,.63,2.86,2.33,2.33,0,0,0,2,.88,2.07,2.07,0,0,0,1.84-1,5,5,0,0,0,.64-2.78,4.86,4.86,0,0,0-.64-2.75A2.13,2.13,0,0,0,98.47,50.54Z" transform="translate(-23.29 -20.36)"/><path d="M118.93,52.51a8.87,8.87,0,0,1-1,4.38,5.42,5.42,0,0,1-2.89,2.5l3.42,3.68h-3.14l-2.7-3.2h-.38a6.35,6.35,0,0,1-5-1.92,7.86,7.86,0,0,1-1.73-5.45,7.74,7.74,0,0,1,1.74-5.43,6.43,6.43,0,0,1,5-1.89,6.29,6.29,0,0,1,4.92,1.92A7.8,7.8,0,0,1,118.93,52.51Zm-10.9,0a6.41,6.41,0,0,0,1.06,4,4.33,4.33,0,0,0,6.29,0,6.42,6.42,0,0,0,1.06-4,6.43,6.43,0,0,0-1-4,3.71,3.71,0,0,0-3.13-1.36,3.79,3.79,0,0,0-3.17,1.36A6.34,6.34,0,0,0,108,52.51Z" transform="translate(-23.29 -20.36)"/><path d="M125.38,59.86a3.74,3.74,0,0,1-3.13-1.47,6.58,6.58,0,0,1-1.13-4.11,6.6,6.6,0,0,1,1.15-4.13,3.79,3.79,0,0,1,3.17-1.49,4.25,4.25,0,0,1,1.82.38,3.82,3.82,0,0,1,1.44,1.24h.08l.25-1.42h1.9V64.47h-2.3V59.89c0-.29,0-.59,0-.91s0-.56.07-.73h-.13A3.54,3.54,0,0,1,125.38,59.86ZM126,58a2.43,2.43,0,0,0,2.08-.83,4.17,4.17,0,0,0,.63-2.52V54.3a4.94,4.94,0,0,0-.65-2.88,2.43,2.43,0,0,0-2.09-.88,2.11,2.11,0,0,0-1.87,1,5.09,5.09,0,0,0-.64,2.8Q123.47,58,126,58Z" transform="translate(-23.29 -20.36)"/><path d="M136.79,54v5.7h-2.33V45.39h4a6.62,6.62,0,0,1,4.09,1,3.72,3.72,0,0,1,1.33,3.13,3.91,3.91,0,0,1-2.77,3.8l4,6.32h-2.66L139.1,54Zm0-1.93h1.62a3.7,3.7,0,0,0,2.36-.61,2.2,2.2,0,0,0,.73-1.8,1.93,1.93,0,0,0-.79-1.74,4.34,4.34,0,0,0-2.38-.53h-1.54Z" transform="translate(-23.29 -20.36)"/><path d="M152.48,48.67a5.49,5.49,0,0,1,1.14.1l-.22,2.14a4.34,4.34,0,0,0-1-.12,2.94,2.94,0,0,0-2.23.9,3.25,3.25,0,0,0-.85,2.33v5.64H147V48.86h1.8l.3,1.9h.12a4.28,4.28,0,0,1,1.4-1.53A3.33,3.33,0,0,1,152.48,48.67Z" transform="translate(-23.29 -20.36)"/><path d="M164.1,55.79a3.59,3.59,0,0,1-1.38,3,6,6,0,0,1-3.8,1.08,9.07,9.07,0,0,1-4-.75V56.9a10.78,10.78,0,0,0,2.08.72,8.8,8.8,0,0,0,2,.26,3.26,3.26,0,0,0,2-.53,1.72,1.72,0,0,0,.66-1.42,1.77,1.77,0,0,0-.61-1.36,9.12,9.12,0,0,0-2.5-1.32,6.61,6.61,0,0,1-2.75-1.81,3.83,3.83,0,0,1-.8-2.44,3.42,3.42,0,0,1,1.27-2.81,5.26,5.26,0,0,1,3.41-1,10,10,0,0,1,4.08.9l-.74,1.9a8.91,8.91,0,0,0-3.4-.8,2.6,2.6,0,0,0-1.72.49,1.62,1.62,0,0,0-.59,1.3,1.84,1.84,0,0,0,.23,1,2.4,2.4,0,0,0,.77.75,13,13,0,0,0,1.93.93,10.56,10.56,0,0,1,2.3,1.22,3.6,3.6,0,0,1,1.07,1.28A3.84,3.84,0,0,1,164.1,55.79Z" transform="translate(-23.29 -20.36)"/><path d="M173.88,56.59A2.83,2.83,0,0,1,172.72,59a5.52,5.52,0,0,1-3.3.84,7.79,7.79,0,0,1-3.47-.65v-2a8.51,8.51,0,0,0,3.54.88q2.12,0,2.12-1.28a1,1,0,0,0-.23-.68,2.78,2.78,0,0,0-.77-.57,13.11,13.11,0,0,0-1.49-.66,6.91,6.91,0,0,1-2.52-1.45,2.67,2.67,0,0,1-.66-1.87,2.46,2.46,0,0,1,1.12-2.15,5.31,5.31,0,0,1,3-.77,8.61,8.61,0,0,1,3.6.77L173,51.17a8,8,0,0,0-2.94-.72q-1.82,0-1.82,1a1,1,0,0,0,.47.86,10.43,10.43,0,0,0,2.07,1,9.44,9.44,0,0,1,1.94.95,2.82,2.82,0,0,1,.9,1A2.87,2.87,0,0,1,173.88,56.59Z" transform="translate(-23.29 -20.36)"/><path d="M181.53,59.66H179.2V47.39H175v-2h10.73v2h-4.2Z" transform="translate(-23.29 -20.36)"/><path d="M191.7,58a5.58,5.58,0,0,0,1.68-.26v1.73a4.67,4.67,0,0,1-1,.28,6.73,6.73,0,0,1-1.25.11q-3.26,0-3.26-3.44V50.6h-1.47v-1l1.58-.84.78-2.29h1.42v2.4h3.08V50.6h-3.08v5.78a1.62,1.62,0,0,0,.42,1.23A1.51,1.51,0,0,0,191.7,58Z" transform="translate(-23.29 -20.36)"/><path d="M207,45.39v9.24a5.48,5.48,0,0,1-.68,2.77,4.52,4.52,0,0,1-2,1.83,6.82,6.82,0,0,1-3.07.64,5.75,5.75,0,0,1-4.13-1.41,5.09,5.09,0,0,1-1.47-3.87v-9.2H198v9a3.61,3.61,0,0,0,.82,2.61,3.38,3.38,0,0,0,2.52.84q3.3,0,3.3-3.47v-9Z" transform="translate(-23.29 -20.36)"/><path d="M218,59.66l-.32-1.42h-.12a3.26,3.26,0,0,1-1.36,1.18,4.56,4.56,0,0,1-2,.43,4,4,0,0,1-2.93-1,4,4,0,0,1-1-3V48.86h2.31v6.66a2.89,2.89,0,0,0,.51,1.86,1.94,1.94,0,0,0,1.59.62,2.53,2.53,0,0,0,2.12-.86,4.76,4.76,0,0,0,.68-2.9V48.86h2.3v10.8Z" transform="translate(-23.29 -20.36)"/><path d="M231.45,45.39h2.42l-5,14.28h-2.46l-5-14.28h2.4l3,8.88q.23.63.5,1.64t.34,1.49q.13-.74.39-1.72t.43-1.45Z" transform="translate(-23.29 -20.36)"/><path d="M238,59.66l-4.1-10.8h2.42l2.2,6.28a12.42,12.42,0,0,1,.68,2.56h.08a17.15,17.15,0,0,1,.68-2.56l2.2-6.28h2.44l-4.12,10.8Z" transform="translate(-23.29 -20.36)"/><path d="M259.64,59.66H257.1l-2.42-8.52q-.16-.56-.39-1.61T254,48.08q-.1.63-.32,1.62t-.37,1.48L251,59.66h-2.54l-1.85-7.15-1.87-7.13h2.38l2,8.32a35.86,35.86,0,0,1,.68,3.54q.11-.83.32-1.86t.39-1.66l2.32-8.34h2.31l2.38,8.38a31.38,31.38,0,0,1,.72,3.48,25.49,25.49,0,0,1,.7-3.55l2-8.3h2.36Z" transform="translate(-23.29 -20.36)"/><path d="M274,59.66l-1.4-5q-.25-.8-.92-3.72h-.09q-.57,2.64-.9,3.74l-1.44,5h-2.54l-3-10.8H266l1.38,5.32q.47,2,.66,3.38h.06q.1-.71.3-1.64t.35-1.38l1.64-5.68h2.52l1.59,5.68q.15.48.37,1.46a11.32,11.32,0,0,1,.26,1.53h.08a29.88,29.88,0,0,1,.68-3.36l1.4-5.32h2.3l-3,10.8Z" transform="translate(-23.29 -20.36)"/><path d="M292.23,59.66h-2.69L286,53.82l-3.6,5.84h-2.5l4.74-7.4-4.43-6.87h2.6l3.3,5.4,3.3-5.4h2.52l-4.46,6.91Z" transform="translate(-23.29 -20.36)"/><path d="M296.32,54.15l-3.62-5.28h2.62l2.46,3.78,2.48-3.78h2.6l-3.63,5.28L303,59.66h-2.6l-2.67-4-2.66,4h-2.6Z" transform="translate(-23.29 -20.36)"/><path d="M309.21,51.9l3.38-6.51h2.54l-4.76,8.74v5.54H308V54.21l-4.74-8.82h2.54Z" transform="translate(-23.29 -20.36)"/><path d="M315.13,48.86h2.5l2.2,6.12a11.59,11.59,0,0,1,.66,2.46h.08a10.24,10.24,0,0,1,.32-1.3q.23-.77,2.48-7.28h2.48L321.23,61.1Q320,64.47,317,64.47a6.63,6.63,0,0,1-1.48-.17V62.49a5.38,5.38,0,0,0,1.18.12,2.42,2.42,0,0,0,2.33-1.92l.4-1Z" transform="translate(-23.29 -20.36)"/><path d="M336.71,59.66H326.49V58l7.2-10.65h-7v-2h9.82V47l-7.23,10.63h7.42Z" transform="translate(-23.29 -20.36)"/><path d="M346.21,59.66H338V58.25l5.46-7.63h-5.13V48.86h7.71v1.6l-5.34,7.44h5.5Z" transform="translate(-23.29 -20.36)"/></svg>