<svg id="Layer_1" data-name="Layer 1" xmlns="http://www.w3.org/2000/svg" viewBox="0 0 312.42 44.11"><title>font02</title><path d="M39.23,35.66l-1.78-4.54H31.73L30,35.66H28.29l5.64-14.34h1.4l5.62,14.34Zm-2.29-6-1.66-4.42q-.32-.84-.66-2.06A18.25,18.25,0,0,1,34,25.21l-1.68,4.42Z" transform="translate(-28.29 -20.36)"/><path d="M49.25,35.66l-.32-1.52h-.08a4.49,4.49,0,0,1-1.6,1.36,4.87,4.87,0,0,1-2,.36,3.58,3.58,0,0,1-2.5-.82,3,3,0,0,1-.9-2.33q0-3.24,5.19-3.4l1.82-.06v-.66a2.71,2.71,0,0,0-.54-1.86,2.23,2.23,0,0,0-1.73-.6,7.06,7.06,0,0,0-3,.82l-.5-1.24A7.65,7.65,0,0,1,44.8,25a7.49,7.49,0,0,1,1.89-.24,4.08,4.08,0,0,1,2.84.85,3.55,3.55,0,0,1,.92,2.72v7.3Zm-3.66-1.14A3.29,3.29,0,0,0,48,33.69a3.07,3.07,0,0,0,.86-2.32v-1l-1.62.07a5.9,5.9,0,0,0-2.79.6,1.81,1.81,0,0,0-.85,1.66,1.67,1.67,0,0,0,.53,1.34A2.21,2.21,0,0,0,45.58,34.52Z" transform="translate(-28.29 -20.36)"/><path d="M54,21.39h4a7.61,7.61,0,0,1,4.11.85,3,3,0,0,1,1.27,2.69A3.1,3.1,0,0,1,62.74,27a3.41,3.41,0,0,1-2.07,1.07v.1q3.25.56,3.25,3.42a3.67,3.67,0,0,1-1.29,3A5.51,5.51,0,0,1,59,35.66H54Zm1.66,6.11h2.73A4.45,4.45,0,0,0,61,26.95a2.13,2.13,0,0,0,.77-1.86,1.88,1.88,0,0,0-.86-1.73,5.37,5.37,0,0,0-2.73-.53H55.69Zm0,1.41v5.34h3a4.24,4.24,0,0,0,2.6-.67,2.47,2.47,0,0,0,.87-2.09,2.22,2.22,0,0,0-.89-2,4.77,4.77,0,0,0-2.72-.62Z" transform="translate(-28.29 -20.36)"/><path d="M71.73,24.79A4,4,0,0,1,75,26.23a6.32,6.32,0,0,1,1.17,4.08A6.37,6.37,0,0,1,75,34.4a4,4,0,0,1-3.27,1.46,4.63,4.63,0,0,1-1.91-.39,3.59,3.59,0,0,1-1.45-1.19h-.12l-.34,1.38H66.75V20.47h1.62v3.69q0,1.24-.08,2.23h.08A3.85,3.85,0,0,1,71.73,24.79Zm-.23,1.36a2.83,2.83,0,0,0-2.39,1,5.37,5.37,0,0,0-.73,3.21,5.35,5.35,0,0,0,.75,3.23,2.86,2.86,0,0,0,2.41,1,2.5,2.5,0,0,0,2.23-1.09,5.6,5.6,0,0,0,.73-3.13,5.38,5.38,0,0,0-.73-3.12A2.6,2.6,0,0,0,71.49,26.14Z" transform="translate(-28.29 -20.36)"/><path d="M85.36,22.67a4.67,4.67,0,0,0-3.72,1.57,6.32,6.32,0,0,0-1.36,4.29,6.45,6.45,0,0,0,1.31,4.33,4.67,4.67,0,0,0,3.75,1.53,12.77,12.77,0,0,0,3.41-.54V35.3a10.5,10.5,0,0,1-3.66.56,6.19,6.19,0,0,1-4.87-1.91,7.88,7.88,0,0,1-1.71-5.44,8.59,8.59,0,0,1,.83-3.87,5.92,5.92,0,0,1,2.38-2.56,7.21,7.21,0,0,1,3.67-.9A8.84,8.84,0,0,1,89.3,22l-.7,1.43A7.57,7.57,0,0,0,85.36,22.67Z" transform="translate(-28.29 -20.36)"/><path d="M95.9,35.86a4.57,4.57,0,0,1-3.6-1.43,5.88,5.88,0,0,1-1.27-4,6.07,6.07,0,0,1,1.29-4.15A4.66,4.66,0,0,1,96,24.77a7.34,7.34,0,0,1,1.54.17,5.09,5.09,0,0,1,1.21.39l-.5,1.38a7.58,7.58,0,0,0-1.17-.36A5.21,5.21,0,0,0,96,26.2q-3.26,0-3.26,4.16a5,5,0,0,0,.8,3,2.77,2.77,0,0,0,2.36,1.05,7.21,7.21,0,0,0,2.74-.58V35.3A5.85,5.85,0,0,1,95.9,35.86Z" transform="translate(-28.29 -20.36)"/><path d="M112.78,28.39a7.21,7.21,0,0,1-1.92,5.41,7.59,7.59,0,0,1-5.52,1.87h-4V21.39h4.38a7,7,0,0,1,5.18,1.85A7,7,0,0,1,112.78,28.39Zm-1.76.06a5.75,5.75,0,0,0-1.4-4.21,5.62,5.62,0,0,0-4.17-1.42H103V34.23h2a6.15,6.15,0,0,0,4.46-1.46A5.78,5.78,0,0,0,111,28.45Z" transform="translate(-28.29 -20.36)"/><path d="M123,34.23h-.09a3.81,3.81,0,0,1-3.36,1.63,4,4,0,0,1-3.27-1.44,6.32,6.32,0,0,1-1.17-4.08,6.43,6.43,0,0,1,1.17-4.11,3.94,3.94,0,0,1,3.26-1.46,3.89,3.89,0,0,1,3.34,1.58H123l-.07-.77,0-.75V20.47h1.62v15.2h-1.32Zm-3.24.27a3,3,0,0,0,2.41-.9,4.57,4.57,0,0,0,.75-2.92v-.34a5.37,5.37,0,0,0-.76-3.25,2.87,2.87,0,0,0-2.42-1,2.48,2.48,0,0,0-2.18,1.11,5.51,5.51,0,0,0-.76,3.13,5.28,5.28,0,0,0,.75,3.1A2.55,2.55,0,0,0,119.76,34.5Z" transform="translate(-28.29 -20.36)"/><path d="M136.18,35.66h-8V21.39h8v1.47h-6.3v4.6h5.92v1.46h-5.92v5.25h6.3Z" transform="translate(-28.29 -20.36)"/><path d="M143.62,35.86a4.92,4.92,0,0,1-3.75-1.45,5.59,5.59,0,0,1-1.37-4,6.2,6.2,0,0,1,1.27-4.11,4.23,4.23,0,0,1,3.42-1.52,4,4,0,0,1,3.18,1.32,5.07,5.07,0,0,1,1.17,3.49v1h-7.37a4.24,4.24,0,0,0,1,2.86,3.29,3.29,0,0,0,2.54,1,8.63,8.63,0,0,0,3.42-.72v1.45a8.59,8.59,0,0,1-1.63.53A9.14,9.14,0,0,1,143.62,35.86Zm-.44-9.74a2.65,2.65,0,0,0-2.06.84,3.88,3.88,0,0,0-.9,2.32h5.6a3.57,3.57,0,0,0-.68-2.35A2.41,2.41,0,0,0,143.18,26.12Z" transform="translate(-28.29 -20.36)"/><path d="M152.22,35.66h-1.66V21.39h8v1.47h-6.3v5.22h5.92v1.47h-5.92Z" transform="translate(-28.29 -20.36)"/><path d="M165.47,26.22h-2.72v9.44h-1.62V26.22h-1.91v-.73l1.91-.59v-.6q0-3.94,3.45-3.95a7.11,7.11,0,0,1,2,.34l-.42,1.3a5.35,5.35,0,0,0-1.6-.3,1.56,1.56,0,0,0-1.36.61,3.41,3.41,0,0,0-.44,2V25h2.72Z" transform="translate(-28.29 -20.36)"/><path d="M173.94,28.18h4.85v6.94a15.62,15.62,0,0,1-2.3.55,17.5,17.5,0,0,1-2.71.19,6.58,6.58,0,0,1-5-1.93,7.6,7.6,0,0,1-1.81-5.41,8.17,8.17,0,0,1,.89-3.9,6,6,0,0,1,2.57-2.56,8.34,8.34,0,0,1,3.94-.88,10.76,10.76,0,0,1,4.26.84l-.64,1.46a9.51,9.51,0,0,0-3.72-.82,5.33,5.33,0,0,0-4.07,1.55,6,6,0,0,0-1.46,4.31,6.16,6.16,0,0,0,1.41,4.38,5.43,5.43,0,0,0,4.15,1.49,12.33,12.33,0,0,0,2.9-.34V29.67h-3.19Z" transform="translate(-28.29 -20.36)"/><path d="M190.74,25v1l-2,.23a3.48,3.48,0,0,1,.7,2.14,3.16,3.16,0,0,1-1.07,2.51,4.33,4.33,0,0,1-2.95.94,4.94,4.94,0,0,1-.9-.08,1.6,1.6,0,0,0-1,1.38.7.7,0,0,0,.36.65,2.64,2.64,0,0,0,1.24.21H187a4.24,4.24,0,0,1,2.67.73,2.54,2.54,0,0,1,.93,2.13,3,3,0,0,1-1.43,2.71,7.63,7.63,0,0,1-4.16.93,5.69,5.69,0,0,1-3.24-.78,2.52,2.52,0,0,1-1.14-2.21,2.48,2.48,0,0,1,.63-1.69,3.17,3.17,0,0,1,1.76-1,1.7,1.7,0,0,1-.69-.58,1.53,1.53,0,0,1-.28-.91,1.72,1.72,0,0,1,.31-1,3.29,3.29,0,0,1,1-.85A2.89,2.89,0,0,1,182,30.3a3.41,3.41,0,0,1-.52-1.87,3.46,3.46,0,0,1,1.05-2.71,4.31,4.31,0,0,1,3-1A5.44,5.44,0,0,1,187,25Zm-8.54,12.5a1.45,1.45,0,0,0,.73,1.32,4,4,0,0,0,2.1.45,5.85,5.85,0,0,0,3-.61A1.87,1.87,0,0,0,189,37a1.31,1.31,0,0,0-.54-1.21,4.17,4.17,0,0,0-2-.34h-1.94a2.56,2.56,0,0,0-1.72.53A1.88,1.88,0,0,0,182.21,37.46Zm.88-9.07a2.18,2.18,0,0,0,.63,1.7,2.54,2.54,0,0,0,1.77.58,2.07,2.07,0,0,0,2.37-2.3,2.13,2.13,0,0,0-2.4-2.41,2.38,2.38,0,0,0-1.76.62A2.48,2.48,0,0,0,183.08,28.39Z" transform="translate(-28.29 -20.36)"/><path d="M204,35.66h-1.66V28.95h-7.52v6.72h-1.66V21.39h1.66v6.07h7.52V21.39H204Z" transform="translate(-28.29 -20.36)"/><path d="M215,35.66V28.74a2.79,2.79,0,0,0-.6-2,2.43,2.43,0,0,0-1.87-.64,3.06,3.06,0,0,0-2.47.92,4.65,4.65,0,0,0-.78,3v5.6h-1.62V20.47h1.62v4.6a10.07,10.07,0,0,1-.08,1.38h.1a3.31,3.31,0,0,1,1.36-1.22,4.43,4.43,0,0,1,2-.44,4.13,4.13,0,0,1,2.94.93,3.93,3.93,0,0,1,1,3v7Z" transform="translate(-28.29 -20.36)"/><path d="M220.21,35.66V21.39h1.66V35.66Z" transform="translate(-28.29 -20.36)"/><path d="M225.41,22.06a1.08,1.08,0,0,1,.27-.82,1,1,0,0,1,1.36,0,1.06,1.06,0,0,1,.28.81,1.08,1.08,0,0,1-.28.82,1,1,0,0,1-1.36,0A1.1,1.1,0,0,1,225.41,22.06Zm1.76,13.6h-1.62V25h1.62Z" transform="translate(-28.29 -20.36)"/><path d="M228.77,39.42a3.27,3.27,0,0,1-1.45-.26V37.74a5.32,5.32,0,0,0,1.45.2,1.83,1.83,0,0,0,1.47-.59,2.53,2.53,0,0,0,.5-1.69V21.39h1.66V35.53a4.1,4.1,0,0,1-.94,2.88A3.48,3.48,0,0,1,228.77,39.42Z" transform="translate(-28.29 -20.36)"/><path d="M234.65,40.47a3.9,3.9,0,0,1-1.5-.24V38.91a4.77,4.77,0,0,0,1.33.2,1.4,1.4,0,0,0,1.12-.42,1.91,1.91,0,0,0,.36-1.26V25h1.62V37.3Q237.57,40.47,234.65,40.47Zm1.16-18.41a1.08,1.08,0,0,1,.27-.82,1,1,0,0,1,1.36,0,1.06,1.06,0,0,1,.28.81,1.08,1.08,0,0,1-.28.82,1,1,0,0,1-1.36,0A1.1,1.1,0,0,1,235.81,22.06Z" transform="translate(-28.29 -20.36)"/><path d="M251.56,35.66h-2l-5.21-6.92-1.49,1.33v5.6h-1.66V21.39h1.66v7.08l6.47-7.08h2l-5.74,6.2Z" transform="translate(-28.29 -20.36)"/><path d="M254.88,30.19a19,19,0,0,1,1.28-1.56L259.62,25h1.92l-4.34,4.56,4.64,6.14h-2l-3.78-5.06-1.22,1.05v4h-1.6V20.47h1.6v8.06q0,.54-.08,1.66Z" transform="translate(-28.29 -20.36)"/><path d="M264,35.66V21.39h1.66V34.16H272v1.5Z" transform="translate(-28.29 -20.36)"/><path d="M275.78,35.66h-1.62V20.47h1.62Z" transform="translate(-28.29 -20.36)"/><path d="M285.78,35.66,280.94,23h-.08q.14,1.5.14,3.57v9.08h-1.53V21.39H282l4.52,11.78h.08l4.56-11.78h2.48V35.66h-1.66v-9.2q0-1.58.14-3.44H292l-4.88,12.64Z" transform="translate(-28.29 -20.36)"/><path d="M310.92,35.66v-7a2.89,2.89,0,0,0-.55-1.92,2.11,2.11,0,0,0-1.7-.64,2.74,2.74,0,0,0-2.24.87,4.13,4.13,0,0,0-.72,2.68v6h-1.62v-7a2.89,2.89,0,0,0-.55-1.92,2.13,2.13,0,0,0-1.71-.64,2.65,2.65,0,0,0-2.23.91,4.94,4.94,0,0,0-.71,3v5.62h-1.62V25h1.32l.26,1.46h.08a3.19,3.19,0,0,1,1.29-1.22,4,4,0,0,1,1.87-.44q2.51,0,3.28,1.82h.08a3.41,3.41,0,0,1,1.39-1.33,4.31,4.31,0,0,1,2.07-.49,3.62,3.62,0,0,1,2.72.93,4.17,4.17,0,0,1,.9,3v7Z" transform="translate(-28.29 -20.36)"/><path d="M41.4,59.66H39.51l-7.8-12h-.08q.16,2.11.16,3.87v8.12H30.25V45.39h1.88l7.78,11.93H40q0-.26-.09-1.69c0-1-.06-1.64,0-2V45.39H41.4Z" transform="translate(-28.29 -20.36)"/><path d="M52.41,59.66V52.74a2.8,2.8,0,0,0-.6-2,2.43,2.43,0,0,0-1.87-.64,3.08,3.08,0,0,0-2.46.91,4.58,4.58,0,0,0-.78,3v5.62H45.09V49H46.4l.26,1.46h.08a3.31,3.31,0,0,1,1.4-1.23,4.53,4.53,0,0,1,2-.43,4.06,4.06,0,0,1,2.91.93,4,4,0,0,1,1,3v7Z" transform="translate(-28.29 -20.36)"/><path d="M70,52.51a7.86,7.86,0,0,1-1.73,5.39,6.09,6.09,0,0,1-4.82,2,6.17,6.17,0,0,1-4.87-1.93,7.92,7.92,0,0,1-1.71-5.44,7.82,7.82,0,0,1,1.72-5.41,6.22,6.22,0,0,1,4.88-1.92,6.08,6.08,0,0,1,4.8,2A7.85,7.85,0,0,1,70,52.51Zm-11.38,0a6.78,6.78,0,0,0,1.24,4.4,4.38,4.38,0,0,0,3.59,1.5A4.34,4.34,0,0,0,67,56.91a6.87,6.87,0,0,0,1.21-4.4A6.82,6.82,0,0,0,67,48.14a4.32,4.32,0,0,0-3.57-1.49,4.41,4.41,0,0,0-3.61,1.5A6.71,6.71,0,0,0,58.62,52.51Z" transform="translate(-28.29 -20.36)"/><path d="M82.18,54.3a5.9,5.9,0,0,1-1.32,4.09,4.65,4.65,0,0,1-3.64,1.47,4.82,4.82,0,0,1-2.55-.67,4.45,4.45,0,0,1-1.72-1.93,6.73,6.73,0,0,1-.61-2.95,5.89,5.89,0,0,1,1.31-4.08,4.63,4.63,0,0,1,3.63-1.46,4.53,4.53,0,0,1,3.57,1.49A5.88,5.88,0,0,1,82.18,54.3ZM74,54.3a5.08,5.08,0,0,0,.82,3.13,3.26,3.26,0,0,0,4.83,0,5.06,5.06,0,0,0,.83-3.13,5,5,0,0,0-.83-3.1,2.9,2.9,0,0,0-2.44-1.06,2.86,2.86,0,0,0-2.4,1A5,5,0,0,0,74,54.3Z" transform="translate(-28.29 -20.36)"/><path d="M94.31,49.55a4,4,0,0,1-1.48,3.33A6.7,6.7,0,0,1,88.6,54H86.92v5.62H85.26V45.39H89Q94.32,45.39,94.31,49.55Zm-7.39,3.08h1.49a5.55,5.55,0,0,0,3.19-.71,2.63,2.63,0,0,0,1-2.29,2.46,2.46,0,0,0-.93-2.11,4.85,4.85,0,0,0-2.89-.69H86.92Z" transform="translate(-28.29 -20.36)"/><path d="M102,59.86a4.63,4.63,0,0,1-1.91-.39,3.59,3.59,0,0,1-1.45-1.19h-.12a14.36,14.36,0,0,1,.12,1.78v4.4H97.06V49h1.32l.22,1.46h.08a3.77,3.77,0,0,1,1.46-1.27,4.41,4.41,0,0,1,1.9-.39,4,4,0,0,1,3.29,1.46,6.41,6.41,0,0,1,1.16,4.08,6.37,6.37,0,0,1-1.18,4.1A4,4,0,0,1,102,59.86Zm-.23-9.72a2.87,2.87,0,0,0-2.37.91,4.68,4.68,0,0,0-.75,2.89v.36a5.35,5.35,0,0,0,.75,3.23,2.86,2.86,0,0,0,2.41,1A2.51,2.51,0,0,0,104,57.38a5.32,5.32,0,0,0,.79-3.1,5.12,5.12,0,0,0-.79-3.07A2.59,2.59,0,0,0,101.8,50.14Z" transform="translate(-28.29 -20.36)"/><path d="M122,52.51a8.65,8.65,0,0,1-1.1,4.56,5.5,5.5,0,0,1-3.12,2.46l3.4,3.54h-2.41l-2.78-3.22-.54,0a6.17,6.17,0,0,1-4.87-1.93,7.92,7.92,0,0,1-1.71-5.44,7.82,7.82,0,0,1,1.72-5.41,6.22,6.22,0,0,1,4.88-1.92,6.08,6.08,0,0,1,4.8,2A7.85,7.85,0,0,1,122,52.51Zm-11.38,0a6.78,6.78,0,0,0,1.24,4.4,4.38,4.38,0,0,0,3.59,1.5A4.34,4.34,0,0,0,119,56.91a6.87,6.87,0,0,0,1.21-4.4A6.82,6.82,0,0,0,119,48.14a4.32,4.32,0,0,0-3.57-1.49,4.41,4.41,0,0,0-3.61,1.5A6.71,6.71,0,0,0,110.57,52.51Z" transform="translate(-28.29 -20.36)"/><path d="M128.69,59.86a3.91,3.91,0,0,1-3.23-1.46,6.35,6.35,0,0,1-1.16-4.06,6.43,6.43,0,0,1,1.17-4.1,4.31,4.31,0,0,1,6.64.19h.09l.23-1.46h1.28V64.47h-1.62V59.89a10.82,10.82,0,0,1,.11-1.66h-.13A3.83,3.83,0,0,1,128.69,59.86Zm.24-1.36a3,3,0,0,0,2.36-.87,4.71,4.71,0,0,0,.79-2.93v-.36a5.35,5.35,0,0,0-.76-3.23,2.86,2.86,0,0,0-2.41-1,2.48,2.48,0,0,0-2.18,1.11,5.51,5.51,0,0,0-.76,3.13,5.32,5.32,0,0,0,.75,3.08A2.53,2.53,0,0,0,128.93,58.5Z" transform="translate(-28.29 -20.36)"/><path d="M139.05,53.73v5.94h-1.66V45.39h3.92a6.16,6.16,0,0,1,3.88,1,3.65,3.65,0,0,1,1.25,3,3.79,3.79,0,0,1-2.87,3.83l3.88,6.42h-2L142,53.73Zm0-1.43h2.28a3.93,3.93,0,0,0,2.58-.7,2.6,2.6,0,0,0,.82-2.09,2.38,2.38,0,0,0-.83-2,4.52,4.52,0,0,0-2.68-.62h-2.16Z" transform="translate(-28.29 -20.36)"/><path d="M154.39,48.77a6.34,6.34,0,0,1,1.28.12l-.22,1.5a5.53,5.53,0,0,0-1.17-.15,2.85,2.85,0,0,0-2.22,1.05,3.85,3.85,0,0,0-.92,2.63v5.74h-1.62V49h1.34l.19,2h.08a4.7,4.7,0,0,1,1.44-1.61A3.23,3.23,0,0,1,154.39,48.77Z" transform="translate(-28.29 -20.36)"/><path d="M166,55.87a3.5,3.5,0,0,1-1.37,2.94,5.93,5.93,0,0,1-3.71,1.05,9.29,9.29,0,0,1-3.91-.65V57.6a10.35,10.35,0,0,0,1.91.59,10,10,0,0,0,2.05.21,4.14,4.14,0,0,0,2.5-.63,2.06,2.06,0,0,0,.84-1.75,2.25,2.25,0,0,0-.3-1.22,2.76,2.76,0,0,0-1-.87,14,14,0,0,0-2.12-.91A6.78,6.78,0,0,1,158,51.33a3.73,3.73,0,0,1-.85-2.55,3.17,3.17,0,0,1,1.24-2.63,5.15,5.15,0,0,1,3.28-1,9.67,9.67,0,0,1,3.92.78l-.52,1.45a8.84,8.84,0,0,0-3.44-.74,3.32,3.32,0,0,0-2.06.57,1.87,1.87,0,0,0-.74,1.57,2.41,2.41,0,0,0,.27,1.22,2.57,2.57,0,0,0,.92.87,11.46,11.46,0,0,0,2,.87,7.87,7.87,0,0,1,3.09,1.72A3.38,3.38,0,0,1,166,55.87Z" transform="translate(-28.29 -20.36)"/><path d="M175.55,56.74a2.68,2.68,0,0,1-1.11,2.3,5.23,5.23,0,0,1-3.12.81,6.8,6.8,0,0,1-3.32-.67v-1.5a8,8,0,0,0,1.66.62,6.93,6.93,0,0,0,1.7.22,3.86,3.86,0,0,0,2-.41,1.4,1.4,0,0,0,.14-2.3,8.51,8.51,0,0,0-2.11-1,11.49,11.49,0,0,1-2.12-1,2.9,2.9,0,0,1-.94-.94,2.46,2.46,0,0,1-.31-1.26A2.4,2.4,0,0,1,169,49.52a5,5,0,0,1,2.92-.76,8.54,8.54,0,0,1,3.38.7l-.58,1.32a7.76,7.76,0,0,0-2.92-.66,3.36,3.36,0,0,0-1.74.36,1.12,1.12,0,0,0-.59,1,1.21,1.21,0,0,0,.22.73,2.16,2.16,0,0,0,.71.58,15.81,15.81,0,0,0,1.88.79,7,7,0,0,1,2.57,1.4A2.46,2.46,0,0,1,175.55,56.74Z" transform="translate(-28.29 -20.36)"/><path d="M182.83,59.66h-1.66V46.86h-4.52V45.39h10.7v1.47h-4.52Z" transform="translate(-28.29 -20.36)"/><path d="M192.71,58.52a5.34,5.34,0,0,0,.83-.06,5.22,5.22,0,0,0,.63-.13v1.24a3,3,0,0,1-.78.21,5.79,5.79,0,0,1-.92.08q-3.11,0-3.11-3.27V50.22h-1.53v-.78l1.53-.67.68-2.29H191V49h3.11v1.26H191v6.3a2.16,2.16,0,0,0,.46,1.48A1.6,1.6,0,0,0,192.71,58.52Z" transform="translate(-28.29 -20.36)"/><path d="M207.34,45.39v9.24a5,5,0,0,1-1.47,3.84,5.66,5.66,0,0,1-4.05,1.4,5.41,5.41,0,0,1-4-1.41,5.22,5.22,0,0,1-1.41-3.87v-9.2h1.66V54.7a3.67,3.67,0,0,0,1,2.74,3.94,3.94,0,0,0,2.87,1,3.8,3.8,0,0,0,2.78-1,3.7,3.7,0,0,0,1-2.76v-9.3Z" transform="translate(-28.29 -20.36)"/><path d="M212.4,49V55.9a2.79,2.79,0,0,0,.6,2,2.43,2.43,0,0,0,1.87.64,3,3,0,0,0,2.46-.92,4.63,4.63,0,0,0,.78-3V49h1.62v10.7h-1.34l-.23-1.44h-.09a3.24,3.24,0,0,1-1.38,1.21,4.64,4.64,0,0,1-2,.42,4.09,4.09,0,0,1-2.92-.93,4,4,0,0,1-1-3V49Z" transform="translate(-28.29 -20.36)"/><path d="M231.55,45.39h1.79l-5.15,14.28h-1.64l-5.12-14.28h1.76l3.28,9.24a25.91,25.91,0,0,1,.9,3.1,25.77,25.77,0,0,1,.92-3.15Z" transform="translate(-28.29 -20.36)"/><path d="M237.4,59.66,233.34,49h1.74l2.3,6.35a30.07,30.07,0,0,1,.92,2.89h.08a21.77,21.77,0,0,1,.68-2.14q.57-1.63,2.56-7.09h1.74l-4.06,10.7Z" transform="translate(-28.29 -20.36)"/><path d="M257.78,59.66h-1.64l-2.88-9.56q-.21-.63-.46-1.6a9.49,9.49,0,0,1-.26-1.16,22.31,22.31,0,0,1-.68,2.82l-2.79,9.5h-1.64l-3.8-14.28h1.76l2.26,8.82a32.88,32.88,0,0,1,.68,3.36,24.31,24.31,0,0,1,.78-3.5l2.56-8.68h1.76l2.69,8.76a26.62,26.62,0,0,1,.79,3.42,29.41,29.41,0,0,1,.7-3.38l2.25-8.8h1.76Z" transform="translate(-28.29 -20.36)"/><path d="M272.33,59.66l-2-6.28q-.19-.58-.69-2.62h-.08q-.39,1.71-.68,2.64l-2,6.26H265L262.1,49h1.7l1.58,6.14a24.81,24.81,0,0,1,.62,2.84h.08q.11-.56.35-1.44t.42-1.4l2-6.14h1.76l1.91,6.14a20.74,20.74,0,0,1,.74,2.82h.08a10.35,10.35,0,0,1,.21-1.08q.17-.73,2-7.88h1.68l-3,10.7Z" transform="translate(-28.29 -20.36)"/><path d="M288.89,59.66H287l-3.84-6.28-3.91,6.28h-1.76l4.75-7.46-4.42-6.82h1.84L283.21,51l3.57-5.65h1.77l-4.42,6.76Z" transform="translate(-28.29 -20.36)"/><path d="M293.27,54.19,289.55,49h1.85l2.82,4.1L297,49h1.83l-3.72,5.22,3.92,5.48h-1.84l-3-4.34-3,4.34h-1.84Z" transform="translate(-28.29 -20.36)"/><path d="M305,52.53l3.81-7.14h1.8l-4.77,8.74v5.54h-1.68V54.21l-4.76-8.82h1.82Z" transform="translate(-28.29 -20.36)"/><path d="M310.67,49h1.74l2.34,6.1a23.25,23.25,0,0,1,1,3h.08q.13-.5.53-1.7T319,49h1.74l-4.6,12.19a6.09,6.09,0,0,1-1.6,2.56,3.39,3.39,0,0,1-2.24.76,6.54,6.54,0,0,1-1.46-.17V63a5.65,5.65,0,0,0,1.2.12,2.48,2.48,0,0,0,2.38-1.87l.6-1.52Z" transform="translate(-28.29 -20.36)"/><path d="M331.35,59.66h-9.81v-1.3l7.58-11.48h-7.34V45.39h9.37v1.3l-7.58,11.47h7.79Z" transform="translate(-28.29 -20.36)"/><path d="M340.71,59.66h-7.76v-1.1l5.84-8.34h-5.48V49h7.26v1.26L334.8,58.4h5.91Z" transform="translate(-28.29 -20.36)"/></svg>