<svg id="Layer_1" data-name="Layer 1" xmlns="http://www.w3.org/2000/svg" viewBox="0 0 293.99 151.85"><defs><style>.cls-1{opacity:0.2;}.cls-2{fill:#2baae2;}.cls-3{opacity:0.1;}.cls-4{fill:#c0282e;}.cls-5,.cls-6,.cls-7,.cls-8{fill:none;stroke-miterlimit:10;}.cls-5,.cls-6{stroke:#2baae2;stroke-width:0.25px;}.cls-6{stroke-dasharray:4.01 4.01;}.cls-7,.cls-8{stroke:#165c78;stroke-width:0.5px;}.cls-8{stroke-dasharray:1.06 1.06;}.cls-9{fill:#1d1d1b;}</style></defs><title>logo-comfort_area0</title><g class="cls-1"><rect class="cls-2" x="232.46" y="23.29" width="21.21" height="105.89"/></g><circle cx="51.64" cy="47.15" r="2.76"/><path d="M92.36,102.36h-.18a16.58,16.58,0,1,1,0-33.16h.18a2.76,2.76,0,1,0,0-5.53h-.18a22.1,22.1,0,0,0,0,44.21h.18a2.76,2.76,0,0,0,0-5.53Z" transform="translate(-49 -19.29)"/><path d="M92.36,83a2.76,2.76,0,1,0,0,5.53,16.58,16.58,0,0,1,0,33.16,2.76,2.76,0,1,0,0,5.53,22.1,22.1,0,0,0,0-44.21Z" transform="translate(-49 -19.29)"/><circle cx="34.98" cy="105.17" r="2.76"/><rect x="75.59" y="33.91" width="0.69" height="85.42"/><g class="cls-1"><rect class="cls-2" y="107.93" width="253.54" height="21.25"/></g><g class="cls-3"><rect class="cls-4" x="153.34" y="44.69" width="21.25" height="21.25"/></g><path class="cls-4" d="M215.46,76.57v.27h-2.13v-.27l.8-.09-1.25-1.8-1.31,1.8.75.09v.27h-1.87v-.27l.71-.09,1.55-2-1.51-2.09-.68-.07V72h2v.29l-.73.07L213,74.07l1.27-1.71-.77-.08V72h1.83v.29l-.64.07-1.49,2,1.56,2.15Z" transform="translate(-49 -19.29)"/><g class="cls-3"><rect class="cls-4" x="65.34" y="63.69" width="21.25" height="21.25"/></g><path class="cls-4" d="M127.46,95.57v.27h-2.13v-.27l.8-.09-1.25-1.8-1.31,1.8.75.09v.27h-1.87v-.27l.71-.09,1.55-2-1.51-2.09-.68-.07V91h2v.29l-.73.07L125,93.07l1.27-1.71-.77-.08V91h1.83v.29l-.64.07-1.49,2,1.56,2.15Z" transform="translate(-49 -19.29)"/><g class="cls-3"><rect class="cls-4" x="272.74" y="65.33" width="21.25" height="21.25"/></g><path class="cls-4" d="M334.86,97.21v.27h-2.13v-.27l.8-.09-1.25-1.8L331,97.12l.75.09v.27h-1.87v-.27l.71-.09,1.55-2L330.61,93l-.68-.07v-.29h2v.29l-.73.07,1.21,1.72L333.69,93l-.77-.08v-.29h1.83v.29l-.64.07-1.49,2,1.56,2.15Z" transform="translate(-49 -19.29)"/><g class="cls-3"><rect class="cls-4" x="190.99" y="86.45" width="21.25" height="21.25"/></g><path class="cls-4" d="M253.11,118.34v.27H251v-.27l.8-.09-1.25-1.8-1.31,1.8.75.09v.27h-1.87v-.27l.71-.09,1.55-2-1.51-2.09-.68-.07v-.29h2V114l-.73.07,1.21,1.72,1.27-1.71-.77-.08v-.29H253V114l-.64.07-1.49,2,1.56,2.15Z" transform="translate(-49 -19.29)"/><path class="cls-2" d="M174.45,139.67v.2h-1.59v-.2l.6-.07-.93-1.34-1,1.34.56.07v.2h-1.4v-.2l.53-.07,1.16-1.53-1.13-1.56-.51-.05v-.22h1.51v.22l-.54.05.91,1.29.95-1.28-.58-.06v-.22h1.37v.22l-.48.05L172.76,138l1.17,1.61Z" transform="translate(-49 -19.29)"/><g class="cls-1"><rect class="cls-2" y="23.29" width="253.67" height="21.25"/></g><path class="cls-2" d="M174.92,55.28v.2h-1.59v-.2l.6-.07L173,53.86l-1,1.34.56.07v.2h-1.4v-.2l.53-.07,1.16-1.53-1.13-1.56-.51-.05v-.22h1.51v.22l-.54.05.91,1.29.95-1.28-.58-.06v-.22h1.37v.22l-.48.05-1.12,1.48,1.17,1.61Z" transform="translate(-49 -19.29)"/><path class="cls-2" d="M293.94,96.63v.2h-1.59v-.2l.6-.07L292,95.21l-1,1.34.56.07v.2h-1.4v-.2l.53-.07L291.88,95l-1.13-1.56-.51-.05v-.22h1.51v.22l-.54.05.91,1.29.95-1.28-.58-.06v-.22h1.37v.22l-.48.05-1.12,1.48,1.17,1.61Z" transform="translate(-49 -19.29)"/><line class="cls-5" x1="93.72" y1="65.58" x2="95.72" y2="65.58"/><line class="cls-6" x1="99.73" y1="65.58" x2="289.98" y2="65.58"/><line class="cls-5" x1="291.99" y1="65.58" x2="293.99" y2="65.58"/><g class="cls-1"><rect class="cls-2" y="23.29" width="21.21" height="105.89"/></g><path class="cls-2" d="M61.48,96.63v.2H59.88v-.2l.6-.07-.93-1.34-1,1.34.56.07v.2h-1.4v-.2l.53-.07L59.42,95l-1.13-1.56-.51-.05v-.22h1.51v.22l-.54.05.91,1.29.95-1.28L60,93.41v-.22h1.37v.22l-.48.05-1.12,1.48L61,96.56Z" transform="translate(-49 -19.29)"/><line class="cls-5" x1="93.72" y1="86.83" x2="95.72" y2="86.83"/><line class="cls-6" x1="99.73" y1="86.83" x2="289.98" y2="86.83"/><line class="cls-5" x1="291.99" y1="86.83" x2="293.99" y2="86.83"/><g class="cls-3"><polyline class="cls-7" points="86.99 43.93 86.99 44.43 86.49 44.43"/><line class="cls-8" x1="85.43" y1="44.43" x2="77.5" y2="44.43"/><polyline class="cls-7" points="76.97 44.43 76.47 44.43 76.47 43.93"/><line class="cls-8" x1="76.47" y1="42.87" x2="76.47" y2="34.94"/><polyline class="cls-7" points="76.47 34.41 76.47 33.91 76.97 33.91"/><line class="cls-8" x1="78.03" y1="33.91" x2="85.96" y2="33.91"/><polyline class="cls-7" points="86.49 33.91 86.99 33.91 86.99 34.41"/><line class="cls-8" x1="86.99" y1="35.47" x2="86.99" y2="43.4"/></g><path class="cls-2" d="M128.33,58.1v.11h-1.2V58.1l.5-.06V56.38l-.45.06V56.3l.63-.16,0,0V58Zm-.66,1.49,2.43-3.49.11.09-2.43,3.49Zm3.11-.27v.23h-1.34v-.18l.58-.58a2,2,0,0,0,.31-.4.74.74,0,0,0,.1-.36.43.43,0,0,0-.11-.31.42.42,0,0,0-.32-.12l-.22,0-.08.21a.32.32,0,0,1-.06.14.11.11,0,0,1-.09,0,.15.15,0,0,1-.13-.09.5.5,0,0,1,.23-.34.79.79,0,0,1,.42-.11.61.61,0,0,1,.45.15.53.53,0,0,1,.15.38.68.68,0,0,1-.13.39,3.61,3.61,0,0,1-.4.46l-.48.46Z" transform="translate(-49 -19.29)"/><path class="cls-2" d="M133.73,59.42v.13h-1.05v-.13l.4,0-.62-.89-.65.89.37,0v.13h-.93v-.13l.35,0,.77-1-.74-1-.34,0v-.14h1v.14l-.36,0,.6.85.63-.85-.38,0v-.14h.91v.14l-.32,0-.74,1,.77,1.06Z" transform="translate(-49 -19.29)"/><g class="cls-3"><polyline class="cls-7" points="76.45 118.06 76.45 118.56 75.95 118.56"/><line class="cls-8" x1="74.89" y1="118.56" x2="66.96" y2="118.56"/><polyline class="cls-7" points="66.43 118.56 65.93 118.56 65.93 118.06"/><line class="cls-8" x1="65.93" y1="117" x2="65.93" y2="109.07"/><polyline class="cls-7" points="65.93 108.54 65.93 108.04 66.43 108.04"/><line class="cls-8" x1="67.49" y1="108.04" x2="75.42" y2="108.04"/><polyline class="cls-7" points="75.95 108.04 76.45 108.04 76.45 108.54"/><line class="cls-8" x1="76.45" y1="109.6" x2="76.45" y2="117.53"/></g><path class="cls-2" d="M117.79,132.22v.11h-1.2v-.11l.5-.06V130.5l-.45.06v-.13l.63-.16,0,0v1.87Zm-.66,1.49,2.43-3.49.11.09-2.43,3.49Zm3.11-.27v.23h-1.34v-.18l.58-.58a2,2,0,0,0,.31-.4.74.74,0,0,0,.1-.36.43.43,0,0,0-.11-.31.42.42,0,0,0-.32-.12l-.22,0-.08.21a.32.32,0,0,1-.06.14.11.11,0,0,1-.09,0,.15.15,0,0,1-.13-.09.5.5,0,0,1,.23-.34.79.79,0,0,1,.42-.11.61.61,0,0,1,.45.15.53.53,0,0,1,.15.38.68.68,0,0,1-.13.39,3.61,3.61,0,0,1-.4.46l-.48.46Z" transform="translate(-49 -19.29)"/><path class="cls-2" d="M123.19,133.54v.13h-1.05v-.13l.4,0-.62-.89-.65.89.37,0v.13h-.93v-.13l.35,0,.77-1-.74-1-.34,0v-.14h1v.14l-.36,0,.6.85.63-.85-.38,0v-.14h.91v.14l-.32,0-.74,1,.77,1.06Z" transform="translate(-49 -19.29)"/><g class="cls-3"><polyline class="cls-7" points="76.45 95.06 76.45 95.56 75.95 95.56"/><line class="cls-8" x1="74.89" y1="95.56" x2="66.96" y2="95.56"/><polyline class="cls-7" points="66.43 95.56 65.93 95.56 65.93 95.06"/><line class="cls-8" x1="65.93" y1="94" x2="65.93" y2="86.07"/><polyline class="cls-7" points="65.93 85.54 65.93 85.04 66.43 85.04"/><line class="cls-8" x1="67.49" y1="85.04" x2="75.42" y2="85.04"/><polyline class="cls-7" points="75.95 85.04 76.45 85.04 76.45 85.54"/><line class="cls-8" x1="76.45" y1="86.6" x2="76.45" y2="94.53"/></g><path class="cls-2" d="M117.79,109.22v.11h-1.2v-.11l.5-.06V107.5l-.45.06v-.13l.63-.16,0,0v1.87Zm-.66,1.49,2.43-3.49.11.09-2.43,3.49Zm3.11-.27v.23h-1.34v-.18l.58-.58a2,2,0,0,0,.31-.4.74.74,0,0,0,.1-.36.43.43,0,0,0-.11-.31.42.42,0,0,0-.32-.12l-.22,0-.08.21a.32.32,0,0,1-.06.14.11.11,0,0,1-.09,0,.15.15,0,0,1-.13-.09.5.5,0,0,1,.23-.34.79.79,0,0,1,.42-.11.61.61,0,0,1,.45.15.53.53,0,0,1,.15.38.68.68,0,0,1-.13.39,3.61,3.61,0,0,1-.4.46l-.48.46Z" transform="translate(-49 -19.29)"/><path class="cls-2" d="M123.19,110.54v.13h-1.05v-.13l.4,0-.62-.89-.65.89.37,0v.13h-.93v-.13l.35,0,.77-1-.74-1-.34,0v-.14h1v.14l-.36,0,.6.85.63-.85-.38,0v-.14h.91v.14l-.32,0-.74,1,.77,1.06Z" transform="translate(-49 -19.29)"/><g class="cls-3"><polyline class="cls-7" points="86.45 95.06 86.45 95.56 85.95 95.56"/><line class="cls-8" x1="84.89" y1="95.56" x2="76.96" y2="95.56"/><polyline class="cls-7" points="76.43 95.56 75.93 95.56 75.93 95.06"/><line class="cls-8" x1="75.93" y1="94" x2="75.93" y2="86.07"/><polyline class="cls-7" points="75.93 85.54 75.93 85.04 76.43 85.04"/><line class="cls-8" x1="77.49" y1="85.04" x2="85.42" y2="85.04"/><polyline class="cls-7" points="85.95 85.04 86.45 85.04 86.45 85.54"/><line class="cls-8" x1="86.45" y1="86.6" x2="86.45" y2="94.53"/></g><path class="cls-2" d="M127.79,109.22v.11h-1.2v-.11l.5-.06V107.5l-.45.06v-.13l.63-.16,0,0v1.87Zm-.66,1.49,2.43-3.49.11.09-2.43,3.49Zm3.11-.27v.23h-1.34v-.18l.58-.58a2,2,0,0,0,.31-.4.74.74,0,0,0,.1-.36.43.43,0,0,0-.11-.31.42.42,0,0,0-.32-.12l-.22,0-.08.21a.32.32,0,0,1-.06.14.11.11,0,0,1-.09,0,.15.15,0,0,1-.13-.09.5.5,0,0,1,.23-.34.79.79,0,0,1,.42-.11.61.61,0,0,1,.45.15.53.53,0,0,1,.15.38.68.68,0,0,1-.13.39,3.61,3.61,0,0,1-.4.46l-.48.46Z" transform="translate(-49 -19.29)"/><path class="cls-2" d="M133.19,110.54v.13h-1.05v-.13l.4,0-.62-.89-.65.89.37,0v.13h-.93v-.13l.35,0,.77-1-.74-1-.34,0v-.14h1v.14l-.36,0,.6.85.63-.85-.38,0v-.14h.91v.14l-.32,0-.74,1,.77,1.06Z" transform="translate(-49 -19.29)"/><line class="cls-5" x1="293.92" y1="35.32" x2="240.41" y2="35.32"/><polyline class="cls-5" points="21.33 15.01 21.33 9.27 21.45 9.27 66.34 9.27 66.34 15.01"/><polyline class="cls-5" points="232.46 15.01 232.46 9.27 86.76 9.27 86.76 15.01"/><path class="cls-9" d="M198.32,24.63a1,1,0,0,1-.4-.07.65.65,0,0,1-.26-.2.8.8,0,0,1-.13-.32,2,2,0,0,1,0-.41V21.49H197v-.23l.53,0,0-1h.26v1h1v.26h-1v2.16a1.55,1.55,0,0,0,0,.29.59.59,0,0,0,.09.22.42.42,0,0,0,.17.15.65.65,0,0,0,.28.05l.21,0,.2-.07.08.25-.29.09Z" transform="translate(-49 -19.29)"/><path class="cls-9" d="M199.44,26.06a.81.81,0,0,1-.34-.07l.07-.27.12,0,.15,0a.65.65,0,0,0,.52-.25,1.89,1.89,0,0,0,.33-.63l.09-.29L199,21.23h.33l.8,2.09.17.46q.09.25.19.47h0l.16-.47.15-.46.71-2.09h.31L200.55,25a3.18,3.18,0,0,1-.17.41,1.6,1.6,0,0,1-.24.35,1.1,1.1,0,0,1-.31.25A.84.84,0,0,1,199.44,26.06Z" transform="translate(-49 -19.29)"/><path class="cls-9" d="M202.58,26V21.23h.26l0,.41h0a3.37,3.37,0,0,1,.53-.35,1.26,1.26,0,0,1,.6-.15,1.15,1.15,0,0,1,1,.46,2.06,2.06,0,0,1,.33,1.23,2.24,2.24,0,0,1-.12.75,1.69,1.69,0,0,1-.32.56,1.39,1.39,0,0,1-.47.35,1.33,1.33,0,0,1-.56.12,1.22,1.22,0,0,1-.48-.11,2.63,2.63,0,0,1-.51-.3V26Zm1.29-1.69a1,1,0,0,0,.46-.11,1.07,1.07,0,0,0,.37-.31,1.53,1.53,0,0,0,.24-.48,2.07,2.07,0,0,0,.09-.62,2.61,2.61,0,0,0-.06-.57,1.36,1.36,0,0,0-.18-.45.87.87,0,0,0-.32-.3,1,1,0,0,0-.48-.11,1.09,1.09,0,0,0-.52.14,3.21,3.21,0,0,0-.57.4v2a2.11,2.11,0,0,0,.54.33A1.25,1.25,0,0,0,203.87,24.36Z" transform="translate(-49 -19.29)"/><path class="cls-9" d="M207.6,24.63a1.52,1.52,0,0,1-.6-.12,1.39,1.39,0,0,1-.49-.34,1.65,1.65,0,0,1-.33-.55,2.05,2.05,0,0,1-.12-.73,2.08,2.08,0,0,1,.12-.73,1.68,1.68,0,0,1,.32-.55,1.45,1.45,0,0,1,.46-.35,1.25,1.25,0,0,1,.54-.12,1.16,1.16,0,0,1,.93.4,1.71,1.71,0,0,1,.34,1.13v.12a.56.56,0,0,1,0,.12h-2.39a1.94,1.94,0,0,0,.1.58,1.37,1.37,0,0,0,.25.46,1.15,1.15,0,0,0,.39.3,1.18,1.18,0,0,0,.51.11,1.42,1.42,0,0,0,.49-.08,1.61,1.61,0,0,0,.4-.22l.12.23a4.09,4.09,0,0,1-.44.22A1.52,1.52,0,0,1,207.6,24.63Zm-1.22-1.95h2.11a1.47,1.47,0,0,0-.26-1,.88.88,0,0,0-.71-.31,1,1,0,0,0-.41.09,1.09,1.09,0,0,0-.35.25,1.36,1.36,0,0,0-.26.4A1.78,1.78,0,0,0,206.38,22.68Z" transform="translate(-49 -19.29)"/><path class="cls-9" d="M209.73,24.55V21.49h-.46v-.23l.46,0v-.74a1.12,1.12,0,0,1,.21-.75.76.76,0,0,1,.61-.25,1.16,1.16,0,0,1,.48.11l-.08.25a.77.77,0,0,0-.2-.08l-.2,0a.44.44,0,0,0-.39.19,1,1,0,0,0-.13.56v.72h.77v.26H210v3.05Z" transform="translate(-49 -19.29)"/><path class="cls-9" d="M212.08,24.63a1.22,1.22,0,0,1-.37-.06.89.89,0,0,1-.3-.17.77.77,0,0,1-.21-.28,1,1,0,0,1-.08-.41.91.91,0,0,1,.52-.84,4.56,4.56,0,0,1,1.63-.41,2.6,2.6,0,0,0,0-.38.9.9,0,0,0-.12-.34.72.72,0,0,0-.24-.24.76.76,0,0,0-.4-.09,1.4,1.4,0,0,0-.61.13,2.92,2.92,0,0,0-.45.26l-.14-.23.22-.14.29-.14.34-.11a1.65,1.65,0,0,1,.39,0,1.09,1.09,0,0,1,.49.1.87.87,0,0,1,.32.27,1.14,1.14,0,0,1,.18.4,2.19,2.19,0,0,1,.05.5v2.12h-.26l0-.43h0a3.64,3.64,0,0,1-.55.36A1.31,1.31,0,0,1,212.08,24.63Zm.06-.26a1.17,1.17,0,0,0,.55-.14,3.3,3.3,0,0,0,.57-.4V22.7a7,7,0,0,0-.86.15,2.23,2.23,0,0,0-.57.21.81.81,0,0,0-.31.28.68.68,0,0,0-.09.35.74.74,0,0,0,.06.3.53.53,0,0,0,.15.2.63.63,0,0,0,.22.12A1,1,0,0,0,212.14,24.37Z" transform="translate(-49 -19.29)"/><path class="cls-9" d="M216,24.63a1.5,1.5,0,0,1-.6-.12,1.39,1.39,0,0,1-.48-.34,1.57,1.57,0,0,1-.32-.54,2.2,2.2,0,0,1-.11-.74,2.07,2.07,0,0,1,.12-.74,1.64,1.64,0,0,1,.33-.55,1.42,1.42,0,0,1,.48-.34,1.44,1.44,0,0,1,.58-.12,1.19,1.19,0,0,1,.57.12,2,2,0,0,1,.4.28l-.18.21a1.52,1.52,0,0,0-.35-.25.93.93,0,0,0-.44-.1,1.06,1.06,0,0,0-.47.11,1.14,1.14,0,0,0-.38.3,1.47,1.47,0,0,0-.26.47,1.82,1.82,0,0,0-.09.6,1.94,1.94,0,0,0,.09.59,1.44,1.44,0,0,0,.24.46,1.08,1.08,0,0,0,.38.3,1.13,1.13,0,0,0,.49.11,1.09,1.09,0,0,0,.49-.11,1.68,1.68,0,0,0,.4-.27l.16.21a2.06,2.06,0,0,1-.48.31A1.34,1.34,0,0,1,216,24.63Z" transform="translate(-49 -19.29)"/><path class="cls-9" d="M219,24.63a1.53,1.53,0,0,1-.6-.12,1.39,1.39,0,0,1-.49-.34,1.64,1.64,0,0,1-.33-.55,2.05,2.05,0,0,1-.12-.73,2.08,2.08,0,0,1,.12-.73,1.65,1.65,0,0,1,.32-.55,1.45,1.45,0,0,1,.46-.35,1.26,1.26,0,0,1,.54-.12,1.16,1.16,0,0,1,.93.4,1.71,1.71,0,0,1,.34,1.13v.12a.57.57,0,0,1,0,.12h-2.39a1.91,1.91,0,0,0,.1.58,1.34,1.34,0,0,0,.25.46,1.15,1.15,0,0,0,.39.3,1.19,1.19,0,0,0,.51.11,1.42,1.42,0,0,0,.49-.08,1.6,1.6,0,0,0,.4-.22l.12.23a4.25,4.25,0,0,1-.44.22A1.53,1.53,0,0,1,219,24.63Zm-1.22-1.95h2.11a1.47,1.47,0,0,0-.26-1,.88.88,0,0,0-.71-.31,1,1,0,0,0-.41.09,1.07,1.07,0,0,0-.35.25,1.38,1.38,0,0,0-.26.4A1.78,1.78,0,0,0,217.77,22.68Z" transform="translate(-49 -19.29)"/><path class="cls-9" d="M83.41,25.86a1.75,1.75,0,0,1-1-.25.77.77,0,0,1-.37-.67.79.79,0,0,1,.13-.43,1.38,1.38,0,0,1,.36-.37v0a.65.65,0,0,1-.21-.21.6.6,0,0,1-.08-.32.59.59,0,0,1,.12-.38,1.16,1.16,0,0,1,.24-.23v0a1.33,1.33,0,0,1-.29-.37,1.11,1.11,0,0,1-.13-.54,1.2,1.2,0,0,1,.09-.47,1.11,1.11,0,0,1,.25-.37,1.14,1.14,0,0,1,.37-.24,1.2,1.2,0,0,1,.46-.09l.25,0,.19.06h1.13v.26h-.77a1.09,1.09,0,0,1,.26.36,1.1,1.1,0,0,1,.1.48,1.2,1.2,0,0,1-.09.47,1.14,1.14,0,0,1-.25.37,1.09,1.09,0,0,1-.37.24,1.17,1.17,0,0,1-.45.09,1.25,1.25,0,0,1-.29,0,.94.94,0,0,1-.27-.1,1.05,1.05,0,0,0-.19.2.46.46,0,0,0-.08.28.41.41,0,0,0,.13.31.73.73,0,0,0,.5.13h.71a1.48,1.48,0,0,1,.83.18.65.65,0,0,1,.27.58.87.87,0,0,1-.11.42,1.14,1.14,0,0,1-.31.36,1.65,1.65,0,0,1-.49.25A2.12,2.12,0,0,1,83.41,25.86Zm0-.25a1.65,1.65,0,0,0,.5-.07,1.33,1.33,0,0,0,.39-.19.91.91,0,0,0,.25-.27.61.61,0,0,0,.09-.31.41.41,0,0,0-.2-.39,1.15,1.15,0,0,0-.57-.11H83l-.25,0a1.09,1.09,0,0,0-.33.34.71.71,0,0,0-.1.36.59.59,0,0,0,.29.5A1.46,1.46,0,0,0,83.44,25.61ZM83.36,23a.83.83,0,0,0,.33-.07.8.8,0,0,0,.27-.19.94.94,0,0,0,.19-.3,1.08,1.08,0,0,0,0-.76.89.89,0,0,0-.18-.29.81.81,0,0,0-.27-.18.88.88,0,0,0-.67,0,.84.84,0,0,0-.46.47,1.09,1.09,0,0,0,0,.76.89.89,0,0,0,.19.3.84.84,0,0,0,.6.26Z" transform="translate(-49 -19.29)"/><path class="cls-9" d="M85.69,24.26V20.94H86l0,.61h0a1.62,1.62,0,0,1,.4-.5.83.83,0,0,1,.54-.19h.17l.16.06-.07.28-.15,0H86.9a.77.77,0,0,0-.47.19A1.58,1.58,0,0,0,86,22v2.26Z" transform="translate(-49 -19.29)"/><path class="cls-9" d="M88.46,24.34a1.23,1.23,0,0,1-.37-.06.89.89,0,0,1-.3-.17.76.76,0,0,1-.21-.28,1,1,0,0,1-.08-.41.91.91,0,0,1,.51-.84,4.56,4.56,0,0,1,1.63-.41,2.73,2.73,0,0,0,0-.38.9.9,0,0,0-.12-.34.72.72,0,0,0-.24-.24.76.76,0,0,0-.4-.09,1.4,1.4,0,0,0-.61.13,2.94,2.94,0,0,0-.45.26l-.14-.23.22-.14.29-.14.35-.11a1.64,1.64,0,0,1,.39,0,1.08,1.08,0,0,1,.49.1.87.87,0,0,1,.32.27,1.11,1.11,0,0,1,.18.4,2.14,2.14,0,0,1,.06.5v2.12h-.26l0-.43h0a3.68,3.68,0,0,1-.55.36A1.31,1.31,0,0,1,88.46,24.34Zm.05-.26a1.17,1.17,0,0,0,.55-.14,3.24,3.24,0,0,0,.57-.4V22.42a7,7,0,0,0-.86.15,2.24,2.24,0,0,0-.57.21.82.82,0,0,0-.31.28.68.68,0,0,0-.09.35.74.74,0,0,0,.05.3.55.55,0,0,0,.15.2.63.63,0,0,0,.23.12A1,1,0,0,0,88.52,24.08Z" transform="translate(-49 -19.29)"/><path class="cls-9" d="M91.13,25.76V20.94h.26l0,.41h0A3.34,3.34,0,0,1,92,21a1.25,1.25,0,0,1,.6-.15,1.15,1.15,0,0,1,1,.46,2.07,2.07,0,0,1,.33,1.23,2.24,2.24,0,0,1-.12.75,1.7,1.7,0,0,1-.32.56,1.39,1.39,0,0,1-.47.35,1.33,1.33,0,0,1-.56.12,1.22,1.22,0,0,1-.48-.11,2.6,2.6,0,0,1-.51-.3v1.82Zm1.29-1.69a1,1,0,0,0,.46-.11,1.07,1.07,0,0,0,.37-.31,1.55,1.55,0,0,0,.24-.48,2.1,2.1,0,0,0,.09-.62,2.62,2.62,0,0,0-.06-.57,1.36,1.36,0,0,0-.18-.45.87.87,0,0,0-.32-.3,1,1,0,0,0-.48-.11,1.09,1.09,0,0,0-.51.14,3.15,3.15,0,0,0-.57.4v2A2.08,2.08,0,0,0,92,24,1.24,1.24,0,0,0,92.41,24.07Z" transform="translate(-49 -19.29)"/><path class="cls-9" d="M94.89,24.26v-5h.3v2.17a3.11,3.11,0,0,1,.53-.43,1.13,1.13,0,0,1,.61-.17.9.9,0,0,1,.76.31,1.56,1.56,0,0,1,.24,1v2.13H97V22.17a1.39,1.39,0,0,0-.18-.78.66.66,0,0,0-.58-.25,1,1,0,0,0-.54.16,3.28,3.28,0,0,0-.55.47v2.5Z" transform="translate(-49 -19.29)"/><path class="cls-9" d="M98.69,20.14a.28.28,0,0,1-.2-.08.26.26,0,0,1-.08-.19.26.26,0,0,1,.08-.2.3.3,0,0,1,.39,0,.26.26,0,0,1,.08.2.26.26,0,0,1-.08.19A.27.27,0,0,1,98.69,20.14Zm-.16,4.12V20.94h.3v3.32Z" transform="translate(-49 -19.29)"/><path class="cls-9" d="M101.35,24.34a1.5,1.5,0,0,1-.6-.12,1.38,1.38,0,0,1-.48-.34,1.55,1.55,0,0,1-.32-.54,2.2,2.2,0,0,1-.11-.74,2.09,2.09,0,0,1,.12-.74,1.65,1.65,0,0,1,.33-.55,1.42,1.42,0,0,1,.48-.34,1.44,1.44,0,0,1,.58-.12,1.19,1.19,0,0,1,.57.12,2,2,0,0,1,.4.28l-.18.21a1.52,1.52,0,0,0-.35-.25.93.93,0,0,0-.44-.1,1.06,1.06,0,0,0-.47.11,1.15,1.15,0,0,0-.38.3,1.5,1.5,0,0,0-.26.47,1.82,1.82,0,0,0-.09.6,1.94,1.94,0,0,0,.09.59,1.42,1.42,0,0,0,.24.46,1.08,1.08,0,0,0,.38.3,1.14,1.14,0,0,0,.49.11,1.09,1.09,0,0,0,.49-.11,1.68,1.68,0,0,0,.4-.27l.16.21a2.08,2.08,0,0,1-.48.31A1.34,1.34,0,0,1,101.35,24.34Z" transform="translate(-49 -19.29)"/><path class="cls-9" d="M313.33,52.56a1.5,1.5,0,0,1-.6-.12,1.38,1.38,0,0,1-.48-.34,1.56,1.56,0,0,1-.32-.54,2.2,2.2,0,0,1-.11-.74,2.07,2.07,0,0,1,.12-.74,1.64,1.64,0,0,1,.33-.55,1.42,1.42,0,0,1,.48-.34,1.44,1.44,0,0,1,.58-.12,1.19,1.19,0,0,1,.57.12,2,2,0,0,1,.4.28l-.18.21a1.54,1.54,0,0,0-.35-.25.93.93,0,0,0-.44-.1,1.06,1.06,0,0,0-.47.11,1.14,1.14,0,0,0-.38.3,1.48,1.48,0,0,0-.26.47,1.82,1.82,0,0,0-.09.6,1.94,1.94,0,0,0,.09.59,1.42,1.42,0,0,0,.24.46,1.07,1.07,0,0,0,.38.3,1.13,1.13,0,0,0,.49.11,1.09,1.09,0,0,0,.49-.11,1.68,1.68,0,0,0,.4-.27l.16.21a2.06,2.06,0,0,1-.48.31A1.35,1.35,0,0,1,313.33,52.56Z" transform="translate(-49 -19.29)"/><path class="cls-9" d="M315.6,52.56q-.41,0-.41-.53V47.51h.3v4.57a.26.26,0,0,0,0,.16.13.13,0,0,0,.1.05h.12l.05.25-.1,0Z" transform="translate(-49 -19.29)"/><path class="cls-9" d="M318.09,52.56a1.52,1.52,0,0,1-.6-.12,1.39,1.39,0,0,1-.49-.34,1.66,1.66,0,0,1-.33-.55,2.05,2.05,0,0,1-.12-.73,2.08,2.08,0,0,1,.12-.73,1.67,1.67,0,0,1,.33-.55,1.44,1.44,0,0,1,.46-.35,1.25,1.25,0,0,1,.54-.12,1.16,1.16,0,0,1,.93.4,1.71,1.71,0,0,1,.34,1.13v.12a.56.56,0,0,1,0,.12h-2.39a1.94,1.94,0,0,0,.1.58,1.36,1.36,0,0,0,.25.46,1.15,1.15,0,0,0,.39.3,1.18,1.18,0,0,0,.51.11,1.42,1.42,0,0,0,.49-.08A1.6,1.6,0,0,0,319,52l.12.23a4.09,4.09,0,0,1-.44.22A1.52,1.52,0,0,1,318.09,52.56Zm-1.22-1.95H319a1.47,1.47,0,0,0-.26-1,.88.88,0,0,0-.71-.31,1,1,0,0,0-.41.09,1.09,1.09,0,0,0-.35.25,1.38,1.38,0,0,0-.26.4A1.78,1.78,0,0,0,316.87,50.61Z" transform="translate(-49 -19.29)"/><path class="cls-9" d="M320.79,52.56a1.22,1.22,0,0,1-.37-.06.89.89,0,0,1-.3-.17.76.76,0,0,1-.21-.28,1,1,0,0,1-.08-.41.91.91,0,0,1,.51-.84A4.56,4.56,0,0,1,322,50.4a2.6,2.6,0,0,0,0-.38.9.9,0,0,0-.12-.34.72.72,0,0,0-.24-.24.76.76,0,0,0-.4-.09,1.4,1.4,0,0,0-.61.13,2.92,2.92,0,0,0-.45.26l-.14-.23.22-.14.29-.14.35-.11a1.64,1.64,0,0,1,.39,0,1.08,1.08,0,0,1,.49.1.87.87,0,0,1,.32.27,1.13,1.13,0,0,1,.18.4,2.14,2.14,0,0,1,.06.5v2.12H322l0-.43h0a3.68,3.68,0,0,1-.55.36A1.32,1.32,0,0,1,320.79,52.56Zm.06-.26a1.17,1.17,0,0,0,.55-.14,3.27,3.27,0,0,0,.57-.4V50.63a7,7,0,0,0-.86.15,2.21,2.21,0,0,0-.57.21.81.81,0,0,0-.31.28.68.68,0,0,0-.09.35.74.74,0,0,0,.06.3.55.55,0,0,0,.15.2.63.63,0,0,0,.22.12A1,1,0,0,0,320.85,52.3Z" transform="translate(-49 -19.29)"/><path class="cls-9" d="M323.46,52.48V49.16h.26l0,.61h0a1.61,1.61,0,0,1,.4-.5.83.83,0,0,1,.54-.19h.17l.16.06-.07.28-.15,0h-.16a.77.77,0,0,0-.47.19,1.58,1.58,0,0,0-.44.66v2.26Z" transform="translate(-49 -19.29)"/><path class="cls-9" d="M327.83,52.56a1.7,1.7,0,0,1-.68-.13,2.16,2.16,0,0,1-.53-.32l.18-.23a2.32,2.32,0,0,0,.46.3,1.34,1.34,0,0,0,.6.12.8.8,0,0,0,.59-.2.63.63,0,0,0,.2-.46.5.5,0,0,0-.07-.27.69.69,0,0,0-.19-.2,1.54,1.54,0,0,0-.26-.15l-.29-.12-.38-.15a1.67,1.67,0,0,1-.34-.18.9.9,0,0,1-.24-.26.67.67,0,0,1-.09-.36.86.86,0,0,1,.07-.34.8.8,0,0,1,.21-.28,1,1,0,0,1,.34-.19,1.39,1.39,0,0,1,.46-.07,1.43,1.43,0,0,1,.51.1,1.5,1.5,0,0,1,.43.25l-.17.21a1.94,1.94,0,0,0-.35-.21,1,1,0,0,0-.44-.09,1,1,0,0,0-.33.05.72.72,0,0,0-.23.13.51.51,0,0,0-.14.19.59.59,0,0,0,0,.22.44.44,0,0,0,.07.25.64.64,0,0,0,.18.18,1.38,1.38,0,0,0,.25.13l.29.11.39.15a1.64,1.64,0,0,1,.35.19.91.91,0,0,1,.25.27.78.78,0,0,1,.1.4.9.9,0,0,1-.07.36.84.84,0,0,1-.22.3,1.1,1.1,0,0,1-.35.2A1.38,1.38,0,0,1,327.83,52.56Z" transform="translate(-49 -19.29)"/><path class="cls-9" d="M329.83,54V49.16h.26l0,.41h0a3.38,3.38,0,0,1,.53-.35,1.26,1.26,0,0,1,.6-.15,1.15,1.15,0,0,1,1,.46,2.06,2.06,0,0,1,.33,1.23,2.24,2.24,0,0,1-.12.75,1.69,1.69,0,0,1-.32.56,1.38,1.38,0,0,1-.47.35,1.33,1.33,0,0,1-.56.12,1.22,1.22,0,0,1-.48-.11,2.65,2.65,0,0,1-.51-.3V54Zm1.29-1.69a1,1,0,0,0,.46-.11,1.06,1.06,0,0,0,.37-.31,1.55,1.55,0,0,0,.24-.48,2.07,2.07,0,0,0,.09-.62,2.61,2.61,0,0,0-.06-.57,1.34,1.34,0,0,0-.18-.45.87.87,0,0,0-.32-.3,1,1,0,0,0-.48-.11,1.09,1.09,0,0,0-.51.14,3.18,3.18,0,0,0-.57.4v2a2.09,2.09,0,0,0,.54.33A1.24,1.24,0,0,0,331.12,52.29Z" transform="translate(-49 -19.29)"/><path class="cls-9" d="M334.21,52.56a1.22,1.22,0,0,1-.37-.06.88.88,0,0,1-.3-.17.77.77,0,0,1-.21-.28,1,1,0,0,1-.08-.41.91.91,0,0,1,.52-.84,4.56,4.56,0,0,1,1.63-.41,2.6,2.6,0,0,0,0-.38.88.88,0,0,0-.12-.34.71.71,0,0,0-.24-.24.76.76,0,0,0-.4-.09,1.4,1.4,0,0,0-.61.13,2.92,2.92,0,0,0-.45.26l-.14-.23.22-.14a1.89,1.89,0,0,1,.29-.14l.34-.11a1.65,1.65,0,0,1,.39,0,1.09,1.09,0,0,1,.49.1.87.87,0,0,1,.32.27,1.13,1.13,0,0,1,.18.4,2.19,2.19,0,0,1,.05.5v2.12h-.26l0-.43h0a3.63,3.63,0,0,1-.55.36A1.31,1.31,0,0,1,334.21,52.56Zm.06-.26a1.17,1.17,0,0,0,.55-.14,3.24,3.24,0,0,0,.57-.4V50.63a7,7,0,0,0-.86.15A2.24,2.24,0,0,0,334,51a.82.82,0,0,0-.31.28.68.68,0,0,0-.09.35.74.74,0,0,0,.06.3.53.53,0,0,0,.15.2.62.62,0,0,0,.22.12A1,1,0,0,0,334.27,52.3Z" transform="translate(-49 -19.29)"/><path class="cls-9" d="M338.11,52.56a1.5,1.5,0,0,1-.6-.12,1.39,1.39,0,0,1-.48-.34,1.57,1.57,0,0,1-.32-.54,2.2,2.2,0,0,1-.11-.74,2.07,2.07,0,0,1,.12-.74,1.65,1.65,0,0,1,.33-.55,1.42,1.42,0,0,1,.48-.34,1.44,1.44,0,0,1,.58-.12,1.19,1.19,0,0,1,.57.12,2,2,0,0,1,.4.28l-.18.21a1.52,1.52,0,0,0-.35-.25.92.92,0,0,0-.44-.1,1.06,1.06,0,0,0-.47.11,1.15,1.15,0,0,0-.38.3,1.48,1.48,0,0,0-.25.47,1.82,1.82,0,0,0-.09.6,1.94,1.94,0,0,0,.09.59,1.44,1.44,0,0,0,.24.46,1.08,1.08,0,0,0,.38.3,1.14,1.14,0,0,0,.49.11,1.09,1.09,0,0,0,.49-.11,1.68,1.68,0,0,0,.4-.27l.16.21a2.06,2.06,0,0,1-.48.31A1.34,1.34,0,0,1,338.11,52.56Z" transform="translate(-49 -19.29)"/><path class="cls-9" d="M341.12,52.56a1.52,1.52,0,0,1-.6-.12,1.39,1.39,0,0,1-.49-.34,1.66,1.66,0,0,1-.33-.55,2.05,2.05,0,0,1-.12-.73,2.08,2.08,0,0,1,.12-.73,1.67,1.67,0,0,1,.33-.55,1.44,1.44,0,0,1,.46-.35,1.25,1.25,0,0,1,.54-.12,1.16,1.16,0,0,1,.93.4,1.71,1.71,0,0,1,.34,1.13v.12a.56.56,0,0,1,0,.12H339.9a1.94,1.94,0,0,0,.1.58,1.36,1.36,0,0,0,.25.46,1.15,1.15,0,0,0,.39.3,1.18,1.18,0,0,0,.51.11,1.42,1.42,0,0,0,.49-.08A1.6,1.6,0,0,0,342,52l.12.23a4.09,4.09,0,0,1-.44.22A1.52,1.52,0,0,1,341.12,52.56Zm-1.22-1.95H342a1.47,1.47,0,0,0-.26-1,.88.88,0,0,0-.71-.31,1,1,0,0,0-.41.09,1.09,1.09,0,0,0-.35.25,1.38,1.38,0,0,0-.26.4A1.78,1.78,0,0,0,339.9,50.61Z" transform="translate(-49 -19.29)"/><path class="cls-9" d="M139.44,161.22v-4.55h2.48v.28h-2.16v1.81h1.83V159h-1.83v2.19Z" transform="translate(-49 -19.29)"/><path class="cls-9" d="M143.83,161.3a1.4,1.4,0,0,1-1-.46,1.65,1.65,0,0,1-.32-.54,2.07,2.07,0,0,1-.12-.74,2.13,2.13,0,0,1,.12-.74,1.64,1.64,0,0,1,.32-.55,1.41,1.41,0,0,1,1-.46,1.43,1.43,0,0,1,.57.12,1.38,1.38,0,0,1,.48.34,1.63,1.63,0,0,1,.32.55,2.13,2.13,0,0,1,.12.74,2.07,2.07,0,0,1-.12.74,1.63,1.63,0,0,1-.32.54,1.38,1.38,0,0,1-.48.34A1.43,1.43,0,0,1,143.83,161.3Zm0-.27a1,1,0,0,0,.47-.11,1.1,1.1,0,0,0,.37-.3,1.48,1.48,0,0,0,.25-.46,1.87,1.87,0,0,0,.09-.59,1.89,1.89,0,0,0-.09-.6,1.52,1.52,0,0,0-.25-.47,1.08,1.08,0,0,0-.37-.3,1,1,0,0,0-.47-.11,1,1,0,0,0-.46.11,1.09,1.09,0,0,0-.37.3,1.52,1.52,0,0,0-.25.47,1.89,1.89,0,0,0-.09.6,1.87,1.87,0,0,0,.09.59,1.48,1.48,0,0,0,.25.46,1.11,1.11,0,0,0,.37.3A1,1,0,0,0,143.83,161Z" transform="translate(-49 -19.29)"/><path class="cls-9" d="M146.32,161.22V157.9h.26l0,.51h0a3,3,0,0,1,.52-.43,1.13,1.13,0,0,1,.61-.17.9.9,0,0,1,.76.31,1.56,1.56,0,0,1,.24,1v2.13h-.3v-2.09a1.39,1.39,0,0,0-.18-.78.66.66,0,0,0-.58-.25,1,1,0,0,0-.54.16,3.28,3.28,0,0,0-.55.47v2.5Z" transform="translate(-49 -19.29)"/><path class="cls-9" d="M150.9,161.3a1,1,0,0,1-.4-.07.64.64,0,0,1-.26-.2.79.79,0,0,1-.13-.32,2,2,0,0,1,0-.41v-2.14h-.52v-.23l.52,0,0-1h.26v1h1v.26h-1v2.16a1.56,1.56,0,0,0,0,.29.59.59,0,0,0,.09.22.42.42,0,0,0,.17.15.65.65,0,0,0,.28.05l.21,0,.2-.07.08.25-.29.09Z" transform="translate(-49 -19.29)"/><path class="cls-9" d="M153.58,161.22v-3.05h-.46v-.23l.46,0v-.74a1.12,1.12,0,0,1,.21-.75.76.76,0,0,1,.61-.25,1.16,1.16,0,0,1,.48.11l-.08.25a.78.78,0,0,0-.2-.08l-.2,0a.44.44,0,0,0-.39.19,1,1,0,0,0-.13.56v.72h.77v.26h-.77v3.05Z" transform="translate(-49 -19.29)"/><path class="cls-9" d="M155.94,161.3a1.23,1.23,0,0,1-.37-.06.89.89,0,0,1-.3-.17.76.76,0,0,1-.21-.28,1,1,0,0,1-.08-.41.91.91,0,0,1,.51-.84,4.56,4.56,0,0,1,1.63-.41,2.73,2.73,0,0,0,0-.38.9.9,0,0,0-.12-.34.72.72,0,0,0-.24-.24.76.76,0,0,0-.4-.09,1.4,1.4,0,0,0-.61.13,2.94,2.94,0,0,0-.45.26l-.14-.23.22-.14.29-.14.35-.11a1.64,1.64,0,0,1,.39,0,1.08,1.08,0,0,1,.49.1.87.87,0,0,1,.32.27,1.11,1.11,0,0,1,.18.4,2.14,2.14,0,0,1,.06.5v2.12h-.26l0-.43h0a3.68,3.68,0,0,1-.55.36A1.31,1.31,0,0,1,155.94,161.3ZM156,161a1.17,1.17,0,0,0,.55-.14,3.24,3.24,0,0,0,.57-.4v-1.13a7,7,0,0,0-.86.15,2.24,2.24,0,0,0-.57.21.82.82,0,0,0-.31.28.68.68,0,0,0-.09.35.74.74,0,0,0,.05.3.55.55,0,0,0,.15.2.63.63,0,0,0,.23.12A1,1,0,0,0,156,161Z" transform="translate(-49 -19.29)"/><path class="cls-9" d="M158.61,161.22V157.9h.26l0,.51h0a2.16,2.16,0,0,1,.49-.43,1,1,0,0,1,.55-.17.92.92,0,0,1,.61.18,1,1,0,0,1,.3.49,3.29,3.29,0,0,1,.56-.49,1,1,0,0,1,.56-.18q1,0,1,1.27v2.13h-.31v-2.09a1.37,1.37,0,0,0-.18-.78.64.64,0,0,0-.56-.25,1.46,1.46,0,0,0-1,.62v2.5h-.3v-2.09a1.37,1.37,0,0,0-.18-.78.65.65,0,0,0-.57-.25,1.46,1.46,0,0,0-1,.62v2.5Z" transform="translate(-49 -19.29)"/><path class="cls-9" d="M164.38,157.1a.28.28,0,0,1-.2-.08.26.26,0,0,1-.08-.19.26.26,0,0,1,.08-.2.3.3,0,0,1,.39,0,.26.26,0,0,1,.08.2.26.26,0,0,1-.08.19A.27.27,0,0,1,164.38,157.1Zm-.16,4.12V157.9h.3v3.32Z" transform="translate(-49 -19.29)"/><path class="cls-9" d="M166.21,161.3q-.41,0-.41-.53v-4.53h.3v4.57a.26.26,0,0,0,0,.16.13.13,0,0,0,.1.05h.12l.06.25-.1,0Z" transform="translate(-49 -19.29)"/><path class="cls-9" d="M167.31,162.73a.81.81,0,0,1-.34-.07l.07-.27.12,0,.15,0a.65.65,0,0,0,.52-.25,1.89,1.89,0,0,0,.33-.63l.09-.29-1.36-3.38h.33L168,160l.17.46q.09.25.19.47h0l.16-.47.15-.46.71-2.09h.31l-1.31,3.73a3.18,3.18,0,0,1-.17.41,1.6,1.6,0,0,1-.24.35,1.1,1.1,0,0,1-.31.25A.84.84,0,0,1,167.31,162.73Z" transform="translate(-49 -19.29)"/><path class="cls-9" d="M141.21,164.83a2.17,2.17,0,0,1,.8.15,2,2,0,0,1,.69.45,2.19,2.19,0,0,1,.48.75,2.83,2.83,0,0,1,.18,1,2.78,2.78,0,0,1-.18,1,2.23,2.23,0,0,1-.48.76,2,2,0,0,1-.69.46,2.09,2.09,0,0,1-.8.16,2.2,2.2,0,0,1-.8-.15,2,2,0,0,1-.69-.46,2.25,2.25,0,0,1-.48-.75,2.82,2.82,0,0,1-.18-1.05,2.76,2.76,0,0,1,.18-1,2.28,2.28,0,0,1,.48-.76,2,2,0,0,1,.69-.46A2.15,2.15,0,0,1,141.21,164.83Zm-1.18,2.4a4.43,4.43,0,0,0,.07.78,2.26,2.26,0,0,0,.21.65,1.28,1.28,0,0,0,.37.45.88.88,0,0,0,.54.17.86.86,0,0,0,.53-.17,1.25,1.25,0,0,0,.36-.45,2.34,2.34,0,0,0,.21-.65,4.69,4.69,0,0,0,0-1.55,2.34,2.34,0,0,0-.21-.65,1.25,1.25,0,0,0-.36-.45.86.86,0,0,0-.53-.17.88.88,0,0,0-.54.17,1.28,1.28,0,0,0-.37.45,2.26,2.26,0,0,0-.21.65A4.44,4.44,0,0,0,140,167.24Z" transform="translate(-49 -19.29)"/><path class="cls-9" d="M145.13,166.6a1.38,1.38,0,0,1,1-.5,1.19,1.19,0,0,1,.52.12,1.22,1.22,0,0,1,.43.34,1.66,1.66,0,0,1,.28.55,2.43,2.43,0,0,1,.1.74,2.24,2.24,0,0,1-.11.74,1.73,1.73,0,0,1-.31.56,1.42,1.42,0,0,1-.46.36,1.26,1.26,0,0,1-.56.13,1.13,1.13,0,0,1-.9-.41v.42q0,.26,0,.54t0,.57l.54.1v.28h-1.85v-.28l.47-.09q0-.3,0-.58c0-.19,0-.37,0-.54v-2.19c0-.07,0-.14,0-.2s0-.13,0-.19,0-.12,0-.19l-.48-.06v-.26l1.15-.44.11.07Zm0,2.28a.89.89,0,0,0,.61.27.71.71,0,0,0,.58-.31,1.57,1.57,0,0,0,.24-1,1.74,1.74,0,0,0-.21-1,.65.65,0,0,0-.56-.32.7.7,0,0,0-.32.08,2.22,2.22,0,0,0-.34.22Z" transform="translate(-49 -19.29)"/><path class="cls-9" d="M148.93,167.88a1.36,1.36,0,0,0,.31.9,1,1,0,0,0,.72.3,1,1,0,0,0,.52-.12,1.51,1.51,0,0,0,.38-.31l.2.18a1.45,1.45,0,0,1-.55.59,1.6,1.6,0,0,1-.84.21,1.75,1.75,0,0,1-.66-.12,1.49,1.49,0,0,1-.51-.35,1.52,1.52,0,0,1-.34-.55,2.14,2.14,0,0,1-.12-.73,1.86,1.86,0,0,1,.14-.74,1.78,1.78,0,0,1,.37-.56,1.62,1.62,0,0,1,.54-.36,1.67,1.67,0,0,1,.64-.12,1.47,1.47,0,0,1,.55.1,1.22,1.22,0,0,1,.71.73,1.63,1.63,0,0,1,.1.57,1.44,1.44,0,0,1,0,.21,1.37,1.37,0,0,1,0,.17Zm.95-.33a.42.42,0,0,0,.33-.1.45.45,0,0,0,.08-.29.74.74,0,0,0-.18-.51.57.57,0,0,0-.44-.2.58.58,0,0,0-.25.06.66.66,0,0,0-.23.19,1.06,1.06,0,0,0-.17.34,2.17,2.17,0,0,0-.09.52Z" transform="translate(-49 -19.29)"/><path class="cls-9" d="M155.38,169.25v.28h-1.71v-.28l.44-.09q0-.26,0-.55v-1.2a1,1,0,0,0-.11-.57.42.42,0,0,0-.37-.16,1.19,1.19,0,0,0-.77.35v1.58q0,.3,0,.56l.41.08v.28h-1.71v-.28l.45-.09q0-.26,0-.56v-1.15c0-.07,0-.14,0-.2s0-.13,0-.19,0-.12,0-.19l-.48-.06v-.26l1.15-.44.11.08,0,.53a1.56,1.56,0,0,1,1.17-.61.85.85,0,0,1,.7.29,1.48,1.48,0,0,1,.24.94v1.27q0,.3,0,.55Z" transform="translate(-49 -19.29)"/><path class="cls-9" d="M159.25,166.86a3.87,3.87,0,0,1,.57.28,1.74,1.74,0,0,1,.39.31,1.08,1.08,0,0,1,.22.37,1.39,1.39,0,0,1,.07.45,1.3,1.3,0,0,1-.12.56,1.19,1.19,0,0,1-.34.43,1.6,1.6,0,0,1-.54.28,2.46,2.46,0,0,1-.72.1,3.08,3.08,0,0,1-.77-.1,2.21,2.21,0,0,1-.65-.27l0-1h.53l.14.84a1.39,1.39,0,0,0,.32.11,1.82,1.82,0,0,0,.37,0,1,1,0,0,0,.68-.2.69.69,0,0,0,.24-.56.72.72,0,0,0,0-.26.55.55,0,0,0-.13-.2,1,1,0,0,0-.23-.17l-.32-.16-.28-.12a4.65,4.65,0,0,1-.52-.26,1.69,1.69,0,0,1-.39-.31,1.31,1.31,0,0,1-.24-.39,1.29,1.29,0,0,1-.09-.49,1.22,1.22,0,0,1,.12-.55,1.18,1.18,0,0,1,.33-.41,1.57,1.57,0,0,1,.51-.26,2.25,2.25,0,0,1,.67-.09,2.21,2.21,0,0,1,.67.1,2.06,2.06,0,0,1,.55.26l0,.93h-.52l-.14-.79a1.14,1.14,0,0,0-.52-.12.93.93,0,0,0-.59.19.64.64,0,0,0-.24.53.65.65,0,0,0,.18.48,1.6,1.6,0,0,0,.53.32Z" transform="translate(-49 -19.29)"/><path class="cls-9" d="M164.32,169.17a.74.74,0,0,1-.28.35.8.8,0,0,1-.4.09.75.75,0,0,1-.48-.14.66.66,0,0,1-.23-.38l-.23.23a1.5,1.5,0,0,1-.22.17.93.93,0,0,1-.25.1,1.18,1.18,0,0,1-.3,0,1.09,1.09,0,0,1-.36-.06.86.86,0,0,1-.29-.17.75.75,0,0,1-.19-.28,1,1,0,0,1-.07-.38.94.94,0,0,1,.05-.31.73.73,0,0,1,.19-.28,1.68,1.68,0,0,1,.38-.26,3.92,3.92,0,0,1,.61-.24l.31-.1.35-.1v-.21a2.05,2.05,0,0,0,0-.4.6.6,0,0,0-.1-.25.38.38,0,0,0-.19-.13.94.94,0,0,0-.28,0l-.28,0-.08.4a.62.62,0,0,1-.15.37.39.39,0,0,1-.29.12.35.35,0,0,1-.39-.32,1,1,0,0,1,.44-.67,1.79,1.79,0,0,1,1-.26,1.16,1.16,0,0,1,.88.29,1.39,1.39,0,0,1,.27,1v1.52c0,.21.06.31.19.31a.22.22,0,0,0,.13,0l.09-.08,0,0Zm-1.42-1.43-.27.09-.22.08a1,1,0,0,0-.47.32.67.67,0,0,0-.13.38.62.62,0,0,0,0,.22.45.45,0,0,0,.1.15.47.47,0,0,0,.36.15.52.52,0,0,0,.25-.07l.35-.22Z" transform="translate(-49 -19.29)"/><path class="cls-9" d="M168.36,169.25v.28h-1.71v-.28l.44-.09q0-.26,0-.55v-1.2a1,1,0,0,0-.11-.57.42.42,0,0,0-.37-.16,1.19,1.19,0,0,0-.77.35v1.58q0,.3,0,.56l.41.08v.28h-1.71v-.28l.45-.09q0-.26,0-.56v-1.15c0-.07,0-.14,0-.2s0-.13,0-.19,0-.12,0-.19l-.48-.06v-.26l1.15-.44.11.08,0,.53a1.56,1.56,0,0,1,1.17-.61.85.85,0,0,1,.7.29,1.48,1.48,0,0,1,.24.94v1.27q0,.3,0,.55Z" transform="translate(-49 -19.29)"/><path class="cls-9" d="M170.45,167.51a1.54,1.54,0,0,1,.72.44,1,1,0,0,1-.16,1.39,1.67,1.67,0,0,1-1.07.3,2.23,2.23,0,0,1-.58-.07,2.4,2.4,0,0,1-.53-.22v-.8h.46l.12.64a1.38,1.38,0,0,0,.54.1.89.89,0,0,0,.53-.13.43.43,0,0,0,0-.67,1.43,1.43,0,0,0-.47-.23l-.34-.11a1.41,1.41,0,0,1-.61-.37.86.86,0,0,1-.22-.6,1,1,0,0,1,.09-.41,1,1,0,0,1,.26-.34,1.29,1.29,0,0,1,.41-.23,1.65,1.65,0,0,1,.55-.09,1.9,1.9,0,0,1,.54.07,2.28,2.28,0,0,1,.49.21l0,.73h-.46l-.12-.58-.2-.06-.23,0a.68.68,0,0,0-.43.12.39.39,0,0,0-.15.33.38.38,0,0,0,.13.29,1.45,1.45,0,0,0,.48.23Z" transform="translate(-49 -19.29)"/><path class="cls-9" d="M177,168.2l-.07,1.33h-3.5v-.32l.58-.06q0-.44,0-.87v-2.06q0-.44,0-.87l-.58-.06v-.32h2.11v.32l-.61.07q0,.44,0,.87v2.08q0,.43,0,.86h1.39l.2-1Z" transform="translate(-49 -19.29)"/><path class="cls-9" d="M179.15,169.25v.28h-1.71v-.28l.46-.09q0-.26,0-.56v-.87c0-.19,0-.35,0-.47s0-.26,0-.4l-.49-.06v-.26l1.25-.44.11.08,0,1v1.45c0,.2,0,.39,0,.56Zm-.84-3.77a.53.53,0,0,1-.37-.14.46.46,0,0,1-.15-.35.46.46,0,0,1,.15-.36.53.53,0,0,1,.37-.14.52.52,0,0,1,.37.14.47.47,0,0,1,.15.36.46.46,0,0,1-.15.35A.52.52,0,0,1,178.31,165.48Z" transform="translate(-49 -19.29)"/><path class="cls-9" d="M182.89,166.66h-.66a1.12,1.12,0,0,1,.14.57,1,1,0,0,1-.35.82,1.47,1.47,0,0,1-1,.3,2,2,0,0,1-.57-.08.61.61,0,0,0-.1.34.31.31,0,0,0,.11.26.7.7,0,0,0,.4.08h.72a1.5,1.5,0,0,1,1,.26.87.87,0,0,1,.3.69,1,1,0,0,1-.12.47,1.2,1.2,0,0,1-.36.4,1.83,1.83,0,0,1-.59.27,3.47,3.47,0,0,1-1.5,0,1.5,1.5,0,0,1-.46-.18.7.7,0,0,1-.26-.26.67.67,0,0,1-.08-.32.64.64,0,0,1,.15-.4,1.34,1.34,0,0,1,.48-.34.77.77,0,0,1-.3-.28.68.68,0,0,1-.09-.34.77.77,0,0,1,.11-.41,1.29,1.29,0,0,1,.37-.37,1,1,0,0,1-.55-.95,1,1,0,0,1,.36-.82,1.48,1.48,0,0,1,1-.3,1.46,1.46,0,0,1,1,.3l.77-.3.1.07Zm-2.07,3.05-.27,0-.23-.05a1.08,1.08,0,0,0-.15.25.73.73,0,0,0,0,.27.5.5,0,0,0,.24.47,1.35,1.35,0,0,0,.68.14,1.57,1.57,0,0,0,.83-.18.51.51,0,0,0,.28-.44.43.43,0,0,0-.13-.32.66.66,0,0,0-.47-.13Zm.19-1.66a.5.5,0,0,0,.44-.23,1.09,1.09,0,0,0,.15-.6,1,1,0,0,0-.15-.59.48.48,0,0,0-.42-.22.49.49,0,0,0-.44.22,1,1,0,0,0-.15.6,1.11,1.11,0,0,0,.14.6A.47.47,0,0,0,181,168.05Z" transform="translate(-49 -19.29)"/><path class="cls-9" d="M187,169.25v.28h-1.71v-.28l.44-.09q0-.26,0-.55v-1.2a1.05,1.05,0,0,0-.11-.57.42.42,0,0,0-.37-.16,1.22,1.22,0,0,0-.8.39v1.53q0,.3,0,.56l.41.08v.28h-1.71v-.28l.46-.09q0-.26,0-.56v-3.41l-.5-.07v-.27l1.24-.31.1.06,0,1v1.15a1.9,1.9,0,0,1,.57-.46,1.35,1.35,0,0,1,.61-.15.86.86,0,0,1,.7.29,1.46,1.46,0,0,1,.25.94v1.27c0,.2,0,.38,0,.55Z" transform="translate(-49 -19.29)"/><path class="cls-9" d="M189.51,169.16a.94.94,0,0,1-.36.34,1.18,1.18,0,0,1-.55.12,1,1,0,0,1-.65-.21.84.84,0,0,1-.23-.66c0-.11,0-.21,0-.3s0-.21,0-.34v-1.45h-.51v-.36l.56-.07.26-1h.56l0,1h.83v.42h-.84v2a.57.57,0,0,0,.1.37.33.33,0,0,0,.27.12.49.49,0,0,0,.2,0l.22-.13Z" transform="translate(-49 -19.29)"/><line class="cls-5" x1="86.87" y1="84.39" x2="86.92" y2="151.18"/><path class="cls-9" d="M148.73,100.32a5,5,0,0,1-1.92,4.13,7.94,7.94,0,0,1-5.09,1.52,16,16,0,0,1-5.85-.84v-1.45a14.8,14.8,0,0,0,5.74,1,6.43,6.43,0,0,0,4.06-1.17,3.73,3.73,0,0,0,1.5-3.08,3.56,3.56,0,0,0-.5-2A4.56,4.56,0,0,0,145.05,97a20,20,0,0,0-3.3-1.38,11.31,11.31,0,0,1-4.41-2.37,5.08,5.08,0,0,1,.61-7.2,7.26,7.26,0,0,1,4.71-1.47,13.77,13.77,0,0,1,5.51,1.11l-.53,1.25a12.87,12.87,0,0,0-5-1.08A5.81,5.81,0,0,0,139,86.93a3.49,3.49,0,0,0-1.37,2.9,3.8,3.8,0,0,0,.42,1.89,3.86,3.86,0,0,0,1.37,1.33,18.75,18.75,0,0,0,3.27,1.42,17.68,17.68,0,0,1,3.66,1.63,5.23,5.23,0,0,1,1.79,1.79A4.9,4.9,0,0,1,148.73,100.32Z" transform="translate(-49 -19.29)"/><path class="cls-9" d="M169.71,105.69h-1.2l-4.57-16.06q-.57-2-.85-3.25-.23,1.24-.65,2.85t-4.59,16.46h-1.22l-5.72-20.82h1.52l3.64,13.41.4,1.5q.18.69.33,1.3c.1.4.19.79.27,1.17s.15.75.22,1.13q.34-1.94,1.45-5.88l3.56-12.63h1.61l4.17,14.49q.73,2.51,1,4,.19-1,.48-2.18T174,84.88h1.47Z" transform="translate(-49 -19.29)"/><path class="cls-9" d="M190.52,105.69H179.14V84.88h11.38v1.34h-9.92v7.87H190v1.34h-9.37v8.93h9.92Z" transform="translate(-49 -19.29)"/><path class="cls-9" d="M206.61,105.69H195.23V84.88h11.38v1.34h-9.92v7.87h9.37v1.34h-9.37v8.93h9.92Z" transform="translate(-49 -19.29)"/><path class="cls-9" d="M216.74,105.69h-1.47V86.24h-6.76V84.88h15v1.37h-6.76Z" transform="translate(-49 -19.29)"/><path class="cls-9" d="M243.18,105.69H242l-4.57-16.06q-.57-2-.85-3.25-.23,1.24-.65,2.85t-4.59,16.46H230.1l-5.72-20.82h1.52l3.64,13.41.4,1.5q.18.69.33,1.3c.1.4.19.79.27,1.17s.15.75.22,1.13q.34-1.94,1.45-5.88l3.56-12.63h1.61l4.17,14.49q.73,2.51,1,4,.19-1,.48-2.18t4.39-16.36h1.47Z" transform="translate(-49 -19.29)"/><path class="cls-9" d="M262.63,98.35h-8.46l-2.9,7.35h-1.61L258,84.79H259l8.2,20.9h-1.64ZM254.7,97h7.45l-2.83-7.5q-.36-.88-.85-2.45a22.7,22.7,0,0,1-.84,2.48Z" transform="translate(-49 -19.29)"/><path class="cls-9" d="M274.89,96.27,281,84.88h1.57l-6.93,12.77v8h-1.49V97.76l-7-12.88h1.67Z" transform="translate(-49 -19.29)"/></svg>