<svg id="Layer_1" data-name="Layer 1" xmlns="http://www.w3.org/2000/svg" viewBox="0 0 352.21 66.16"><title>pangram</title><path d="M18.61,32.36H17.1v-20h-7V10.94H25.57v1.41h-7Z" transform="translate(-8.48 -9.4)"/><path d="M39.49,32.36V22a5,5,0,0,0-1-3.49,4.08,4.08,0,0,0-3.13-1.09,5.42,5.42,0,0,0-4.18,1.44q-1.33,1.44-1.33,4.68v8.79H28.38V9.56h1.45v7.25l-.07,2h.1a5.34,5.34,0,0,1,2.26-2.08,7.89,7.89,0,0,1,3.38-.64q5.42,0,5.42,5.82V32.36Z" transform="translate(-8.48 -9.4)"/><path d="M52.51,32.65a6.94,6.94,0,0,1-5.41-2.14,8.59,8.59,0,0,1-1.94-6A9.34,9.34,0,0,1,47,18.42a6.19,6.19,0,0,1,5.05-2.29,5.46,5.46,0,0,1,4.44,2,8.11,8.11,0,0,1,1.63,5.33v1.17H46.68a7.53,7.53,0,0,0,1.53,5,5.39,5.39,0,0,0,4.3,1.73,13.32,13.32,0,0,0,2.39-.19,14.53,14.53,0,0,0,2.62-.82v1.32a11.66,11.66,0,0,1-2.49.8A13.82,13.82,0,0,1,52.51,32.65Zm-.42-15.23a4.77,4.77,0,0,0-3.69,1.52,7.15,7.15,0,0,0-1.63,4.37h9.84A6.94,6.94,0,0,0,55.41,19,4,4,0,0,0,52.08,17.41Z" transform="translate(-8.48 -9.4)"/><path d="M75.95,32.65a5.86,5.86,0,0,1-4.85-2.18,9.53,9.53,0,0,1-1.74-6.09,9.65,9.65,0,0,1,1.76-6.15,6.46,6.46,0,0,1,10,.28h.13l.35-2.2h1.92V39.56H81V32.69a16.36,16.36,0,0,1,.16-2.49H81A5.74,5.74,0,0,1,75.95,32.65Zm.37-2a4.42,4.42,0,0,0,3.54-1.3A7.06,7.06,0,0,0,81,24.91v-.54Q81,21,79.9,19.52A4.28,4.28,0,0,0,76.28,18,3.72,3.72,0,0,0,73,19.71a8.28,8.28,0,0,0-1.13,4.69A8,8,0,0,0,73,29,3.8,3.8,0,0,0,76.31,30.61Z" transform="translate(-8.48 -9.4)"/><path d="M90.92,16.3V26.72a4.19,4.19,0,0,0,.89,2.93,3.64,3.64,0,0,0,2.8,1,4.56,4.56,0,0,0,3.68-1.38,6.94,6.94,0,0,0,1.17-4.5V16.3h2.43V32.36h-2l-.35-2.15H99.4A4.84,4.84,0,0,1,97.33,32a7,7,0,0,1-3,.63,6.14,6.14,0,0,1-4.39-1.39,5.93,5.93,0,0,1-1.46-4.45V16.3Z" transform="translate(-8.48 -9.4)"/><path d="M106.84,12a1.62,1.62,0,0,1,.41-1.22,1.52,1.52,0,0,1,2,0,1.59,1.59,0,0,1,.42,1.22,1.61,1.61,0,0,1-.42,1.22,1.49,1.49,0,0,1-2,0A1.65,1.65,0,0,1,106.84,12Zm2.64,20.41H107V16.3h2.43Z" transform="translate(-8.48 -9.4)"/><path d="M121,32.65a6.85,6.85,0,0,1-5.4-2.15,8.82,8.82,0,0,1-1.91-6.07,9.1,9.1,0,0,1,1.94-6.23,7,7,0,0,1,5.53-2.2,11,11,0,0,1,2.31.25,7.62,7.62,0,0,1,1.82.59l-.75,2.07a11.43,11.43,0,0,0-1.76-.53,7.85,7.85,0,0,0-1.68-.21q-4.89,0-4.89,6.24a7.44,7.44,0,0,0,1.19,4.54A4.16,4.16,0,0,0,121,30.52a10.82,10.82,0,0,0,4.12-.86v2.15A8.77,8.77,0,0,1,121,32.65Z" transform="translate(-8.48 -9.4)"/><path d="M131.32,24.14a28.6,28.6,0,0,1,1.92-2.34l5.19-5.49h2.89l-6.5,6.84,7,9.21h-2.94l-5.67-7.59-1.83,1.58v6h-2.4V9.56h2.4V21.65q0,.81-.12,2.49Z" transform="translate(-8.48 -9.4)"/><path d="M160.62,15.86a5.63,5.63,0,0,1,4.72,2.2A9.91,9.91,0,0,1,167,24.23a9.94,9.94,0,0,1-1.71,6.2,6.24,6.24,0,0,1-9.54,0h-.23l-.63,1.92h-2.58V9.56h3.44V15q0,.6-.06,1.79t-.09,1.51h.15A5.47,5.47,0,0,1,160.62,15.86Zm-.89,2.81a3.5,3.5,0,0,0-3,1.22,7.11,7.11,0,0,0-.95,4.09v.23a7.58,7.58,0,0,0,.94,4.28,3.49,3.49,0,0,0,3.06,1.33,3.11,3.11,0,0,0,2.78-1.45,7.7,7.7,0,0,0,.94-4.19Q163.5,18.67,159.72,18.67Z" transform="translate(-8.48 -9.4)"/><path d="M179.25,15.86A8.29,8.29,0,0,1,181,16l-.34,3.21A6.51,6.51,0,0,0,179.1,19a4.41,4.41,0,0,0-3.35,1.35,4.88,4.88,0,0,0-1.28,3.5v8.47H171V16.15h2.7l.45,2.86h.18a6.43,6.43,0,0,1,2.1-2.3A5,5,0,0,1,179.25,15.86Z" transform="translate(-8.48 -9.4)"/><path d="M198.33,24.23a8.84,8.84,0,0,1-2,6.2,7.3,7.3,0,0,1-5.67,2.23,7.77,7.77,0,0,1-4-1,6.77,6.77,0,0,1-2.68-2.94,10,10,0,0,1-.94-4.45,8.78,8.78,0,0,1,2-6.15,7.33,7.33,0,0,1,5.7-2.21,7.14,7.14,0,0,1,5.57,2.26A8.74,8.74,0,0,1,198.33,24.23Zm-11.79,0q0,5.61,4.15,5.61t4.1-5.61q0-5.55-4.13-5.55a3.52,3.52,0,0,0-3.14,1.44A7.3,7.3,0,0,0,186.54,24.23Z" transform="translate(-8.48 -9.4)"/><path d="M215.58,32.36l-2.09-7.56q-.38-1.2-1.38-5.58H212q-.85,4-1.35,5.61l-2.15,7.53h-3.81l-4.54-16.2h3.52l2.07,8q.7,3,1,5.07h.09q.15-1.07.45-2.45t.52-2.07l2.46-8.53H214l2.39,8.53q.22.72.55,2.2a16.77,16.77,0,0,1,.39,2.3h.12a45,45,0,0,1,1-5l2.09-8H224l-4.57,16.2Z" transform="translate(-8.48 -9.4)"/><path d="M241,32.36h-3.46v-10a4.36,4.36,0,0,0-.75-2.8,2.92,2.92,0,0,0-2.39-.92A3.81,3.81,0,0,0,231.25,20a7.12,7.12,0,0,0-1,4.32v8.07H226.8V16.15h2.7l.48,2.12h.18a4.79,4.79,0,0,1,2.08-1.79,7,7,0,0,1,3-.63q5.83,0,5.83,5.93Z" transform="translate(-8.48 -9.4)"/><path d="M262.57,19.33H258.7v13h-4.47v-13h-2.46V17.18l2.46-1.2v-1.2a5.37,5.37,0,0,1,1.38-4.09A6.31,6.31,0,0,1,260,9.4a11.48,11.48,0,0,1,4.12.69L263,13.37a8.33,8.33,0,0,0-2.49-.42,1.61,1.61,0,0,0-1.38.56A2.33,2.33,0,0,0,258.7,15v1h3.87Z" transform="translate(-8.48 -9.4)"/><path d="M280,24.14a8.8,8.8,0,0,1-2.11,6.25A7.65,7.65,0,0,1,272,32.65a8.22,8.22,0,0,1-4.16-1,6.87,6.87,0,0,1-2.77-3,10,10,0,0,1-1-4.51,8.75,8.75,0,0,1,2.09-6.24,7.69,7.69,0,0,1,5.89-2.23,8.26,8.26,0,0,1,4.16,1A6.84,6.84,0,0,1,279,19.64,9.88,9.88,0,0,1,280,24.14Zm-11.32,0a6.87,6.87,0,0,0,.8,3.68,2.86,2.86,0,0,0,2.6,1.25,2.81,2.81,0,0,0,2.57-1.24,7,7,0,0,0,.78-3.68,6.76,6.76,0,0,0-.79-3.65,3.36,3.36,0,0,0-5.17,0A6.76,6.76,0,0,0,268.69,24.14Z" transform="translate(-8.48 -9.4)"/><path d="M287.06,24l-5.27-8h5.07L290,21.19,293.24,16h5.07L293,24l5.58,8.36h-5.08L290,26.75l-3.46,5.61h-5.07Z" transform="translate(-8.48 -9.4)"/><path d="M11.55,75.56a13.79,13.79,0,0,1-1.62-.11,10.74,10.74,0,0,1-1.46-.26V70.73a6.51,6.51,0,0,0,1.76.26Q12,71,12,68.5V51.76h5.73V69.7A5.72,5.72,0,0,1,16.1,74,6.26,6.26,0,0,1,11.55,75.56Zm.28-27.93a2.42,2.42,0,0,1,.72-1.92,3.47,3.47,0,0,1,2.31-.63,3.47,3.47,0,0,1,2.33.64,2.4,2.4,0,0,1,.73,1.9q0,2.52-3.06,2.52T11.83,47.63Z" transform="translate(-8.48 -9.4)"/><path d="M33.53,68.36l-.72-2.07h-.34a4.66,4.66,0,0,1-2,1.75,7,7,0,0,1-3,.61,5.63,5.63,0,0,1-4.26-1.59,6.23,6.23,0,0,1-1.52-4.49V51.76H27.4v9.07a5.22,5.22,0,0,0,.46,2.46,1.6,1.6,0,0,0,1.52.83A2.21,2.21,0,0,0,31.49,63,8.86,8.86,0,0,0,32.12,59V51.76h5.73v16.6Z" transform="translate(-8.48 -9.4)"/><path d="M62.18,68.36v-9a5.43,5.43,0,0,0-.46-2.53A1.55,1.55,0,0,0,60.26,56a2.05,2.05,0,0,0-1.93,1.13,7.69,7.69,0,0,0-.62,3.53v7.73H52v-9a5.65,5.65,0,0,0-.44-2.53A1.49,1.49,0,0,0,50.11,56a2.06,2.06,0,0,0-2,1.2,9.18,9.18,0,0,0-.62,3.93v7.27H41.8V51.76h4.32l.72,2.05h.34a4.28,4.28,0,0,1,1.91-1.74,6.5,6.5,0,0,1,2.85-.6q3.59,0,5,2.18h.45a4.7,4.7,0,0,1,2-1.6,6.51,6.51,0,0,1,2.76-.58A5.68,5.68,0,0,1,66.5,53a6.52,6.52,0,0,1,1.41,4.58v10.8Z" transform="translate(-8.48 -9.4)"/><path d="M81.76,68.65a5.17,5.17,0,0,1-4.23-1.92h-.26a21.07,21.07,0,0,1,.26,2.17v6.67H71.8V51.76h4.66l.81,2.11h.26a5,5,0,0,1,4.41-2.4,5,5,0,0,1,4.32,2.29A11,11,0,0,1,87.83,60a10.76,10.76,0,0,1-1.63,6.32A5.15,5.15,0,0,1,81.76,68.65ZM79.84,56a1.85,1.85,0,0,0-1.77.9,5.92,5.92,0,0,0-.55,2.67V60a6.28,6.28,0,0,0,.57,3.09,2,2,0,0,0,1.8,1,1.68,1.68,0,0,0,1.6-.94A7.16,7.16,0,0,0,82,60a6.92,6.92,0,0,0-.5-3.07A1.73,1.73,0,0,0,79.84,56Z" transform="translate(-8.48 -9.4)"/><path d="M103.91,63.26a4.72,4.72,0,0,1-1.82,4,8.57,8.57,0,0,1-5.21,1.36,22.65,22.65,0,0,1-3.21-.2,13.63,13.63,0,0,1-2.78-.73V63.14a17.26,17.26,0,0,0,2.92,1,12.33,12.33,0,0,0,2.83.38q1.86,0,1.86-.85a1,1,0,0,0-.52-.78,23.83,23.83,0,0,0-3-1.34,7.54,7.54,0,0,1-3.19-2.13,4.85,4.85,0,0,1-.91-3,4.19,4.19,0,0,1,1.79-3.6,8.53,8.53,0,0,1,5.05-1.29,12.73,12.73,0,0,1,3.08.36,18.31,18.31,0,0,1,3,1l-1.55,3.69a17.45,17.45,0,0,0-2.42-.87,8,8,0,0,0-2.08-.36q-1.41,0-1.41.69a.86.86,0,0,0,.49.73A26.29,26.29,0,0,0,99.65,58a10.87,10.87,0,0,1,2.6,1.41A4.19,4.19,0,0,1,103.51,61,5.67,5.67,0,0,1,103.91,63.26Z" transform="translate(-8.48 -9.4)"/><path d="M130.13,60.14A8.8,8.8,0,0,1,128,66.39a7.65,7.65,0,0,1-5.87,2.26,8.22,8.22,0,0,1-4.16-1,6.87,6.87,0,0,1-2.77-3,10,10,0,0,1-1-4.51,8.75,8.75,0,0,1,2.09-6.24,7.69,7.69,0,0,1,5.89-2.23,8.26,8.26,0,0,1,4.16,1,6.84,6.84,0,0,1,2.77,2.94A9.88,9.88,0,0,1,130.13,60.14Zm-11.32,0a6.86,6.86,0,0,0,.8,3.68,2.85,2.85,0,0,0,2.6,1.25,2.81,2.81,0,0,0,2.57-1.24,7,7,0,0,0,.78-3.68,6.76,6.76,0,0,0-.79-3.65,3.36,3.36,0,0,0-5.17,0A6.76,6.76,0,0,0,118.81,60.14Z" transform="translate(-8.48 -9.4)"/><path d="M137.72,68.36,131.48,52h4.67l3.16,9.33a16.65,16.65,0,0,1,.66,3.35h.09a14.59,14.59,0,0,1,.66-3.35L143.87,52h4.67L142.3,68.36Z" transform="translate(-8.48 -9.4)"/><path d="M158.3,68.65a8.45,8.45,0,0,1-6.18-2.18,8.26,8.26,0,0,1-2.23-6.18A9.08,9.08,0,0,1,152,53.92a7.33,7.33,0,0,1,5.69-2.25,7.21,7.21,0,0,1,5.41,2A7.48,7.48,0,0,1,165,59.11v2.17H154.42a4.3,4.3,0,0,0,1.13,3,4,4,0,0,0,3,1.07,12.28,12.28,0,0,0,2.8-.31,14,14,0,0,0,2.75-1v3.46a10.49,10.49,0,0,1-2.5.87A15.79,15.79,0,0,1,158.3,68.65Zm-.63-13.8a2.83,2.83,0,0,0-2.23.9,4.17,4.17,0,0,0-.92,2.56h6.27a3.72,3.72,0,0,0-.86-2.56A2.93,2.93,0,0,0,157.67,54.85Z" transform="translate(-8.48 -9.4)"/><path d="M177.75,51.67a7.21,7.21,0,0,1,1.51.13L178.93,56a5.12,5.12,0,0,0-1.32-.15,4.73,4.73,0,0,0-3.33,1.1A4,4,0,0,0,173.08,60v8.33h-4.47V52H172l.66,2.75h.22a6.16,6.16,0,0,1,2.06-2.22A5.08,5.08,0,0,1,177.75,51.67Z" transform="translate(-8.48 -9.4)"/><path d="M196.18,65.87a8.37,8.37,0,0,0,2.52-.4v2.59a6.94,6.94,0,0,1-1.47.42,10.13,10.13,0,0,1-1.87.17q-4.89,0-4.89-5.16V54.76h-2.21V53.24L190.63,52l1.17-3.43h2.12v3.6h4.61v2.61h-4.61v8.67a2.43,2.43,0,0,0,.62,1.84A2.27,2.27,0,0,0,196.18,65.87Z" transform="translate(-8.48 -9.4)"/><path d="M216.19,68.36h-3.46v-10a4.36,4.36,0,0,0-.75-2.8,2.92,2.92,0,0,0-2.39-.92A3.8,3.8,0,0,0,206.4,56a7.14,7.14,0,0,0-1,4.34v8h-3.44V45.56h3.44v5.79a27,27,0,0,1-.18,3h.22a4.78,4.78,0,0,1,2-1.82,6.31,6.31,0,0,1,2.92-.64q5.89,0,5.89,5.93Z" transform="translate(-8.48 -9.4)"/><path d="M228.06,68.65a7.84,7.84,0,0,1-5.91-2.2A8.37,8.37,0,0,1,220,60.37a9.18,9.18,0,0,1,2-6.24,6.83,6.83,0,0,1,5.43-2.27,6.68,6.68,0,0,1,5.07,1.95,7.44,7.44,0,0,1,1.86,5.36V61h-10.8a5.32,5.32,0,0,0,1.27,3.63,4.44,4.44,0,0,0,3.38,1.27,12.5,12.5,0,0,0,2.67-.27,14,14,0,0,0,2.66-.9v2.8a10.57,10.57,0,0,1-2.55.85A15.63,15.63,0,0,1,228.06,68.65Zm-.63-14.18a3.46,3.46,0,0,0-2.63,1,5,5,0,0,0-1.18,3H231a4.48,4.48,0,0,0-1-3A3.31,3.31,0,0,0,227.43,54.47Z" transform="translate(-8.48 -9.4)"/><path d="M248.61,68.36h-2.43V45.56h2.43Z" transform="translate(-8.48 -9.4)"/><path d="M263.64,68.36l-.48-2.29H263a6.76,6.76,0,0,1-2.4,2,7.3,7.3,0,0,1-3,.53,5.36,5.36,0,0,1-3.74-1.23,4.48,4.48,0,0,1-1.36-3.5q0-4.86,7.78-5.1l2.72-.09v-1a4.07,4.07,0,0,0-.81-2.79,3.34,3.34,0,0,0-2.6-.9,10.59,10.59,0,0,0-4.54,1.23l-.75-1.86a11.41,11.41,0,0,1,2.6-1A11.25,11.25,0,0,1,259.8,52a6.12,6.12,0,0,1,4.26,1.27,5.32,5.32,0,0,1,1.38,4.09v11Zm-5.49-1.71a4.94,4.94,0,0,0,3.57-1.25,4.61,4.61,0,0,0,1.3-3.49V60.46l-2.43.1a8.85,8.85,0,0,0-4.18.9,2.72,2.72,0,0,0-1.28,2.48,2.5,2.5,0,0,0,.8,2A3.31,3.31,0,0,0,258.14,66.64Z" transform="translate(-8.48 -9.4)"/><path d="M280.72,68.36H269.07V66.7l8.76-12.51h-8.22V52.3H280.5v1.89l-8.64,12.28h8.86Z" transform="translate(-8.48 -9.4)"/><path d="M281.93,52.3h2.61l3.52,9.16A34.82,34.82,0,0,1,289.49,66h.12q.19-.75.8-2.56t4-11.13H297l-6.9,18.28a9.12,9.12,0,0,1-2.4,3.85,5.09,5.09,0,0,1-3.36,1.14,9.78,9.78,0,0,1-2.2-.25V73.37a8.48,8.48,0,0,0,1.8.18q2.5,0,3.57-2.81l.89-2.29Z" transform="translate(-8.48 -9.4)"/><path d="M313.31,52.13a6.61,6.61,0,0,1,3,.63,6,6,0,0,1,2.26,2.15h.09q-.09-1.85-.09-3.62V45.56H320V68.36h-1l-.37-2.43h-.12a5.89,5.89,0,0,1-5.21,2.72,6.25,6.25,0,0,1-5-2.05,9,9,0,0,1-1.74-6,10,10,0,0,1,1.73-6.31A6,6,0,0,1,313.31,52.13Zm0,1.32a4.5,4.5,0,0,0-3.92,1.83,9.07,9.07,0,0,0-1.31,5.32q0,6.77,5.26,6.77a4.77,4.77,0,0,0,4-1.57q1.26-1.57,1.26-5.17v-.25q0-3.69-1.24-5.31A4.72,4.72,0,0,0,313.31,53.44Z" transform="translate(-8.48 -9.4)"/><path d="M338.51,60.37a9,9,0,0,1-1.89,6.09,6.52,6.52,0,0,1-5.21,2.19,6.75,6.75,0,0,1-3.69-1,6.47,6.47,0,0,1-2.45-2.9,10.55,10.55,0,0,1-.85-4.37,9,9,0,0,1,1.89-6.07,6.51,6.51,0,0,1,5.19-2.18,6.39,6.39,0,0,1,5.15,2.2A9,9,0,0,1,338.51,60.37Zm-12.57,0a8.1,8.1,0,0,0,1.44,5.12,5.45,5.45,0,0,0,8.16,0A8.11,8.11,0,0,0,337,60.37a8,8,0,0,0-1.46-5.11,5,5,0,0,0-4.09-1.82,4.88,4.88,0,0,0-4.06,1.81A8.08,8.08,0,0,0,325.94,60.37Z" transform="translate(-8.48 -9.4)"/><path d="M355.34,52.43v1l-3.3.21a5.62,5.62,0,0,1,1.32,3.6A4.87,4.87,0,0,1,351.83,61a5.78,5.78,0,0,1-4.11,1.43,8.93,8.93,0,0,1-1.52-.09,3.79,3.79,0,0,0-1.32,1.07,2.16,2.16,0,0,0-.45,1.3,1.21,1.21,0,0,0,.58,1.11,3.94,3.94,0,0,0,1.94.35h2.78a6.46,6.46,0,0,1,4,1,3.65,3.65,0,0,1,1.38,3.1,4.41,4.41,0,0,1-2,3.89,10.43,10.43,0,0,1-5.82,1.37,8,8,0,0,1-4.65-1.16,3.72,3.72,0,0,1-1.65-3.22,3.82,3.82,0,0,1,1-2.72A5.27,5.27,0,0,1,344.69,67a2.8,2.8,0,0,1-1.15-.87,2.07,2.07,0,0,1-.43-1.3q0-1.6,2-2.81A4.54,4.54,0,0,1,343,60.2a5.12,5.12,0,0,1-.78-2.81,5,5,0,0,1,1.52-3.83,5.69,5.69,0,0,1,4.09-1.44,7.55,7.55,0,0,1,2.43.31ZM342.45,71.05q0,3.28,4.88,3.28,6.27,0,6.27-4a2.3,2.3,0,0,0-1-2.08,6,6,0,0,0-3.18-.64h-2.61Q342.45,67.61,342.45,71.05Zm1.22-13.65a3.68,3.68,0,0,0,1.12,2.86,5,5,0,0,0,6.05,0,3.86,3.86,0,0,0,1.06-2.93,4,4,0,0,0-1.09-3.05,4.31,4.31,0,0,0-3.05-1,4,4,0,0,0-3,1.09A4.11,4.11,0,0,0,343.66,57.4Z" transform="translate(-8.48 -9.4)"/><path d="M358.31,67.21q0-1.44,1.17-1.44t1.2,1.44q0,1.44-1.2,1.44T358.31,67.21Z" transform="translate(-8.48 -9.4)"/></svg>